<svg width="657" height="44" fill="none" xmlns="http://www.w3.org/2000/svg"><path d="M348 33.19l6.643-5.088c3.53 4.606 7.279 6.73 11.453 6.73 4.152 0 7.796-2.099 11.166-6.67L384 33.13c-4.863 6.59-10.906 10.072-17.904 10.072-6.975 0-13.077-3.46-18.096-10.01z" fill="url(#paint0_linear)"/><path d="M366.074 11.07L354.25 21.26l-5.466-6.339L366.099 0l17.178 14.932-5.491 6.317-11.712-10.178z" fill="url(#paint1_linear)"/><path d="M84 1c-11.597 0-21 9.4-21 20.995 0 9.278 6.016 17.146 14.362 19.922 1.05.192 1.433-.456 1.433-1.01 0-.5-.02-2.155-.03-3.908-5.84 1.268-7.073-2.476-7.073-2.476-.957-2.425-2.332-3.07-2.332-3.07-1.909-1.303.145-1.277.145-1.277 2.108.146 3.218 2.163 3.218 2.163 1.874 3.209 4.917 2.281 6.112 1.743.19-1.353.734-2.281 1.333-2.804-4.662-.53-9.566-2.332-9.566-10.377 0-2.294.819-4.165 2.16-5.635-.214-.533-.937-2.669.207-5.559 0 0 1.762-.563 5.776 2.153 1.674-.467 3.47-.698 5.255-.706 1.784.008 3.581.241 5.258.709 4.006-2.72 5.77-2.153 5.77-2.153 1.148 2.892.426 5.026.21 5.556 1.346 1.47 2.159 3.341 2.159 5.635 0 8.065-4.912 9.841-9.59 10.362.756.65 1.425 1.927 1.425 3.885 0 2.806-.028 5.07-.028 5.761 0 .56.382 1.213 1.446 1.008C98.989 39.136 105 31.267 105 21.995 105 10.401 95.597 1 84 1z" fill="#000"/><path d="M163.208 3.002h-28.457c-2.612 0-4.745 2.078-4.745 4.62v5.96l.01-.007 6.468 3.663c.49.276 1.098.273 1.587 0 .411-.225 12.68-7.105 12.864-7.207a1.238 1.238 0 011.183-.014c.259.15.958.536 1.328.74.366.205.35.773.021.959L138.11 20.33c-.546.307-1.09.314-1.657.003-.951-.525-4.872-2.751-6.45-3.647v3.127l.012-.006 6.468 3.66a1.626 1.626 0 001.587 0c.41-.225 12.68-7.105 12.864-7.207a1.24 1.24 0 011.182-.015c.26.15.959.537 1.329.742.366.204.349.772.021.959l-15.357 8.615c-.547.307-1.09.315-1.658.003-.951-.524-4.871-2.75-6.45-3.645v3.127l.012-.008s6.083 3.446 6.468 3.662c.49.276 1.098.273 1.587 0 .411-.225 12.681-7.105 12.864-7.207a1.238 1.238 0 011.183-.015c.259.15.958.537 1.328.74.366.204.35.772.021.96l-15.357 8.614c-.546.307-1.09.315-1.657.003-.951-.524-4.872-2.749-6.45-3.645v6.212c0 2.544 2.135 4.625 4.743 4.625h28.46c2.609 0 4.745-2.082 4.745-4.625V7.623c0-2.542-2.135-4.623-4.745-4.623l.005.002z" fill="#E44332"/><path d="M213.531 13.898v24.787H193l20.531-24.788zM213.531 5A10.266 10.266 0 11193 5h20.531zM216.914 38.685a10.267 10.267 0 0120.532 0h-20.532zM216.914 29.788V5h20.534l-20.534 24.788z" fill="#03363D"/><path d="M287.852 5.555c1.926-2.005 4.607-3.249 7.572-3.249 3.943 0 7.382 2.197 9.214 5.458a12.736 12.736 0 015.207-1.106c7.11 0 12.874 5.81 12.874 12.977 0 7.167-5.764 12.978-12.874 12.978-.852 0-1.702-.084-2.536-.253a9.41 9.41 0 01-12.332 3.87c-1.635 3.844-5.445 6.538-9.884 6.538-4.624 0-8.564-2.923-10.077-7.023a9.861 9.861 0 01-2.048.213c-5.505 0-9.968-4.505-9.968-10.063 0-3.725 2.005-6.978 4.984-8.718a11.518 11.518 0 01-.954-4.603C267.03 6.182 272.223 1 278.629 1a11.59 11.59 0 019.223 4.555z" fill="#00A1E0"/><path d="M271.65 22.66c-.037.098.014.119.025.136.113.081.227.14.342.205.609.323 1.184.418 1.785.418 1.225 0 1.986-.652 1.986-1.7v-.02c0-.97-.859-1.321-1.664-1.575l-.105-.034c-.607-.197-1.131-.367-1.131-.767v-.021c0-.342.306-.593.781-.593a3.54 3.54 0 011.557.397s.118.077.161-.038a76.7 76.7 0 00.249-.67c.023-.064-.017-.112-.059-.137a3.476 3.476 0 00-1.755-.471h-.123c-1.121 0-1.903.677-1.903 1.647v.02c0 1.023.863 1.354 1.672 1.586l.13.04c.59.18 1.098.336 1.098.751v.02c0 .38-.33.662-.863.662-.207 0-.866-.004-1.578-.454-.086-.05-.136-.087-.202-.127-.035-.022-.123-.06-.161.056l-.242.67zm17.934 0c-.038.098.013.119.025.136.112.081.226.14.341.205.609.323 1.184.418 1.786.418 1.225 0 1.985-.652 1.985-1.7v-.02c0-.97-.858-1.321-1.664-1.575l-.104-.034c-.608-.197-1.132-.367-1.132-.767v-.021c0-.342.306-.593.781-.593.528 0 1.154.175 1.557.397 0 0 .118.077.162-.038.023-.061.228-.61.249-.67.023-.064-.018-.112-.06-.137a3.473 3.473 0 00-1.755-.471h-.122c-1.121 0-1.904.677-1.904 1.647v.02c0 1.023.863 1.354 1.672 1.586l.131.04c.589.18 1.098.336 1.098.751v.02c0 .38-.331.662-.864.662a2.9 2.9 0 01-1.578-.454c-.086-.05-.137-.085-.201-.127-.022-.014-.126-.054-.162.056l-.241.67zm12.242-2.053c0 .593-.11 1.06-.328 1.39-.215.326-.541.485-.995.485-.455 0-.78-.158-.991-.486-.215-.329-.324-.796-.324-1.389 0-.591.109-1.057.324-1.383.211-.323.536-.48.991-.48.454 0 .78.157.996.48.217.326.327.792.327 1.383zm1.023-1.098a2.474 2.474 0 00-.465-.887 2.258 2.258 0 00-.786-.597 2.583 2.583 0 00-1.095-.22c-.416 0-.785.075-1.097.22a2.26 2.26 0 00-.786.597 2.49 2.49 0 00-.465.887c-.1.337-.15.706-.15 1.098 0 .392.05.762.15 1.099.101.338.257.637.466.887.208.25.473.45.785.592a2.64 2.64 0 001.097.214c.414 0 .782-.072 1.095-.214.313-.142.577-.342.786-.592.208-.249.364-.548.465-.887.1-.338.151-.708.151-1.099 0-.39-.051-.76-.151-1.098zm8.397 2.814c-.034-.099-.13-.062-.13-.062-.149.057-.307.11-.476.137-.171.026-.359.04-.561.04-.495 0-.888-.148-1.169-.438-.283-.291-.441-.761-.439-1.397.002-.579.141-1.014.392-1.346.249-.33.629-.499 1.135-.499.422 0 .743.049 1.08.155 0 0 .081.035.119-.07.09-.249.156-.426.251-.7.027-.077-.039-.11-.063-.12a3.952 3.952 0 00-.682-.17 5.121 5.121 0 00-.767-.053c-.43 0-.813.073-1.14.22a2.363 2.363 0 00-.824.596c-.219.25-.386.549-.497.887a3.52 3.52 0 00-.167 1.1c0 .848.229 1.533.681 2.034.452.503 1.132.76 2.018.76.524 0 1.062-.107 1.448-.26 0 0 .074-.035.042-.12l-.251-.694zm1.789-2.283c.048-.33.139-.603.28-.816.212-.324.535-.502.989-.502.455 0 .755.179.97.502.143.213.205.499.23.816h-2.469zm3.443-.724a2.154 2.154 0 00-.443-.809c-.223-.24-.441-.407-.657-.5-.283-.121-.621-.201-.992-.201-.432 0-.824.072-1.143.222a2.27 2.27 0 00-.797.608c-.21.253-.368.555-.468.897-.102.341-.153.712-.153 1.104 0 .399.053.77.158 1.104.105.337.274.634.502.88.227.247.519.44.87.576.348.134.771.204 1.256.203 1-.003 1.526-.226 1.743-.346.039-.021.075-.059.029-.166l-.226-.633c-.034-.094-.13-.06-.13-.06-.248.092-.6.257-1.421.255-.537 0-.935-.159-1.184-.406-.256-.253-.381-.626-.403-1.15l3.461.003s.091-.002.101-.09c.003-.038.119-.711-.103-1.49zm-31.165.724c.05-.33.14-.603.28-.816.212-.324.535-.502.99-.502.454 0 .754.179.97.502.142.213.204.499.229.816h-2.469zm3.442-.724a2.14 2.14 0 00-.442-.809c-.223-.24-.441-.407-.657-.5-.282-.121-.621-.201-.992-.201-.431 0-.824.072-1.142.222a2.27 2.27 0 00-.797.608c-.21.253-.369.555-.469.897-.1.341-.152.712-.152 1.104 0 .399.052.77.157 1.104.106.337.274.634.502.88.227.247.52.44.87.576.348.134.771.204 1.257.203.999-.003 1.526-.226 1.743-.346.038-.021.075-.059.029-.166l-.226-.633c-.034-.094-.131-.06-.131-.06-.247.092-.598.257-1.421.255-.536 0-.934-.159-1.183-.406-.257-.253-.382-.626-.404-1.15l3.462.003s.091-.002.1-.09c.003-.038.119-.711-.104-1.49zm-10.924 2.989a.707.707 0 01-.2-.205c-.068-.107-.102-.258-.102-.45 0-.304.1-.523.308-.67-.002.001.298-.26 1.004-.25.496.007.939.08.939.08v1.573h.001s-.44.094-.935.124c-.704.042-1.017-.203-1.015-.202zm1.378-2.43a7.665 7.665 0 00-.541-.017 3.29 3.29 0 00-.852.11c-.27.072-.514.185-.723.335a1.666 1.666 0 00-.502.57 1.673 1.673 0 00-.185.797c0 .306.053.572.159.79.105.219.257.4.451.54.193.141.43.244.706.306.271.062.579.093.916.093.355 0 .708-.029 1.051-.087.34-.058.757-.142.872-.169.081-.019.162-.04.243-.062.086-.02.079-.113.079-.113l-.002-3.163c0-.693-.185-1.208-.55-1.526-.364-.318-.899-.479-1.59-.479-.26 0-.677.036-.928.086 0 0-.756.146-1.067.39 0 0-.068.042-.031.137l.245.658c.031.085.113.056.113.056s.027-.01.057-.028c.667-.362 1.509-.351 1.509-.351.374 0 .662.075.856.223.188.145.284.363.284.824v.146c-.297-.042-.57-.067-.57-.067zm27.918-1.783c.026-.078-.029-.116-.052-.124a2.995 2.995 0 00-.58-.1c-.435-.026-.676.047-.892.144-.215.097-.453.253-.586.431v-.42c0-.06-.041-.106-.099-.106h-.887c-.058 0-.1.047-.1.105v5.16c0 .057.048.105.105.105h.91a.105.105 0 00.074-.031.104.104 0 00.031-.075v-2.577c0-.346.038-.691.114-.908.075-.214.177-.386.303-.51.127-.122.271-.207.428-.256.161-.05.339-.065.465-.065.181 0 .38.047.38.047.066.007.104-.034.126-.094.059-.158.228-.632.26-.726z" fill="#fff"/><path d="M298.591 15.701a2.712 2.712 0 00-.812-.117c-.627 0-1.12.177-1.466.525-.345.347-.579.875-.696 1.57l-.043.233h-.786s-.095-.003-.115.1l-.129.72c-.009.068.021.112.112.112h.765l-.776 4.328c-.06.349-.13.635-.207.853-.076.214-.15.375-.242.492a.643.643 0 01-.316.244c-.119.04-.257.059-.408.059-.083 0-.195-.014-.277-.031a.812.812 0 01-.187-.06s-.09-.034-.125.055a91.55 91.55 0 00-.257.703c-.024.069.01.122.053.138.102.036.178.06.317.093.192.045.355.048.507.048.318 0 .609-.045.85-.132.241-.088.452-.24.639-.445.202-.223.329-.456.45-.775.119-.315.222-.706.304-1.161l.78-4.41h1.14s.096.004.116-.1l.129-.72c.009-.068-.02-.11-.113-.11h-1.107c.006-.026.056-.415.183-.781.055-.156.157-.282.243-.37a.727.727 0 01.29-.18c.109-.035.235-.052.372-.052.103 0 .206.012.284.028.107.023.148.035.177.043.113.034.128.001.15-.053l.265-.726c.027-.079-.04-.112-.064-.12zm-15.464 7.48c0 .058-.041.105-.099.105h-.918c-.058 0-.099-.047-.099-.104V15.8c0-.058.041-.105.099-.105h.918c.058 0 .099.047.099.105v7.382z" fill="#fff"/><path d="M612.24 36.469a6.367 6.367 0 01-3.158-.83 6.2 6.2 0 01-2.301-2.274 5.84 5.84 0 01.171-6.11l11.243-17.298a6.212 6.212 0 012.367-2.212 6.373 6.373 0 013.182-.742c1.108.026 2.19.34 3.133.91a6.185 6.185 0 012.238 2.334 5.828 5.828 0 01-.338 6.1l-11.235 17.298a6.218 6.218 0 01-2.281 2.078 6.37 6.37 0 01-3.021.746z" fill="#F62B54"/><path d="M631.522 36.468c-2.267 0-4.354-1.188-5.449-3.097a5.82 5.82 0 01.171-6.093l11.221-17.258a6.202 6.202 0 012.358-2.25 6.359 6.359 0 013.196-.768c2.287.05 4.359 1.302 5.407 3.263a5.816 5.816 0 01-.405 6.128l-11.218 17.258a6.215 6.215 0 01-2.272 2.07 6.362 6.362 0 01-3.009.747z" fill="#FC0"/><path d="M650.376 36.614c3.196 0 5.787-2.486 5.787-5.552 0-3.066-2.591-5.552-5.787-5.552-3.197 0-5.788 2.486-5.788 5.552 0 3.066 2.591 5.552 5.788 5.552z" fill="#00CA72"/><path d="M552.029 10.378c1.133.92 1.558.849 3.687.707l20.067-1.203c.426 0 .072-.423-.07-.494l-3.333-2.405c-.638-.495-1.489-1.061-3.12-.92l-19.431 1.415c-.708.07-.85.424-.568.707l2.768 2.193zm1.204 4.668v21.076c0 1.133.568 1.556 1.844 1.486l22.054-1.274c1.277-.07 1.419-.849 1.419-1.769V13.631c0-.919-.354-1.414-1.136-1.344l-23.046 1.344c-.851.071-1.135.496-1.135 1.415zm21.772 1.13c.141.638 0 1.274-.639 1.346l-1.063.211v15.56c-.923.495-1.773.778-2.482.778-1.135 0-1.42-.354-2.27-1.414l-6.95-10.892v10.538l2.199.495s0 1.273-1.775 1.273l-4.891.283c-.143-.283 0-.99.496-1.132l1.276-.353V18.936l-1.772-.142c-.142-.637.212-1.556 1.205-1.627l5.248-.353 7.234 11.034v-9.761l-1.845-.211c-.141-.78.425-1.345 1.135-1.415l4.894-.284zM548.198 5.57l20.211-1.486c2.482-.213 3.121-.07 4.681 1.061l6.452 4.526c1.064.779 1.419.99 1.419 1.84v24.824c0 1.556-.568 2.476-2.553 2.617l-23.472 1.415c-1.49.07-2.199-.141-2.979-1.132l-4.752-6.153c-.851-1.133-1.205-1.98-1.205-2.972V8.044c0-1.272.568-2.333 2.198-2.474z" fill="#000"/><path fill-rule="evenodd" clip-rule="evenodd" d="M499 41.531l8.101-24.934h-16.203L499 41.531z" fill="#E24329"/><path fill-rule="evenodd" clip-rule="evenodd" d="M499 41.531l-8.102-24.934h-11.354L499 41.531z" fill="#FC6D26"/><path fill-rule="evenodd" clip-rule="evenodd" d="M479.544 16.597l-2.462 7.577a1.678 1.678 0 00.61 1.876L499 41.53l-19.456-24.934z" fill="#FCA326"/><path fill-rule="evenodd" clip-rule="evenodd" d="M479.544 16.597h11.354L486.019 1.58c-.251-.773-1.345-.773-1.596 0l-4.879 15.017z" fill="#E24329"/><path fill-rule="evenodd" clip-rule="evenodd" d="M499 41.531l8.102-24.934h11.354L499 41.531z" fill="#FC6D26"/><path fill-rule="evenodd" clip-rule="evenodd" d="M518.456 16.597l2.462 7.577a1.678 1.678 0 01-.61 1.876L499 41.53l19.456-24.934z" fill="#FCA326"/><path fill-rule="evenodd" clip-rule="evenodd" d="M518.456 16.597h-11.354l4.879-15.017c.251-.773 1.345-.773 1.596 0l4.879 15.017z" fill="#E24329"/><path d="M409 24.41C412.329 14.97 418.708 4 431.579 4s19.236 16.928 20.04 28.408c-3.38 5.868-11.481 8.075-20.04 8.075a24.069 24.069 0 01-18.382-8.075s4.031-10.88 7.794-10.906c2.768 0 5.103 5.102 7.309 5.102 2.207 0 6.8-9.797 6.8-9.797" stroke="#1D2D35" stroke-width="4.35" stroke-linecap="round" stroke-linejoin="round"/><g clip-path="url(#clip0)"><path d="M37.674 22.66a22.6 22.6 0 00-.332-3.905H19.215v7.4h10.38a8.895 8.895 0 01-3.841 5.84v4.803h6.193c3.637-3.348 5.727-8.29 5.727-14.138z" fill="#4285F4"/><path d="M19.215 41.437c5.183 0 9.555-1.702 12.74-4.64l-6.194-4.801c-1.723 1.172-3.947 1.836-6.539 1.836-5.014 0-9.265-3.383-10.79-7.93H2.04v4.95a19.221 19.221 0 0017.174 10.585z" fill="#34A853"/><path d="M8.425 25.901a11.511 11.511 0 010-7.358v-4.95H2.04a19.235 19.235 0 000 17.259l6.384-4.95z" fill="#FBBC04"/><path d="M19.215 10.605c2.74-.042 5.388.989 7.372 2.882L32.075 8a18.471 18.471 0 00-12.86-5A19.215 19.215 0 002.041 13.592l6.384 4.95c1.518-4.554 5.776-7.937 10.79-7.937z" fill="#EA4335"/></g><defs><linearGradient id="paint0_linear" x1="348" y1="38.371" x2="384" y2="38.371" gradientUnits="userSpaceOnUse"><stop stop-color="#8930FD"/><stop offset="1" stop-color="#49CCF9"/></linearGradient><linearGradient id="paint1_linear" x1="348.784" y1="14.459" x2="383.277" y2="14.459" gradientUnits="userSpaceOnUse"><stop stop-color="#FF02F0"/><stop offset="1" stop-color="#FFC800"/></linearGradient><clipPath id="clip0"><path fill="#fff" transform="translate(0 3)" d="M0 0h37.675v38.437H0z"/></clipPath></defs></svg>