<svg width="96" height="178" viewBox="0 0 96 178" fill="none" xmlns="http://www.w3.org/2000/svg">
<path d="M15 34.1C14.5 33.8 13.9 34 13.6 34.5C13.3 35 13.5 35.6 14 35.9C14.5 36.2 15.1 36 15.4 35.5C15.6 35 15.5 34.4 15 34.1ZM22 0C9.8 0 0 9.9 0 22C0 34.2 9.8 44 22 44C34.2 44 44 34.2 44 22C44 9.9 34.2 0 22 0ZM22 42C11 42 2 33 2 22C2 11 11 2 22 2C33 2 42 11 42 22C42 33 33 42 22 42ZM8.5 28.6C8 28.9 7.9 29.5 8.1 30C8.4 30.5 9 30.6 9.5 30.4C10 30.1 10.1 29.5 9.9 29C9.6 28.5 9 28.4 8.5 28.6ZM14 8.1C13.5 8.4 13.4 9 13.6 9.5C13.9 10 14.5 10.1 15 9.9C15.5 9.6 15.6 9 15.4 8.5C15.1 8 14.5 7.9 14 8.1ZM29 9.9C29.5 10.2 30.1 10 30.4 9.5C30.7 9 30.5 8.4 30 8.1C29.5 7.8 28.9 8 28.6 8.5C28.4 9 28.5 9.6 29 9.9ZM7 21C6.4 21 6 21.4 6 22C6 22.6 6.4 23 7 23C7.6 23 8 22.6 8 22C8 21.4 7.6 21 7 21ZM9.5 13.6C9 13.3 8.4 13.5 8.1 14C7.8 14.5 8 15.1 8.5 15.4C9 15.7 9.6 15.5 9.9 15C10.2 14.5 10 13.9 9.5 13.6ZM22 36C21.4 36 21 36.4 21 37C21 37.6 21.4 38 22 38C22.6 38 23 37.6 23 37C23 36.4 22.6 36 22 36ZM37 21C36.4 21 36 21.4 36 22C36 22.6 36.4 23 37 23C37.6 23 38 22.6 38 22C38 21.4 37.6 21 37 21ZM35.5 28.6C35 28.3 34.4 28.5 34.1 29C33.8 29.5 34 30.1 34.5 30.4C35 30.7 35.6 30.5 35.9 30C36.1 29.5 36 28.9 35.5 28.6ZM34.5 13.6C34 13.9 33.9 14.5 34.1 15C34.4 15.5 35 15.6 35.5 15.4C36 15.1 36.1 14.5 35.9 14C35.6 13.5 35 13.4 34.5 13.6ZM29 34.1C28.5 34.4 28.4 35 28.6 35.5C28.9 36 29.5 36.1 30 35.9C30.5 35.6 30.6 35 30.4 34.5C30.1 34 29.5 33.8 29 34.1ZM31 21H25.9C25.5 19.6 24.4 18.5 23 18.1V7C23 6.4 22.6 6 22 6C21.4 6 21 6.4 21 7V18.1C19.3 18.5 18 20.1 18 22C18 24.2 19.8 26 22 26C23.9 26 25.4 24.7 25.9 23H31C31.6 23 32 22.6 32 22C32 21.4 31.6 21 31 21ZM22 24C20.9 24 20 23.1 20 22C20 20.9 20.9 20 22 20C23.1 20 24 20.9 24 22C24 23.1 23.1 24 22 24Z" fill="#03A9F4"/>
<path d="M22 62C19.2 62 17 64.2 17 67C17 69.8 19.2 72 22 72C24.8 72 27 69.8 27 67C27 64.2 24.8 62 22 62ZM22 45C9.8 45 0 54.9 0 67C0 79.2 9.8 89 22 89C34.2 89 44 79.2 44 67C44 54.9 34.2 45 22 45ZM23 86.9V80C23 79.4 22.6 79 22 79C21.4 79 21 79.4 21 80V86.9C10.8 86.4 2.6 78.2 2 68H9C9.6 68 10 67.6 10 67C10 66.4 9.6 66 9 66H2C2.6 55.8 10.8 47.6 21 47.1V54C21 54.6 21.4 55 22 55C22.6 55 23 54.6 23 54V47.1C33.2 47.6 41.4 55.8 42 66H35C34.4 66 34 66.4 34 67C34 67.6 34.4 68 35 68H42C41.4 78.2 33.2 86.4 23 86.9Z" fill="#03A9F4"/>
<path d="M71 21.9C70.5 21.5 70 21.2 69.3 21C68.7 20.8 68.2 20.5 67.6 20.4V15.6C68.4 15.6 68.8 15.8 69.1 16.2C69.5 16.6 69.7 17.2 69.7 18H72.2C72.2 17.3 72.1 16.6 71.8 16.1C71.5 15.5 71.2 15.1 70.8 14.7C70.4 14.3 69.9 14.1 69.3 13.9C68.7 13.7 68.3 13.6 67.6 13.6V12H66.3V13.5C65.6 13.5 65.2 13.6 64.6 13.8C64 14 63.4 14.2 63 14.6C62.5 15 62.2 15.4 61.9 16C61.6 16.6 61.5 17.2 61.5 17.9C61.5 18.7 61.6 19.4 61.9 20C62.2 20.6 62.6 21 63.1 21.4C63.6 21.8 64.1 22.1 64.7 22.3C65.3 22.5 65.7 22.7 66.3 22.9V28.4C65.3 28.4 64.7 28.1 64.3 27.5C63.9 26.9 63.6 26.1 63.7 25.1H61.2C61.2 25.9 61.3 26.7 61.6 27.3C61.9 27.9 62.2 28.5 62.7 28.9C63.2 29.3 63.7 29.7 64.4 29.9C65.1 30.1 65.6 30.3 66.4 30.3V32H67.7V30.5C68.4 30.5 68.9 30.3 69.6 30.1C70.2 29.9 70.8 29.6 71.2 29.1C71.7 28.7 72 28.2 72.3 27.5C72.6 26.9 72.7 26.1 72.7 25.3C72.7 24.5 72.6 23.8 72.3 23.2C71.9 22.7 71.5 22.2 71 21.9ZM66.3 20C66 19.9 65.9 19.8 65.6 19.7C65.3 19.6 65 19.4 64.8 19.3C64.6 19.1 64.4 18.9 64.2 18.6C64 18.4 64 18.1 64 17.7C64 16.9 64.2 16.3 64.6 16C65 15.7 65.5 15.5 66.2 15.5V20H66.3ZM69.3 27.7C68.8 28.1 68.3 28.4 67.5 28.4V23.1C67.8 23.2 68 23.3 68.3 23.4C68.6 23.5 68.9 23.7 69.2 23.9C69.5 24.1 69.7 24.3 69.8 24.6C70 24.9 70 25.2 70 25.7C70.1 26.6 69.8 27.2 69.3 27.7ZM67 0C54.8 0 45 9.8 45 22C45 34.2 54.8 44 67 44C79.2 44 89 34.2 89 22C89 9.8 79.2 0 67 0ZM67 42C56 42 47 33 47 22C47 11 56 2 67 2C78 2 87 11 87 22C87 33 78 42 67 42Z" fill="#03A9F4"/>
<path d="M74.8643 76.2C74.8643 76.2 71.2805 75.3 71.2805 71.6C71.2805 68.3 72.7738 67.2 73.2715 66.4C73.2715 66.4 74.4661 65.4 73.6697 62.1C74.9638 60.3 75.362 57.3 73.7692 53.7C72.8733 51.6 72.0769 50.4 70.8824 49.7C70.086 49.2 69.0905 49 68.095 49C66.3032 49 64.6109 49.6 63.914 50.1C61.9231 51 60.629 51.8 59.3348 55C58.2398 57.6 59.5339 60.5 60.1312 62C59.3348 65.3 60.4299 66.4 60.4299 66.4C61.0271 67.2 62.4208 68.4 62.4208 71.6C62.4208 75.3 58.8371 76.2 58.8371 76.2C56.5475 77 51.8688 78.6 51.8688 84C51.8688 84 51.8688 85 52.8643 85H80.7376C81.733 85 81.733 84 81.733 84C81.8326 78.6 77.0543 77 74.8643 76.2ZM54.0588 83C54.5566 80.2 56.9457 79.1 59.5339 78.2H59.6335C61.4253 77.7 64.6109 75.8 64.6109 71.7C64.6109 68.2 63.2172 66.5 62.4208 65.6C62.2217 65.4 62.1222 65.2 62.1222 65.2C62.0226 65.1 61.724 64.3 62.2217 62.5C62.4208 61.6 62.1222 61.2 62.1222 61.2C61.6244 60 60.5294 57.7 61.3258 55.8C62.3213 53.2 63.2172 52.7 64.9095 52C65.0091 52 65.1086 51.9 65.2081 51.8C65.3077 51.6 66.6018 51 68.095 51C68.7919 51 69.4887 51.1 69.9864 51.4C70.5837 51.7 71.181 52.4 71.9774 54.4C73.5701 58.1 72.5747 60.1 72.0769 60.8C71.7783 61.3 71.5792 61.9 71.7783 62.4C72.1765 64.1 71.8778 64.8 71.8778 64.9C71.8778 64.9 71.5792 65.2 71.4796 65.4C70.6833 66.3 69.2896 68 69.2896 71.5C69.2896 75.6 72.4751 77.5 74.267 78H74.3665C76.8552 78.9 79.3439 80 79.8416 82.8H54.0588V83ZM49.7783 75.9C51.0724 75.5 53.4615 74 53.4615 70.6C53.4615 67.5 52.4661 66.2 51.9683 65.4L51.8688 65.3C51.8688 65.2 51.6697 64.6 51.9683 63.5C52.0679 63.1 51.9683 62.6 51.8688 62.2C51.4706 61.3 50.6742 59.7 51.2715 58.4C52.1674 56.3 52.4661 56.1 53.4615 55.7C53.5611 55.7 53.6606 55.6 53.7602 55.6C53.9593 55.4 55.0543 55.1 56.0498 55.1C56.5475 55.1 56.9457 55.2 57.2443 55.4C57.3439 55.1 57.4434 54.7 57.543 54.4C57.6425 54.1 57.8416 53.8 57.9412 53.6C57.3439 53.3 56.6471 53.2 55.9502 53.2C54.5566 53.2 53.1629 53.7 52.5656 54C50.9728 54.7 50.276 55.3 49.2805 57.8C48.3846 59.9 49.4796 62.1 49.9774 63.2C49.3801 65.8 50.1765 66.7 50.1765 66.7C50.6742 67.3 51.371 68.2 51.371 70.8C51.371 73.7 49.181 74.2 49.181 74.2C47.3891 74.6 45 76 45 80C45 80 45 81 45.9955 81H50.4751C50.6742 80.3 51.0724 79.6 51.371 79H47.0905C47.3891 77.1 48.5837 76.4 49.7783 75.9ZM84.6199 74C84.6199 74 82.4299 73.5 82.4299 70.6C82.4299 68 83.2262 67.1 83.6244 66.5C83.6244 66.5 84.5204 65.6 83.8235 63C84.3213 61.9 85.4163 59.6 84.5204 57.6C83.5249 55.1 82.8281 54.5 81.2353 53.8C80.638 53.5 79.3439 53 77.8507 53C77.1538 53 76.457 53.1 75.8597 53.4C76.1584 54 76.3575 54.7 76.457 55.3H76.5566C76.8552 55.1 77.3529 55 77.8507 55C78.8462 55 79.8416 55.4 80.1403 55.5C80.2398 55.6 80.3394 55.6 80.4389 55.6C81.4344 56 81.8326 56.2 82.629 58.3C83.1267 59.5 82.4299 61.2 82.0317 62.1C81.8326 62.5 81.8326 63 81.9321 63.4C82.2308 64.5 82.0317 65 82.0317 65.2L81.9321 65.3C81.4344 66 80.4389 67.4 80.4389 70.5C80.4389 73.9 82.7285 75.5 84.1222 75.8C85.4163 76.3 86.6109 77 86.9095 78.9H82.629C83.0271 79.5 83.3258 80.2 83.5249 80.9H88.0045C89 80.9 89 79.9 89 79.9C88.8009 76 86.4118 74.6 84.6199 74Z" fill="#03A9F4"/>
<path d="M3 123.988V90H37.9046V120.431L22.0758 156H7.26161L16.7995 123.988H3ZM51.0954 123.988V90H86V120.431L70.1711 156H55.357L64.8949 123.988H51.0954Z" fill="#F2FAFF"/>
<path d="M7.36816 176C14.8308 176 19.01 169.816 19.01 164.516C19.01 164.32 19.01 164.124 19.01 164.025C19.806 163.436 20.5025 162.749 21 161.964C20.3035 162.259 19.5075 162.455 18.6119 162.553C19.5075 162.062 20.1045 161.277 20.403 160.296C19.607 160.786 18.7114 161.081 17.8159 161.277C16.2239 159.609 13.6368 159.609 12.0448 161.081C10.9502 162.062 10.5522 163.535 10.8507 164.909C7.56716 164.811 4.58209 163.24 2.49254 160.688C1.39801 162.553 1.89552 164.909 3.68657 166.087C3.08955 166.087 2.49254 165.89 1.89552 165.596C1.89552 165.596 1.89552 165.596 1.89552 165.694C1.89552 167.657 3.28856 169.227 5.1791 169.62C4.58209 169.816 3.88557 169.816 3.28856 169.718C3.78607 171.387 5.37811 172.467 7.06965 172.467C5.57711 173.546 3.88557 174.233 1.99502 174.233C1.69652 174.233 1.29851 174.233 1 174.135C2.99005 175.313 5.0796 176 7.36816 176Z" fill="#27A2EE"/>
<path d="M29.7961 178V169H32.5146L33 165H29.7961V163C29.7961 162 29.7961 160.9 31.2524 160.9H32.7087V158.1C32.7087 158.1 31.4466 158 30.1845 158C27.5631 158 25.9126 159.6 25.9126 162.7V165H23V169H25.9126V178H29.7961Z" fill="#4A69A6"/>
<path fill-rule="evenodd" clip-rule="evenodd" d="M74.6074 160.489C75.5498 160.753 76.293 161.524 76.5469 162.504C77.0176 164.292 77 168.019 77 168.019C77 168.019 77 168.945 76.9434 170.096C76.8867 171.247 76.7734 172.621 76.5469 173.516C76.293 174.494 75.5498 175.266 74.6074 175.529C72.8867 176 66 176 66 176C66 176 59.1318 176 57.3916 175.511C57.0625 175.418 56.7568 175.264 56.4883 175.06C55.9902 174.682 55.6182 174.133 55.4531 173.496C55 171.728 55 168 55 168C55 168 55 164.292 55.4531 162.504C55.5234 162.232 55.6328 161.976 55.7734 161.74C56.1416 161.127 56.7236 160.661 57.3916 160.471C59.1133 160 66 160 66 160C66 160 72.8867 160 74.6074 160.489ZM69.5342 167.999L63.8076 171.425V164.573L69.5342 167.999Z" fill="#FD001A"/>
<path fill-rule="evenodd" clip-rule="evenodd" d="M79 160.218C79 159.545 79.5625 159 80.2559 159H94.7441C95.4375 159 96 159.545 96 160.218V174.782C96 174.953 95.9639 175.116 95.8984 175.264C95.8545 175.361 95.7979 175.453 95.7305 175.535C95.6064 175.688 95.4453 175.811 95.2607 175.892C95.1035 175.961 94.9287 176 94.7441 176H80.2559C79.9043 176 79.5859 175.859 79.3584 175.634C79.1367 175.414 79 175.113 79 174.782V160.218ZM84.1533 173.229V165.554H81.585V173.229H84.1533ZM82.8691 164.506C83.4395 164.506 83.873 164.267 84.1123 163.902C84.1836 163.795 84.2373 163.676 84.2725 163.55C84.3057 163.433 84.3223 163.309 84.3223 163.18C84.3135 162.8 84.1719 162.466 83.9209 162.229C83.6748 161.994 83.3213 161.853 82.8857 161.853C82.0078 161.853 81.4336 162.427 81.4336 163.18C81.4336 163.916 81.9912 164.506 82.8525 164.506H82.8691ZM88.1416 173.23H85.5742C85.5742 173.23 85.585 171.05 85.5879 169.004C85.5908 167.396 85.5889 165.871 85.5742 165.554H88.1416V166.642C88.1357 166.65 88.1309 166.658 88.125 166.667H88.1416V166.642C88.3193 166.369 88.5703 166.036 88.9619 165.78C89.3223 165.545 89.8027 165.374 90.4561 165.374C92.1455 165.374 93.4121 166.471 93.4121 168.829V173.23H90.8447V169.124C90.8447 168.092 90.4727 167.388 89.5439 167.388C88.835 167.388 88.4121 167.863 88.2266 168.321C88.1582 168.485 88.1416 168.714 88.1416 168.944V173.23Z" fill="#006699"/>
<path d="M44 159C39.0298 159 35 163.029 35 167.998C35 171.974 37.5785 175.346 41.1551 176.536C41.605 176.618 41.7692 176.34 41.7692 176.103C41.7692 175.889 41.761 175.179 41.7566 174.428C39.2539 174.972 38.7249 173.367 38.7249 173.367C38.3151 172.328 37.7257 172.051 37.7257 172.051C36.9078 171.493 37.7877 171.504 37.7877 171.504C38.6914 171.567 39.1671 172.431 39.1671 172.431C39.9702 173.806 41.2743 173.409 41.7862 173.178C41.8681 172.598 42.101 172.2 42.3575 171.976C40.3597 171.749 38.258 170.977 38.258 167.529C38.258 166.546 38.609 165.744 39.1836 165.114C39.0919 164.886 38.782 163.97 39.2726 162.732C39.2726 162.732 40.0273 162.49 41.7478 163.654C42.4652 163.454 43.2348 163.355 44 163.352C44.7646 163.355 45.5348 163.455 46.2533 163.656C47.9705 162.49 48.7263 162.733 48.7263 162.733C49.2185 163.972 48.9087 164.887 48.8164 165.114C49.3932 165.744 49.7415 166.546 49.7415 167.529C49.7415 170.986 47.6365 171.747 45.6315 171.97C45.9556 172.249 46.2423 172.796 46.2423 173.635C46.2423 174.838 46.2302 175.808 46.2302 176.104C46.2302 176.344 46.3939 176.624 46.8499 176.536C50.4237 175.344 53 171.972 53 167.998C53 163.029 48.9702 159 44 159Z" fill="black"/>
</svg>
