<svg xmlns="http://www.w3.org/2000/svg" width="1150" height="646" fill="none" xmlns:v="https://vecta.io/nano"><ellipse rx="3" ry="3.002" transform="matrix(0 -1 -1 0 230.007 103)" fill="#2f2f2f"/><path d="M230.007 41v61.675M241.015 543v61.675" stroke="#2f2f2f" stroke-width=".635"/><g fill="#2f2f2f"><ellipse rx="3" ry="3.002" transform="matrix(0 -1 -1 0 241.015 541)"/><ellipse rx="3" ry="3.002" transform="matrix(0 -1 -1 0 911.25 321)"/></g><path d="M960.85 41l.662 276.007a3.98 3.98 0 0 1-3.983 3.993h-46.166" stroke="#2f2f2f" stroke-width=".635"/><g fill="#2f2f2f"><path d="M209.688 23.39c-.14 1.203-.586 2.133-1.336 2.79-.745.65-1.737.976-2.977.976-1.344 0-2.422-.482-3.234-1.445s-1.21-2.253-1.21-3.867V20.75c0-1.057.187-1.987.562-2.79.38-.802.917-1.417 1.6-1.844.692-.432 1.494-.648 2.406-.648 1.208 0 2.177.338 2.906 1.016.73.672 1.154 1.604 1.274 2.797h-1.508c-.13-.906-.414-1.562-.852-1.97-.432-.406-1.04-.61-1.82-.61-.96 0-1.71.354-2.258 1.063s-.812 1.716-.812 3.024v1.1c0 1.234.257 2.216.773 2.945s1.237 1.094 2.164 1.094c.833 0 1.47-.187 1.914-.562.448-.38.745-1.04.89-1.977h1.508zm3.273-3.82a3.07 3.07 0 0 1 2.5-1.18c1.786 0 2.687 1.008 2.703 3.024V27h-1.445v-5.594c-.005-.61-.146-1.06-.422-1.35-.27-.292-.695-.437-1.274-.437-.468 0-.88.125-1.234.375s-.63.578-.828.984V27h-1.445V15h1.445v4.57zm6.984 3.125c0-.828.162-1.573.485-2.234s.78-1.172 1.36-1.53c.583-.36 1.247-.54 1.992-.54 1.15 0 2.08.4 2.79 1.195.714.797 1.07 1.857 1.07 3.18v.102c0 .823-.16 1.563-.477 2.22-.312.65-.763 1.16-1.352 1.524-.583.365-1.255.547-2.015.547-1.146 0-2.076-.398-2.79-1.195s-1.063-1.85-1.063-3.164v-.102zm1.453.172c0 .938.217 1.7.65 2.258.437.568 1.02.852 1.75.852.734 0 1.318-.287 1.75-.86.432-.578.648-1.385.648-2.422 0-.927-.22-1.677-.664-2.25a2.08 2.08 0 0 0-1.75-.867 2.07 2.07 0 0 0-1.726.852c-.438.568-.657 1.38-.657 2.438zm7.672-.172c0-.828.162-1.573.485-2.234s.78-1.172 1.36-1.53c.583-.36 1.247-.54 1.992-.54 1.15 0 2.08.4 2.79 1.195.714.797 1.07 1.857 1.07 3.18v.102c0 .823-.16 1.563-.477 2.22-.312.65-.763 1.16-1.35 1.524s-1.256.547-2.016.547c-1.146 0-2.076-.398-2.79-1.195s-1.063-1.85-1.063-3.164v-.102zm1.453.172c0 .938.217 1.7.65 2.258.437.568 1.02.852 1.75.852.734 0 1.318-.287 1.75-.86.432-.578.648-1.385.648-2.422 0-.927-.22-1.677-.664-2.25a2.08 2.08 0 0 0-1.75-.867 2.07 2.07 0 0 0-1.726.852c-.438.568-.657 1.38-.657 2.438zm12.977 1.89c0-.39-.148-.693-.445-.906-.292-.22-.805-.406-1.54-.562s-1.3-.344-1.743-.562c-.427-.22-.744-.48-.953-.78-.203-.302-.304-.66-.304-1.078 0-.693.29-1.28.875-1.758s1.338-.72 2.25-.72c.958 0 1.734.247 2.328.742a2.35 2.35 0 0 1 .898 1.898h-1.453c0-.396-.17-.737-.508-1.023-.333-.286-.755-.43-1.265-.43-.526 0-.938.115-1.235.344a1.08 1.08 0 0 0-.445.898c0 .35.138.612.414.79s.773.346 1.492.508c.724.16 1.3.354 1.758.578s.78.495.992.813c.22.313.328.695.328 1.148a2.17 2.17 0 0 1-.906 1.82c-.604.453-1.388.68-2.35.68-.678 0-1.277-.12-1.797-.36s-.93-.573-1.227-1a2.45 2.45 0 0 1-.437-1.399h1.445c.026.484.22.87.578 1.156.365.28.844.422 1.438.422.546 0 .984-.11 1.312-.328.333-.224.5-.52.5-.89zm6.836 2.398c-1.146 0-2.078-.375-2.797-1.125-.72-.755-1.078-1.763-1.078-3.023v-.266c0-.84.16-1.586.477-2.242.322-.662.77-1.177 1.343-1.547a3.38 3.38 0 0 1 1.875-.562c1.1 0 1.953.362 2.563 1.086s.914 1.76.914 3.11v.602h-5.727c.02.833.263 1.508.727 2.023.47.51 1.062.766 1.78.766.5 0 .943-.104 1.297-.312s.664-.484.93-.828l.882.688c-.708 1.09-1.77 1.633-3.187 1.633zm-.18-7.578a1.92 1.92 0 0 0-1.468.641c-.396.422-.64 1.016-.735 1.78h4.235v-.11c-.042-.734-.24-1.302-.594-1.703-.354-.406-.834-.61-1.438-.61zm9.6 7.422v-7.336h-1.336v-1.117h1.336v-.72c0-.943.268-1.677.804-2.203.542-.526 1.305-.79 2.29-.79.584 0 1.32.16 2.21.477l-.242 1.22c-.65-.26-1.27-.39-1.86-.39-.62 0-1.068.14-1.344.422-.27.276-.406.693-.406 1.25v.734h1.726v1.117h-1.726V27h-1.453zm6.023 0h-1.453v-8.453h1.453V27zm5.86.156c-1.145 0-2.078-.375-2.796-1.125-.72-.755-1.08-1.763-1.08-3.023v-.266c0-.84.16-1.586.477-2.242.323-.662.77-1.177 1.344-1.547a3.38 3.38 0 0 1 1.875-.562c1.1 0 1.953.362 2.562 1.086s.914 1.76.914 3.11v.602h-5.726c.02.833.263 1.508.726 2.023.47.51 1.063.766 1.782.766.5 0 .942-.104 1.296-.312a3.24 3.24 0 0 0 .93-.828l.883.688c-.708 1.09-1.77 1.633-3.188 1.633zm-.18-7.578a1.92 1.92 0 0 0-1.469.641c-.396.422-.64 1.016-.734 1.78h4.234v-.11c-.042-.734-.24-1.302-.594-1.703-.354-.406-.833-.61-1.437-.61zM278.195 27h-1.445V15h1.445v12zm1.97-4.297c0-1.297.307-2.338.922-3.125a2.91 2.91 0 0 1 2.414-1.187c1 0 1.773.34 2.352 1.016V15h1.445v12h-1.328l-.07-.906c-.578.708-1.382 1.062-2.414 1.062-.98 0-1.778-.4-2.398-1.203s-.922-1.85-.922-3.14v-.11zm1.445.164c0 .958.198 1.708.594 2.25s.943.813 1.64.813c.916 0 1.586-.412 2.008-1.234v-3.883c-.433-.797-1.097-1.195-1.993-1.195-.708 0-1.26.273-1.656.82s-.594 1.357-.594 2.43zm13.868-6.367v2.047h1.578v1.117h-1.578v5.242c0 .34.07.594.21.766.14.167.38.25.718.25.167 0 .396-.03.688-.094V27a4.19 4.19 0 0 1-1.11.156c-.645 0-1.132-.195-1.46-.586s-.492-.945-.492-1.664v-5.242h-1.54v-1.117h1.54V16.5h1.446zm6.04 8.383l1.968-6.336h1.547l-3.398 9.758c-.526 1.406-1.362 2.11-2.508 2.11l-.273-.024-.54-.1v-1.172l.39.03c.5 0 .87-.1 1.14-.297s.502-.56.68-1.086l.32-.86-3.016-8.36h1.578l2.1 6.336zm11.953-2.016c0 1.286-.295 2.323-.883 3.11s-1.385 1.18-2.39 1.18c-1.026 0-1.833-.325-2.422-.976v4.07h-1.445V18.547h1.32l.07.938c.588-.73 1.406-1.094 2.453-1.094 1.016 0 1.818.383 2.406 1.15.594.766.89 1.83.89 3.195v.133zm-1.446-.164c0-.953-.203-1.706-.61-2.258a1.96 1.96 0 0 0-1.672-.828c-.875 0-1.53.388-1.97 1.164v4.04c.433.77 1.094 1.156 1.985 1.156.693 0 1.242-.274 1.648-.82.412-.552.617-1.37.617-2.453zm6.797 4.453c-1.146 0-2.078-.375-2.797-1.125-.718-.755-1.078-1.763-1.078-3.023v-.266c0-.84.16-1.586.477-2.242.323-.662.77-1.177 1.344-1.547a3.38 3.38 0 0 1 1.875-.562c1.1 0 1.953.362 2.562 1.086s.914 1.76.914 3.11v.602h-5.726c.02.833.263 1.508.726 2.023.47.51 1.063.766 1.78.766.51 0 .943-.104 1.297-.312s.664-.484.93-.828l.883.688c-.71 1.09-1.77 1.633-3.188 1.633zm-.18-7.578a1.92 1.92 0 0 0-1.469.641c-.396.422-.64 1.016-.734 1.78h4.234v-.11c-.042-.734-.24-1.302-.594-1.703-.354-.406-.833-.61-1.437-.61z"/><path d="M783.096 24.03h-4.766L777.26 27h-1.547l4.344-11.375h1.312L785.72 27h-1.54l-1.086-2.97zm-4.313-1.234h3.867l-1.937-5.32-1.93 5.32zm7.89-.094c0-1.297.307-2.338.922-3.125.614-.792 1.42-1.187 2.414-1.187.99 0 1.773.34 2.35 1.016V15h1.446v12h-1.328l-.07-.906c-.578.708-1.383 1.062-2.414 1.062-.98 0-1.778-.4-2.398-1.203s-.922-1.85-.922-3.14v-.11zm1.445.164c0 .958.198 1.708.594 2.25s.943.813 1.64.813c.916 0 1.585-.412 2.007-1.234v-3.883a2.12 2.12 0 0 0-1.992-1.195c-.708 0-1.26.273-1.656.82s-.594 1.357-.594 2.43zm7.586-.164c0-1.297.307-2.338.922-3.125a2.91 2.91 0 0 1 2.414-1.187c1 0 1.773.34 2.352 1.016V15h1.445v12H801.5l-.07-.906c-.578.708-1.382 1.062-2.414 1.062-.98 0-1.778-.4-2.398-1.203s-.922-1.85-.922-3.14v-.11zm1.445.164c0 .958.198 1.708.594 2.25s.943.813 1.64.813c.916 0 1.586-.412 2.008-1.234v-3.883c-.433-.797-1.097-1.195-1.993-1.195-.708 0-1.26.273-1.656.82s-.594 1.357-.594 2.43zM814.275 27c-.083-.167-.15-.463-.203-.89-.672.698-1.474 1.047-2.406 1.047-.833 0-1.518-.234-2.055-.703-.53-.474-.797-1.073-.797-1.797 0-.88.334-1.562 1-2.047.672-.5 1.615-.734 2.83-.734h1.406v-.664c0-.505-.15-.906-.453-1.203-.302-.302-.748-.453-1.336-.453-.516 0-.948.13-1.297.39s-.524.576-.524.945h-1.453c0-.422.15-.828.446-1.22.302-.396.708-.708 1.218-.937a4.13 4.13 0 0 1 1.696-.344c.974 0 1.737.245 2.29.734.552.484.838 1.154.86 2.008v3.89c0 .776.1 1.393.297 1.852V27h-1.516zm-2.398-1.102a2.54 2.54 0 0 0 1.289-.351c.406-.234.7-.54.883-.914v-1.734h-1.133c-1.77 0-2.656.518-2.656 1.555 0 .453.15.807.453 1.063s.7.383 1.164.383zm5.53-3.195c0-1.297.308-2.338.922-3.125a2.91 2.91 0 0 1 2.414-1.187c1 0 1.774.34 2.352 1.016V15h1.445v12h-1.328l-.07-.906c-.58.708-1.383 1.062-2.414 1.062-.98 0-1.78-.4-2.4-1.203-.614-.802-.922-1.85-.922-3.14v-.11zm1.446.164c0 .958.197 1.708.593 2.25s.943.813 1.64.813c.917 0 1.586-.412 2.008-1.234v-3.883c-.433-.797-1.097-1.195-1.992-1.195-.71 0-1.26.273-1.657.82s-.593 1.357-.593 2.43zm7.585-.164c0-1.297.308-2.338.922-3.125a2.91 2.91 0 0 1 2.414-1.187c1 0 1.774.34 2.352 1.016V15h1.445v12h-1.328l-.07-.906c-.578.708-1.383 1.062-2.414 1.062-.98 0-1.78-.4-2.4-1.203-.614-.802-.922-1.85-.922-3.14v-.11zm1.446.164c0 .958.198 1.708.594 2.25s.942.813 1.64.813c.917 0 1.586-.412 2.008-1.234v-3.883a2.12 2.12 0 0 0-1.992-1.195c-.71 0-1.26.273-1.656.82s-.594 1.357-.594 2.43zM837.393 27h-1.446v-8.453h1.446V27zm-1.563-10.695a.87.87 0 0 1 .211-.594c.146-.16.36-.242.64-.242s.494.08.64.242.22.36.22.594-.073.43-.22.586-.36.234-.64.234-.495-.078-.64-.234a.84.84 0 0 1-.211-.586zm5.844.195v2.047h1.578v1.117h-1.578v5.242c0 .34.07.594.21.766.14.167.38.25.72.25.166 0 .395-.03.687-.094V27c-.38.104-.75.156-1.11.156-.646 0-1.133-.195-1.46-.586s-.492-.945-.492-1.664v-5.242h-1.54v-1.117h1.54V16.5h1.445zm4.844 10.5h-1.446v-8.453h1.446V27zm-1.563-10.695a.87.87 0 0 1 .211-.594c.146-.16.36-.242.64-.242s.494.08.64.242.22.36.22.594-.073.43-.22.586-.36.234-.64.234-.495-.078-.64-.234a.84.84 0 0 1-.211-.586zm3.5 6.39c0-.828.162-1.573.484-2.234.33-.66.782-1.172 1.36-1.53s1.247-.54 1.992-.54c1.15 0 2.08.4 2.79 1.195.714.797 1.07 1.857 1.07 3.18v.102c0 .823-.158 1.563-.476 2.22a3.56 3.56 0 0 1-1.352 1.524c-.583.365-1.255.547-2.015.547-1.146 0-2.076-.398-2.79-1.195s-1.063-1.85-1.063-3.164v-.102zm1.453.172c0 .938.216 1.7.65 2.258s1.02.852 1.75.852 1.317-.287 1.75-.86c.432-.578.648-1.385.648-2.422 0-.927-.22-1.677-.664-2.25a2.08 2.08 0 0 0-1.75-.867c-.714 0-1.29.284-1.727.852s-.656 1.38-.656 2.438zm9.422-4.32l.047 1.063c.646-.812 1.5-1.22 2.53-1.22 1.787 0 2.688 1.008 2.703 3.024V27h-1.445v-5.594c-.005-.61-.146-1.06-.422-1.35s-.695-.437-1.273-.437c-.47 0-.88.125-1.235.375s-.63.578-.828.984V27h-1.445v-8.453h1.367zM872 27c-.084-.167-.15-.463-.203-.89-.672.698-1.474 1.047-2.407 1.047-.833 0-1.518-.234-2.054-.703a2.3 2.3 0 0 1-.797-1.797c0-.88.333-1.562 1-2.047.672-.5 1.614-.734 2.828-.734h1.406v-.664c0-.505-.15-.906-.453-1.203-.302-.302-.747-.453-1.336-.453-.515 0-.948.13-1.297.39s-.523.576-.523.945h-1.453c0-.422.148-.828.445-1.22.302-.396.708-.708 1.22-.937s1.08-.344 1.695-.344c.974 0 1.737.245 2.29.734.552.484.84 1.154.86 2.008v3.89c0 .776.098 1.393.296 1.852V27H872zm-2.4-1.102a2.54 2.54 0 0 0 1.289-.351c.407-.234.7-.54.883-.914v-1.734h-1.133c-1.77 0-2.656.518-2.656 1.555 0 .453.15.807.453 1.063s.7.383 1.164.383zM877.064 27h-1.445V15h1.445v12zm7.86 0h-1.445v-8.453h1.445V27zm-1.563-10.695c0-.234.07-.432.21-.594.146-.16.36-.242.64-.242s.495.08.64.242.218.36.218.594-.073.43-.218.586-.36.234-.64.234-.495-.078-.64-.234c-.14-.156-.21-.35-.21-.586zm5.25 2.242l.047 1.063c.646-.812 1.5-1.22 2.53-1.22 1.787 0 2.688 1.008 2.704 3.024V27h-1.446v-5.594c-.005-.61-.146-1.06-.422-1.35-.27-.292-.695-.437-1.273-.437-.47 0-.88.125-1.234.375a2.54 2.54 0 0 0-.829.984V27h-1.445v-8.453h1.367zM896.783 27v-7.336h-1.336v-1.117h1.336v-.867c0-.906.242-1.607.727-2.102s1.17-.742 2.054-.742a3.79 3.79 0 0 1 .993.133l-.078 1.172c-.245-.047-.506-.07-.782-.07-.468 0-.83.138-1.086.414-.255.27-.382.66-.382 1.172v.89h1.804v1.117h-1.804V27h-1.446zm4.47-4.305c0-.828.16-1.573.484-2.234s.782-1.172 1.36-1.53 1.247-.54 1.992-.54c1.15 0 2.08.4 2.79 1.195.714.797 1.07 1.857 1.07 3.18v.102c0 .823-.16 1.563-.476 2.22a3.56 3.56 0 0 1-1.352 1.524c-.583.365-1.255.547-2.015.547-1.146 0-2.076-.398-2.8-1.195-.708-.797-1.062-1.85-1.062-3.164v-.102zm1.453.172c0 .938.216 1.7.65 2.258s1.02.852 1.75.852 1.317-.287 1.75-.86c.432-.578.648-1.385.648-2.422 0-.927-.22-1.677-.664-2.25-.438-.578-1.02-.867-1.75-.867-.714 0-1.29.284-1.727.852s-.656 1.38-.656 2.438zM916.69 16.5v2.047h1.58v1.117h-1.58v5.242c0 .34.07.594.21.766.14.167.38.25.72.25.167 0 .396-.03.688-.094V27c-.38.104-.75.156-1.1.156-.646 0-1.133-.195-1.46-.586s-.492-.945-.492-1.664v-5.242h-1.54v-1.117h1.54V16.5h1.445zm2.735 6.195c0-.828.16-1.573.484-2.234s.78-1.172 1.36-1.53 1.247-.54 1.992-.54c1.15 0 2.08.4 2.79 1.195s1.07 1.857 1.07 3.18v.102c0 .823-.16 1.563-.476 2.22a3.56 3.56 0 0 1-1.352 1.524c-.583.365-1.255.547-2.016.547-1.145 0-2.075-.398-2.79-1.195-.708-.797-1.062-1.85-1.062-3.164v-.102zm1.453.172c0 .938.216 1.7.648 2.258.438.568 1.02.852 1.75.852.735 0 1.318-.287 1.75-.86.433-.578.65-1.385.65-2.422 0-.927-.222-1.677-.664-2.25-.438-.578-1.02-.867-1.75-.867-.714 0-1.29.284-1.727.852s-.656 1.38-.656 2.438zM934.86 16.5v2.047h1.578v1.117h-1.578v5.242c0 .34.07.594.21.766.14.167.38.25.72.25.167 0 .396-.03.688-.094V27c-.38.104-.75.156-1.1.156-.646 0-1.133-.195-1.46-.586s-.492-.945-.492-1.664v-5.242h-1.54v-1.117h1.54V16.5h1.445zm4.844 10.5h-1.445v-8.453h1.445V27zm-1.562-10.695a.87.87 0 0 1 .211-.594c.145-.16.36-.242.64-.242s.495.08.64.242.22.36.22.594-.073.43-.22.586-.36.234-.64.234-.495-.078-.64-.234a.84.84 0 0 1-.211-.586zm5.242 2.242l.04.938c.62-.73 1.456-1.094 2.508-1.094 1.182 0 1.987.453 2.414 1.36.28-.406.646-.734 1.093-.984.454-.25.987-.375 1.602-.375 1.854 0 2.797.982 2.828 2.945V27h-1.445v-5.578c0-.604-.138-1.055-.414-1.352-.276-.302-.74-.453-1.39-.453-.536 0-.982.16-1.336.484-.354.318-.56.747-.617 1.29V27h-1.453v-5.54c0-1.23-.602-1.844-1.805-1.844-.948 0-1.596.404-1.945 1.21V27h-1.445v-8.453h1.367zm16.18 8.61c-1.145 0-2.078-.375-2.796-1.125-.72-.755-1.08-1.763-1.08-3.023v-.266c0-.84.16-1.586.477-2.242.323-.662.77-1.177 1.344-1.547a3.38 3.38 0 0 1 1.875-.562c1.1 0 1.953.362 2.562 1.086s.914 1.76.914 3.11v.602h-5.726c.02.833.263 1.508.726 2.023.47.51 1.063.766 1.782.766.5 0 .942-.104 1.296-.312a3.24 3.24 0 0 0 .93-.828l.883.688c-.708 1.09-1.77 1.633-3.188 1.633zm-.18-7.578a1.92 1.92 0 0 0-1.469.641c-.396.422-.64 1.016-.734 1.78h4.234v-.11c-.042-.734-.24-1.302-.594-1.703-.354-.406-.833-.61-1.437-.61z"/><path d="M235.75 625.742h-4.93v4.03h5.727V631h-7.227v-11.375h7.15v1.234h-5.65v3.657h4.93v1.226zm5.273-.11l1.875-3.086h1.688l-2.766 4.18 2.852 4.273H243l-1.953-3.164-1.953 3.164h-1.68l2.852-4.273-2.766-4.18h1.672l1.85 3.086zm12.243 1.234c0 1.287-.295 2.323-.883 3.1s-1.386 1.18-2.39 1.18c-1.026 0-1.833-.325-2.422-.976v4.07h-1.445v-11.703h1.32l.07.937c.588-.73 1.406-1.093 2.453-1.093 1.015 0 1.817.382 2.406 1.148s.89 1.83.89 3.195v.133zm-1.446-.164c0-.953-.203-1.706-.61-2.258s-.964-.828-1.672-.828c-.875 0-1.53.388-1.97 1.164v4.04c.433.77 1.094 1.157 1.985 1.157.692 0 1.242-.274 1.648-.82.412-.552.617-1.37.617-2.453zm2.907-.008c0-.828.16-1.573.484-2.234s.78-1.172 1.36-1.53c.584-.36 1.248-.54 1.992-.54 1.152 0 2.08.398 2.8 1.195s1.07 1.857 1.07 3.18v.1c0 .823-.16 1.563-.477 2.22-.312.65-.763 1.16-1.35 1.523s-1.255.547-2.016.547c-1.146 0-2.075-.398-2.79-1.195-.708-.797-1.062-1.852-1.062-3.164v-.102zm1.453.172c0 .938.216 1.7.648 2.258.438.568 1.02.852 1.75.852.734 0 1.318-.287 1.75-.86s.65-1.385.65-2.422c0-.927-.222-1.677-.665-2.25a2.08 2.08 0 0 0-1.75-.867 2.07 2.07 0 0 0-1.726.852c-.438.567-.656 1.38-.656 2.437zm12.14-3.023a4.26 4.26 0 0 0-.711-.055c-.948 0-1.59.404-1.93 1.21v6h-1.446v-8.453h1.407l.023.976c.474-.755 1.146-1.132 2.016-1.132.28 0 .494.036.64.11v1.344zm3.688-3.344v2.047h1.578v1.117h-1.578v5.242c0 .34.07.594.21.766s.38.25.72.25a3.47 3.47 0 0 0 .687-.094V631c-.38.104-.75.156-1.11.156-.646 0-1.133-.195-1.46-.586s-.493-.945-.493-1.664v-5.242h-1.54v-1.117h1.54V620.5h1.446zm11.328 3.344c-.22-.037-.456-.055-.71-.055-.948 0-1.59.404-1.93 1.21v6h-1.445v-8.453h1.406l.024.976c.474-.755 1.146-1.132 2.015-1.132.282 0 .495.036.64.11v1.344zm4.687 7.312c-1.145 0-2.078-.375-2.796-1.125s-1.08-1.763-1.08-3.023v-.266c0-.838.16-1.586.477-2.242s.77-1.177 1.344-1.547a3.38 3.38 0 0 1 1.875-.562c1.1 0 1.953.362 2.562 1.086s.914 1.76.914 3.11v.602h-5.726c.02.833.263 1.507.726 2.023.47.5 1.063.766 1.782.766.5 0 .942-.105 1.296-.313s.664-.484.93-.828l.883.687c-.708 1.09-1.77 1.633-3.188 1.633zm-.18-7.578a1.92 1.92 0 0 0-1.469.641c-.396.422-.64 1.015-.734 1.78h4.234v-.11c-.042-.735-.24-1.302-.594-1.703-.354-.407-.833-.6-1.437-.6zm12.297 3.29c0 1.287-.295 2.323-.883 3.1s-1.386 1.18-2.39 1.18c-1.026 0-1.833-.325-2.422-.976v4.07H293v-11.703h1.32l.07.937c.588-.73 1.406-1.093 2.453-1.093 1.015 0 1.817.382 2.406 1.148s.89 1.83.89 3.195v.133zm-1.446-.164c0-.953-.203-1.706-.61-2.258s-.964-.828-1.672-.828c-.875 0-1.53.388-1.97 1.164v4.04c.433.77 1.094 1.157 1.985 1.157.692 0 1.242-.274 1.648-.82.412-.552.617-1.37.617-2.453zm2.907-.008c0-.828.16-1.573.484-2.234s.78-1.172 1.36-1.53c.584-.36 1.248-.54 1.993-.54 1.15 0 2.08.398 2.79 1.195s1.07 1.857 1.07 3.18v.1c0 .823-.16 1.563-.477 2.22-.312.65-.763 1.16-1.35 1.523s-1.255.547-2.016.547c-1.146 0-2.075-.398-2.79-1.195-.708-.797-1.062-1.852-1.062-3.164v-.102zm1.453.172c0 .938.216 1.7.648 2.258.438.568 1.02.852 1.75.852.735 0 1.318-.287 1.75-.86s.65-1.385.65-2.422c0-.927-.222-1.677-.664-2.25-.438-.578-1.02-.867-1.75-.867a2.07 2.07 0 0 0-1.727.852c-.438.567-.656 1.38-.656 2.437zm12.14-3.023a4.26 4.26 0 0 0-.711-.055c-.948 0-1.59.404-1.93 1.21v6h-1.446v-8.453h1.407l.023.976c.474-.755 1.146-1.132 2.016-1.132.28 0 .494.036.64.11v1.344zm3.688-3.344v2.047h1.578v1.117h-1.578v5.242c0 .34.07.594.21.766s.38.25.718.25c.167 0 .396-.03.688-.094V631c-.38.104-.75.156-1.11.156-.646 0-1.133-.195-1.46-.586s-.492-.945-.492-1.664v-5.242h-1.54v-1.117h1.54V620.5h1.445zm9.203 0v2.047h1.578v1.117h-1.578v5.242c0 .34.07.594.21.766s.38.25.72.25a3.47 3.47 0 0 0 .687-.094V631c-.38.104-.75.156-1.11.156-.646 0-1.133-.195-1.46-.586s-.492-.945-.492-1.664v-5.242h-1.54v-1.117h1.54V620.5h1.445zm2.734 6.195c0-.828.162-1.573.485-2.234s.78-1.172 1.36-1.53c.583-.36 1.247-.54 1.992-.54 1.15 0 2.08.398 2.79 1.195.714.797 1.07 1.857 1.07 3.18v.1c0 .823-.16 1.563-.477 2.22-.312.65-.763 1.16-1.35 1.523s-1.256.547-2.016.547c-1.146 0-2.076-.398-2.79-1.195s-1.063-1.852-1.063-3.164v-.102zm1.453.172c0 .938.217 1.7.65 2.258s1.02.852 1.75.852 1.318-.287 1.75-.86.648-1.385.648-2.422c0-.927-.22-1.677-.664-2.25-.437-.578-1.02-.867-1.75-.867a2.07 2.07 0 0 0-1.726.852c-.438.567-.657 1.38-.657 2.437zm18.68-1.125h-4.93v4.03h5.727V631h-7.227v-11.375h7.15v1.234h-5.65v3.657h4.93v1.226zm5.274-.11l1.875-3.086h1.687l-2.766 4.18 2.852 4.273h-1.672l-1.953-3.164-1.953 3.164h-1.68l2.852-4.273-2.766-4.18h1.672l1.852 3.086zm8.335 4.344c.516 0 .967-.157 1.352-.47s.6-.703.64-1.172h1.367c-.026.484-.193.945-.5 1.383s-.72.786-1.234 1.047-1.053.4-1.626.4c-1.15 0-2.067-.383-2.75-1.148-.677-.77-1.015-1.823-1.015-3.156v-.243c0-.823.15-1.554.453-2.195s.734-1.138 1.297-1.492 1.237-.53 2.008-.53c.948 0 1.734.283 2.36.85s.966 1.305 1.008 2.21h-1.367c-.042-.547-.25-.995-.625-1.344a1.91 1.91 0 0 0-1.375-.531c-.735 0-1.305.266-1.71.797s-.602 1.29-.602 2.29v.274c0 .973.2 1.723.602 2.25s.974.79 1.718.79zm8.493 1.18c-1.146 0-2.078-.375-2.797-1.125s-1.078-1.763-1.078-3.023v-.266c0-.838.16-1.586.476-2.242.323-.66.77-1.177 1.344-1.547a3.38 3.38 0 0 1 1.875-.562c1.1 0 1.953.362 2.563 1.086s.914 1.76.914 3.11v.602h-5.727c.02.833.263 1.507.727 2.023.468.5 1.062.766 1.78.766.5 0 .943-.105 1.297-.313a3.24 3.24 0 0 0 .929-.828l.883.687c-.708 1.09-1.77 1.633-3.187 1.633zm-.18-7.578c-.583 0-1.073.214-1.47.64-.396.422-.64 1.015-.734 1.78h4.234v-.11c-.04-.735-.24-1.302-.594-1.703-.354-.407-.833-.6-1.437-.6zm6.727 7.422h-1.446v-12h1.446v12zm7 0v-7.336h-1.336v-1.117h1.336v-.867c0-.907.242-1.607.726-2.102s1.17-.742 2.055-.742c.333 0 .664.044.992.133l-.078 1.172a4.14 4.14 0 0 0-.781-.071c-.47 0-.83.138-1.086.414-.256.27-.383.662-.383 1.172v.89h1.805v1.117h-1.805V631h-1.445zm4.468-4.305c0-.828.162-1.573.485-2.234s.78-1.172 1.36-1.53c.583-.36 1.247-.54 1.992-.54 1.15 0 2.08.398 2.79 1.195.714.797 1.07 1.857 1.07 3.18v.1c0 .823-.16 1.563-.477 2.22-.312.65-.763 1.16-1.35 1.523s-1.256.547-2.016.547c-1.146 0-2.076-.398-2.79-1.195s-1.063-1.852-1.063-3.164v-.102zm1.453.172c0 .938.217 1.7.65 2.258s1.02.852 1.75.852 1.318-.287 1.75-.86.648-1.385.648-2.422c0-.927-.22-1.677-.664-2.25-.437-.578-1.02-.867-1.75-.867a2.07 2.07 0 0 0-1.726.852c-.438.567-.657 1.38-.657 2.437zm12.14-3.023c-.22-.037-.456-.055-.71-.055-.948 0-1.59.404-1.93 1.21v6h-1.445v-8.453h1.406l.024.976c.474-.755 1.146-1.132 2.015-1.132.282 0 .495.036.64.11v1.344zM415.188 631c-.084-.167-.152-.464-.204-.89-.672.698-1.474 1.047-2.406 1.047-.833 0-1.518-.234-2.055-.703-.53-.474-.796-1.073-.796-1.797 0-.88.333-1.562 1-2.047s1.614-.734 2.828-.734h1.406v-.664c0-.505-.15-.906-.453-1.203-.302-.302-.748-.453-1.336-.453-.516 0-.948.13-1.297.4s-.523.576-.523.946h-1.454c0-.422.15-.83.446-1.22.302-.396.708-.708 1.218-.938.516-.23 1.08-.343 1.696-.343.974 0 1.737.244 2.29.734.552.484.838 1.154.86 2.008v3.9c0 .776.1 1.394.297 1.852V631h-1.515zm-2.4-1.102c.453 0 .883-.117 1.29-.35s.7-.54.883-.914v-1.735h-1.133c-1.77 0-2.656.52-2.656 1.555 0 .453.15.807.453 1.063s.7.382 1.164.382zm5.53-3.195c0-1.297.308-2.338.922-3.125s1.42-1.187 2.414-1.187 1.774.338 2.352 1.015V619h1.445v12h-1.328l-.07-.906c-.578.708-1.383 1.062-2.414 1.062-.98 0-1.78-.4-2.4-1.203-.614-.802-.922-1.85-.922-3.14v-.11zm1.446.164c0 .96.198 1.71.593 2.25s.943.813 1.64.813c.917 0 1.586-.412 2.008-1.235v-3.883c-.432-.796-1.097-1.195-1.992-1.195-.71 0-1.26.274-1.657.82s-.593 1.356-.593 2.43zm10.726 2.172l2.094-6.492h1.476L431.03 631h-1.1l-3.063-8.453h1.477l2.148 6.492zm10.055 1.96c-.083-.167-.15-.464-.203-.89-.672.698-1.474 1.047-2.406 1.047-.834 0-1.52-.234-2.055-.703s-.797-1.073-.797-1.797c0-.88.333-1.562 1-2.047s1.615-.734 2.828-.734h1.406v-.664c0-.505-.15-.906-.453-1.203-.302-.302-.747-.453-1.336-.453-.515 0-.948.13-1.297.4s-.523.576-.523.946h-1.453c0-.422.148-.83.445-1.22a3.09 3.09 0 0 1 1.219-.938c.516-.23 1.08-.343 1.695-.343.974 0 1.737.244 2.29.734.552.484.84 1.154.86 2.008v3.9c0 .776.1 1.394.296 1.852V631h-1.515zm-2.4-1.102c.454 0 .883-.117 1.3-.35s.7-.54.882-.914v-1.735h-1.132c-1.77 0-2.657.52-2.657 1.555 0 .453.15.807.453 1.063s.7.382 1.164.382zm7.25-7.35l.047 1.062a3.08 3.08 0 0 1 2.532-1.218c1.786 0 2.687 1.007 2.703 3.023V631h-1.446v-5.594c-.005-.61-.145-1.06-.422-1.35-.27-.292-.695-.438-1.273-.438-.47 0-.88.125-1.234.375s-.63.578-.828.985V631h-1.446v-8.453h1.367zm10.852 7.43c.516 0 .966-.157 1.352-.47s.6-.703.64-1.172h1.367c-.026.484-.192.945-.5 1.383a3.29 3.29 0 0 1-1.234 1.047 3.53 3.53 0 0 1-1.625.39c-1.15 0-2.068-.383-2.75-1.148-.677-.77-1.016-1.823-1.016-3.156v-.243c0-.823.15-1.554.454-2.195s.734-1.138 1.296-1.492c.568-.354 1.237-.53 2.008-.53.948 0 1.735.283 2.36.85.63.568.966 1.305 1.007 2.21h-1.367c-.04-.547-.25-.995-.625-1.344a1.91 1.91 0 0 0-1.375-.531c-.734 0-1.304.266-1.71.797-.4.526-.6 1.29-.6 2.29v.274c0 .973.2 1.723.6 2.25s.974.79 1.72.79zm8.492 1.18c-1.146 0-2.078-.375-2.797-1.125s-1.078-1.763-1.078-3.023v-.266c0-.838.16-1.586.477-2.242s.77-1.177 1.344-1.547c.578-.375 1.203-.562 1.874-.562 1.1 0 1.954.362 2.563 1.086s.914 1.76.914 3.11v.602h-5.727c.02.833.264 1.507.727 2.023.47.5 1.063.766 1.78.766.51 0 .943-.105 1.297-.313s.664-.484.93-.828l.883.687c-.71 1.09-1.77 1.633-3.188 1.633zm-.18-7.578a1.92 1.92 0 0 0-1.468.641c-.396.422-.64 1.015-.735 1.78h4.235v-.11c-.042-.735-.24-1.302-.594-1.703-.354-.407-.833-.6-1.438-.6zm4.805 3.125c0-1.297.307-2.338.922-3.125s1.42-1.187 2.414-1.187 1.774.338 2.352 1.015V619h1.445v12h-1.328l-.07-.906c-.58.708-1.383 1.062-2.414 1.062-.98 0-1.78-.4-2.4-1.203s-.922-1.85-.922-3.14v-.11zm1.445.164c0 .96.198 1.71.594 2.25s.943.813 1.64.813c.917 0 1.586-.412 2.008-1.235v-3.883c-.433-.796-1.097-1.195-1.993-1.195-.708 0-1.26.274-1.656.82s-.594 1.356-.594 2.43zm15.993-3.023c-.22-.037-.456-.055-.71-.055-.948 0-1.59.404-1.93 1.21v6h-1.445v-8.453h1.406l.023.976c.474-.755 1.146-1.132 2.016-1.132.28 0 .495.036.64.11v1.344zm4.687 7.312c-1.146 0-2.078-.375-2.797-1.125s-1.078-1.763-1.078-3.023v-.266c0-.838.16-1.586.477-2.242s.77-1.177 1.344-1.547c.578-.375 1.203-.562 1.874-.562 1.1 0 1.954.362 2.563 1.086s.914 1.76.914 3.11v.602h-5.727c.02.833.264 1.507.727 2.023.47.5 1.063.766 1.78.766.51 0 .943-.105 1.297-.313s.664-.484.93-.828l.883.687c-.71 1.09-1.77 1.633-3.188 1.633zm-.18-7.578a1.92 1.92 0 0 0-1.468.641c-.396.422-.64 1.015-.735 1.78h4.235v-.11c-.042-.735-.24-1.302-.594-1.703-.354-.407-.833-.6-1.438-.6zm12.297 3.29c0 1.287-.294 2.323-.882 3.1s-1.386 1.18-2.39 1.18c-1.026 0-1.833-.325-2.422-.976v4.07h-1.445v-11.703h1.32l.07.937c.59-.73 1.407-1.093 2.453-1.093 1.016 0 1.818.382 2.407 1.148s.9 1.83.9 3.195v.133zm-1.445-.164c0-.953-.203-1.706-.61-2.258s-.964-.828-1.672-.828c-.875 0-1.53.388-1.97 1.164v4.04c.432.77 1.094 1.157 1.984 1.157.693 0 1.243-.274 1.65-.82s.617-1.37.617-2.453zm2.906-.008c0-.828.162-1.573.485-2.234s.78-1.172 1.36-1.53c.583-.36 1.247-.54 1.992-.54 1.15 0 2.08.398 2.79 1.195.714.797 1.07 1.857 1.07 3.18v.1c0 .823-.16 1.563-.477 2.22-.312.65-.763 1.16-1.35 1.523s-1.256.547-2.016.547c-1.146 0-2.076-.398-2.79-1.195s-1.063-1.852-1.063-3.164v-.102zm1.453.172c0 .938.217 1.7.65 2.258s1.02.852 1.75.852 1.318-.287 1.75-.86.648-1.385.648-2.422c0-.927-.22-1.677-.664-2.25-.437-.578-1.02-.867-1.75-.867a2.07 2.07 0 0 0-1.726.852c-.438.567-.657 1.38-.657 2.437zm12.14-3.023c-.22-.037-.456-.055-.71-.055-.948 0-1.59.404-1.93 1.21v6h-1.445v-8.453h1.406l.024.976c.474-.755 1.146-1.132 2.015-1.132.282 0 .495.036.64.11v1.344zm3.688-3.344v2.047h1.578v1.117h-1.578v5.242c0 .34.07.594.2.766s.38.25.72.25c.167 0 .396-.03.688-.094V631c-.38.104-.75.156-1.1.156-.645 0-1.132-.195-1.46-.586s-.492-.945-.492-1.664v-5.242h-1.54v-1.117h1.54V620.5h1.446zm4.843 10.5h-1.445v-8.453h1.445V631zm-1.562-10.695a.87.87 0 0 1 .211-.594c.146-.162.36-.242.64-.242s.495.08.64.242a.85.85 0 0 1 .219.594c0 .234-.073.43-.22.586s-.36.234-.64.234-.494-.078-.64-.234-.21-.352-.21-.586zm5.25 2.242l.047 1.062c.646-.812 1.49-1.218 2.53-1.218 1.786 0 2.687 1.007 2.703 3.023V631h-1.445v-5.594c-.005-.61-.146-1.06-.422-1.35s-.695-.438-1.274-.438c-.468 0-.88.125-1.234.375s-.63.578-.828.985V631h-1.445v-8.453h1.367zm7.117 4.156c0-1.318.305-2.364.914-3.14s1.417-1.17 2.422-1.17c1.03 0 1.836.364 2.414 1.093l.07-.937h1.32v8.25c0 1.094-.326 1.956-.977 2.586-.646.63-1.516.945-2.61.945a4.35 4.35 0 0 1-1.789-.39c-.584-.26-1.03-.618-1.336-1.07l.75-.867c.62.766 1.377 1.148 2.273 1.148.703 0 1.25-.197 1.64-.593s.594-.953.594-1.672v-.727c-.58.667-1.368 1-2.368 1-.99 0-1.79-.398-2.406-1.195-.61-.797-.914-1.883-.914-3.258zm1.453.164c0 .953.195 1.703.586 2.25s.938.813 1.64.813c.91 0 1.58-.414 2.008-1.242v-3.86c-.443-.807-1.107-1.21-1.993-1.21-.703 0-1.252.274-1.648.82s-.594 1.356-.594 2.43z"/></g></svg>