<svg xmlns="http://www.w3.org/2000/svg" xmlns:xlink="http://www.w3.org/1999/xlink" width="1150" height="877" fill="none" xmlns:v="https://vecta.io/nano"><style><![CDATA[.B{fill:#333}.C{fill-rule:evenodd}.D{fill:#fff}.E{stroke:#c6d2d9}.F{stroke-width:.798}.G{fill:#c6d2d9}.H{fill:#999}.I{fill:#ccc}.J{fill:#666}.K{fill:#e4eaee}.L{stroke-width:1.009}.M{fill:#47ce4f}.N{fill:#e5ebf0}.O{fill:#f2f6f8}]]></style><g filter="url(#B)"><path d="M38 65.41A3.41 3.41 0 0 1 41.411 62H1107.6c1.9 0 3.4 1.527 3.4 3.41v589.292c0 1.883-1.52 3.4-3.4 3.4H41.41a3.41 3.41 0 0 1-3.411-3.41V65.41z" class="D"/><path d="M50.093 80.186c2.26 0 4.093-1.833 4.093-4.093S52.354 72 50.093 72 46 73.833 46 76.093s1.833 4.093 4.093 4.093z" class="C N"/><path d="M64.093 80.186c2.26 0 4.093-1.833 4.093-4.093S66.354 72 64.093 72 60 73.833 60 76.093s1.833 4.093 4.093 4.093z" class="C N"/><path d="M77.093 80.186c2.26 0 4.093-1.833 4.093-4.093S79.354 72 77.093 72 73 73.833 73 76.093s1.832 4.093 4.093 4.093z" class="C N"/><path d="M38 93h1073v693.778a3.22 3.22 0 0 1-3.22 3.222H41.222c-1.78 0-3.222-1.443-3.222-3.222V93z" fill="#eff4f7"/><rect x="1053.85" y="114.505" width="39.369" height="39.369" rx="1.514" class="D E L"/><rect x="1005.4" y="114.505" width="39.369" height="39.369" rx="1.514" class="D E L"/><path d="M1017 132.17h5.85l2.22-6.057 2.22 6.057h5.86l-4.75 3.634 2.22 6.46-5.55-4.038-5.55 4.038 2.22-6.46-4.74-3.634zm4.54 7.47l3.23-2.322.3-.303.4.303 3.23 2.322-1.32-3.735-.1-.404.3-.303 2.62-2.018h-3.63l-.2-.404-1.3-3.735-1.3 3.735-.2.404h-3.64l3.03 2.32-.1.404-1.3 3.735z" class="C J"/><circle cx="1074.04" cy="125.609" r="2.019" stroke="#666" class="L"/><circle cx="1074.04" cy="133.684" r="2.019" stroke="#666" class="L"/><circle cx="1074.04" cy="141.76" r="2.019" stroke="#666" class="L"/><path d="M59.27 158.53v6.743H57V148.05h6.352c1.885 0 3.36.48 4.424 1.443 1.073.963 1.61 2.236 1.61 3.82 0 1.672-.524 2.962-1.573 3.87-1.04.9-2.535 1.348-4.483 1.348H59.27zm0-1.857h4.08c1.215 0 2.145-.284 2.792-.852.647-.576.97-1.404.97-2.484 0-1.025-.323-1.845-.97-2.46s-1.534-.934-2.662-.958h-4.21v6.755zm18.856-2.236a6.58 6.58 0 0 0-1.076-.083c-1.435 0-2.41.61-2.922 1.834v9.085H71.94v-12.8h2.13l.035 1.48c.718-1.143 1.735-1.715 3.052-1.715.426 0 .75.055.97.165v2.035zm1.207 4.318c0-1.254.245-2.382.733-3.383.497-1.002 1.183-1.775 2.058-2.32.883-.544 1.89-.816 3.017-.816 1.743 0 3.15.603 4.223 1.8 1.08 1.206 1.62 2.81 1.62 4.814v.154c0 1.246-.24 2.366-.722 3.36-.473.985-1.155 1.754-2.046 2.306-.883.552-1.9.83-3.052.83-1.735 0-3.143-.604-4.223-1.8-1.073-1.207-1.61-2.804-1.61-4.79v-.154zm2.2.26c0 1.42.327 2.56.982 3.42.662.86 1.546 1.29 2.65 1.29 1.112 0 1.995-.433 2.65-1.3.655-.875.982-2.098.982-3.667 0-1.404-.335-2.54-1.005-3.407-.662-.875-1.546-1.313-2.65-1.313a3.14 3.14 0 0 0-2.614 1.289c-.662.86-.994 2.1-.994 3.69zm14.456-6.542v14.28c0 2.46-1.116 3.7-3.348 3.7a4.06 4.06 0 0 1-1.337-.213v-1.75c.252.063.584.094.994.094.49 0 .86-.134 1.112-.402.26-.26.4-.718.4-1.372v-14.326h2.188zm-2.413-3.395c0-.347.107-.642.32-.887.22-.252.54-.378.958-.378.426 0 .75.122.97.366s.33.544.33.9-.1.65-.33.888-.544.354-.97.354-.745-.118-.958-.354-.32-.533-.32-.888zm11.262 16.432c-1.735 0-3.147-.568-4.235-1.704-1.09-1.143-1.633-2.67-1.633-4.578v-.402c0-1.27.24-2.402.722-3.395.49-1.002 1.167-1.783 2.035-2.342.875-.568 1.82-.852 2.84-.852 1.664 0 2.957.548 3.88 1.644s1.384 2.666 1.384 4.708v.91h-8.67c.03 1.262.398 2.283 1.1 3.064.7.773 1.61 1.16 2.697 1.16.773 0 1.427-.157 1.964-.473s1.005-.733 1.407-1.254l1.337 1.04c-1.072 1.648-2.68 2.473-4.826 2.473zm-.272-11.475c-.884 0-1.625.323-2.224.97-.6.64-.97 1.538-1.112 2.697h6.41v-.166c-.063-1.112-.363-1.97-.9-2.578-.536-.616-1.262-.923-2.176-.923zm12.94 9.688c.78 0 1.463-.236 2.047-.7s.906-1.064.97-1.774h2.07c-.04.733-.292 1.43-.757 2.094s-1.09 1.19-1.87 1.585c-.773.394-1.593.592-2.46.592-1.743 0-3.13-.58-4.164-1.74-1.025-1.168-1.538-2.76-1.538-4.78v-.366c0-1.246.23-2.354.686-3.324s1.112-1.724 1.964-2.26c.86-.536 1.873-.804 3.04-.804 1.436 0 2.626.43 3.573 1.29.954.86 1.463 1.976 1.526 3.348h-2.07c-.064-.828-.38-1.506-.947-2.035-.56-.536-1.254-.804-2.082-.804-1.112 0-1.975.402-2.6 1.207-.608.796-.91 1.95-.91 3.466v.414c0 1.474.303 2.6.91 3.406s1.474 1.195 2.602 1.195zm10.516-14.35v3.1h2.4v1.692h-2.4v7.938c0 .512.107.9.32 1.16.213.252.576.378 1.088.378.253 0 .6-.047 1.04-.14v1.774c-.576.158-1.135.237-1.68.237-.977 0-1.715-.296-2.212-.888s-.745-1.43-.745-2.52v-7.938h-2.33v-1.692h2.33v-3.1h2.188zm16.928 5.276l4.13-6.6h2.673l-5.44 8.54 5.572 8.683h-2.698l-4.235-6.72-4.258 6.72h-2.685l5.583-8.683-5.453-8.54h2.66l4.152 6.6z" class="J"/><path d="M57.49 123.067V127h-1.325v-10.047h3.706c1.1 0 1.96.28 2.58.842s.94 1.304.94 2.23c0 .975-.306 1.727-.918 2.256s-1.48.787-2.615.787H57.49zm0-1.084h2.38c.708 0 1.25-.165 1.63-.497s.566-.818.566-1.45c0-.598-.19-1.076-.566-1.435s-.895-.545-1.553-.56H57.49v3.94zm11-1.304a3.85 3.85 0 0 0-.628-.048c-.837 0-1.405.356-1.704 1.07v5.3h-1.277v-7.466h1.242l.02.862c.42-.667 1.012-1 1.78-1 .248 0 .437.032.566.096v1.187zm.704 2.52c0-.732.143-1.4.428-1.974s.7-1.035 1.2-1.352 1.102-.476 1.76-.476c1.017 0 1.838.352 2.463 1.055s.945 1.64.945 2.81v.1c0 .726-.14 1.38-.42 1.96s-.674 1.024-1.194 1.346-1.11.483-1.78.483c-1.012 0-1.833-.352-2.463-1.056s-.94-1.635-.94-2.794v-.1zm1.284.152c0 .828.19 1.492.573 1.994s.902.752 1.546.752 1.164-.253 1.546-.76c.382-.51.573-1.224.573-2.14 0-.82-.195-1.482-.587-1.988a1.84 1.84 0 0 0-1.546-.766 1.83 1.83 0 0 0-1.525.753c-.386.5-.58 1.22-.58 2.153zm8.432-3.816v8.33c0 1.435-.65 2.153-1.953 2.153-.28 0-.54-.042-.78-.125v-1.02c.147.037.34.055.58.055.285 0 .5-.078.65-.234s.228-.42.228-.8v-8.356H78.9zm-1.408-1.98a.76.76 0 0 1 .186-.517c.13-.148.315-.22.56-.22s.437.07.566.214a.75.75 0 0 1 .193.524.73.73 0 0 1-.193.518c-.13.138-.317.207-.566.207s-.435-.07-.56-.207-.186-.31-.186-.518zm6.57 9.585c-1.012 0-1.836-.33-2.47-.994s-.952-1.557-.952-2.67v-.235c0-.74.14-1.4.42-1.98.285-.584.68-1.04 1.187-1.367s1.063-.496 1.656-.496c.97 0 1.725.32 2.263.96s.807 1.555.807 2.746v.532h-5.058c.018.736.232 1.33.642 1.787a2.04 2.04 0 0 0 1.573.676c.45 0 .833-.092 1.145-.276s.587-.428.82-.73l.78.607c-.626.96-1.564 1.442-2.815 1.442zm-.16-6.694c-.515 0-.948.19-1.297.566s-.566.897-.65 1.574h3.74v-.097c-.037-.65-.212-1.15-.524-1.504-.313-.36-.736-.54-1.27-.54zm7.55 5.652c.455 0 .853-.138 1.194-.414s.53-.62.566-1.035h1.208c-.023.428-.17.835-.442 1.22s-.635.695-1.1.925-.93.345-1.435.345c-1.017 0-1.826-.338-2.43-1.014s-.897-1.6-.897-2.788v-.214c0-.727.133-1.373.4-1.94s.65-1.005 1.145-1.318 1.093-.47 1.773-.47c.837 0 1.532.25 2.084.752s.853 1.152.9 1.953h-1.208c-.037-.483-.22-.88-.552-1.187-.327-.313-.73-.47-1.214-.47-.65 0-1.152.235-1.51.704s-.53 1.14-.53 2.022v.242c0 .86.177 1.522.53 1.987s.86.697 1.518.697zm6.134-8.37v1.808h1.394v.986h-1.394v4.63c0 .3.062.524.186.676s.336.22.635.22c.147 0 .35-.028.607-.083V127a3.7 3.7 0 0 1-.98.138c-.57 0-1-.173-1.3-.518s-.435-.834-.435-1.47v-4.63h-1.36v-.986h1.36v-1.808h1.277zm7.24 7.294c0-.345-.13-.612-.394-.8-.257-.193-.7-.36-1.36-.497s-1.157-.303-1.54-.497c-.377-.193-.658-.423-.842-.7s-.27-.584-.27-.952c0-.612.258-1.13.773-1.553s1.182-.634 1.987-.634c.847 0 1.532.218 2.057.655s.793.996.793 1.677h-1.283c0-.35-.15-.65-.45-.904s-.667-.38-1.118-.38c-.464 0-.828.102-1.1.304s-.393.467-.393.794c0 .308.122.54.365.697s.684.306 1.318.448c.64.143 1.157.313 1.553.51s.688.437.876.717c.194.276.3.615.3 1.015a1.92 1.92 0 0 1-.8 1.608c-.534.4-1.226.6-2.077.6-.598 0-1.127-.106-1.587-.317s-.822-.506-1.084-.884a2.17 2.17 0 0 1-.386-1.235h1.276c.023.428.194.768.51 1.02s.745.373 1.27.373c.483 0 .87-.097 1.16-.3s.442-.46.442-.786z" fill="#03a9f4"/><path d="M143.266 197.55c0-.66.536-1.197 1.197-1.197h76.644c.66 0 1.197.536 1.197 1.197v29.94h-79.038v-29.94z" class="E F K"/><path d="M59.437 197.55a1.2 1.2 0 0 1 1.198-1.197h76.643a1.2 1.2 0 0 1 1.198 1.197v29.94h-79.04v-29.94z" class="E F K"/><path d="M227.094 197.55a1.2 1.2 0 0 1 1.198-1.197h80.635a1.2 1.2 0 0 1 1.198 1.197v29.94h-83.03v-29.94z" class="E F K"/><path d="M390.76 197.55c0-.66.536-1.197 1.197-1.197h56.685c.66 0 1.197.536 1.197 1.197v33.133h-59.08V197.55z" class="E F K"/><mask id="A" class="D"><use xlink:href="#C" class="C"/></mask><use xlink:href="#C" class="C D"/><path d="M314.516 227v.798h.798V227h-.798zM59 227v-.798h-.798V227H59zm1035 0h.8v-.798h-.8V227zm-707.63 0h-.798v.798h.798V227zm-71.055-29.45a.8.8 0 0 1 .799-.798v-1.597c-1.323 0-2.396 1.073-2.396 2.395h1.597zm0 29.45v-29.45h-1.597V227h1.597zM59 227.798h255.516v-1.596H59v1.596zm.798 541.605V227h-1.597v542.403h1.597zm.798.8a.8.8 0 0 1-.798-.799h-1.597c0 1.323 1.072 2.395 2.395 2.395v-1.596zm1031.803 0H60.597v1.596H1092.4v-1.596zm.8-.8a.8.8 0 0 1-.8.799v1.596c1.33 0 2.4-1.072 2.4-2.395h-1.6zm0-542.403v542.403h1.6V227h-1.6zm-706.83.798H1094v-1.596H386.37v1.596zm-.798-30.247V227h1.596v-29.45h-1.596zm-.8-.798a.8.8 0 0 1 .799.798h1.596c0-1.322-1.072-2.395-2.395-2.395v1.597zm-68.66 0h68.66v-1.597h-68.66v1.597z" mask="url(#A)" class="G"/><path d="M167.338 213.46h-3.33l-.747 2.074h-1.08l3.035-7.946h.916l3.04 7.946h-1.075l-.758-2.074zm-3.013-.862h2.702l-1.354-3.717-1.348 3.717zm11.696.415c-.1.84-.4 1.49-.934 1.948s-1.213.682-2.08.682c-.94 0-1.692-.336-2.26-1s-.846-1.573-.846-2.7v-.764c0-.74.13-1.388.393-1.95s.64-.99 1.124-1.288 1.044-.452 1.68-.452c.844 0 1.52.236 2.03.71s.806 1.12.9 1.954h-1.054c-.09-.633-.29-1.092-.595-1.375s-.725-.426-1.27-.426c-.67 0-1.195.247-1.577.742s-.568 1.2-.568 2.112v.77c0 .862.18 1.548.54 2.057s.864.764 1.512.764c.582 0 1.028-.13 1.337-.393s.52-.726.622-1.38h1.054zm7.28 0c-.098.84-.41 1.49-.933 1.948s-1.214.682-2.08.682c-.938 0-1.69-.336-2.26-1s-.846-1.573-.846-2.7v-.764c0-.74.13-1.388.393-1.95s.64-.99 1.124-1.288 1.045-.452 1.68-.452c.844 0 1.52.236 2.03.71s.806 1.12.9 1.954h-1.053c-.09-.633-.29-1.092-.595-1.375s-.726-.426-1.272-.426c-.67 0-1.195.247-1.577.742s-.568 1.2-.568 2.112v.77c0 .862.18 1.548.54 2.057s.864.764 1.51.764c.583 0 1.028-.13 1.338-.393s.52-.726.622-1.38h1.053zm5.927-1.152h-3.444v2.816h4v.857h-5.05v-7.946h4.994v.862h-3.946v2.554h3.444v.857zm4.202.13c-.898-.258-1.553-.575-1.964-.95a1.83 1.83 0 0 1-.612-1.397c0-.626.25-1.142.748-1.55s1.153-.616 1.954-.616c.546 0 1.03.105 1.457.316s.76.502.993.873.355.777.355 1.217h-1.053c0-.48-.153-.857-.46-1.13-.305-.277-.736-.415-1.293-.415-.517 0-.92.114-1.212.344-.287.225-.43.54-.43.944 0 .324.137.598.4.824s.744.426 1.402.61 1.18.39 1.55.617.65.482.83.78.273.65.273 1.054c0 .644-.252 1.16-.754 1.55-.502.385-1.173.578-2.014.578a3.77 3.77 0 0 1-1.528-.311c-.473-.21-.838-.498-1.097-.862s-.382-.777-.382-1.24h1.054c0 .48.176.86.53 1.14s.83.415 1.424.415c.554 0 .977-.113 1.272-.338s.442-.533.442-.922-.136-.7-.41-.9-.768-.426-1.485-.633zm6.637 0c-.9-.258-1.554-.575-1.965-.95a1.83 1.83 0 0 1-.611-1.397c0-.626.25-1.142.748-1.55s1.153-.616 1.953-.616c.546 0 1.032.105 1.458.316a2.38 2.38 0 0 1 .993.873c.236.37.355.777.355 1.217h-1.054c0-.48-.153-.857-.458-1.13-.306-.277-.737-.415-1.294-.415-.516 0-.92.114-1.21.344-.288.225-.43.54-.43.944 0 .324.136.598.41.824s.744.426 1.403.61 1.178.39 1.55.617.65.482.83.78.273.65.273 1.054c0 .644-.25 1.16-.753 1.55-.502.385-1.174.578-2.014.578-.546 0-1.055-.104-1.528-.31s-.84-.498-1.097-.862-.382-.777-.382-1.24h1.053c0 .48.177.86.53 1.14s.83.415 1.424.415c.553 0 .977-.113 1.272-.338a1.1 1.1 0 0 0 .442-.922c0-.4-.137-.7-.4-.9s-.767-.426-1.484-.633z" class="J"/><path d="M245.927 211.993c-.9-.258-1.554-.575-1.965-.95s-.61-.844-.61-1.397c0-.626.25-1.142.747-1.55s1.154-.616 1.954-.616c.546 0 1.032.105 1.457.316.43.21.76.502.994.873s.354.777.354 1.217h-1.053c0-.48-.153-.857-.458-1.13-.306-.277-.737-.415-1.294-.415-.516 0-.92.114-1.21.344-.288.225-.43.54-.43.944 0 .324.136.598.41.824s.744.426 1.402.61 1.18.39 1.55.617.652.482.83.78.273.65.273 1.054c0 .644-.25 1.16-.753 1.55-.502.385-1.174.578-2.014.578-.546 0-1.055-.104-1.528-.31s-.84-.498-1.097-.862-.382-.777-.382-1.24h1.053c0 .48.176.86.53 1.14s.832.415 1.425.415c.553 0 .977-.113 1.27-.338s.443-.533.443-.922-.137-.7-.4-.9-.768-.426-1.484-.633zm8.786-.13h-3.443v2.816h4v.857h-5.048v-7.946h4.994v.862h-3.946v2.554h3.443v.857zm7.46-3.41h-2.554v7.084h-1.043v-7.084h-2.548v-.862h6.145v.862zm6.757 0h-2.555v7.084h-1.042v-7.084h-2.55v-.862h6.146v.862zm2.303 7.084h-1.048v-7.946h1.048v7.946zm8.028 0h-1.054l-4-6.123v6.123h-1.053v-7.946h1.053l4.01 6.15v-6.15h1.043v7.946zm7.728-1.042c-.27.385-.646.674-1.13.867s-1.04.284-1.68.284c-.648 0-1.222-.15-1.725-.453s-.89-.738-1.167-1.3-.413-1.2-.42-1.948v-.693c0-1.197.28-2.125.835-2.784s1.347-.987 2.358-.987c.83 0 1.497.212 2.003.638s.815 1.022.928 1.8h-1.048c-.197-1.05-.822-1.577-1.878-1.577-.702 0-1.235.247-1.6.742s-.542 1.204-.545 2.14v.65c0 .89.203 1.6.61 2.128s.96.786 1.654.786c.392 0 .736-.043 1.03-.13a1.58 1.58 0 0 0 .731-.442v-1.784h-1.84v-.852H287v2.915zm4.093-2.5c-.9-.258-1.554-.575-1.965-.95a1.83 1.83 0 0 1-.611-1.397c0-.626.25-1.142.748-1.55s1.153-.616 1.953-.616c.546 0 1.032.105 1.458.316a2.38 2.38 0 0 1 .993.873c.236.37.355.777.355 1.217h-1.054c0-.48-.152-.857-.458-1.13-.306-.277-.737-.415-1.294-.415-.516 0-.92.114-1.21.344-.288.225-.43.54-.43.944 0 .324.136.598.41.824s.744.426 1.403.61 1.178.39 1.55.617.65.482.83.78.273.65.273 1.054c0 .644-.25 1.16-.753 1.55-.502.385-1.173.578-2.014.578-.546 0-1.055-.104-1.528-.31s-.84-.498-1.097-.862-.382-.777-.382-1.24h1.053c0 .48.177.86.53 1.14s.83.415 1.424.415c.553 0 .977-.113 1.272-.338a1.1 1.1 0 0 0 .442-.922c0-.4-.137-.7-.4-.9s-.767-.426-1.484-.633z" class="J"/><path d="M332.62 211.993c-.9-.258-1.554-.575-1.965-.95a1.83 1.83 0 0 1-.611-1.397c0-.626.25-1.142.748-1.55s1.153-.616 1.953-.616c.546 0 1.032.105 1.458.316a2.38 2.38 0 0 1 .993.873c.236.37.355.777.355 1.217h-1.054c0-.48-.153-.857-.458-1.13-.306-.277-.737-.415-1.294-.415-.516 0-.92.114-1.21.344-.288.225-.43.54-.43.944 0 .324.136.598.41.824s.744.426 1.403.61 1.178.39 1.55.617.65.482.83.78.273.65.273 1.054c0 .644-.25 1.16-.753 1.55-.502.385-1.174.578-2.014.578-.546 0-1.055-.104-1.528-.31s-.84-.498-1.097-.862-.382-.777-.382-1.24h1.053c0 .48.177.86.53 1.14s.83.415 1.424.415c.553 0 .977-.113 1.272-.338a1.1 1.1 0 0 0 .442-.922c0-.4-.137-.7-.4-.9s-.767-.426-1.484-.633zm9.785-3.542h-2.554v7.084h-1.042v-7.084h-2.55v-.862h6.145v.862zm5.13 5h-3.33l-.747 2.074h-1.08l3.034-7.946h.917l3.04 7.946h-1.075l-.76-2.074zm-3.012-.862h2.7l-1.353-3.717-1.348 3.717zm10.697-4.148h-2.554v7.084h-1.043v-7.084h-2.548v-.862h6.145v.862zm6.773-.862v5.403c-.004.75-.24 1.362-.7 1.84s-1.1.744-1.9.802l-.278.01c-.87 0-1.563-.235-2.08-.704s-.778-1.115-.786-1.937v-5.414h1.037v5.38c0 .575.16 1.022.475 1.342s.768.475 1.354.475c.593 0 1.046-.158 1.36-.475s.474-.762.474-1.337v-5.386h1.054zm3.995 4.404c-.9-.258-1.554-.575-1.965-.95s-.61-.844-.61-1.397c0-.626.25-1.142.747-1.55s1.154-.616 1.954-.616c.546 0 1.032.105 1.457.316s.76.502.994.873.354.777.354 1.217h-1.053c0-.48-.153-.857-.458-1.13-.306-.277-.737-.415-1.294-.415-.516 0-.92.114-1.21.344-.288.225-.432.54-.432.944 0 .324.137.598.4.824s.744.426 1.402.61c.663.186 1.18.39 1.55.617s.652.482.83.78.273.65.273 1.054c0 .644-.25 1.16-.753 1.55-.503.385-1.174.578-2.014.578-.546 0-1.055-.104-1.528-.31s-.84-.498-1.097-.862-.382-.777-.382-1.24h1.053c0 .48.176.86.53 1.14s.832.415 1.425.415c.553 0 .977-.113 1.27-.338s.442-.533.442-.922-.136-.7-.41-.9-.768-.426-1.484-.633z" class="J"/><path d="M412.56 215.535h-1.054l-4-6.123v6.123h-1.053v-7.946h1.053l4.01 6.15v-6.15h1.043v7.946zm7.973-3.717c0 .78-.13 1.46-.393 2.04s-.633 1.02-1.113 1.327-1.04.458-1.68.458c-.626 0-1.18-.153-1.665-.458s-.86-.748-1.13-1.316-.402-1.23-.4-1.98v-.573c0-.764.133-1.44.4-2.025s.64-1.033 1.124-1.342 1.044-.47 1.67-.47c.637 0 1.197.154 1.68.463s.862.752 1.124 1.338.393 1.26.393 2.035v.502zm-1.042-.513c0-.942-.19-1.664-.568-2.166s-.908-.76-1.588-.76c-.662 0-1.184.253-1.566.76s-.573 1.2-.584 2.095v.584c0 .914.19 1.632.573 2.156s.915.78 1.588.78 1.2-.246 1.572-.737.562-1.203.573-2.123v-.6zm7.952-2.854h-2.555v7.084h-1.042v-7.084h-2.55v-.862h6.146v.862zm5.67 3.41h-3.444v2.816h4v.857h-5.05v-7.946h4.994v.862h-3.946v2.554h3.444v.857z" class="J"/><path d="M87.805 208.45H85.25v7.084H84.21v-7.084h-2.55v-.862h6.145v.862zm5.13 5h-3.33l-.748 2.074h-1.08l3.035-7.946h.917l3.04 7.946h-1.075l-.76-2.074zm-3.013-.862h2.7l-1.353-3.717-1.348 3.717zm8.257-.606c-.9-.258-1.554-.575-1.965-.95a1.83 1.83 0 0 1-.611-1.397c0-.626.25-1.142.748-1.55s1.153-.616 1.954-.616c.546 0 1.03.105 1.457.316s.76.502.993.873.355.777.355 1.217h-1.054c0-.48-.153-.857-.458-1.13-.306-.277-.737-.415-1.293-.415-.517 0-.92.114-1.212.344-.288.225-.43.54-.43.944 0 .324.136.598.41.824s.744.426 1.403.61 1.18.39 1.55.617.65.482.83.78.273.65.273 1.054c0 .644-.25 1.16-.753 1.55-.502.385-1.173.578-2.014.578a3.77 3.77 0 0 1-1.528-.311c-.473-.21-.84-.498-1.097-.862a2.11 2.11 0 0 1-.382-1.239h1.053c0 .48.177.86.53 1.14s.83.415 1.424.415c.553 0 .977-.113 1.272-.338s.442-.533.442-.922-.137-.7-.4-.9-.768-.426-1.484-.633zm6.314-.153l-.97 1v2.685h-1.048v-7.946h1.048v3.93l3.53-3.93h1.266l-3.127 3.51 3.373 4.437H107.3l-2.816-3.695zm7.33.153c-.9-.258-1.554-.575-1.965-.95a1.83 1.83 0 0 1-.611-1.397c0-.626.25-1.142.748-1.55s1.153-.616 1.953-.616c.546 0 1.032.105 1.458.316a2.38 2.38 0 0 1 .993.873c.236.37.355.777.355 1.217H113.7c0-.48-.152-.857-.458-1.13-.306-.277-.737-.415-1.294-.415-.516 0-.92.114-1.21.344-.288.225-.43.54-.43.944 0 .324.136.598.41.824s.744.426 1.403.61 1.178.39 1.55.617.65.482.83.78.273.65.273 1.054c0 .644-.25 1.16-.753 1.55-.502.385-1.173.578-2.014.578-.546 0-1.055-.104-1.528-.31s-.84-.498-1.097-.862-.382-.777-.382-1.24h1.053c0 .48.177.86.53 1.14s.83.415 1.424.415c.553 0 .977-.113 1.272-.338a1.1 1.1 0 0 0 .442-.922c0-.4-.137-.7-.4-.9s-.767-.426-1.484-.633z" class="J"/><path d="M419.502 244.655a1.2 1.2 0 0 1 1.198-1.198h654.66a1.2 1.2 0 0 1 1.2 1.198v279.828H419.502V244.655z" class="D E F"/><path d="M419.102 524.084h657.858v2.395a1.6 1.6 0 0 1-1.6 1.597H420.7c-.882 0-1.597-.715-1.597-1.597v-2.395z" class="G"/><path d="M74.606 243.457h328.13v31.136H74.606z" class="D E F"/><path d="M74.4 290.4H402.6V389.6H74.4z" class="D E F"/><path d="M90.174 326.09h296.993v.798H90.174z" class="K"/><path d="M94.815 260.087h-2.952v2.414h3.43v.735h-4.327v-6.81h4.28v.74h-3.382v2.19h2.952v.734zm3.602.113c-.77-.222-1.332-.493-1.684-.814a1.57 1.57 0 0 1-.524-1.198 1.64 1.64 0 0 1 .641-1.328c.43-.353.99-.53 1.675-.53.468 0 .884.1 1.25.27s.652.43.852.75a1.91 1.91 0 0 1 .304 1.043h-.903c0-.412-.13-.735-.393-.968s-.632-.356-1.11-.356c-.443 0-.79.098-1.038.295s-.37.463-.37.81c0 .278.117.513.35.706s.638.365 1.202.524 1 .336 1.33.53.558.413.71.67.234.557.234.903c0 .552-.215.995-.646 1.328s-1.006.496-1.726.496c-.468 0-.904-.09-1.3-.266s-.72-.428-.94-.74-.328-.665-.328-1.06h.903a1.18 1.18 0 0 0 .454.977c.306.237.713.356 1.22.356.474 0 .837-.097 1.1-.3s.38-.457.38-.79-.117-.59-.35-.772-.658-.365-1.272-.542zm8.387-3.036h-2.19v6.072h-.894v-6.072h-2.184v-.74h5.267v.74zm1.974 6.072h-.898v-6.81h.898v6.81zm2.807-6.81l2.227 5.557 2.226-5.557h1.165v6.81h-.898v-2.653l.084-2.863-2.236 5.516h-.687l-2.232-5.502.09 2.85v2.653h-.898v-6.81h1.16zm11.05 5.033h-2.853l-.64 1.778h-.926l2.6-6.81h.786l2.605 6.81h-.92l-.65-1.778zm-2.582-.74h2.316l-1.16-3.186-1.156 3.186zm9.17-3.555h-2.19v6.072h-.894v-6.072h-2.184v-.74h5.267v.74zm4.86 2.923h-2.952v2.414h3.43v.735h-4.327v-6.81h4.28v.74h-3.383v2.19h2.952v.734z" class="H"/><path d="M368.05 262.64h-5.206v-.726l2.75-3.056c.408-.462.688-.837.84-1.125s.234-.59.234-.9c0-.415-.125-.755-.376-1.02s-.586-.398-1.004-.398c-.502 0-.894.144-1.174.43s-.414.68-.414 1.2h-1c0-.73.235-1.323.704-1.774s1.104-.677 1.894-.677c.738 0 1.322.195 1.752.584s.644.9.644 1.545c0 .782-.5 1.714-1.496 2.794l-2.128 2.31h3.99v.824zm6.053-3.39c0 1.182-.202 2.06-.606 2.636s-1.035.862-1.894.862c-.848 0-1.475-.28-1.883-.84s-.618-1.405-.633-2.522v-1.348c0-1.168.202-2.036.606-2.603s1.037-.852 1.9-.852c.855 0 1.485.275 1.89.825s.61 1.39.622 2.532v1.3zm-1-1.38c0-.855-.12-1.477-.36-1.867s-.62-.59-1.14-.59-.893.195-1.13.584-.358.988-.365 1.796v1.615c0 .86.124 1.494.37 1.905s.63.61 1.135.61c.5 0 .868-.193 1.108-.58s.37-.993.382-1.822v-1.654zm7.286 1.38c0 1.182-.202 2.06-.606 2.636s-1.035.862-1.894.862c-.847 0-1.475-.28-1.883-.84s-.618-1.405-.633-2.522v-1.348c0-1.168.202-2.036.606-2.603s1.037-.852 1.9-.852c.855 0 1.485.275 1.89.825s.61 1.39.622 2.532v1.3zm-1-1.38c0-.855-.12-1.477-.36-1.867s-.62-.59-1.14-.59-.893.195-1.13.584-.36.988-.366 1.796v1.615c0 .86.124 1.494.37 1.905s.63.61 1.135.61c.5 0 .868-.193 1.108-.58s.37-.993.382-1.822v-1.654zm3.417-.42a2.14 2.14 0 0 1 1.746-.824c1.248 0 1.878.704 1.89 2.112v3.902h-1v-3.908c-.004-.425-.102-.74-.295-.944s-.486-.306-.89-.306c-.328 0-.615.088-.863.262a1.78 1.78 0 0 0-.578.688v4.208h-1v-8.383h1v3.193z" class="B"/><path d="M95.67 304.267h-2.19v6.072h-.893v-6.072h-2.185v-.74h5.267v.74zm3.508 3.317h-1.6v2.755h-.903v-6.81h2.255c.767 0 1.357.175 1.768.524s.623.858.623 1.525c0 .424-.116.794-.347 1.11s-.545.55-.954.706l1.6 2.89v.056h-.964l-1.478-2.755zm-1.6-.735h1.38c.446 0 .8-.115 1.062-.346s.398-.54.398-.926c0-.42-.127-.744-.38-.968s-.61-.34-1.085-.342H97.58v2.582zm8.767 1.713h-2.854l-.64 1.777h-.926l2.6-6.81h.786l2.606 6.81h-.922l-.65-1.777zm-2.582-.74h2.315l-1.16-3.185-1.155 3.185zm10.024.356c-.084.72-.35 1.277-.8 1.67s-1.04.585-1.782.585c-.804 0-1.45-.29-1.937-.866s-.725-1.348-.725-2.315v-.655c0-.633.113-1.2.337-1.67s.55-.848.964-1.104.895-.388 1.44-.388c.723 0 1.303.202 1.74.608s.69.96.762 1.674h-.903c-.077-.542-.247-.935-.51-1.178s-.623-.365-1.1-.365c-.574 0-1.025.212-1.352.636s-.487 1.027-.487 1.8v.66c0 .74.155 1.327.463 1.763s.74.655 1.296.655c.5 0 .88-.112 1.146-.336s.446-.623.533-1.184h.903zm2.96-1.006l-.832.866v2.3h-.898v-6.81h.898v3.368l3.026-3.368h1.086l-2.68 3.008 2.89 3.803h-1.076l-2.414-3.167zm8.126.02h-2.952v2.414h3.43v.734h-4.327v-6.81h4.28v.74h-3.382v2.2h2.952v.734zm1.595 3.148v-6.81h1.923c.592 0 1.116.13 1.572.393s.806.635 1.052 1.118.376 1.04.38 1.665v.436c0 .642-.125 1.205-.374 1.688a2.59 2.59 0 0 1-1.062 1.114c-.458.258-.993.39-1.605.397h-1.885zm.898-6.072v5.338h.945c.693 0 1.23-.215 1.614-.646s.58-1.043.58-1.838v-.398c0-.773-.182-1.374-.547-1.8s-.876-.65-1.544-.655h-1.048z" class="H"/><path d="M366.16 309.743h-1.015v-6.73l-2.036.748v-.917l2.893-1.086h.158v7.985zm7.94-3.4c0 1.183-.202 2.062-.606 2.636s-1.035.863-1.894.863c-.848 0-1.475-.28-1.883-.84s-.618-1.404-.633-2.52v-1.348c0-1.168.202-2.036.606-2.604s1.037-.85 1.9-.85c.855 0 1.485.275 1.89.824s.61 1.4.622 2.533v1.31zm-1-1.38c0-.855-.12-1.478-.36-1.867s-.62-.59-1.14-.59-.893.194-1.13.584-.358.987-.365 1.795v1.616c0 .858.124 1.493.37 1.904s.63.612 1.135.612c.5 0 .868-.193 1.108-.58s.37-.993.382-1.823v-1.653zm7.286 1.38c0 1.183-.202 2.062-.606 2.636s-1.035.863-1.894.863c-.847 0-1.475-.28-1.883-.84s-.618-1.404-.633-2.52v-1.348c0-1.168.202-2.036.606-2.604s1.037-.85 1.9-.85c.855 0 1.485.275 1.89.824s.61 1.4.622 2.533v1.31zm-1-1.38c0-.855-.12-1.478-.36-1.867s-.62-.59-1.14-.59-.893.194-1.13.584-.36.987-.366 1.795v1.616c0 .858.124 1.493.37 1.904s.63.612 1.135.612c.5 0 .868-.193 1.108-.58s.37-.993.382-1.823v-1.653zm3.417-.42c.447-.55 1.03-.824 1.746-.824 1.248 0 1.878.704 1.89 2.112v3.903h-1v-3.908c-.004-.426-.102-.74-.295-.944s-.486-.306-.89-.306c-.328 0-.615.087-.863.262a1.78 1.78 0 0 0-.578.688v4.208h-1v-8.383h1v3.192z" class="B"/><path d="M90.965 349.46v-6.812h2.227c.74 0 1.294.153 1.665.46s.56.758.56 1.356a1.39 1.39 0 0 1-.271.847c-.18.243-.427.432-.74.566.368.103.658.3.87.6s.323.63.323 1.03c0 .61-.198 1.09-.594 1.44s-.956.524-1.68.524h-2.362zm.898-3.186v2.45h1.483c.418 0 .747-.107.987-.323s.365-.517.365-.898c0-.82-.446-1.23-1.338-1.23h-1.497zm0-.72h1.357c.393 0 .706-.098.94-.294s.355-.463.355-.8c0-.374-.11-.646-.327-.814s-.55-.257-.996-.257h-1.33v2.165zm6.035 3.907H97v-6.812h.898v6.812zm2.55-.735h3.228v.735h-4.13v-6.812h.903v6.077zm5.155 0h3.228v.735h-4.13v-6.812h.903v6.077zm8.107-1.043h-2.854l-.64 1.778h-.926l2.6-6.812h.786l2.606 6.812h-.922l-.65-1.778zm-2.582-.74h2.315l-1.16-3.186-1.155 3.186zm5.07 2.517v-6.812h2.227c.74 0 1.294.153 1.666.46s.56.758.56 1.356c0 .32-.09.6-.27.847a1.77 1.77 0 0 1-.74.566 1.57 1.57 0 0 1 .871.59c.215.287.322.63.322 1.03 0 .61-.198 1.09-.594 1.44s-.956.524-1.68.524h-2.363zm.9-3.186v2.45h1.483c.417 0 .746-.107.987-.323s.364-.517.364-.898c0-.82-.445-1.23-1.337-1.23h-1.497zm0-.72h1.356c.393 0 .707-.098.94-.294s.355-.463.355-.8c0-.374-.11-.646-.327-.814s-.55-.257-.997-.257h-1.328v2.165zm5.973 3.172h3.228v.735h-4.13v-6.812h.902v6.077zm8.103-2.414h-2.952v2.414h3.43v.735h-4.327v-6.812h4.28v.74h-3.382v2.19h2.952v.734z" class="H"/><path d="M370.587 344.398h.76c.476-.007.85-.132 1.124-.376s.41-.573.41-.988c0-.93-.464-1.397-1.39-1.397-.437 0-.786.125-1.048.377s-.388.576-.388.987h-1.01c0-.63.23-1.15.687-1.566s1.048-.628 1.758-.628c.75 0 1.337.2 1.762.595s.64.948.64 1.654c0 .346-.113.68-.34 1.004a2 2 0 0 1-.911.726c.437.138.773.367 1 .688s.36.71.36 1.173c0 .713-.233 1.28-.7 1.697s-1.07.628-1.817.628-1.354-.202-1.823-.606-.698-.937-.698-1.6h1.015c0 .418.136.753.41 1.004s.64.377 1.097.377c.488 0 .86-.127 1.12-.382s.387-.62.387-1.097c0-.462-.142-.817-.425-1.064s-.694-.375-1.228-.382h-.76v-.825zm5.272.48l.404-3.962h4.07v.933h-3.214l-.24 2.166c.39-.23.83-.343 1.326-.343.724 0 1.3.24 1.724.72s.64 1.122.64 1.937-.222 1.465-.666 1.938-1.057.704-1.85.704c-.702 0-1.275-.195-1.72-.584s-.697-.928-.76-1.615h.955c.062.454.224.798.486 1.03s.608.344 1.037.344c.47 0 .837-.16 1.102-.48.27-.32.404-.763.404-1.327 0-.53-.145-.957-.436-1.277s-.672-.485-1.152-.485c-.44 0-.786.096-1.037.29l-.267.218-.808-.207zm6.926-1.206a2.14 2.14 0 0 1 1.746-.824c1.248 0 1.878.704 1.89 2.112v3.902h-1v-3.908c-.004-.426-.102-.74-.295-.944s-.486-.306-.89-.306c-.328 0-.615.088-.863.262a1.78 1.78 0 0 0-.578.688v4.208h-1v-8.383h1v3.193z" class="B"/><path d="M96.2 372.612h-.903l-3.43-5.248v5.248h-.903v-6.81h.903l3.438 5.272V365.8h.894v6.81zm6.834-3.185c0 .667-.112 1.25-.336 1.75s-.543.875-.955 1.137-.892.393-1.44.393c-.537 0-1.012-.13-1.427-.393s-.737-.64-.968-1.127-.345-1.056-.35-1.7v-.49c0-.655.114-1.233.34-1.735s.55-.886.964-1.15.895-.402 1.43-.402c.546 0 1.026.132 1.44.397s.74.644.964 1.146.336 1.08.336 1.745v.43zm-.893-.44c0-.808-.162-1.427-.486-1.857s-.78-.65-1.362-.65c-.567 0-1.015.216-1.342.65s-.49 1.03-.5 1.796v.5c0 .782.164 1.398.49 1.847a1.6 1.6 0 0 0 1.362.669c.58 0 1.03-.2 1.347-.63s.482-1.03.49-1.82v-.505zm7.475 3.625h-.902l-3.43-5.248v5.248h-.903v-6.81h.903l3.438 5.272V365.8h.893v6.81zm3.26-2.54h-2.283v-.706h2.283v.706zm.982 2.54v-6.81h2.227c.74 0 1.294.153 1.665.46s.562.757.562 1.356c0 .318-.09.6-.272.847s-.427.432-.74.566c.368.103.658.3.87.59s.323.63.323 1.03c0 .61-.198 1.09-.594 1.44s-.956.524-1.68.524h-2.363zm.898-3.185v2.45h1.483c.418 0 .747-.108.987-.323s.365-.518.365-.898c0-.82-.446-1.23-1.338-1.23h-1.497zm0-.72h1.357c.393 0 .706-.098.94-.294s.356-.464.356-.8c0-.375-.11-.646-.328-.814s-.55-.258-.996-.258h-1.33v2.166zm6.035 3.906h-.898v-6.81h.898v6.81zm2.55-.734h3.228v.734h-4.13v-6.81h.902v6.077zm5.156 0h3.227v.734h-4.13v-6.81h.903v6.077zm8.106-1.043h-2.853l-.64 1.777h-.926l2.6-6.81h.786l2.605 6.81h-.92l-.65-1.777zm-2.582-.74h2.316l-1.16-3.186-1.156 3.186zm5.07 2.516v-6.81h2.227c.74 0 1.294.153 1.665.46s.562.757.562 1.356c0 .318-.09.6-.272.847s-.427.432-.74.566c.368.103.658.3.87.59s.323.63.323 1.03c0 .61-.198 1.09-.594 1.44s-.956.524-1.68.524h-2.362zm.898-3.185v2.45h1.483c.418 0 .747-.108.987-.323s.365-.518.365-.898c0-.82-.446-1.23-1.338-1.23h-1.497zm0-.72h1.357c.393 0 .706-.098.94-.294s.356-.464.356-.8c0-.375-.11-.646-.328-.814s-.55-.258-.996-.258h-1.33v2.166zm5.974 3.172h3.228v.734h-4.13v-6.81h.903v6.077zm8.102-2.414h-2.952v2.414h3.43v.734h-4.327v-6.81h4.28v.74h-3.383v2.2h2.952v.734z" class="H"/><path d="M372.437 372.016h-1.015v-6.73l-2.036.748v-.917l2.893-1.086h.158v7.985zm3.422-3.984l.404-3.963h4.07v.934h-3.214l-.24 2.166c.39-.23.83-.344 1.326-.344.724 0 1.3.24 1.724.72s.64 1.122.64 1.937-.222 1.465-.666 1.938-1.057.704-1.85.704c-.702 0-1.275-.195-1.72-.584s-.697-.928-.76-1.616h.955c.062.455.224.8.486 1.032s.608.344 1.037.344c.47 0 .837-.16 1.102-.48.27-.32.404-.762.404-1.326 0-.53-.145-.957-.436-1.277s-.672-.486-1.152-.486c-.44 0-.786.097-1.037.3l-.267.218-.808-.207zm6.926-1.207c.447-.55 1.03-.824 1.746-.824 1.248 0 1.878.704 1.89 2.112v3.903h-1v-3.908c-.004-.426-.102-.74-.295-.944s-.486-.306-.89-.306c-.328 0-.615.088-.863.262a1.78 1.78 0 0 0-.578.688v4.208h-1v-8.383h1v3.192z" class="B"/><path d="M74.606 452.4h328.13v31.136H74.606z" class="D E F"/><path d="M94.726 469.222h-2.854L91.23 471h-.926l2.6-6.81h.786l2.606 6.81h-.922l-.65-1.778zm-2.582-.74h2.316l-1.16-3.185-1.156 3.185zm6.23-4.294l2.227 5.557 2.227-5.557h1.164V471h-.898v-2.652l.085-2.863-2.237 5.515h-.687l-2.232-5.5.09 2.85V471h-.898v-6.81h1.16zm12.444 3.625c0 .668-.113 1.25-.337 1.75s-.543.875-.955 1.137-.89.393-1.44.393c-.537 0-1.012-.13-1.427-.393s-.738-.64-.968-1.128-.345-1.055-.35-1.698v-.49c0-.655.114-1.233.34-1.736s.55-.885.964-1.15.895-.403 1.43-.403c.546 0 1.026.133 1.44.398s.74.644.964 1.146.337 1.08.337 1.745v.43zm-.894-.44c0-.808-.162-1.427-.486-1.858s-.778-.65-1.362-.65a1.59 1.59 0 0 0-1.342.65c-.325.43-.49 1.03-.5 1.797v.5c0 .783.164 1.4.49 1.848s.785.67 1.362.67 1.03-.2 1.347-.63.482-1.03.49-1.82v-.505zm7.036-3.186v4.63c-.003.643-.206 1.168-.608 1.577s-.942.637-1.628.687l-.24.01c-.745 0-1.34-.202-1.782-.604s-.668-.956-.674-1.66v-4.64h.89v4.612c0 .493.136.877.407 1.15s.658.407 1.16.407c.508 0 .897-.136 1.165-.407s.407-.653.407-1.146v-4.617h.903zm6.652 6.81h-.903l-3.43-5.25V471h-.903v-6.81h.903l3.438 5.272v-5.272h.894V471zm6.16-6.072h-2.2V471h-.893v-6.072h-2.185v-.74h5.268v.74z" class="H"/><path d="M358.097 468.953c0-.334-.12-.616-.355-.846s-.628-.436-1.185-.622c-.774-.236-1.34-.544-1.697-.922s-.53-.866-.53-1.452c0-.596.173-1.086.518-1.468.35-.382.828-.61 1.436-.682v-1.195h.813v1.2c.61.084 1.086.34 1.424.77s.513 1.017.513 1.763h-1.004c0-.513-.122-.92-.366-1.223a1.2 1.2 0 0 0-.987-.453c-.433 0-.765.113-.994.34s-.344.533-.344.933c0 .37.12.668.36.89s.642.42 1.195.6 1 .376 1.3.595.542.465.687.753.224.624.224 1.01c0 .615-.185 1.1-.556 1.485s-.885.597-1.55.666v1.042h-.808v-1.042c-.677-.062-1.208-.302-1.594-.72s-.573-.993-.573-1.713h1c0 .505.133.895.398 1.168s.642.41 1.13.41c.477 0 .85-.115 1.124-.344s.4-.542.4-.94zm7.47 2.047h-5.207v-.726l2.75-3.056c.408-.462.688-.837.84-1.124s.234-.592.234-.9c0-.415-.125-.755-.376-1.02s-.586-.4-1.005-.4c-.502 0-.893.144-1.173.43s-.415.68-.415 1.2h-1.01c0-.73.234-1.323.704-1.774s1.104-.676 1.893-.676c.74 0 1.323.194 1.752.584s.644.9.644 1.544c0 .782-.498 1.714-1.495 2.794l-2.13 2.31h4V471zm1.14 1.583l-.573-.393c.342-.477.52-.968.534-1.474v-.91h.988v.79c0 .368-.09.735-.273 1.103s-.403.662-.676.884zm7.105-4.972c0 1.182-.202 2.06-.605 2.636s-1.035.862-1.894.862c-.848 0-1.476-.28-1.883-.84s-.62-1.405-.633-2.522V466.4c0-1.168.202-2.035.606-2.603s1.037-.85 1.9-.85c.855 0 1.484.274 1.888.824s.612 1.4.622 2.532v1.3zm-1.01-1.38c0-.855-.12-1.477-.36-1.866s-.62-.6-1.14-.6-.893.195-1.13.584-.358.988-.365 1.796v1.615c0 .86.123 1.494.37 1.905s.63.61 1.135.61c.498 0 .868-.193 1.108-.578s.37-.994.382-1.823v-1.654zm7.286 1.38c0 1.182-.202 2.06-.606 2.636s-1.035.862-1.894.862c-.848 0-1.475-.28-1.883-.84s-.618-1.405-.633-2.522V466.4c0-1.168.202-2.035.606-2.603s1.037-.85 1.9-.85c.855 0 1.485.274 1.89.824s.61 1.4.622 2.532v1.3zm-1-1.38c0-.855-.12-1.477-.36-1.866s-.62-.6-1.14-.6-.893.195-1.13.584-.358.988-.365 1.796v1.615c0 .86.123 1.494.37 1.905s.63.61 1.135.61c.5 0 .868-.193 1.108-.578s.37-.994.382-1.823v-1.654zm7.286 1.38c0 1.182-.202 2.06-.606 2.636s-1.035.862-1.894.862c-.847 0-1.475-.28-1.883-.84s-.618-1.405-.633-2.522V466.4c0-1.168.202-2.035.606-2.603s1.037-.85 1.9-.85c.855 0 1.485.274 1.89.824s.61 1.4.622 2.532v1.3zm-1-1.38c0-.855-.12-1.477-.36-1.866s-.62-.6-1.14-.6-.893.195-1.13.584-.36.988-.366 1.796v1.615c0 .86.124 1.494.37 1.905s.63.61 1.135.61c.5 0 .868-.193 1.108-.578s.37-.994.382-1.823v-1.654z" class="B"/><path d="M74.4 405.4h328.13v31.136H74.4z" class="D E F"/><path d="M93.29 421.245h-1.6V424h-.903v-6.81h2.255c.767 0 1.357.175 1.768.524s.622.857.622 1.525c0 .424-.115.794-.346 1.11s-.546.55-.954.706l1.6 2.89V424h-.964l-1.478-2.755zm-1.6-.735h1.38c.446 0 .8-.115 1.062-.346s.398-.54.398-.926c0-.42-.126-.744-.38-.968s-.61-.34-1.085-.342H91.69v2.582zm8.855.342h-2.952v2.414h3.43V424h-4.327v-6.81h4.28v.74h-3.382v2.19h2.952v.735zm2.755-3.663l2.227 5.557 2.227-5.557h1.165V424h-.9v-2.652l.085-2.863-2.236 5.515h-.688l-2.23-5.5.088 2.85V424h-.898v-6.81h1.16zm11.05 5.033h-2.854l-.64 1.778h-.926l2.6-6.81h.786l2.605 6.81H115l-.65-1.778zm-2.583-.74h2.316l-1.16-3.185-1.156 3.185zM117.8 424h-.898v-6.81h.898V424zm6.88 0h-.903l-3.428-5.25V424h-.903v-6.81h.903l3.438 5.272v-5.272h.893V424zm2.56 0h-.898v-6.81h.898V424zm6.88 0h-.902l-3.43-5.25V424h-.903v-6.81h.903l3.438 5.272v-5.272h.893V424zm6.624-.893c-.23.33-.553.578-.968.743s-.892.244-1.44.244c-.555 0-1.048-.13-1.478-.39s-.764-.633-1-1.113-.354-1.037-.36-1.67v-.594c0-1.026.238-1.82.715-2.386s1.154-.847 2.02-.847c.71 0 1.284.183 1.717.548s.7.876.795 1.543h-.898c-.168-.9-.705-1.352-1.61-1.352-.602 0-1.06.213-1.37.637s-.464 1.032-.467 1.833v.557c0 .764.174 1.372.523 1.824s.822.674 1.418.674c.337 0 .63-.037.884-.112s.462-.2.627-.38v-1.53h-1.577v-.73h2.47v2.5z" class="H"/><path d="M365.954 424h-1.015v-6.73l-2.035.747v-.916l2.892-1.086h.158V424zm7.94-3.39c0 1.182-.202 2.06-.606 2.636s-1.035.862-1.893.862c-.848 0-1.476-.28-1.883-.84s-.62-1.405-.633-2.522V419.4c0-1.168.202-2.035.605-2.603s1.037-.85 1.9-.85c.855 0 1.484.274 1.888.824s.61 1.4.622 2.532v1.3zm-1-1.38c0-.855-.12-1.477-.36-1.866s-.62-.6-1.14-.6-.894.195-1.13.584-.358.988-.366 1.796v1.615c0 .86.124 1.494.37 1.905s.63.61 1.136.61c.498 0 .867-.193 1.107-.578s.372-.994.382-1.823v-1.654zm7.286 1.38c0 1.182-.202 2.06-.605 2.636s-1.036.862-1.894.862c-.848 0-1.476-.28-1.883-.84s-.62-1.405-.633-2.522V419.4c0-1.168.202-2.035.606-2.603s1.037-.85 1.9-.85c.855 0 1.484.274 1.888.824s.61 1.4.622 2.532v1.3zm-1.01-1.38c0-.855-.12-1.477-.36-1.866s-.62-.6-1.14-.6-.893.195-1.13.584-.358.988-.365 1.796v1.615c0 .86.123 1.494.37 1.905s.63.61 1.135.61c.498 0 .868-.193 1.108-.578s.37-.994.382-1.823v-1.654zm3.416-.42c.448-.55 1.03-.824 1.747-.824 1.248 0 1.877.704 1.888 2.112V424h-1v-3.908c-.003-.425-.102-.74-.294-.944s-.486-.305-.9-.305c-.327 0-.615.087-.862.262s-.44.403-.58.687V424h-1.01v-8.383h1.01v3.193z" class="B"/><path d="M654.285 484v-7.946h2.598c.862 0 1.5.178 1.943.535s.655.884.655 1.582c0 .372-.106.7-.317.988s-.498.504-.862.66c.43.12.767.35 1.015.687s.376.735.376 1.2c0 .713-.23 1.273-.693 1.68s-1.115.61-1.96.61h-2.756zm1.048-3.717v2.86h1.73c.487 0 .87-.125 1.15-.376s.426-.604.426-1.048c0-.957-.52-1.436-1.56-1.436h-1.746zm0-.84h1.582c.46 0 .825-.115 1.097-.344.277-.23.415-.54.415-.933 0-.437-.127-.753-.382-.95s-.642-.3-1.162-.3h-1.55v2.527zm6.854 4.557h-1.01v-5.905h1.01V484zm-1.09-7.47a.61.61 0 0 1 .147-.415c.102-.113.25-.17.448-.17s.345.056.447.17.153.25.153.415-.05.3-.153.41-.25.164-.447.164-.346-.055-.448-.164a.59.59 0 0 1-.147-.409zm3.81 7.47h-1.01v-8.383h1.01V484zm2.718 0h-1.01v-8.383h1.01V484zm5.267 0c-.058-.116-.106-.324-.142-.622a2.25 2.25 0 0 1-1.681.731c-.582 0-1.06-.163-1.435-.49s-.557-.75-.557-1.255c0-.615.233-1.092.7-1.43s1.127-.513 1.975-.513h.983v-.464c0-.353-.106-.633-.317-.84s-.522-.317-.933-.317c-.36 0-.662.09-.906.273s-.366.402-.366.66h-1.015c0-.294.104-.578.31-.85a2.15 2.15 0 0 1 .852-.655 2.88 2.88 0 0 1 1.184-.24c.68 0 1.213.17 1.6.513s.586.806.6 1.402v2.718c0 .542.07.974.208 1.294V484h-1.06zm-1.676-.77c.317 0 .617-.082.9-.246a1.49 1.49 0 0 0 .617-.639v-1.21h-.792c-1.237 0-1.855.362-1.855 1.086 0 .316.105.564.316.742s.482.268.813.268zm9.11-2.118c0 .902-.207 1.628-.622 2.178a1.99 1.99 0 0 1-1.67.818c-.746 0-1.323-.264-1.73-.79l-.05.682h-.928v-8.383h1v3.127c.407-.505.97-.758 1.686-.758s1.28.27 1.686.813.617 1.284.617 2.227v.087zm-1-.115c0-.687-.132-1.218-.398-1.593s-.648-.562-1.146-.562c-.666 0-1.144.31-1.435.927v2.555c.31.618.79.927 1.446.927a1.31 1.31 0 0 0 1.13-.562c.27-.374.403-.938.403-1.692zm3.384 3.002h-1.01v-8.383h1.01V484zm4.072.11c-.8 0-1.452-.262-1.954-.786s-.753-1.23-.753-2.112v-.185c0-.586.11-1.108.332-1.567s.54-.822.94-1.08.84-.393 1.3-.393c.768 0 1.364.253 1.8.758s.64 1.23.64 2.173v.42h-4c.015.582.184 1.053.508 1.413s.742.535 1.244.535c.357 0 .66-.073.906-.218s.464-.338.65-.58l.616.48c-.495.76-1.237 1.14-2.226 1.14zm-.126-5.294c-.407 0-.75.15-1.026.448s-.448.71-.513 1.244h2.958v-.076c-.03-.513-.167-.9-.415-1.2s-.582-.426-1.004-.426z" class="B"/><rect x="635" y="474" width="12.774" height="12.774" rx="1.597" class="M"/><path d="M729.48 484.798h-1.054l-4-6.123v6.123h-1.053v-7.946h1.053l4.01 6.15v-6.15h1.043v7.946zm1.435-3.007c0-.578.113-1.1.338-1.56.23-.462.546-.818.95-1.07s.87-.377 1.392-.377c.804 0 1.453.278 1.948.835s.748 1.297.748 2.22v.07c0 .575-.11 1.092-.333 1.55s-.533.8-.944 1.064-.877.382-1.408.382c-.8 0-1.45-.278-1.95-.835s-.742-1.293-.742-2.2v-.07zm1.015.12c0 .655.15 1.18.453 1.577s.713.595 1.223.595a1.45 1.45 0 0 0 1.222-.6c.302-.404.453-.968.453-1.692 0-.648-.155-1.17-.464-1.572s-.713-.606-1.222-.606a1.45 1.45 0 0 0-1.206.595c-.306.397-.46.965-.46 1.703zm6.582-3.018l.033.742a2.15 2.15 0 0 1 1.768-.851c1.248 0 1.877.704 1.888 2.112v3.902h-1.01v-3.907c-.004-.426-.102-.74-.295-.945s-.486-.305-.9-.305c-.327 0-.615.087-.862.262s-.44.404-.578.687v4.208h-1v-5.905h.955zm7.313 2.942h-2.663v-.824h2.663v.824zm5.987.076c0 .902-.207 1.628-.622 2.178a1.99 1.99 0 0 1-1.67.818c-.746 0-1.323-.263-1.73-.79l-.05.682h-.928v-8.383h1v3.128c.407-.506.97-.76 1.686-.76s1.28.27 1.686.813c.412.542.617 1.284.617 2.227v.087zm-1-.114c0-.688-.132-1.22-.398-1.594s-.648-.562-1.146-.562c-.666 0-1.144.31-1.435.928v2.554c.31.618.79.928 1.446.928.484 0 .86-.188 1.13-.563s.403-.938.403-1.69zm3.384 3h-1.01v-5.905h1.01v5.905zm-1.09-7.47a.61.61 0 0 1 .147-.415c.102-.113.25-.17.448-.17s.345.056.447.17.153.25.153.415-.05.3-.153.41-.25.164-.447.164-.346-.055-.448-.164a.59.59 0 0 1-.147-.409zm3.81 7.47h-1v-8.383h1v8.383zm2.718 0h-1v-8.383h1v8.383zm5.267 0c-.06-.116-.106-.324-.142-.622a2.25 2.25 0 0 1-1.681.731c-.582 0-1.06-.163-1.436-.49s-.556-.75-.556-1.255c0-.615.233-1.092.698-1.43.47-.342 1.128-.513 1.976-.513h.982v-.464c0-.353-.105-.633-.316-.84s-.522-.317-.934-.317c-.36 0-.662.09-.905.273s-.366.402-.366.66h-1.015c0-.294.103-.578.31-.85s.495-.495.85-.655.755-.24 1.185-.24c.68 0 1.213.17 1.6.513s.585.806.6 1.403v2.717c0 .543.07.974.207 1.294v.087h-1.058zm-1.676-.77c.317 0 .617-.082.9-.246s.49-.376.616-.638v-1.212h-.79c-1.237 0-1.856.362-1.856 1.086 0 .317.106.564.317.742s.482.268.813.268zm9.11-2.118c0 .902-.208 1.628-.622 2.178a1.99 1.99 0 0 1-1.67.818c-.746 0-1.323-.263-1.73-.79l-.05.682h-.927v-8.383h1.01v3.128c.408-.506.97-.76 1.687-.76s1.28.27 1.686.813.617 1.284.617 2.227v.087zm-1-.114c0-.688-.133-1.22-.398-1.594s-.648-.562-1.146-.562c-.666 0-1.145.31-1.436.928v2.554c.3.618.792.928 1.447.928a1.31 1.31 0 0 0 1.129-.563c.27-.374.404-.938.404-1.69zm3.384 3h-1v-8.383h1v8.383zm4.07.11c-.8 0-1.45-.262-1.954-.786s-.753-1.23-.753-2.112v-.185c0-.586.11-1.108.333-1.567s.54-.822.94-1.08a2.36 2.36 0 0 1 1.31-.393c.767 0 1.364.253 1.8.76s.638 1.23.638 2.172v.42h-4c.014.582.184 1.053.507 1.413s.743.535 1.245.535c.356 0 .658-.072.906-.218a2.27 2.27 0 0 0 .649-.579l.617.48c-.495.76-1.237 1.14-2.227 1.14zm-.125-5.294a1.34 1.34 0 0 0-1.026.448c-.277.295-.448.7-.513 1.244h2.958v-.076c-.03-.513-.168-.9-.415-1.2s-.582-.426-1.004-.426z" class="B"/><rect x="704.087" y="474" width="12.774" height="12.774" rx="1.597" fill="#8bec86"/><path d="M817.727 481.998h-1.866v3.215h-1.053v-7.946h2.63c.895 0 1.583.203 2.063.61s.726 1 .726 1.78c0 .495-.135.926-.404 1.294s-.637.642-1.113.824l1.866 3.373v.065h-1.124l-1.725-3.215zm-1.866-.856h1.6c.52 0 .933-.135 1.24-.404s.464-.63.464-1.08c0-.49-.148-.868-.442-1.13s-.714-.394-1.267-.398h-1.604v3.013zm8.132 4.18c-.8 0-1.452-.262-1.954-.786s-.753-1.23-.753-2.112v-.185c0-.586.11-1.108.333-1.567s.538-.822.938-1.08.84-.393 1.3-.393c.768 0 1.365.253 1.8.758s.64 1.23.64 2.172v.42h-4c.015.582.184 1.053.508 1.413s.742.535 1.244.535c.357 0 .66-.073.906-.218s.464-.34.65-.58l.616.48c-.494.76-1.237 1.14-2.226 1.14zm-.126-5.294a1.34 1.34 0 0 0-1.026.448c-.276.295-.447.71-.513 1.244h2.958v-.076c-.03-.513-.167-.9-.415-1.2s-.582-.426-1.004-.426zm4.552-.72l.027.655c.433-.5 1.017-.764 1.752-.764.826 0 1.388.316 1.686.95.197-.283.452-.513.764-.687s.7-.262 1.12-.262c1.295 0 1.954.686 1.976 2.057v3.957h-1v-3.897c0-.422-.096-.736-.29-.944s-.517-.316-.97-.316c-.375 0-.686.112-.934.338s-.39.522-.43.9v3.92h-1.015v-3.87c0-.86-.42-1.288-1.26-1.288-.662 0-1.115.282-1.36.846v4.31h-1.01v-5.905h.955zm12.498 5.905c-.06-.116-.106-.324-.142-.622-.47.487-1.03.73-1.68.73-.582 0-1.06-.164-1.436-.49a1.61 1.61 0 0 1-.556-1.255c0-.615.233-1.092.698-1.43.47-.342 1.128-.513 1.976-.513h.982v-.464c0-.353-.105-.633-.316-.84s-.522-.316-.933-.316c-.36 0-.663.09-.906.273s-.366.402-.366.66h-1.015a1.39 1.39 0 0 1 .311-.851c.21-.277.495-.495.85-.655s.755-.24 1.185-.24c.68 0 1.213.17 1.6.513s.586.806.6 1.402v2.718c0 .542.07.974.207 1.294v.087h-1.058zm-1.676-.77a1.77 1.77 0 0 0 .901-.245c.283-.164.49-.377.616-.64v-1.21h-.79c-1.237 0-1.856.362-1.856 1.086 0 .316.106.564.317.742s.482.267.813.267zm5.207.77h-1v-5.905h1v5.905zm-1.092-7.47c0-.164.05-.302.148-.415s.25-.17.447-.17.346.056.448.17.152.25.152.415-.05.3-.152.41-.25.164-.448.164-.346-.055-.447-.164-.148-.246-.148-.41zm3.668 1.566l.032.742c.452-.567 1.04-.85 1.77-.85 1.248 0 1.877.704 1.888 2.112v3.902h-1v-3.908c-.003-.425-.1-.74-.294-.944s-.486-.305-.9-.305c-.327 0-.615.087-.862.262s-.44.403-.58.687v4.208h-1.01v-5.905h.955zm6.31 5.905h-1v-5.905h1v5.905zm-1.092-7.47c0-.164.05-.302.148-.415s.25-.17.447-.17.346.056.448.17a.6.6 0 0 1 .152.415.58.58 0 0 1-.152.409c-.102.11-.25.164-.448.164s-.346-.055-.447-.164-.148-.246-.148-.41zm3.668 1.566l.032.742c.452-.567 1.04-.85 1.77-.85 1.248 0 1.877.704 1.888 2.112v3.902h-1v-3.908c-.003-.425-.1-.74-.294-.944s-.486-.305-.9-.305c-.327 0-.615.087-.862.262s-.44.403-.58.687v4.208h-1.01v-5.905h.955zm4.972 2.903c0-.92.212-1.652.638-2.194a2.04 2.04 0 0 1 1.692-.818c.72 0 1.283.254 1.686.764l.05-.655h.922v5.763c0 .764-.228 1.366-.682 1.807s-1.06.66-1.823.66c-.426 0-.842-.09-1.25-.273s-.72-.43-.933-.748l.524-.605c.433.534.962.802 1.588.802.49 0 .873-.138 1.146-.415s.415-.666.415-1.168v-.507c-.404.465-.955.698-1.654.698a2.02 2.02 0 0 1-1.681-.835c-.426-.557-.638-1.315-.638-2.276zm1.015.115c0 .666.136 1.2.41 1.572s.655.567 1.146.567c.637 0 1.104-.29 1.403-.867v-2.696c-.3-.564-.773-.846-1.392-.846-.49 0-.875.19-1.152.573s-.414.947-.414 1.697z" class="B"/><rect x="795.529" y="474.415" width="12.774" height="12.774" rx="1.597" class="K"/><circle cx="744.039" cy="378.781" r="71.853" class="M"/><path d="M691.9 428.21c13.094 13.8 31.616 22.422 52.15 22.422 39.683 0 71.853-32.17 71.853-71.852 0-20.534-8.613-39.055-22.423-52.15L691.9 428.21z" fill="#8bec86" class="C"/><path d="M743.642 450.634c39.902 0 72.25-32.17 72.25-71.853s-32.347-71.853-72.25-71.853v143.706z" class="K"/><circle cx="744.044" cy="378.786" r="43.276" class="D"/><path d="M734.374 380.604h-1.698V372.4l-2.505.856v-1.438l3.986-1.467h.217v10.252zm10.2-4.302c0 1.47-.276 2.578-.828 3.326s-1.382 1.116-2.505 1.116c-1.104 0-1.937-.363-2.498-1.088s-.842-1.808-.856-3.234v-1.77c0-1.47.273-2.57.82-3.305s1.39-1.1 2.52-1.1c1.118 0 1.95.358 2.498 1.073s.835 1.787.85 3.214v1.768zm-1.705-1.908c0-.96-.13-1.66-.393-2.105s-.68-.674-1.25-.674c-.557 0-.966.213-1.228.64-.262.42-.4 1.08-.414 1.978v2.316c0 .954.133 1.665.4 2.133s.685.702 1.256.702c.547 0 .952-.215 1.214-.646s.4-1.113.414-2.035v-2.308zm9.873 1.908c0 1.47-.276 2.578-.828 3.326s-1.383 1.116-2.505 1.116c-1.104 0-1.937-.363-2.5-1.088-.556-.73-.842-1.808-.856-3.234v-1.77c0-1.47.274-2.57.82-3.305s1.392-1.1 2.52-1.1c1.12 0 1.95.358 2.498 1.073s.836 1.787.85 3.214v1.768zm-1.706-1.908c0-.96-.13-1.66-.393-2.105s-.678-.674-1.25-.674c-.556 0-.966.213-1.227.64-.262.42-.4 1.08-.414 1.978v2.316c0 .954.133 1.665.4 2.133s.686.702 1.257.702c.547 0 .95-.215 1.213-.646s.4-1.113.414-2.035v-2.308zm5.003-.555a2.67 2.67 0 0 1 2.113-.968c1.618 0 2.44.924 2.463 2.772v4.96h-1.706v-4.898c0-.524-.114-.894-.343-1.11s-.557-.33-.997-.33c-.683 0-1.193.304-1.53.913v5.424h-1.705v-10.778h1.705v4.013z" class="B"/><rect x="435.069" y="259.824" width="625.922" height="19.161" rx="1.597" class="O"/><rect x="435" y="260" width="312.96" height="19" rx="1.597" class="M"/><path d="M738.597 269.033l.404-3.962h4.072v.933h-3.215l-.24 2.167c.39-.23.83-.344 1.326-.344.724 0 1.3.24 1.725.72s.638 1.122.638 1.937-.222 1.465-.666 1.938-1.056.704-1.85.704c-.702 0-1.275-.195-1.72-.584s-.697-.928-.758-1.616h.955c.062.455.223.8.485 1.032s.608.344 1.037.344c.47 0 .837-.16 1.103-.48s.404-.762.404-1.326c0-.53-.146-.957-.437-1.277s-.67-.486-1.15-.486c-.44 0-.786.097-1.037.3l-.268.218-.808-.208zm10.796.595c0 1.183-.202 2.06-.606 2.636s-1.035.863-1.894.863c-.848 0-1.475-.28-1.883-.84s-.618-1.404-.633-2.52v-1.348c0-1.168.202-2.036.606-2.604s1.037-.85 1.9-.85c.855 0 1.485.275 1.888.824s.612 1.4.623 2.532v1.3zm-1-1.38c0-.855-.12-1.478-.36-1.867s-.62-.59-1.14-.59-.893.194-1.13.584-.358.987-.365 1.795v1.616c0 .858.123 1.493.37 1.904s.63.612 1.135.612c.498 0 .868-.193 1.108-.58s.37-.993.382-1.823v-1.653zm2.216-1.65c0-.476.15-.87.453-1.178s.696-.464 1.173-.464c.484 0 .875.156 1.173.47s.453.71.453 1.206v.388c0 .48-.152.873-.458 1.178s-.688.453-1.157.453-.864-.15-1.173-.453-.464-.71-.464-1.217v-.382zm.753.42c0 .283.08.518.24.704s.375.272.644.272c.258 0 .466-.09.622-.267s.24-.422.24-.73v-.4c0-.283-.078-.518-.234-.704s-.37-.278-.64-.278a.79.79 0 0 0-.638.278c-.157.186-.235.428-.235.726v.4zm3.116 4.05c0-.477.15-.868.453-1.173s.697-.464 1.173-.464.868.153 1.174.458.458.712.458 1.217v.388c0 .476-.153.87-.458 1.18s-.7.458-1.163.458-.864-.15-1.173-.453-.464-.71-.464-1.217v-.393zm.753.426c0 .287.08.524.24.71s.375.273.644.273c.262 0 .472-.09.628-.267s.235-.428.235-.737v-.404c0-.287-.08-.522-.24-.704s-.368-.273-.634-.273c-.258 0-.47.09-.633.273s-.24.42-.24.726v.404zm-2.756.922l-.573-.36 3.88-6.21.574.36-3.88 6.21z" class="B"/><path d="M74.606 550.43a1.2 1.2 0 0 1 1.198-1.197h999.556a1.2 1.2 0 0 1 1.2 1.197v29.94H74.606v-29.94z" class="E F K"/><path d="M96.47 562.94h-2.19v6.072h-.894v-6.072h-2.185v-.74h5.267v.74zm3.466 6.072c-.05-.1-.1-.278-.122-.533-.402.417-.883.626-1.44.626-.5 0-.91-.14-1.23-.42s-.477-.642-.477-1.076c0-.527.2-.935.6-1.225s.967-.44 1.693-.44h.842v-.397c0-.303-.1-.543-.27-.72s-.447-.27-.8-.27c-.31 0-.568.078-.776.234s-.314.344-.314.566h-.87c0-.253.09-.496.267-.73s.424-.424.73-.56a2.46 2.46 0 0 1 1.015-.206c.583 0 1.04.146 1.37.44s.502.69.514 1.203v2.33c0 .465.06.835.178 1.11v.075h-.907zm-1.436-.66c.27 0 .53-.07.772-.2s.42-.323.53-.548v-1.038h-.678c-1.06 0-1.59.3-1.59.93 0 .27.09.483.27.636s.413.23.697.23zm6.47-.683c0-.234-.09-.414-.267-.542s-.48-.244-.92-.337-.784-.206-1.043-.337-.446-.287-.57-.468-.182-.396-.182-.645c0-.415.174-.766.523-1.053s.802-.43 1.348-.43c.574 0 1.038.148 1.394.444a1.41 1.41 0 0 1 .538 1.137h-.87c0-.237-.102-.44-.304-.613s-.453-.257-.758-.257c-.315 0-.562.068-.74.206s-.267.316-.267.538c0 .21.083.366.248.472s.463.207.893.304.785.212 1.053.346.466.297.594.487.196.416.196.687c0 .453-.18.816-.542 1.1s-.83.407-1.408.407c-.406 0-.764-.07-1.076-.215a1.77 1.77 0 0 1-.735-.599 1.47 1.47 0 0 1-.262-.837h.866c.015.3.13.52.346.692s.505.253.86.253c.327 0 .59-.065.786-.196s.3-.312.3-.534zm3.406-1l-.543.566v1.778h-.865v-7.185h.865v4.345l.463-.556 1.577-1.666h1.052l-1.97 2.115 2.198 2.947h-1.015l-1.763-2.344zm6.4 1c0-.234-.09-.414-.267-.542s-.482-.244-.922-.337-.784-.206-1.043-.337-.446-.287-.57-.468-.183-.396-.183-.645c0-.415.175-.766.524-1.053s.802-.43 1.347-.43c.574 0 1.04.148 1.394.444s.538.675.538 1.137h-.87c0-.237-.1-.44-.304-.613s-.452-.257-.758-.257c-.315 0-.56.068-.74.206s-.266.316-.266.538c0 .21.082.366.248.472s.463.207.893.304.784.212 1.053.346.466.297.594.487.196.416.196.687a1.3 1.3 0 0 1-.543 1.09c-.36.272-.83.407-1.408.407-.405 0-.764-.07-1.076-.215s-.556-.343-.734-.6-.262-.538-.262-.837h.865c.016.3.13.52.347.692s.505.253.86.253c.328 0 .6-.065.786-.196s.3-.312.3-.534z" class="H"/><path d="M74.606 611.506h1001.95V658.6H74.606z" class="D E F"/><path d="M74.606 580.37h1001.95v31.136H74.606z" class="D E F"/><use xlink:href="#D" class="G"/><use xlink:href="#D" x="158.199" class="G"/><path d="M1003.54 619.1v.8h.8v-.8h-.8zm0 3.194h.8v-.8h-.8v.8zm0 2.395h.8v-.8h-.8v.8zm0 2.395h.8v-.798h-.8v.798zm0 2.395h.8v-.798h-.8v.798zm0 2.395h.8v-.798h-.8v.798zm0 2.395h.8v-.798h-.8v.798zm0 2.395h.8v-.798h-.8v.798zm0 2.395h.8v-.798h-.8v.798zm0 2.396h.8v-.8h-.8v.8zm0 2.395h.8v-.8h-.8v.8zm0 2.395h.8v-.8h-.8v.8zm0 2.395h.8v-.798h-.8v.798zm0 2.395h.8v-.798h-.8v.798z" class="G"/><path d="M93.25 630.724l2.598 6.484 2.598-6.484h1.36v7.947h-1.048v-3.095l.098-3.34-2.61 6.435h-.802l-2.603-6.42.104 3.324v3.095h-1.048v-7.947h1.354zm10.696 8.056c-.8 0-1.45-.262-1.953-.786s-.754-1.232-.754-2.112v-.186c0-.586.11-1.108.333-1.566s.54-.822.94-1.08.84-.393 1.3-.393c.768 0 1.364.253 1.8.76s.638 1.23.638 2.172v.42h-4c.015.582.184 1.054.508 1.414s.742.535 1.244.535c.357 0 .66-.073.906-.22s.464-.338.65-.578l.617.48c-.495.76-1.237 1.14-2.227 1.14zm-.125-5.294a1.34 1.34 0 0 0-1.026.447c-.277.295-.448.7-.513 1.245h2.958v-.077c-.03-.513-.168-.91-.415-1.19s-.582-.426-1.004-.426zm6.052 5.294c-.8 0-1.45-.262-1.953-.786s-.754-1.232-.754-2.112v-.186c0-.586.11-1.108.333-1.566s.54-.822.94-1.08a2.36 2.36 0 0 1 1.31-.393c.768 0 1.364.253 1.8.76s.638 1.23.638 2.172v.42h-4c.015.582.184 1.054.508 1.414s.742.535 1.244.535c.356 0 .658-.073.906-.22s.464-.338.65-.578l.617.48c-.495.76-1.237 1.14-2.227 1.14zm-.125-5.294a1.34 1.34 0 0 0-1.026.447c-.277.295-.448.7-.513 1.245h2.958v-.077c-.03-.513-.168-.91-.415-1.19s-.582-.426-1.004-.426zm4.972-2.15v1.43h1.102v.78h-1.102v3.662c0 .236.05.415.147.535s.266.174.502.174c.117 0 .277-.02.48-.065v.82c-.265.072-.524.11-.775.11-.45 0-.79-.137-1.02-.4s-.344-.66-.344-1.162v-3.662h-1.075v-.78h1.075v-1.43h1zm3.383 7.335h-1.01v-5.906h1.01v5.906zm-1.09-7.472a.61.61 0 0 1 .147-.415c.102-.112.25-.17.448-.17s.345.057.447.17.153.25.153.415-.05.3-.153.41-.25.164-.447.164-.346-.054-.448-.164-.147-.245-.147-.41zm3.667 1.566l.033.743a2.15 2.15 0 0 1 1.768-.852c1.248 0 1.878.704 1.89 2.112v3.903h-1v-3.908c-.004-.426-.102-.74-.295-.944s-.485-.306-.89-.306c-.328 0-.615.087-.863.262a1.78 1.78 0 0 0-.578.688v4.208h-1v-5.906h.955zm4.972 2.904c0-.92.213-1.652.64-2.194s.99-.82 1.692-.82c.72 0 1.282.255 1.686.764l.05-.655h.923v5.764c0 .764-.228 1.366-.683 1.806s-1.058.66-1.823.66a3.03 3.03 0 0 1-1.249-.272c-.408-.182-.72-.432-.934-.748l.524-.606c.433.535.963.802 1.59.802.49 0 .873-.138 1.146-.414s.414-.666.414-1.168v-.508c-.403.466-.955.7-1.653.7-.692 0-1.252-.28-1.68-.835s-.64-1.316-.64-2.276zm1.015.114c0 .666.137 1.2.4 1.572s.655.568 1.146.568c.637 0 1.104-.29 1.402-.868v-2.696c-.31-.564-.773-.846-1.39-.846-.49 0-.875.19-1.152.573s-.415.948-.415 1.697z" class="B"/><path d="M296.4 636.597h-3.33l-.748 2.074h-1.08l3.034-7.947h.917l3.04 7.947h-1.075l-.76-2.074zm-3.013-.863h2.702l-1.353-3.716-1.35 3.716zm6.713-2.968l.033.742a2.15 2.15 0 0 1 1.768-.852c1.248 0 1.878.704 1.89 2.112v3.903h-1v-3.908c-.004-.426-.102-.74-.295-.944s-.485-.306-.89-.306c-.328 0-.615.088-.863.262a1.78 1.78 0 0 0-.578.688v4.208h-1v-5.905h.955zm7.144 4.426l1.376-4.426h1.08l-2.374 6.816c-.367.982-.95 1.474-1.752 1.474l-.19-.017-.376-.07v-.818l.273.02c.342 0 .607-.07.796-.207s.352-.39.475-.76l.224-.6-2.107-5.84h1.103l1.473 4.426zm3.007-1.528c0-.58.113-1.1.34-1.56s.546-.82.95-1.07c.408-.25.872-.377 1.392-.377.804 0 1.454.28 1.95.835s.747 1.297.747 2.222v.07c0 .574-.11 1.09-.333 1.55a2.49 2.49 0 0 1-.944 1.064c-.407.254-.877.382-1.408.382-.8 0-1.45-.28-1.948-.835s-.743-1.294-.743-2.21v-.07zm1.016.12c0 .654.15 1.18.453 1.577s.713.595 1.222.595a1.45 1.45 0 0 0 1.223-.601c.302-.403.453-.967.453-1.69 0-.648-.155-1.172-.464-1.572s-.713-.606-1.223-.606a1.45 1.45 0 0 0-1.206.595c-.306.396-.458.964-.458 1.703zm6.58-3.018l.033.742a2.15 2.15 0 0 1 1.768-.852c1.248 0 1.878.704 1.89 2.112v3.903h-1v-3.908c-.003-.426-.102-.74-.295-.944s-.485-.306-.89-.306c-.328 0-.615.088-.862.262s-.44.404-.58.688v4.208h-1v-5.905h.955zm7.663 6.014c-.8 0-1.452-.262-1.954-.786s-.753-1.232-.753-2.112v-.186c0-.586.11-1.108.333-1.566s.538-.822.94-1.08.84-.393 1.31-.393c.768 0 1.365.253 1.79.76s.638 1.23.638 2.172v.42h-4c.014.582.183 1.054.507 1.414s.742.535 1.245.535c.356 0 .658-.073.905-.22a2.27 2.27 0 0 0 .65-.578l.617.48c-.495.76-1.237 1.14-2.227 1.14zm-.126-5.294c-.407 0-.75.15-1.026.447s-.447.7-.513 1.245h2.958v-.077c-.03-.513-.167-.91-.414-1.19s-.583-.426-1.005-.426z" class="B"/><path d="M74.606 658.61h1001.95v47.104H74.606z" class="D E F"/><path d="M91.895 685.774v-7.946h2.243c.69 0 1.303.153 1.834.46a3.08 3.08 0 0 1 1.228 1.304c.29.564.438 1.212.442 1.943v.507c0 .75-.145 1.407-.437 1.97a3.03 3.03 0 0 1-1.239 1.299c-.535.302-1.16.456-1.872.463h-2.2zm1.048-7.083v6.227h1.102c.808 0 1.435-.25 1.883-.754s.677-1.217.677-2.144v-.464c0-.903-.213-1.603-.64-2.1-.422-.503-1.022-.757-1.8-.764h-1.223zm8.58 7.193c-.8 0-1.452-.262-1.954-.786s-.753-1.232-.753-2.112v-.186c0-.586.11-1.108.333-1.566a2.62 2.62 0 0 1 .939-1.081 2.36 2.36 0 0 1 1.31-.393c.767 0 1.364.253 1.8.76s.638 1.23.638 2.172v.42h-4c.014.582.184 1.053.507 1.414a1.62 1.62 0 0 0 1.245.535c.356 0 .658-.073.906-.22s.464-.338.65-.578l.617.48c-.495.76-1.237 1.14-2.227 1.14zm-.125-5.294a1.34 1.34 0 0 0-1.026.447c-.277.295-.448.7-.513 1.245h2.958v-.077c-.03-.513-.168-.91-.415-1.2s-.582-.425-1.004-.425zm7.04 3.618c0-.273-.104-.484-.31-.633s-.562-.284-1.075-.393-.915-.24-1.217-.393-.52-.335-.666-.546-.213-.462-.213-.753c0-.484.204-.893.61-1.228s.935-.502 1.572-.502c.67 0 1.212.173 1.626.52a1.64 1.64 0 0 1 .628 1.326h-1.015c0-.277-.118-.515-.355-.715s-.527-.3-.884-.3c-.367 0-.655.08-.862.24s-.31.37-.31.628c0 .243.096.427.29.55s.54.242 1.042.354.915.248 1.228.404.544.346.693.568.23.486.23.802c0 .528-.21.952-.633 1.272s-.97.475-1.643.475c-.473 0-.892-.084-1.255-.25s-.65-.4-.857-.7-.306-.628-.306-.977h1c.018.338.153.608.404.808s.59.295 1.004.295c.382 0 .687-.077.917-.23s.35-.364.35-.622zm3.422 1.566h-1v-5.905h1v5.905zm-1.092-7.47a.61.61 0 0 1 .148-.415c.102-.113.25-.17.447-.17s.346.056.448.17.153.25.153.415-.05.3-.153.41-.25.164-.448.164-.345-.055-.447-.164a.59.59 0 0 1-.148-.409zm2.473 4.47c0-.92.213-1.652.638-2.194s1-.82 1.692-.82c.72 0 1.283.255 1.686.764l.05-.655h.922v5.764c0 .764-.227 1.366-.682 1.806s-1.06.66-1.823.66c-.426 0-.842-.09-1.25-.272s-.718-.432-.933-.748l.524-.606c.433.535.962.802 1.588.802.49 0 .873-.138 1.146-.414s.415-.666.415-1.168v-.508c-.404.466-.955.7-1.654.7-.69 0-1.25-.28-1.68-.835-.425-.557-.638-1.316-.638-2.276zm1.015.114c0 .666.136 1.2.41 1.572s.655.568 1.146.568c.637 0 1.104-.29 1.403-.868v-2.696c-.31-.564-.773-.846-1.392-.846-.49 0-.875.19-1.15.573s-.415.948-.415 1.697zm6.456-3.018l.033.743a2.15 2.15 0 0 1 1.768-.852c1.248 0 1.878.704 1.888 2.112v3.902h-1.01v-3.907c-.004-.426-.102-.74-.295-.944s-.486-.306-.89-.306c-.328 0-.615.087-.863.262a1.78 1.78 0 0 0-.578.688v4.207h-1v-5.905h.955z" class="B"/><path d="M295.25 678.054h1.054v5.627c0 .76-.23 1.355-.688 1.784s-1.062.644-1.823.644c-.79 0-1.404-.202-1.844-.606s-.66-.97-.66-1.697h1.048c0 .455.124.8.37 1.064s.613.382 1.086.382c.433 0 .783-.136 1.048-.41s.406-.655.41-1.146v-5.643zm6.326 7.946c-.058-.116-.106-.324-.142-.622-.47.487-1.03.73-1.68.73-.582 0-1.06-.164-1.435-.49a1.61 1.61 0 0 1-.557-1.255c0-.615.233-1.092.7-1.43s1.127-.513 1.975-.513h.983v-.464c0-.353-.106-.633-.317-.84s-.522-.316-.933-.316c-.36 0-.662.09-.906.273s-.366.402-.366.66h-1.015a1.39 1.39 0 0 1 .311-.851 2.15 2.15 0 0 1 .852-.655 2.88 2.88 0 0 1 1.184-.24c.68 0 1.213.17 1.6.513s.586.806.6 1.402v2.718c0 .542.07.973.208 1.294V686h-1.06zm-1.676-.77a1.77 1.77 0 0 0 .901-.245 1.49 1.49 0 0 0 .617-.639v-1.21h-.792c-1.237 0-1.855.362-1.855 1.086 0 .316.105.564.316.742s.482.267.813.267zm6.48.055c.36 0 .674-.11.944-.327s.418-.492.447-.82h.955c-.018.338-.134.66-.35.966s-.502.55-.862.73-.735.273-1.135.273c-.805 0-1.445-.267-1.922-.802s-.71-1.274-.71-2.205v-.17c0-.575.105-1.086.317-1.534a2.42 2.42 0 0 1 .905-1.042c.397-.248.865-.37 1.403-.37.662 0 1.212.198 1.648.595.44.396.675.91.704 1.544h-.955c-.03-.382-.174-.695-.436-.94s-.58-.37-.96-.37c-.513 0-.91.186-1.195.557s-.42.9-.42 1.6v.19c0 .68.14 1.204.42 1.572s.68.55 1.2.55zm5.13-2.02l-.633.66V686h-1v-8.383h1v5.07l.54-.65 1.84-1.943h1.228l-2.298 2.467L314.75 686h-1.184l-2.057-2.734zm5.113 2.734h-1.01v-5.905h1.01V686zm-1.09-7.47a.61.61 0 0 1 .147-.415c.102-.113.25-.17.448-.17s.345.056.447.17.153.25.153.415-.05.3-.153.41-.25.164-.447.164-.346-.055-.448-.164a.59.59 0 0 1-.147-.409zm5.163 7.58c-.8 0-1.452-.262-1.954-.786s-.753-1.23-.753-2.112v-.185c0-.586.11-1.108.333-1.567s.538-.822.938-1.08.84-.393 1.3-.393c.768 0 1.365.253 1.8.758s.64 1.23.64 2.172v.42h-4c.014.582.183 1.053.507 1.413s.742.535 1.244.535c.357 0 .66-.073.906-.218s.464-.34.65-.58l.617.48c-.495.76-1.238 1.14-2.227 1.14zm-.126-5.294a1.34 1.34 0 0 0-1.026.448c-.276.295-.447.71-.513 1.244h2.958v-.076c-.03-.513-.167-.9-.415-1.2s-.582-.426-1.004-.426zm6.533 5.185v-7.946h2.598c.862 0 1.5.178 1.943.535s.655.884.655 1.582c0 .37-.106.7-.317.988s-.498.504-.862.66a1.83 1.83 0 0 1 1.015.688c.25.335.377.735.377 1.2 0 .713-.232 1.273-.694 1.68s-1.115.61-1.96.61h-2.756zm1.048-3.717v2.86h1.73c.488 0 .87-.125 1.152-.376s.425-.604.425-1.048c0-.957-.52-1.436-1.56-1.436h-1.746zm0-.84h1.583c.458 0 .824-.115 1.097-.344s.414-.54.414-.933c0-.437-.127-.753-.382-.95s-.642-.3-1.162-.3h-1.55v2.527zm8.612-.442a2.97 2.97 0 0 0-.497-.038c-.662 0-1.11.282-1.348.846V686h-1.01v-5.905h.982l.016.682c.332-.527.8-.79 1.408-.79.197 0 .346.025.448.076v.94zm.557 1.992c0-.58.112-1.1.338-1.56s.546-.82.95-1.07.87-.376 1.39-.376c.804 0 1.454.278 1.95.835s.747 1.297.747 2.22v.07c0 .575-.11 1.09-.332 1.55s-.534.81-.945 1.064-.877.382-1.408.382c-.8 0-1.45-.278-1.948-.835s-.742-1.293-.742-2.2v-.07zm1.015.12c0 .655.15 1.18.453 1.577a1.46 1.46 0 0 0 1.222.595 1.45 1.45 0 0 0 1.223-.6c.302-.404.453-.968.453-1.692 0-.648-.155-1.172-.464-1.572s-.713-.606-1.223-.606a1.45 1.45 0 0 0-1.206.595c-.305.397-.458.964-.458 1.703zm10.855 1.495l1.135-4.513h1l-1.72 5.905h-.82l-1.435-4.475-1.397 4.475h-.82l-1.714-5.905h1.004l1.163 4.42 1.375-4.42h.813l1.403 4.513zm4.13-4.513l.033.742a2.15 2.15 0 0 1 1.768-.851c1.248 0 1.878.704 1.89 2.112V686h-1v-3.908c-.004-.425-.102-.74-.295-.944s-.485-.305-.89-.305c-.328 0-.615.087-.863.262a1.77 1.77 0 0 0-.578.687V686h-1v-5.905h.955z" class="B"/><path d="M1031.78 636.624a1.15 1.15 0 0 0-.35-.846c-.24-.23-.63-.437-1.2-.622-.77-.237-1.34-.544-1.7-.922-.35-.383-.52-.866-.52-1.452 0-.597.17-1.086.5-1.468.35-.382.83-.6 1.44-.683v-1.195h.8v1.2c.6.084 1.1.34 1.43.77s.5 1.017.5 1.763h-1c0-.513-.13-.92-.37-1.222s-.57-.453-1-.453c-.43 0-.76.113-1 .338s-.35.533-.35.933c0 .372.12.668.37.9.24.218.64.418 1.2.6.56.18 1 .377 1.3.595s.54.466.7.753.22.624.22 1c0 .615-.18 1.1-.56 1.484-.36.375-.88.597-1.55.666v1.043h-.8v-1.043c-.68-.062-1.2-.302-1.6-.72-.38-.422-.57-.993-.57-1.714h1c0 .506.13.895.4 1.168.26.273.64.41 1.13.41.47 0 .85-.114 1.12-.343s.4-.542.4-.94zm5.58 2.047h-1v-6.73l-2.04.748v-.917l2.9-1.086h.15v7.985zm3.03 1.582l-.57-.393c.34-.476.52-.968.53-1.473v-.912h1v.792c0 .367-.1.735-.27 1.102s-.4.662-.68.884zm7.1-4.972c0 1.183-.2 2.062-.6 2.636-.4.575-1.03.863-1.9.863-.85 0-1.48-.28-1.88-.84-.4-.564-.62-1.404-.64-2.52v-1.348c0-1.168.2-2.036.6-2.604s1.04-.85 1.9-.85c.85 0 1.48.275 1.9.824.4.546.6 1.4.62 2.533v1.31zm-1-1.38c0-.855-.12-1.478-.36-1.867s-.62-.59-1.14-.59-.9.194-1.13.584-.36.987-.37 1.795v1.616c0 .858.13 1.493.37 1.904.26.408.63.612 1.14.612.5 0 .87-.193 1.1-.58s.37-.993.38-1.823V633.9zm7.3 1.38c0 1.183-.2 2.062-.6 2.636s-1.04.863-1.9.863-1.48-.28-1.9-.84c-.4-.564-.62-1.404-.63-2.52v-1.348c0-1.168.2-2.036.6-2.604.4-.567 1.03-.85 1.9-.85s1.5.275 1.9.824c.4.546.6 1.4.63 2.533v1.31zm-1-1.38c0-.855-.12-1.478-.36-1.867s-.63-.59-1.15-.59c-.5 0-.9.194-1.13.584-.23.39-.35.987-.36 1.795v1.616c0 .858.12 1.493.37 1.904s.63.612 1.14.612c.5 0 .86-.193 1.1-.58.25-.386.37-.993.4-1.823V633.9zm7.28 1.38c0 1.183-.2 2.062-.6 2.636-.4.575-1.04.863-1.9.863-.85 0-1.47-.28-1.88-.84s-.62-1.404-.63-2.52v-1.348c0-1.168.2-2.036.6-2.604.4-.567 1.04-.85 1.9-.85s1.5.275 1.9.824.6 1.4.62 2.533v1.31zm-1-1.38c0-.855-.12-1.478-.36-1.867s-.62-.59-1.14-.59-.9.194-1.13.584-.36.987-.36 1.795v1.616c0 .858.12 1.493.37 1.904s.63.612 1.13.612.87-.193 1.1-.58.37-.993.38-1.823V633.9z" class="B"/><path d="M1040.28 683.728c0-.335-.1-.617-.35-.846-.23-.23-.63-.437-1.2-.622-.77-.237-1.34-.544-1.7-.923-.36-.382-.53-.865-.53-1.45 0-.597.17-1.086.52-1.468s.82-.6 1.43-.683v-1.195h.82v1.2c.6.084 1.08.34 1.42.77s.5 1.017.5 1.763h-1c0-.513-.12-.92-.37-1.222-.24-.302-.57-.453-1-.453-.43 0-.76.113-1 .338s-.34.533-.34.933c0 .37.12.668.36.9s.64.418 1.2.6c.56.18 1 .377 1.3.595s.54.466.7.753.22.624.22 1c0 .615-.18 1.1-.55 1.484s-.9.597-1.55.666v1.043h-.8v-1.043c-.68-.062-1.2-.302-1.6-.72-.4-.422-.58-.993-.58-1.714h1c0 .506.13.895.4 1.168s.64.41 1.13.41c.48 0 .85-.114 1.12-.343.28-.23.4-.543.4-.94zm2.73-1.938l.4-3.962h4.07v.933h-3.22l-.24 2.167c.4-.23.83-.344 1.33-.344.72 0 1.3.24 1.72.72.43.476.64 1.122.64 1.937s-.22 1.465-.66 1.938-1.06.704-1.85.704c-.7 0-1.28-.195-1.72-.584-.45-.4-.7-.928-.76-1.616h.95c.07.455.23.8.5 1.032s.6.344 1.04.344c.47 0 .83-.16 1.1-.48s.4-.762.4-1.326c0-.53-.14-.957-.43-1.277s-.68-.486-1.16-.486c-.44 0-.78.097-1.03.3l-.27.218-.8-.208zm10.8.595c0 1.183-.2 2.06-.6 2.636-.4.575-1.03.863-1.9.863-.85 0-1.48-.28-1.88-.84-.4-.564-.62-1.404-.64-2.52v-1.348c0-1.168.2-2.036.6-2.604.4-.567 1.03-.85 1.9-.85.85 0 1.48.275 1.9.824.4.546.6 1.4.62 2.532v1.3zm-1-1.38c0-.855-.12-1.478-.36-1.867s-.62-.59-1.14-.59-.9.194-1.13.584c-.24.39-.36.987-.37 1.795v1.616c0 .858.13 1.493.37 1.904.25.408.63.612 1.14.612.5 0 .87-.193 1.1-.58s.37-.993.38-1.823v-1.653zm7.28 1.38c0 1.183-.2 2.06-.6 2.636-.4.575-1.04.863-1.9.863-.84 0-1.47-.28-1.88-.84s-.62-1.404-.63-2.52v-1.348c0-1.168.2-2.036.6-2.604.4-.567 1.04-.85 1.9-.85s1.5.275 1.9.824c.4.546.6 1.4.62 2.532v1.3zm-1-1.38c0-.855-.12-1.478-.36-1.867s-.62-.59-1.14-.59c-.5 0-.9.194-1.13.584-.23.39-.35.987-.36 1.795v1.616c0 .858.12 1.493.37 1.904s.63.612 1.13.612.87-.193 1.1-.58c.25-.386.37-.993.38-1.823v-1.653z" class="B"/><path d="M96.998 599.35h-.903l-3.43-5.25v5.25h-.903v-6.81h.903l3.438 5.272v-5.272h.893v6.81zm5.44-1.778h-2.853l-.64 1.778h-.926l2.6-6.81h.785l2.606 6.81h-.92l-.65-1.778zm-2.582-.74h2.316l-1.16-3.186-1.156 3.186zm6.23-4.294l2.227 5.557 2.227-5.557h1.164v6.81h-.898v-2.653l.084-2.862-2.236 5.515h-.687l-2.232-5.5.09 2.848v2.653h-.898v-6.81h1.16zm11.054 3.663h-2.952v2.413h3.43v.735h-4.327v-6.81h4.28v.74h-3.382v2.19h2.952v.735z" class="H"/><path d="M295.64 597.57h-2.853l-.64 1.778h-.926l2.6-6.81h.786l2.605 6.81h-.92l-.65-1.778zm-2.582-.74h2.316l-1.16-3.186-1.156 3.186zm7.078-.52c-.77-.222-1.332-.493-1.684-.814a1.57 1.57 0 0 1-.524-1.198c0-.536.214-.98.64-1.328s.988-.53 1.675-.53c.467 0 .884.09 1.25.272s.65.43.85.748a1.9 1.9 0 0 1 .304 1.043h-.903c0-.41-.13-.734-.393-.968s-.63-.356-1.108-.356c-.443 0-.79.1-1.04.295s-.37.463-.37.81c0 .278.116.513.35.707s.638.365 1.203.524 1 .335 1.328.528.558.413.71.67.234.557.234.903c0 .552-.215.995-.645 1.33s-1.006.495-1.727.495a3.22 3.22 0 0 1-1.309-.266c-.406-.18-.72-.427-.94-.74a1.81 1.81 0 0 1-.327-1.062h.903c0 .41.15.737.453.977s.713.356 1.22.356c.474 0 .838-.097 1.1-.3a.94.94 0 0 0 .379-.791c0-.333-.117-.59-.35-.77s-.658-.365-1.272-.543zm5.688 0c-.77-.222-1.33-.493-1.684-.814a1.57 1.57 0 0 1-.524-1.198c0-.536.214-.98.64-1.328s.99-.53 1.675-.53c.468 0 .884.09 1.25.272s.652.43.85.748a1.9 1.9 0 0 1 .304 1.043h-.902c0-.41-.13-.734-.393-.968s-.632-.356-1.11-.356c-.443 0-.79.1-1.04.295s-.37.463-.37.81c0 .278.117.513.35.707s.638.365 1.202.524 1 .335 1.33.528.558.413.71.67a1.71 1.71 0 0 1 .233.903c0 .552-.215.995-.645 1.33s-1.006.495-1.726.495a3.22 3.22 0 0 1-1.31-.266c-.406-.18-.72-.427-.94-.74s-.328-.666-.328-1.062h.903c0 .41.15.737.454.977s.712.356 1.22.356c.474 0 .837-.097 1.1-.3s.38-.457.38-.79-.117-.59-.35-.77-.658-.365-1.273-.543zm4.646 3.036h-.9v-6.81h.9v6.81zm6.675-.894c-.23.33-.554.58-.968.744s-.892.243-1.44.243c-.555 0-1.048-.13-1.478-.388s-.764-.633-1-1.113-.354-1.037-.36-1.67v-.594c0-1.026.24-1.822.716-2.386s1.154-.847 2.02-.847c.71 0 1.283.183 1.717.548s.698.876.795 1.543h-.898c-.17-.9-.705-1.352-1.61-1.352-.602 0-1.06.212-1.37.637s-.465 1.032-.468 1.833v.557c0 .764.175 1.372.524 1.824a1.7 1.7 0 0 0 1.418.674c.336 0 .63-.037.884-.112s.46-.2.627-.38v-1.53h-1.577v-.73h2.47v2.498zm6.736.894h-.903l-3.43-5.25v5.25h-.902v-6.81h.902l3.44 5.272v-5.272h.893v6.81zm5.445-3.148h-2.95v2.413h3.43v.735h-4.328v-6.81h4.28v.74h-3.382v2.19h2.95v.735zm5.445 0h-2.95v2.413h3.43v.735h-4.327v-6.81h4.28v.74h-3.382v2.19h2.95v.735z" class="H"/><path d="M452.087 596.313c-.77-.222-1.332-.493-1.684-.814a1.57 1.57 0 0 1-.524-1.198c0-.536.214-.98.64-1.328s.988-.53 1.675-.53c.467 0 .884.09 1.25.272s.65.43.85.748a1.9 1.9 0 0 1 .304 1.043h-.903c0-.41-.13-.734-.393-.968s-.63-.356-1.108-.356c-.443 0-.79.1-1.04.295a.97.97 0 0 0-.37.809c0 .278.117.513.35.707s.638.365 1.203.524 1 .335 1.328.528.558.413.71.67.234.557.234.903c0 .552-.215.995-.646 1.33s-1.005.495-1.726.495a3.22 3.22 0 0 1-1.309-.266c-.406-.18-.72-.427-.94-.74a1.81 1.81 0 0 1-.327-1.062h.903c0 .41.15.737.453.977s.713.356 1.22.356c.474 0 .838-.097 1.1-.3a.94.94 0 0 0 .379-.791c0-.333-.117-.59-.35-.77s-.658-.365-1.272-.543zm8.388-3.036h-2.2v6.072h-.893v-6.072h-2.185v-.74h5.268v.74zm4.397 4.294h-2.854l-.64 1.778h-.926l2.6-6.81h.786l2.606 6.81h-.922l-.65-1.778zm-2.582-.74h2.315l-1.16-3.186-1.155 3.186zm9.168-3.555h-2.19v6.072h-.893v-6.072h-2.185v-.74h5.267v.74zm5.806-.74v4.63c-.003.642-.206 1.168-.608 1.576s-.942.638-1.628.688l-.24.01c-.745 0-1.34-.2-1.782-.603s-.668-.956-.674-1.66v-4.64h.89v4.612c0 .493.136.877.407 1.15s.658.407 1.16.407c.508 0 .897-.136 1.165-.407s.407-.653.407-1.146v-4.617h.903zm3.424 3.775c-.77-.222-1.332-.493-1.684-.814a1.57 1.57 0 0 1-.524-1.198c0-.536.214-.98.64-1.328s.988-.53 1.675-.53c.467 0 .884.09 1.25.272s.65.43.85.748a1.9 1.9 0 0 1 .304 1.043h-.903c0-.41-.13-.734-.393-.968s-.63-.356-1.108-.356c-.443 0-.8.1-1.04.295a.97.97 0 0 0-.37.809c0 .278.117.513.35.707s.638.365 1.203.524 1 .335 1.328.528.558.413.71.67.234.557.234.903c0 .552-.215.995-.646 1.33s-1.005.495-1.726.495c-.468 0-.904-.088-1.3-.266s-.718-.427-.94-.74a1.81 1.81 0 0 1-.327-1.062h.903c0 .41.15.737.453.977s.713.356 1.22.356c.474 0 .838-.097 1.1-.3a.94.94 0 0 0 .379-.791c0-.333-.117-.59-.35-.77s-.658-.365-1.272-.543zm5.89.27c0-.705.094-1.38.28-2.03s.473-1.238.847-1.768.762-.905 1.165-1.123l.177.57c-.455.35-.83.882-1.122 1.6s-.45 1.52-.477 2.41l-.005.397c0 1.204.22 2.25.66 3.135.266.53.58.945.945 1.244l-.177.53c-.415-.23-.81-.618-1.19-1.16-.736-1.06-1.104-2.328-1.104-3.803zm4.173-1.684a1.84 1.84 0 0 1 1.497-.706c1.07 0 1.61.603 1.62 1.8v3.345H493V596c-.003-.364-.087-.634-.252-.81s-.417-.262-.763-.262c-.28 0-.527.075-.74.225s-.377.346-.496.59v3.607h-.865v-7.185h.865v2.736zm6.41 1.73c0 .695-.092 1.363-.276 2.002s-.46 1.224-.837 1.764-.768.923-1.18 1.15l-.183-.53c.48-.368.866-.94 1.156-1.712s.443-1.638.45-2.582v-.15a7.69 7.69 0 0 0-.206-1.825c-.137-.564-.33-1.07-.575-1.515s-.518-.794-.824-1.043l.183-.53c.41.228.803.608 1.174 1.14a5.87 5.87 0 0 1 .837 1.764c.187.642.28 1.33.28 2.063z" class="H"/><use xlink:href="#E" class="G"/><use xlink:href="#E" x="158.199" class="G"/><use xlink:href="#E" x="729.216" class="G"/><path d="M354.16 597.534l-3.99 3.997-3.992-3.997h7.983z" class="C I"/><path d="M346.177 595.942l3.992-3.996 3.99 3.996h-7.983z" class="C I"/><path d="M513.957 597.53l-3.992 3.995-3.992-3.995h7.984z" class="C I"/><path d="M505.973 595.94l3.992-3.994 3.992 3.994h-7.984z" class="C I"/><path d="M570.556 596.682v2.667h-.898v-6.81h2.512c.745 0 1.328.2 1.75.57s.637.885.637 1.51c0 .662-.208 1.172-.623 1.53s-1.002.533-1.773.533h-1.604zm0-.734h1.614c.48 0 .848-.112 1.104-.337s.383-.555.383-.982c0-.406-.127-.73-.383-.973s-.607-.37-1.053-.38h-1.665v2.67zm7.644.646h-1.6v2.755h-.903v-6.81h2.255c.767 0 1.356.174 1.768.524s.622.857.622 1.525c0 .424-.115.793-.346 1.108s-.546.55-.954.707l1.6 2.89v.056h-.964l-1.478-2.755zm-1.6-.735h1.38c.446 0 .8-.115 1.062-.346s.397-.54.397-.926c0-.42-.126-.744-.38-.97s-.61-.338-1.085-.34H576.6v2.582zm10.245.304c0 .668-.113 1.25-.337 1.75s-.543.875-.955 1.136-.892.393-1.44.393c-.537 0-1.012-.13-1.427-.393s-.738-.64-.968-1.127-.345-1.056-.35-1.698v-.49c0-.655.113-1.234.34-1.736s.55-.885.964-1.15.895-.403 1.43-.403c.546 0 1.026.133 1.44.398s.74.644.964 1.146.337 1.08.337 1.745v.43zm-.894-.44c0-.807-.162-1.426-.486-1.857s-.78-.65-1.362-.65a1.59 1.59 0 0 0-1.342.65c-.325.43-.49 1.03-.5 1.797v.5c0 .783.164 1.4.49 1.848s.785.67 1.362.67 1.03-.21 1.347-.632.482-1.03.49-1.82v-.506zm7.27 2.732c-.23.33-.554.58-.97.744s-.892.243-1.44.243c-.555 0-1.047-.13-1.478-.388s-.764-.633-1-1.113-.354-1.037-.36-1.67v-.594c0-1.026.238-1.822.716-2.386s1.154-.847 2.02-.847c.71 0 1.283.183 1.716.548s.7.876.796 1.543h-.9c-.168-.9-.704-1.352-1.61-1.352-.602 0-1.06.212-1.37.637s-.465 1.032-.468 1.833v.557c0 .764.174 1.372.524 1.824s.82.674 1.417.674c.337 0 .632-.037.884-.112s.462-.2.627-.38v-1.53h-1.576v-.73h2.47v2.498zm4-1.86h-1.6v2.755h-.902v-6.81h2.254c.767 0 1.357.174 1.77.524s.622.857.622 1.525c0 .424-.116.793-.346 1.108a2.04 2.04 0 0 1-.955.707l1.6 2.89v.056h-.964l-1.478-2.755zm-1.6-.735H597c.446 0 .8-.115 1.062-.346s.398-.54.398-.926c0-.42-.126-.744-.38-.97s-.61-.338-1.085-.34h-1.376v2.582zm8.856.342h-2.952v2.413h3.43v.735h-4.327v-6.81h4.28v.74h-3.382v2.19h2.952v.735zm3.602.112c-.77-.222-1.332-.493-1.684-.814s-.524-.724-.524-1.198a1.64 1.64 0 0 1 .641-1.328c.43-.353.988-.53 1.674-.53.468 0 .884.09 1.25.272s.652.43.852.748a1.91 1.91 0 0 1 .304 1.043h-.903c0-.41-.13-.734-.393-.968s-.632-.356-1.11-.356c-.443 0-.79.1-1.038.295s-.37.463-.37.81c0 .278.117.513.35.707s.638.365 1.202.524 1.01.335 1.33.528.558.413.71.67.234.557.234.903c0 .552-.215.995-.646 1.33s-1.006.495-1.726.495c-.468 0-.904-.088-1.3-.266s-.72-.427-.94-.74a1.81 1.81 0 0 1-.327-1.062h.902c0 .41.152.737.454.977s.713.356 1.22.356c.474 0 .837-.097 1.1-.3a.94.94 0 0 0 .379-.791c0-.333-.117-.59-.35-.77s-.658-.365-1.272-.543zm5.688 0c-.77-.222-1.332-.493-1.684-.814a1.57 1.57 0 0 1-.524-1.198c0-.536.214-.98.64-1.328s.99-.53 1.675-.53c.467 0 .884.09 1.25.272s.652.43.85.748a1.9 1.9 0 0 1 .304 1.043h-.903c0-.41-.13-.734-.393-.968s-.63-.356-1.108-.356c-.443 0-.79.1-1.04.295s-.37.463-.37.81c0 .278.117.513.35.707s.638.365 1.203.524 1 .335 1.328.528.558.413.71.67.234.557.234.903c0 .552-.215.995-.645 1.33s-1.006.495-1.727.495a3.22 3.22 0 0 1-1.309-.266c-.406-.18-.72-.427-.94-.74a1.81 1.81 0 0 1-.327-1.062h.903c0 .41.15.737.454.977s.712.356 1.22.356c.475 0 .838-.097 1.1-.3a.94.94 0 0 0 .379-.791c0-.333-.117-.59-.35-.77s-.66-.365-1.273-.543z" class="H"/><path d="M634.333 597.53l-3.99 3.995-3.992-3.995h7.983z" class="C I"/><path d="M626.35 595.94l3.992-3.994 3.992 3.994h-7.984z" class="C I"/><path d="M1031.6 592.538v4.63c-.01.642-.2 1.168-.6 1.576s-.94.638-1.63.688l-.24.01c-.74 0-1.34-.2-1.78-.603s-.67-.956-.68-1.66v-4.64h.9v4.612c0 .493.14.877.4 1.15s.66.407 1.16.407c.5 0 .9-.136 1.17-.407s.4-.653.4-1.146v-4.617h.9zm3.42 3.775c-.77-.222-1.33-.493-1.68-.814s-.53-.724-.53-1.198c0-.536.22-.98.64-1.328.43-.353 1-.53 1.68-.53.47 0 .88.09 1.25.272a2.08 2.08 0 0 1 .85.748 1.92 1.92 0 0 1 .3 1.043h-.9c0-.41-.13-.734-.4-.968-.27-.237-.64-.356-1.1-.356-.45 0-.8.1-1.04.295s-.37.463-.37.81c0 .278.12.513.35.707.24.2.64.365 1.2.524.57.16 1 .335 1.33.528s.56.413.7.67c.16.256.24.557.24.903a1.6 1.6 0 0 1-.65 1.329c-.43.33-1 .495-1.73.495-.46 0-.9-.088-1.3-.266-.4-.18-.7-.427-.94-.74a1.86 1.86 0 0 1-.32-1.062h.9c0 .41.15.737.45.977.3.237.72.356 1.22.356.48 0 .84-.097 1.1-.3.26-.193.38-.457.38-.79s-.1-.59-.35-.77c-.23-.184-.66-.365-1.27-.543zm3.68 3.036v-6.81h1.92c.6 0 1.12.13 1.58.393.45.262.8.634 1.05 1.118s.37 1.038.38 1.665v.435c0 .643-.13 1.206-.38 1.69a2.57 2.57 0 0 1-1.06 1.113c-.46.26-1 .392-1.6.398h-1.9zm.9-6.072v5.337h.94c.7 0 1.23-.215 1.62-.645.38-.43.58-1.043.58-1.84v-.397c0-.774-.18-1.374-.55-1.8-.36-.43-.88-.65-1.54-.655h-1.05z" class="H"/><path d="M1061.13 596.734l-4 3.994-4-3.994h8z" class="C J"/><path d="M1053.14 595.142l4-3.994 4 3.994h-8z" class="C I"/><path d="M134.084 597.534l-3.992 3.997-3.99-3.997h7.983z" class="C I"/><path d="M126.1 595.942l3.992-3.997 3.99 3.997H126.1z" class="C I"/><path d="M451.418 634.206h.76c.476-.007.85-.132 1.124-.376s.41-.573.41-.988c0-.93-.464-1.397-1.39-1.397-.437 0-.786.125-1.048.376s-.388.577-.388.988h-1.01c0-.63.23-1.15.687-1.566s1.048-.628 1.758-.628c.75 0 1.337.2 1.762.595s.64.948.64 1.654c0 .345-.113.68-.34 1.004a2 2 0 0 1-.911.726c.437.138.773.367 1 .687s.36.712.36 1.174c0 .713-.233 1.28-.7 1.697s-1.07.628-1.817.628-1.354-.202-1.823-.606-.698-.937-.698-1.6h1.015c0 .418.136.753.41 1.004s.64.377 1.097.377c.488 0 .86-.128 1.12-.382s.387-.62.387-1.097c0-.462-.142-.817-.425-1.065s-.694-.374-1.228-.382h-.76v-.824zm9.79 1.075c0 1.183-.202 2.062-.606 2.637s-1.035.862-1.894.862c-.847 0-1.475-.28-1.882-.84s-.62-1.404-.634-2.52v-1.348c0-1.168.202-2.036.606-2.603s1.037-.852 1.9-.852c.855 0 1.485.275 1.89.824s.61 1.4.622 2.533v1.31zm-1-1.38c0-.855-.12-1.477-.36-1.867s-.62-.59-1.14-.59c-.516 0-.893.194-1.13.584s-.36.988-.366 1.795v1.616c0 .858.124 1.493.37 1.904s.63.612 1.135.612c.5 0 .868-.193 1.108-.58s.37-.993.382-1.823V633.9zm4.912 1.763c0-.58.113-1.1.34-1.56s.545-.82.95-1.07.872-.377 1.392-.377c.804 0 1.453.28 1.948.835s.748 1.297.748 2.222v.07c0 .574-.11 1.09-.333 1.55a2.49 2.49 0 0 1-.944 1.064c-.408.254-.877.382-1.408.382-.8 0-1.45-.28-1.95-.835s-.742-1.294-.742-2.21v-.07zm1.015.12c0 .654.15 1.18.453 1.577s.713.595 1.223.595.92-.2 1.222-.6.453-.967.453-1.69c0-.648-.154-1.172-.464-1.572-.305-.404-.713-.606-1.222-.606-.5 0-.9.198-1.206.595s-.46.964-.46 1.703zm6.124 2.887v-5.125h-.934v-.78h.934v-.606c0-.633.17-1.123.507-1.468s.817-.52 1.436-.52a2.65 2.65 0 0 1 .693.093l-.055.82a2.88 2.88 0 0 0-.546-.05c-.327 0-.58.097-.758.3s-.268.462-.268.818v.623h1.26v.78h-1.26v5.125h-1.01zm9.376 0h-1.015v-6.73l-2.036.748v-.917l2.893-1.086h.158v7.985zm7.94-3.4c0 1.183-.202 2.062-.606 2.637s-1.035.862-1.894.862c-.848 0-1.475-.28-1.883-.84s-.618-1.404-.633-2.52v-1.348c0-1.168.202-2.036.606-2.603s1.037-.852 1.9-.852c.855 0 1.485.275 1.888.824s.612 1.4.623 2.533v1.31zm-1-1.38c0-.855-.12-1.477-.36-1.867s-.62-.59-1.14-.59-.893.194-1.13.584-.358.988-.365 1.795v1.616c0 .858.123 1.493.37 1.904s.63.612 1.135.612c.5 0 .868-.193 1.108-.58s.37-.993.382-1.823V633.9zm7.286 1.38c0 1.183-.202 2.062-.606 2.637s-1.035.862-1.894.862c-.847 0-1.475-.28-1.883-.84s-.618-1.404-.633-2.52v-1.348c0-1.168.202-2.036.606-2.603s1.037-.852 1.9-.852c.855 0 1.485.275 1.89.824s.61 1.4.622 2.533v1.31zm-1-1.38c0-.855-.12-1.477-.36-1.867s-.62-.59-1.14-.59-.893.194-1.13.584-.36.988-.366 1.795v1.616c0 .858.124 1.493.37 1.904s.63.612 1.135.612c.5 0 .868-.193 1.108-.58s.37-.993.382-1.823V633.9zm3.417-.42c.447-.55 1.03-.824 1.746-.824 1.248 0 1.878.704 1.888 2.112v3.903h-1.01v-3.908c-.004-.426-.102-.74-.295-.944s-.486-.306-.89-.306c-.328 0-.615.088-.863.262a1.78 1.78 0 0 0-.578.688v4.208h-1v-8.383h1v3.192z" class="B"/><path d="M74.606 705.713h1001.95v47.104H74.606z" class="D E F"/><use xlink:href="#F" class="G"/><use xlink:href="#F" x="158.199" class="G"/><path d="M538.102 619.1v.8h.798v-.8h-.798zm0 3.194h.798v-.8h-.798v.8zm0 2.395h.798v-.798h-.798v.798zm0 2.395h.798v-.798h-.798v.798zm0 2.395h.798v-.798h-.798v.798zm0 2.395h.798v-.798h-.798v.798zm0 2.395h.798v-.798h-.798v.798zm0 2.395h.798v-.798h-.798v.798zm0 2.396h.798v-.8h-.798v.8zm0 2.395h.798v-.8h-.798v.8zm0 2.395h.798v-.8h-.798v.8zm0 2.395h.798v-.798h-.798v.798zm0 2.395h.798v-.798h-.798v.798zm0 2.395h.798v-.798h-.798v.798z" class="G"/><path d="M538.102 666.194v.798h.798v-.798h-.798zm0 3.194h.798v-.8h-.798v.8zm0 2.395h.798v-.8h-.798v.8zm0 2.395h.798v-.8h-.798v.8zm0 2.395h.798v-.798h-.798v.798zm0 2.395h.798v-.798h-.798v.798zm0 2.395h.798v-.798h-.798v.798zm0 2.395h.798v-.798h-.798v.798zm0 2.395h.798v-.798h-.798v.798zm0 2.395h.798v-.798h-.798v.798zm0 2.396h.798v-.8h-.798v.8zm0 2.395h.798v-.8h-.798v.8zm0 2.395h.798v-.8h-.798v.8zm0 2.395h.798v-.8h-.798v.8z" class="G"/><path d="M538.102 713.298v.798h.798v-.798h-.798zm0 3.193h.798v-.798h-.798v.798zm0 2.395h.798v-.798h-.798v.798zm0 2.396h.798v-.8h-.798v.8zm0 2.395h.798v-.8h-.798v.8zm0 2.395h.798v-.8h-.798v.8zm0 2.395h.798v-.798h-.798v.798zm0 2.395h.798v-.798h-.798v.798zm0 2.395h.798v-.798h-.798v.798zm0 2.395h.798v-.798h-.798v.798zm0 2.395h.798v-.798h-.798v.798zm0 2.395h.798v-.798h-.798v.798zm0 2.396h.798v-.8h-.798v.8zm0 2.395h.798v-.8h-.798v.8z" class="G"/><use xlink:href="#F" x="729.216" class="G"/><path d="M91.922 733v-7.946h2.243c.69 0 1.303.153 1.834.458s.94.74 1.228 1.305.44 1.21.442 1.942v.508c0 .75-.145 1.406-.437 1.97a3.03 3.03 0 0 1-1.239 1.299c-.535.302-1.16.457-1.872.464h-2.2zm1.048-7.084v6.227h1.102c.808 0 1.435-.25 1.883-.753s.677-1.217.677-2.145v-.464c0-.902-.213-1.602-.638-2.1s-1.022-.757-1.8-.764H92.97zm8.58 7.193c-.8 0-1.452-.262-1.954-.786s-.753-1.23-.753-2.112v-.185c0-.586.11-1.108.333-1.567a2.62 2.62 0 0 1 .939-1.08c.404-.262.84-.393 1.3-.393.768 0 1.364.253 1.8.758s.64 1.23.64 2.172v.42h-4c.015.582.184 1.053.508 1.413s.742.535 1.244.535c.357 0 .66-.073.906-.218a2.3 2.3 0 0 0 .65-.579l.616.48c-.495.76-1.237 1.14-2.226 1.14zm-.126-5.294a1.34 1.34 0 0 0-1.026.448c-.277.295-.447.71-.513 1.244h2.958v-.076c-.03-.513-.167-.9-.415-1.2s-.582-.426-1.004-.426zm5.474 3.815l1.463-4.535h1.03L107.275 733h-.77l-2.14-5.905h1.03l1.5 4.535zm5.84 1.48c-.8 0-1.452-.262-1.954-.786s-.753-1.23-.753-2.112v-.185c0-.586.11-1.108.333-1.567s.538-.822.938-1.08.84-.393 1.3-.393c.768 0 1.365.253 1.8.758s.64 1.23.64 2.172v.42h-4c.015.582.184 1.053.508 1.413s.742.535 1.244.535c.357 0 .66-.073.906-.218s.464-.34.65-.58l.616.48c-.494.76-1.237 1.14-2.226 1.14zm-.126-5.294a1.34 1.34 0 0 0-1.026.448c-.276.295-.447.71-.513 1.244h2.958v-.076c-.03-.513-.167-.9-.415-1.2s-.582-.426-1.004-.426zm4.7 5.185h-1v-8.383h1V733zm1.354-3.007c0-.58.112-1.1.338-1.56s.546-.82.95-1.07.87-.376 1.39-.376c.804 0 1.454.278 1.95.835s.747 1.297.747 2.22v.07c0 .575-.11 1.09-.333 1.55s-.533.81-.944 1.064-.877.382-1.408.382c-.8 0-1.45-.278-1.948-.835s-.742-1.293-.742-2.2v-.07zm1.015.12c0 .655.15 1.18.453 1.577a1.46 1.46 0 0 0 1.222.595 1.45 1.45 0 0 0 1.223-.6c.302-.404.453-.968.453-1.692 0-.648-.155-1.172-.464-1.572s-.713-.606-1.223-.606a1.45 1.45 0 0 0-1.206.595c-.305.397-.458.964-.458 1.703zm10.615 0c0 .9-.206 1.623-.617 2.172s-.968.824-1.67.824c-.717 0-1.28-.227-1.692-.682v2.843h-1v-8.175h.923l.05.655c.41-.5.982-.764 1.714-.764.71 0 1.27.267 1.68.802s.622 1.28.622 2.232v.093zm-1-.115c0-.666-.142-1.19-.426-1.577s-.673-.578-1.168-.578a1.48 1.48 0 0 0-1.375.813v2.82c.302.54.764.808 1.386.808a1.36 1.36 0 0 0 1.152-.573c.287-.386.43-.957.43-1.714zm3.247-2.903l.028.655c.433-.5 1.017-.764 1.752-.764.825 0 1.388.316 1.686.95a2.24 2.24 0 0 1 .764-.687c.317-.175.69-.262 1.12-.262 1.295 0 1.954.686 1.975 2.057V733h-1.01v-3.897c0-.422-.097-.737-.29-.944s-.517-.316-.972-.316c-.375 0-.686.112-.933.338s-.39.522-.43.9V733h-1.015v-3.87c0-.86-.42-1.288-1.26-1.288-.662 0-1.115.282-1.36.845V733h-1v-5.905h.955zm11.303 6.014c-.8 0-1.452-.262-1.954-.786s-.753-1.23-.753-2.112v-.185c0-.586.11-1.108.333-1.567s.538-.822.94-1.08a2.36 2.36 0 0 1 1.31-.393c.767 0 1.364.253 1.8.758s.638 1.23.638 2.172v.42h-4c.014.582.183 1.053.507 1.413s.743.535 1.245.535c.356 0 .658-.073.906-.218s.463-.34.65-.58l.617.48c-.495.76-1.237 1.14-2.227 1.14zm-.125-5.294a1.34 1.34 0 0 0-1.026.448c-.277.295-.448.71-.514 1.244h2.96v-.076c-.03-.513-.168-.9-.415-1.2s-.582-.426-1.004-.426zm4.557-.72l.032.742c.452-.567 1.04-.85 1.77-.85 1.248 0 1.877.704 1.888 2.112V733h-1v-3.908c-.003-.425-.102-.74-.294-.944s-.486-.305-.9-.305c-.327 0-.615.087-.862.262s-.44.403-.58.687V733h-1.01v-5.905h.955zm6.582-1.43v1.43h1.102v.78h-1.102v3.662c0 .237.05.415.147.535s.265.175.502.175a2.43 2.43 0 0 0 .48-.066v.82c-.265.073-.524.11-.775.11-.45 0-.79-.136-1.02-.41s-.344-.66-.344-1.163v-3.662h-1.075v-.78h1.075v-1.43h1z" class="B"/><path d="M296.4 730.805h-3.33l-.748 2.073h-1.08l3.034-7.946h.917l3.04 7.946h-1.075l-.76-2.073zm-3.013-.863h2.702l-1.353-3.716-1.35 3.716zm6.713-2.97l.033.743a2.15 2.15 0 0 1 1.768-.852c1.248 0 1.878.704 1.89 2.112v3.902h-1v-3.907c-.004-.426-.102-.74-.295-.944s-.485-.306-.89-.306c-.328 0-.615.087-.863.262a1.78 1.78 0 0 0-.578.688v4.207h-1v-5.905h.955zm6.167 0l.033.743a2.15 2.15 0 0 1 1.768-.852c1.248 0 1.878.704 1.89 2.112v3.902h-1v-3.907c-.004-.426-.102-.74-.295-.944s-.485-.306-.89-.306c-.328 0-.615.087-.862.262s-.44.404-.58.688v4.207h-1v-5.905h.955zm6.31 5.905h-1.01v-5.905h1.01v5.905zm-1.09-7.47a.61.61 0 0 1 .147-.415c.102-.113.25-.17.448-.17s.345.056.447.17.153.25.153.415-.05.3-.153.41-.25.164-.447.164-.346-.055-.448-.164-.147-.245-.147-.41zm5.163 7.58c-.8 0-1.452-.262-1.954-.786s-.753-1.232-.753-2.112v-.186c0-.586.11-1.108.333-1.566s.538-.823.938-1.08.84-.393 1.3-.393c.768 0 1.365.253 1.8.76s.64 1.23.64 2.172v.42h-4c.015.582.184 1.053.508 1.414s.742.534 1.244.534c.357 0 .66-.072.906-.218a2.27 2.27 0 0 0 .65-.578l.617.48c-.495.76-1.238 1.14-2.227 1.14zm-.126-5.294c-.407 0-.75.15-1.026.447s-.447.7-.513 1.245h2.958v-.077c-.03-.513-.167-.91-.415-1.2s-.582-.425-1.004-.425zm8.874 1.642c-.898-.258-1.553-.574-1.964-.95a1.83 1.83 0 0 1-.612-1.397c0-.626.25-1.143.748-1.55s1.153-.617 1.954-.617c.546 0 1.03.106 1.457.317a2.38 2.38 0 0 1 .993.873c.237.37.355.777.355 1.217h-1.053c0-.48-.153-.857-.46-1.13s-.736-.415-1.293-.415c-.517 0-.92.115-1.212.344s-.43.54-.43.944c0 .324.137.6.41.824s.744.426 1.403.612 1.18.39 1.55.616.65.482.83.78.272.65.272 1.053a1.86 1.86 0 0 1-.753 1.55c-.502.386-1.173.58-2.014.58-.545 0-1.055-.104-1.528-.312s-.838-.498-1.097-.862-.382-.777-.382-1.24h1.054c0 .48.176.86.53 1.14s.83.415 1.424.415c.553 0 .977-.113 1.272-.34s.442-.533.442-.922-.136-.69-.41-.9-.768-.426-1.485-.634zm5.087-2.363l.027.655c.433-.51 1.017-.764 1.752-.764.826 0 1.388.317 1.686.95a2.26 2.26 0 0 1 .764-.688c.317-.175.7-.262 1.12-.262 1.296 0 1.954.686 1.976 2.058v3.956h-1v-3.896c0-.422-.096-.737-.29-.944s-.517-.317-.97-.317c-.375 0-.686.113-.934.338s-.39.522-.43.9v3.918h-1.015v-3.87c0-.86-.42-1.288-1.26-1.288-.662 0-1.115.282-1.36.846v4.31h-1.01v-5.905h.955zm9.95 5.905h-1v-5.905h1v5.905zm-1.09-7.47a.61.61 0 0 1 .147-.415c.102-.113.25-.17.447-.17s.346.056.448.17.153.25.153.415-.05.3-.153.41-.25.164-.448.164-.345-.055-.447-.164-.147-.245-.147-.41zm4.082.136v1.43h1.102v.78h-1.102v3.662c0 .236.05.415.147.535s.266.174.502.174a2.49 2.49 0 0 0 .481-.065v.818c-.266.073-.524.1-.775.1-.452 0-.792-.137-1.02-.4s-.344-.66-.344-1.162v-3.662h-1.075v-.78h1.075v-1.43h1zm3.296 2.145c.448-.55 1.03-.824 1.747-.824 1.248 0 1.877.704 1.888 2.112v3.902h-1v-3.907c-.003-.426-.102-.74-.294-.944s-.486-.306-.9-.306c-.327 0-.615.087-.862.262s-.44.404-.58.688v4.207h-1.01v-8.382h1.01v3.192z" class="B"/><path d="M1040.9 730.832c0-.335-.12-.617-.36-.846-.23-.23-.63-.437-1.18-.622-.78-.237-1.34-.544-1.7-.923-.35-.382-.53-.866-.53-1.45 0-.597.17-1.086.52-1.468s.83-.6 1.43-.683v-1.195h.82v1.2c.6.083 1.08.34 1.42.77s.52 1.017.52 1.763h-1c0-.513-.12-.92-.36-1.222a1.22 1.22 0 0 0-.99-.453c-.44 0-.77.112-1 .338-.22.222-.34.533-.34.933 0 .37.12.668.36.9s.64.418 1.2.6c.55.178 1 .377 1.3.595s.54.466.68.753c.15.288.23.624.23 1 0 .615-.2 1.1-.56 1.484s-.88.597-1.55.666v1.043h-.8v-1.043c-.67-.062-1.2-.302-1.6-.72s-.57-.994-.57-1.714h1c0 .506.13.895.4 1.168.27.273.65.41 1.13.41s.85-.114 1.13-.344c.27-.23.4-.542.4-.938zm2.73-1.938l.4-3.962h4.07v.933h-3.2l-.24 2.167c.4-.23.83-.344 1.32-.344.73 0 1.3.24 1.73.72.42.476.64 1.122.64 1.937s-.23 1.464-.67 1.937-1.06.705-1.85.705c-.7 0-1.28-.195-1.72-.584s-.7-.928-.76-1.616h.96c.06.455.22.8.48 1.032s.6.343 1.04.343c.47 0 .84-.16 1.1-.48.27-.32.4-.762.4-1.326 0-.53-.15-.957-.44-1.277s-.67-.486-1.15-.486c-.44 0-.8.097-1.04.29l-.27.22-.8-.208zm10.8.595c0 1.183-.2 2.06-.6 2.636-.4.575-1.04.863-1.9.863-.85 0-1.47-.28-1.88-.84s-.62-1.404-.63-2.52v-1.348c0-1.168.2-2.036.6-2.604s1.04-.85 1.9-.85 1.48.275 1.9.824c.4.546.6 1.4.62 2.532v1.3zm-1-1.38c0-.855-.12-1.477-.36-1.866s-.62-.6-1.14-.6-.9.195-1.13.584-.36.988-.37 1.796v1.615c0 .86.13 1.494.38 1.905s.63.61 1.13.61.87-.192 1.1-.578.37-.993.38-1.823v-1.654zm7.3 1.38c0 1.183-.2 2.06-.6 2.636-.4.575-1.03.863-1.9.863-.85 0-1.48-.28-1.9-.84-.4-.564-.6-1.404-.63-2.52v-1.348c0-1.168.2-2.036.6-2.604.4-.567 1.03-.85 1.9-.85.85 0 1.48.275 1.88.824.4.546.62 1.4.63 2.532v1.3zm-1-1.38c0-.855-.12-1.477-.36-1.866s-.62-.6-1.14-.6-.9.195-1.13.584c-.24.4-.36.988-.37 1.796v1.615c0 .86.12 1.494.37 1.905s.63.61 1.14.61c.5 0 .87-.192 1.1-.578s.37-.993.38-1.823v-1.654z" class="B"/><rect x="569" y="625" width="419" height="20" rx="1.597" class="O"/><rect x="568.867" y="625.477" width="125.7" height="19.161" rx="1.597" class="M"/><rect x="569" y="720" width="419" height="19" rx="1.597" fill="#f44336"/><rect x="569" y="673" width="419" height="19" rx="1.597" class="O"/><rect x="568.867" y="672.581" width="167.6" height="19.161" rx="1.597" class="M"/><path d="M455.156 685.774h-5.206v-.725l2.75-3.057c.407-.462.687-.837.84-1.124s.235-.59.235-.9c0-.415-.126-.755-.377-1.02s-.586-.398-1.004-.398c-.502 0-.893.143-1.173.43s-.415.68-.415 1.19h-1c0-.73.235-1.322.704-1.773s1.104-.677 1.894-.677c.74 0 1.322.195 1.752.584s.644.9.644 1.544c0 .783-.5 1.714-1.496 2.795l-2.128 2.308h3.99v.824zm6.053-3.39c0 1.183-.202 2.06-.606 2.636s-1.035.863-1.894.863c-.847 0-1.475-.28-1.882-.84s-.62-1.404-.634-2.52v-1.348c0-1.168.202-2.036.606-2.604s1.037-.85 1.9-.85c.855 0 1.485.275 1.89.824s.61 1.4.622 2.532v1.3zm-1-1.38c0-.855-.12-1.477-.36-1.866s-.62-.59-1.14-.59c-.516 0-.893.194-1.13.584s-.36.987-.366 1.795v1.616c0 .858.124 1.493.37 1.904s.63.61 1.135.61c.5 0 .868-.192 1.108-.578s.37-.993.382-1.823v-1.654zm4.912 1.763c0-.578.113-1.1.34-1.56s.545-.818.95-1.07.872-.377 1.392-.377c.804 0 1.453.278 1.948.835s.748 1.297.748 2.22v.07c0 .575-.11 1.092-.333 1.55s-.533.8-.944 1.065-.877.382-1.408.382c-.8 0-1.45-.28-1.95-.835s-.742-1.294-.742-2.21v-.07zm1.015.12c0 .655.15 1.18.453 1.578s.713.594 1.223.594a1.45 1.45 0 0 0 1.222-.6c.302-.404.453-.968.453-1.692 0-.647-.154-1.17-.464-1.572-.305-.403-.713-.605-1.222-.605-.5 0-.9.198-1.206.595s-.46.964-.46 1.702zm6.124 2.887v-5.124h-.934v-.78h.934v-.606c0-.633.17-1.122.507-1.468s.817-.518 1.436-.518a2.65 2.65 0 0 1 .693.093l-.055.818c-.17-.032-.353-.05-.546-.05-.327 0-.58.097-.758.29s-.268.463-.268.82v.622h1.26v.78h-1.26v5.124h-1.01zm6.522-3.984l.403-3.962h4.072v.933h-3.215l-.24 2.167c.39-.23.83-.344 1.326-.344.724 0 1.3.24 1.725.72s.638 1.122.638 1.937-.222 1.465-.665 1.938-1.057.704-1.85.704c-.702 0-1.275-.195-1.72-.584s-.696-.928-.758-1.616h.955c.062.455.224.8.486 1.032s.607.343 1.036.343c.47 0 .837-.16 1.103-.48s.404-.762.404-1.326c0-.53-.146-.957-.437-1.277s-.67-.486-1.15-.486c-.44 0-.786.097-1.037.29l-.268.22-.807-.208zm10.795.595c0 1.183-.202 2.06-.606 2.636s-1.035.863-1.894.863c-.848 0-1.475-.28-1.883-.84s-.618-1.404-.633-2.52v-1.348c0-1.168.202-2.036.606-2.604s1.037-.85 1.9-.85c.855 0 1.485.275 1.888.824s.612 1.4.623 2.532v1.3zm-1-1.38c0-.855-.12-1.477-.36-1.866s-.62-.59-1.14-.59-.893.194-1.13.584-.358.987-.365 1.795v1.616c0 .858.123 1.493.37 1.904s.63.61 1.135.61c.5 0 .868-.192 1.108-.578s.37-.993.382-1.823v-1.654zm3.416-.42c.448-.55 1.03-.824 1.747-.824 1.248 0 1.877.704 1.888 2.112v3.902h-1.01v-3.907c-.004-.426-.102-.74-.295-.944s-.486-.306-.9-.306c-.327 0-.615.087-.862.262a1.79 1.79 0 0 0-.579.688v4.207h-1.01v-8.382h1.01v3.192z" class="B"/><path d="M770.322 634.206h.76c.477-.007.85-.132 1.124-.376s.4-.573.4-.988c0-.93-.464-1.397-1.392-1.397-.437 0-.786.125-1.048.376s-.388.577-.388.988h-1.01c0-.63.23-1.15.687-1.566s1.048-.628 1.758-.628c.75 0 1.337.2 1.763.595s.638.948.638 1.654c0 .345-.113.68-.338 1.004s-.526.566-.912.726c.437.138.774.367 1 .687s.36.712.36 1.174c0 .713-.233 1.28-.698 1.697s-1.072.628-1.818.628-1.353-.202-1.823-.606c-.465-.404-.698-.937-.698-1.6h1.015c0 .418.136.753.41 1.004s.64.377 1.097.377c.488 0 .86-.128 1.12-.382s.388-.62.388-1.097c0-.462-.142-.817-.426-1.065s-.693-.374-1.228-.382h-.76v-.824zm9.79 1.075c0 1.183-.202 2.062-.606 2.637s-1.035.862-1.893.862c-.848 0-1.476-.28-1.883-.84s-.62-1.404-.633-2.52v-1.348c0-1.168.202-2.036.606-2.603s1.036-.852 1.9-.852c.855 0 1.484.275 1.888.824s.61 1.4.622 2.533v1.31zm-1.01-1.38c0-.855-.12-1.477-.36-1.867s-.62-.59-1.14-.59-.893.194-1.13.584-.358.988-.366 1.795v1.616c0 .858.124 1.493.37 1.904.252.408.63.612 1.136.612.498 0 .867-.193 1.108-.58s.37-.993.382-1.823V633.9zm2.215-1.648c0-.477.15-.87.453-1.18s.697-.464 1.174-.464c.484 0 .875.156 1.173.47s.453.71.453 1.206v.388c0 .48-.153.873-.458 1.18s-.688.453-1.157.453-.864-.15-1.174-.453-.464-.712-.464-1.217v-.382zm.754.42a1.04 1.04 0 0 0 .24.704c.16.182.374.273.644.273.258 0 .465-.09.622-.268s.24-.422.24-.73v-.398c0-.284-.078-.52-.235-.705a.79.79 0 0 0-.638-.278c-.27 0-.482.093-.64.278s-.234.428-.234.726v.4zm3.116 4.05c0-.476.15-.867.453-1.173s.697-.464 1.173-.464.868.153 1.174.458.458.712.458 1.217v.388c0 .477-.153.87-.458 1.18s-.7.458-1.163.458-.864-.15-1.173-.453-.464-.71-.464-1.217v-.393zm.753.426c0 .287.08.524.24.71s.375.273.644.273c.262 0 .47-.09.628-.267s.234-.428.234-.737v-.404c0-.287-.08-.522-.24-.704a.79.79 0 0 0-.633-.273c-.258 0-.47.09-.633.273s-.24.42-.24.726v.404zm-2.756.922l-.573-.36 3.88-6.21.573.36-3.88 6.2z" class="B"/><path d="M773.117 683.904h1.102v.824h-1.102v1.845H772.1v-1.845h-3.618v-.595l3.558-5.507h1.076v5.278zm-3.488 0h2.472v-3.897l-.12.218-2.352 3.68zm10.484-.72c0 1.183-.202 2.06-.606 2.636s-1.035.863-1.893.863c-.848 0-1.476-.28-1.883-.84s-.62-1.404-.633-2.52v-1.348c0-1.168.202-2.036.606-2.604s1.036-.85 1.9-.85c.855 0 1.484.275 1.888.824s.61 1.4.622 2.533v1.31zm-1.01-1.38c0-.855-.12-1.478-.36-1.867s-.62-.59-1.14-.59-.893.194-1.13.584-.358.987-.366 1.795v1.616c0 .858.124 1.493.37 1.904.252.408.63.612 1.136.612.498 0 .867-.193 1.108-.58s.37-.993.382-1.823v-1.653zm2.215-1.65c0-.476.15-.87.453-1.178s.697-.464 1.174-.464c.484 0 .875.156 1.173.47s.453.71.453 1.206v.388c0 .48-.153.873-.458 1.178s-.688.453-1.157.453-.864-.15-1.174-.453-.464-.71-.464-1.217v-.382zm.754.42c0 .283.08.518.24.704s.374.273.644.273c.258 0 .465-.1.622-.268s.24-.422.24-.73v-.4c0-.283-.078-.518-.235-.704a.79.79 0 0 0-.638-.278c-.27 0-.482.093-.64.278s-.234.428-.234.726v.4zm3.116 4.05c0-.476.15-.868.453-1.173.305-.3.697-.464 1.173-.464s.868.153 1.174.458.458.712.458 1.217v.388c0 .476-.153.87-.458 1.18-.302.305-.7.458-1.163.458s-.864-.15-1.173-.453-.464-.71-.464-1.217v-.393zm.753.426c0 .287.08.524.24.71s.375.273.644.273c.262 0 .47-.09.628-.267s.234-.428.234-.737v-.404c0-.287-.08-.522-.24-.704a.79.79 0 0 0-.633-.273c-.258 0-.47.09-.633.273s-.24.42-.24.726v.404zm-2.756.922l-.573-.36 3.88-6.21.573.36-3.88 6.21z" class="B"/><path d="M768.98 732.878h-1.016v-6.73l-2.035.748v-.917l2.892-1.086h.16v7.984zm8.164 0h-5.206v-.725l2.75-3.057c.408-.462.688-.837.84-1.124s.234-.59.234-.9c0-.415-.125-.755-.376-1.02s-.586-.398-1.004-.398c-.502 0-.894.143-1.174.43s-.415.68-.415 1.19h-1.01c0-.73.234-1.322.704-1.773s1.104-.677 1.894-.677c.738 0 1.322.195 1.752.584s.644.9.644 1.544c0 .783-.5 1.714-1.496 2.795l-2.128 2.308h3.99v.824zm6.053-3.39c0 1.183-.202 2.06-.606 2.636s-1.035.863-1.894.863c-.848 0-1.475-.28-1.883-.84s-.618-1.404-.633-2.52v-1.348c0-1.168.202-2.036.606-2.604s1.037-.85 1.9-.85c.855 0 1.485.275 1.888.824s.612 1.4.623 2.532v1.3zm-1-1.38c0-.855-.12-1.477-.36-1.866s-.62-.59-1.14-.59-.893.194-1.13.584-.358.987-.365 1.795v1.616c0 .858.123 1.493.37 1.904s.63.61 1.135.61c.5 0 .868-.192 1.108-.578s.37-.993.382-1.823v-1.654zm2.216-1.648c0-.476.15-.87.453-1.18s.697-.463 1.173-.463c.484 0 .875.156 1.174.47s.453.71.453 1.206v.388c0 .48-.153.873-.46 1.178s-.688.453-1.157.453-.864-.15-1.173-.453-.464-.71-.464-1.217v-.382zm.753.42c0 .283.08.518.24.704.16.18.375.272.644.272.258 0 .466-.09.622-.267s.24-.422.24-.73v-.4c0-.284-.078-.518-.234-.704s-.37-.278-.64-.278a.79.79 0 0 0-.638.278c-.157.186-.235.428-.235.726v.4zm3.116 4.05c0-.477.15-.868.453-1.173s.697-.464 1.174-.464.867.153 1.173.458.458.712.458 1.217v.388c0 .476-.152.87-.458 1.18s-.7.458-1.162.458-.865-.15-1.174-.453-.464-.71-.464-1.217v-.393zm.753.426c0 .287.08.524.24.71s.374.273.644.273c.26 0 .47-.09.627-.267s.235-.428.235-.737v-.404c0-.287-.08-.522-.24-.704s-.368-.273-.633-.273a.81.81 0 0 0-.633.273c-.16.178-.24.42-.24.726v.404zm-2.756.922l-.573-.36 3.88-6.21.573.36-3.88 6.21z" class="D"/><path d="M453.912 724.927v.857h-.185c-.786.014-1.412.247-1.878.698s-.735 1.086-.808 1.905c.42-.48 1-.72 1.714-.72.69 0 1.243.244 1.654.732s.622 1.117.622 1.888c0 .82-.224 1.474-.67 1.965s-1.04.737-1.8.737a2.27 2.27 0 0 1-1.851-.874c-.473-.585-.71-1.34-.71-2.26v-.388c0-1.462.31-2.58.933-3.35s1.556-1.17 2.79-1.19h.18zm-1.326 3.58a1.61 1.61 0 0 0-.955.311 1.62 1.62 0 0 0-.606.78v.372c0 .654.147 1.182.442 1.582s.662.6 1.103.6c.454 0 .81-.168 1.07-.503s.393-.773.393-1.315-.133-.986-.398-1.32-.61-.507-1.048-.507zm8.623.982c0 1.183-.202 2.06-.606 2.636s-1.035.863-1.894.863c-.847 0-1.475-.28-1.882-.84s-.62-1.404-.634-2.52v-1.348c0-1.168.202-2.036.606-2.604s1.037-.85 1.9-.85c.855 0 1.485.275 1.89.824s.61 1.4.622 2.532v1.3zm-1-1.38c0-.855-.12-1.477-.36-1.866s-.62-.59-1.14-.59c-.516 0-.893.194-1.13.584s-.36.987-.366 1.795v1.616c0 .858.124 1.493.37 1.904s.63.61 1.135.61c.5 0 .868-.192 1.108-.578s.37-.993.382-1.823v-1.654zm4.912 1.763c0-.578.113-1.1.34-1.56s.545-.818.95-1.07.872-.377 1.392-.377c.804 0 1.453.278 1.948.835s.748 1.297.748 2.22v.07c0 .575-.11 1.092-.333 1.55s-.533.8-.944 1.065-.877.382-1.408.382c-.8 0-1.45-.28-1.95-.835s-.742-1.294-.742-2.21v-.07zm1.015.12c0 .655.15 1.18.453 1.578s.713.594 1.223.594a1.45 1.45 0 0 0 1.222-.6c.302-.404.453-.968.453-1.692 0-.647-.154-1.17-.464-1.572-.305-.403-.713-.605-1.222-.605-.5 0-.9.198-1.206.595s-.46.964-.46 1.702zm6.124 2.887v-5.124h-.934v-.78h.934v-.606c0-.633.17-1.122.507-1.468s.817-.518 1.436-.518a2.65 2.65 0 0 1 .693.093l-.055.818c-.17-.032-.353-.05-.546-.05-.327 0-.58.097-.758.29s-.268.463-.268.82v.622h1.26v.78h-1.26v5.124h-1.01zm6.522-3.984l.403-3.962h4.072v.933h-3.215l-.24 2.167c.39-.23.83-.344 1.326-.344.724 0 1.3.24 1.725.72s.638 1.122.638 1.937-.222 1.465-.665 1.938-1.057.704-1.85.704c-.702 0-1.275-.195-1.72-.584s-.696-.928-.758-1.616h.955c.062.455.224.8.486 1.032s.607.343 1.036.343c.47 0 .837-.16 1.103-.48s.404-.762.404-1.326c0-.53-.146-.957-.437-1.277s-.67-.486-1.15-.486c-.44 0-.786.097-1.037.29l-.268.22-.807-.208zm10.795.595c0 1.183-.202 2.06-.606 2.636s-1.035.863-1.894.863c-.848 0-1.475-.28-1.883-.84s-.618-1.404-.633-2.52v-1.348c0-1.168.202-2.036.606-2.604s1.037-.85 1.9-.85c.855 0 1.485.275 1.888.824s.612 1.4.623 2.532v1.3zm-1-1.38c0-.855-.12-1.477-.36-1.866s-.62-.59-1.14-.59-.893.194-1.13.584-.358.987-.365 1.795v1.616c0 .858.123 1.493.37 1.904s.63.61 1.135.61c.5 0 .868-.192 1.108-.578s.37-.993.382-1.823v-1.654zm3.416-.42c.448-.55 1.03-.824 1.747-.824 1.248 0 1.877.704 1.888 2.112v3.902h-1.01v-3.907c-.004-.426-.102-.74-.295-.944s-.486-.306-.9-.306c-.327 0-.615.087-.862.262a1.79 1.79 0 0 0-.579.688v4.207h-1.01v-8.382h1.01v3.192z" class="B"/></g><defs><filter id="B" x="23" y="53" width="1103" height="758" filterUnits="userSpaceOnUse" color-interpolation-filters="sRGB"><feFlood flood-opacity="0" result="A"/><feColorMatrix in="SourceAlpha" values="0 0 0 0 0 0 0 0 0 0 0 0 0 0 0 0 0 0 127 0"/><feOffset dy="6"/><feGaussianBlur stdDeviation="7.5"/><feColorMatrix values="0 0 0 0 0.270588 0 0 0 0 0.352941 0 0 0 0 0.392157 0 0 0 0.15 0"/><feBlend in2="A" result="B"/><feColorMatrix in="SourceAlpha" values="0 0 0 0 0 0 0 0 0 0 0 0 0 0 0 0 0 0 127 0"/><feOffset dy="1"/><feGaussianBlur stdDeviation="1.5"/><feColorMatrix values="0 0 0 0 0.270588 0 0 0 0 0.352941 0 0 0 0 0.392157 0 0 0 0.1 0"/><feBlend in2="B"/><feBlend in="SourceGraphic"/></filter><path id="C" d="M316.113 195.955c-.882 0-1.597.715-1.597 1.596V227H59v542.403c0 .882.715 1.597 1.597 1.597H1092.4c.9 0 1.6-.715 1.6-1.597V227H386.37v-29.45c0-.88-.715-1.596-1.597-1.596h-68.66z"/><path id="D" d="M274.324 619.1v.8h.8v-.8h-.8zm0 3.194h.8v-.8h-.8v.8zm0 2.395h.8v-.798h-.8v.798zm0 2.395h.8v-.798h-.8v.798zm0 2.395h.8v-.798h-.8v.798zm0 2.395h.8v-.798h-.8v.798zm0 2.395h.8v-.798h-.8v.798zm0 2.395h.8v-.798h-.8v.798zm0 2.396h.8v-.8h-.8v.8zm0 2.395h.8v-.8h-.8v.8zm0 2.395h.8v-.8h-.8v.8zm0 2.395h.8v-.798h-.8v.798zm0 2.395h.8v-.798h-.8v.798zm0 2.395h.8v-.798h-.8v.798z"/><path id="E" d="M274.324 666.194v.798h.8v-.798h-.8zm0 3.194h.8v-.8h-.8v.8zm0 2.395h.8v-.8h-.8v.8zm0 2.395h.8v-.8h-.8v.8zm0 2.395h.8v-.798h-.8v.798zm0 2.395h.8v-.798h-.8v.798zm0 2.395h.8v-.798h-.8v.798zm0 2.395h.8v-.798h-.8v.798zm0 2.395h.8v-.798h-.8v.798zm0 2.395h.8v-.798h-.8v.798zm0 2.396h.8v-.8h-.8v.8zm0 2.395h.8v-.8h-.8v.8zm0 2.395h.8v-.8h-.8v.8zm0 2.395h.8v-.8h-.8v.8z"/><path id="F" d="M274.324 713.298v.798h.8v-.798h-.8zm0 3.193h.8v-.798h-.8v.798zm0 2.395h.8v-.798h-.8v.798zm0 2.396h.8v-.8h-.8v.8zm0 2.395h.8v-.8h-.8v.8zm0 2.395h.8v-.8h-.8v.8zm0 2.395h.8v-.798h-.8v.798zm0 2.395h.8v-.798h-.8v.798zm0 2.395h.8v-.798h-.8v.798zm0 2.395h.8v-.798h-.8v.798zm0 2.395h.8v-.798h-.8v.798zm0 2.395h.8v-.798h-.8v.798zm0 2.396h.8v-.8h-.8v.8zm0 2.395h.8v-.8h-.8v.8z"/></defs></svg>