<svg xmlns="http://www.w3.org/2000/svg" xmlns:xlink="http://www.w3.org/1999/xlink" width="1150" height="490" fill="none" xmlns:v="https://vecta.io/nano"><style><![CDATA[.B{fill:#3d4853}.C{fill:#fff}.D{fill:#03a9f4}.E{stroke-width:1.311}.F{fill:#ffd740}.G{fill:#607d8b}.H{fill:#ff80ab}.I{color-interpolation-filters:sRGB}.J{flood-opacity:0}]]></style><g filter="url(#A)" class="C"><path d="M103 112.912h513.76V364.55H103z"/></g><path d="M103 116.084c0-1.752 1.42-3.172 3.172-3.172H613.59c1.752 0 3.172 1.42 3.172 3.172v47.942H103v-47.942z" fill="#e4eaee"/><path d="M282.5 130.6l3.72 9.282 3.718-9.282h1.946v11.375h-1.5v-4.43l.14-4.78-3.734 9.2h-1.148l-3.727-9.187.148 4.758v4.43h-1.5V130.6h1.938zm17.023 11.375c-.083-.166-.15-.463-.203-.9-.672.698-1.474 1.047-2.406 1.047-.833 0-1.518-.235-2.055-.703-.53-.474-.797-1.073-.797-1.797 0-.88.334-1.563 1-2.047.672-.5 1.615-.735 2.83-.735h1.406v-.664c0-.505-.15-.906-.453-1.203s-.748-.453-1.336-.453c-.516 0-.948.13-1.297.4s-.524.575-.524.945h-1.453c0-.422.15-.828.446-1.22s.708-.708 1.218-.937c.516-.23 1.08-.344 1.696-.344.974 0 1.737.245 2.3.734s.838 1.154.86 2.008V140c0 .776.1 1.393.297 1.85v.125h-1.516zm-2.398-1.1a2.54 2.54 0 0 0 1.29-.352 2.13 2.13 0 0 0 .883-.914v-1.734h-1.133c-1.77 0-2.656.518-2.656 1.555 0 .453.15.807.453 1.062s.7.383 1.164.383zm8.523-1.016l1.97-6.336h1.547l-3.398 9.758c-.527 1.406-1.362 2.1-2.508 2.1l-.274-.024-.54-.1v-1.172l.4.03c.5 0 .87-.1 1.14-.297.276-.198.503-.56.68-1.086l.32-.86-3.015-8.36h1.578l2.1 6.336zm16.086 2.117h-7.453v-1.04l3.938-4.375c.583-.66.984-1.198 1.203-1.6a2.69 2.69 0 0 0 .336-1.289c0-.594-.18-1.08-.54-1.46s-.84-.57-1.438-.57c-.72 0-1.28.205-1.68.617-.395.406-.593.974-.593 1.703h-1.446c0-1.047.336-1.893 1.008-2.54.677-.646 1.58-.97 2.7-.97 1.057 0 1.893.28 2.508.836s.922 1.3.922 2.2c0 1.12-.714 2.453-2.14 4l-3.047 3.305h5.7v1.18zm8.664-4.85c0 1.693-.3 2.95-.867 3.773s-1.482 1.235-2.7 1.235c-1.213 0-2.112-.4-2.695-1.203s-.886-2-.906-3.6v-1.93c0-1.672.3-2.915.867-3.727s1.484-1.22 2.72-1.22c1.224 0 2.125.393 2.703 1.18.578.78.875 2 .9 3.625v1.875zm-1.445-1.977c0-1.224-.172-2.114-.516-2.672s-.888-.843-1.632-.843-1.28.278-1.618.836-.513 1.414-.523 2.57v2.312c0 1.23.177 2.138.53 2.727.36.583.9.875 1.625.875.714 0 1.242-.276 1.586-.828s.53-1.422.547-2.6v-2.368zm42.97-3.312h-3.656v10.14h-1.493v-10.14h-3.648V130.6h8.797v1.235zm5.93 9.305c-.562.66-1.388.992-2.476.992-.9 0-1.6-.26-2.063-.782s-.705-1.302-.7-2.328v-5.5h1.446v5.46c0 1.282.52 1.922 1.562 1.922 1.104 0 1.84-.4 2.203-1.234v-6.15h1.446v8.453h-1.375l-.032-.835zm3.563 3.1l-.82-.562c.5-.683.744-1.386.765-2.1v-1.304h1.414v1.132c0 .526-.13 1.052-.4 1.578s-.578.948-.97 1.266zm12.148-13.64h1.508v8.055c0 1.1-.328 1.94-.984 2.555s-1.52.922-2.6.922c-1.13 0-2-.3-2.64-.867s-.945-1.388-.945-2.43h1.5c0 .65.177 1.16.53 1.523s.877.547 1.554.547c.62 0 1.12-.195 1.5-.586.386-.4.58-.937.586-1.64v-8.08zm9.055 10.54c-.562.66-1.388.992-2.476.992-.902 0-1.6-.26-2.063-.782s-.706-1.302-.7-2.328v-5.5h1.445v5.46c0 1.282.52 1.922 1.563 1.922 1.104 0 1.838-.4 2.203-1.234v-6.15h1.445v8.453h-1.375l-.03-.835zm5.18.835h-1.446v-12h1.446v12zm13.594 0h-7.454v-1.04l3.938-4.375c.583-.66.984-1.198 1.203-1.6a2.69 2.69 0 0 0 .336-1.289c0-.594-.18-1.08-.54-1.46s-.84-.57-1.438-.57c-.718 0-1.278.205-1.68.617-.396.406-.594.974-.594 1.703h-1.445c0-1.047.336-1.893 1.007-2.54.678-.646 1.58-.97 2.7-.97 1.058 0 1.894.28 2.508.836s.922 1.3.922 2.2c0 1.12-.713 2.453-2.14 4l-3.046 3.305h5.7v1.18zm6.28 0h-1.453v-9.632l-2.914 1.07V132.1l4.14-1.554h.227v11.43zm34.844-3.585l.218 1.5.32-1.352 2.25-7.938h1.265l2.196 7.938.312 1.375.242-1.53 1.766-7.782h1.508l-2.758 11.375h-1.367l-2.344-8.3-.18-.867-.18.867-2.43 8.3h-1.367l-2.75-11.375h1.5l1.797 7.8zm14.78 3.742c-1.146 0-2.078-.375-2.797-1.125s-1.078-1.763-1.078-3.024v-.265c0-.84.16-1.586.476-2.243.323-.66.77-1.177 1.344-1.546a3.38 3.38 0 0 1 1.875-.563c1.1 0 1.953.362 2.563 1.086s.914 1.76.914 3.1v.602h-5.727c.02.833.263 1.508.727 2.023s1.062.766 1.78.766c.5 0 .943-.104 1.297-.312a3.26 3.26 0 0 0 .929-.829l.883.688c-.708 1.088-1.77 1.633-3.187 1.633zm-.18-7.578a1.92 1.92 0 0 0-1.469.64c-.396.422-.64 1.016-.734 1.78h4.234v-.1c-.04-.734-.24-1.302-.593-1.703s-.834-.6-1.438-.6zm5.1 9.687l-.82-.562c.5-.683.745-1.386.766-2.1v-1.304h1.414v1.132c0 .526-.13 1.052-.4 1.578s-.578.948-.97 1.266zm12.15-13.64h1.508v8.055c0 1.1-.328 1.94-.985 2.555-.65.614-1.52.922-2.6.922-1.13 0-2-.3-2.64-.867s-.945-1.388-.945-2.43h1.5c0 .65.177 1.16.53 1.523.36.365.878.547 1.555.547.62 0 1.12-.195 1.5-.586.385-.4.58-.937.586-1.64v-8.08zm9.055 10.54c-.563.66-1.388.992-2.477.992-.9 0-1.6-.26-2.062-.782s-.706-1.302-.7-2.328v-5.5h1.445v5.46c0 1.282.52 1.922 1.562 1.922 1.105 0 1.84-.4 2.204-1.234v-6.15h1.445v8.453h-1.375l-.03-.835zm5.18.835h-1.445v-12h1.445v12zm13.594 0h-7.453v-1.04l3.937-4.375c.584-.66.985-1.198 1.204-1.6a2.7 2.7 0 0 0 .335-1.289c0-.594-.18-1.08-.54-1.46s-.838-.57-1.437-.57c-.72 0-1.28.205-1.68.617-.396.406-.594.974-.594 1.703h-1.445c0-1.047.336-1.893 1.008-2.54s1.58-.97 2.7-.97c1.057 0 1.893.28 2.508.836s.922 1.3.922 2.2c0 1.12-.714 2.453-2.14 4l-3.047 3.305h5.7v1.18zm7.203-11.382v1.226h-.265c-1.125.02-2.02.354-2.688 1s-1.052 1.555-1.156 2.727c.6-.688 1.416-1.03 2.453-1.03 1 0 1.78.348 2.367 1.046.594.698.9 1.6.9 2.704 0 1.17-.32 2.1-.96 2.812s-1.5 1.055-2.563 1.055a3.25 3.25 0 0 1-2.648-1.25c-.677-.84-1.016-1.917-1.016-3.235v-.554c0-2.094.446-3.693 1.336-4.797.896-1.1 2.227-1.677 3.992-1.703h.258zm-1.898 5.125a2.3 2.3 0 0 0-1.367.445c-.417.297-.706.67-.868 1.117v.53c0 .938.2 1.693.633 2.266s.948.86 1.578.86c.65 0 1.162-.24 1.532-.718s.562-1.107.562-1.883-.2-1.412-.57-1.9a1.8 1.8 0 0 0-1.5-.726zm-405.69 1.8v4.453h-1.5V130.6h4.196c1.244 0 2.218.318 2.922.954s1.062 1.476 1.062 2.523c0 1.104-.346 1.956-1.04 2.555-.688.593-1.675.9-2.96.9h-2.68zm0-1.226h2.696c.802 0 1.416-.188 1.843-.563s.64-.927.64-1.64c0-.677-.214-1.22-.64-1.625s-1.013-.618-1.757-.633h-2.782v4.46zm12.453-1.477a4.37 4.37 0 0 0-.71-.054c-.947 0-1.6.403-1.93 1.2v6h-1.445v-8.453h1.406l.023.977c.474-.755 1.146-1.133 2.016-1.133.28 0 .495.037.64.1v1.344zm.797 2.852c0-.828.162-1.573.485-2.235s.78-1.17 1.36-1.53 1.247-.54 1.992-.54c1.15 0 2.08.4 2.8 1.195s1.07 1.857 1.07 3.18v.102c0 .823-.16 1.562-.477 2.218-.312.65-.763 1.16-1.35 1.524s-1.256.547-2.016.547c-1.146 0-2.076-.4-2.8-1.196s-1.063-1.85-1.063-3.164v-.1zm1.453.172c0 .937.217 1.7.65 2.257.437.568 1.02.852 1.75.852s1.318-.286 1.75-.86.648-1.386.648-2.422c0-.927-.22-1.677-.664-2.25a2.08 2.08 0 0 0-1.75-.867 2.07 2.07 0 0 0-1.726.851c-.438.568-.657 1.38-.657 2.438zm9.547-4.32v9.43c0 1.625-.737 2.438-2.2 2.438a2.67 2.67 0 0 1-.882-.141v-1.156c.166.04.385.062.656.062.323 0 .568-.088.734-.265.172-.172.258-.474.258-.907v-9.46h1.445zm-1.593-2.242a.86.86 0 0 1 .211-.586c.145-.166.356-.25.632-.25.282 0 .495.08.64.242a.86.86 0 0 1 .22.594c0 .234-.073.43-.22.586s-.36.234-.64.234-.492-.078-.632-.234a.84.84 0 0 1-.211-.586zm7.437 10.852c-1.146 0-2.078-.375-2.797-1.125s-1.078-1.763-1.078-3.024v-.265c0-.84.16-1.586.477-2.243.323-.66.77-1.177 1.343-1.546.58-.375 1.203-.563 1.875-.563 1.1 0 1.954.362 2.563 1.086s.914 1.76.914 3.1v.602h-5.727c.02.833.263 1.508.727 2.023a2.31 2.31 0 0 0 1.781.766c.5 0 .943-.104 1.297-.312a3.25 3.25 0 0 0 .93-.83l.883.688c-.7 1.088-1.77 1.633-3.188 1.633zm-.18-7.578a1.92 1.92 0 0 0-1.468.64c-.396.422-.64 1.016-.735 1.78h4.235v-.1c-.042-.734-.24-1.302-.594-1.703s-.833-.6-1.438-.6zm8.547 6.398a2.08 2.08 0 0 0 1.352-.469c.385-.312.6-.703.64-1.172h1.368a2.62 2.62 0 0 1-.5 1.383 3.29 3.29 0 0 1-1.235 1.047 3.52 3.52 0 0 1-1.625.391c-1.15 0-2.067-.383-2.75-1.15-.677-.77-1.015-1.823-1.015-3.156v-.242c0-.823.15-1.555.453-2.195a3.46 3.46 0 0 1 1.297-1.493c.567-.354 1.237-.53 2.007-.53.948 0 1.735.284 2.36.852s.966 1.304 1.008 2.2h-1.368c-.04-.547-.25-.995-.625-1.344-.37-.354-.828-.53-1.375-.53-.734 0-1.304.265-1.7.796-.4.527-.6 1.3-.6 2.3v.273c0 .974.2 1.724.6 2.25s.974.8 1.72.8zm6.946-9.477v2.047h1.578v1.118h-1.578v5.242c0 .338.07.593.2.765s.38.25.718.25a3.53 3.53 0 0 0 .688-.093v1.17c-.38.105-.75.157-1.1.157-.645 0-1.132-.196-1.46-.586s-.492-.946-.492-1.664v-5.242h-1.54v-1.118h1.54v-2.047h1.446zm8.195 8.258c0-.4-.15-.692-.445-.906s-.805-.406-1.54-.562-1.3-.344-1.743-.563c-.427-.22-.744-.48-.953-.78-.203-.302-.304-.662-.304-1.078 0-.693.3-1.28.874-1.758.6-.48 1.34-.72 2.25-.72.96 0 1.735.247 2.33.742a2.35 2.35 0 0 1 .898 1.899h-1.453c0-.396-.17-.737-.508-1.024-.333-.286-.755-.43-1.266-.43-.526 0-.937.114-1.234.343a1.08 1.08 0 0 0-.445.899c0 .35.138.612.414.8s.773.346 1.492.508 1.3.354 1.758.578.78.495.992.812c.22.313.328.696.328 1.15a2.17 2.17 0 0 1-.906 1.82c-.604.453-1.388.68-2.352.68-.677 0-1.276-.12-1.797-.36s-.93-.573-1.226-1-.438-.898-.438-1.398h1.446c.026.484.218.87.578 1.156s.844.422 1.437.422c.547 0 .985-.1 1.313-.328s.5-.52.5-.9z" class="B"/><g stroke="#c6d2d9" class="C E"><rect x="274.292" y="180.357" width="75.797" height="38.337" rx="2.516"/><rect x="524.363" y="180.357" width="75.797" height="38.337" rx="2.516"/><rect x="274.292" y="245.052" width="75.797" height="38.337" rx="2.516"/><rect x="524.363" y="248.561" width="75.797" height="38.337" rx="2.516"/></g><path d="M164.158 201.305c0 1.254-.2 2.35-.633 3.287-.422.93-1.02 1.643-1.793 2.136s-1.676.738-2.707.738c-1.008 0-1.9-.246-2.68-.738-.78-.5-1.385-1.205-1.82-2.12-.428-.92-.647-1.983-.66-3.2v-.923c0-1.23.214-2.317.642-3.26s1.03-1.664 1.8-2.162c.785-.504 1.682-.756 2.7-.756 1.025 0 1.927.25 2.707.747s1.388 1.2 1.8 2.154c.422.937.633 2.03.633 3.278v.8zm-1.68-.826c0-1.518-.304-2.68-.914-3.5s-1.462-1.22-2.557-1.22c-1.067 0-1.908.407-2.523 1.22s-.923 1.934-.94 3.375v.94c0 1.47.307 2.628.923 3.47s1.473 1.257 2.557 1.257c1.1 0 1.934-.395 2.53-1.186.598-.797.906-1.937.923-3.42v-.95zm4.755 6.8v-8.253h-1.503v-1.257h1.503v-.975c0-1.02.273-1.808.818-2.365s1.315-.835 2.3-.835a4.25 4.25 0 0 1 1.116.15l-.088 1.318c-.275-.052-.568-.08-.88-.08-.527 0-.934.155-1.22.466-.287.305-.43.744-.43 1.318v1.002h3.516v-.808c0-1.06.3-1.887.905-2.48s1.468-.888 2.575-.888c.656 0 1.486.18 2.488.537l-.273 1.37c-.732-.293-1.433-.44-2.1-.44-.697 0-1.2.156-1.5.466s-.457.782-.457 1.415v.826h1.95v1.257h-1.95v8.253h-1.626v-8.253h-3.516v8.253h-1.626zm11.9 0h-1.626v-9.5h1.626v9.5zm6.47-1.15c.58 0 1.087-.176 1.52-.528s.673-.8.72-1.318h1.538c-.03.545-.216 1.063-.562 1.556a3.7 3.7 0 0 1-1.389 1.177c-.574.293-1.183.44-1.828.44-1.295 0-2.326-.43-3.094-1.292-.76-.867-1.142-2.05-1.142-3.55v-.272c0-.926.17-1.75.5-2.47a3.9 3.9 0 0 1 1.459-1.679c.64-.398 1.392-.598 2.26-.598 1.067 0 1.95.32 2.655.958s1.086 1.468 1.133 2.488h-1.538c-.047-.615-.28-1.12-.703-1.512-.416-.398-.93-.598-1.547-.598-.826 0-1.468.3-1.925.897-.45.592-.676 1.45-.676 2.575v.308c0 1.095.225 1.94.676 2.53s1.096.888 1.934.888zm9.554 1.327c-1.3 0-2.338-.422-3.147-1.266s-1.213-1.983-1.213-3.4v-.3c0-.943.18-1.784.537-2.522.363-.745.867-1.325 1.5-1.74.65-.422 1.354-.633 2.1-.633 1.236 0 2.197.408 2.882 1.222s1.03 1.98 1.03 3.498V203h-6.443c.024.937.296 1.696.818 2.276s1.195.862 2.004.862c.574 0 1.06-.118 1.46-.352a3.64 3.64 0 0 0 1.046-.932l.993.774c-.797 1.225-1.992 1.837-3.586 1.837zm-.202-8.526c-.657 0-1.207.24-1.653.72s-.72 1.143-.826 2.004h4.764v-.123c-.047-.826-.27-1.465-.668-1.916-.4-.457-.938-.686-1.617-.686zm108.993 7.945h-8.384v-1.17l4.43-4.922c.657-.744 1.108-1.348 1.354-1.8a3.03 3.03 0 0 0 .378-1.451c0-.668-.202-1.215-.607-1.643s-.943-.642-1.617-.642c-.808 0-1.438.232-1.9.695-.446.457-.668 1.095-.668 1.916h-1.626c0-1.178.378-2.13 1.133-2.857.762-.726 1.78-1.1 3.05-1.1 1.2 0 2.13.314 2.822.94.7.62 1.037 1.45 1.037 2.487 0 1.26-.803 2.76-2.4 4.5l-3.427 3.718h6.424v1.327zm1.837-.853c0-.28.082-.515.247-.703s.42-.28.755-.28.586.094.756.28c.176.188.264.422.264.703 0 .27-.088.495-.264.677-.17.182-.422.273-.756.273s-.586-.1-.755-.273-.247-.407-.247-.677zm.01-7.76c0-.282.082-.516.246-.704.17-.187.422-.28.756-.28s.586.094.756.28c.176.188.264.422.264.704a.93.93 0 0 1-.264.676c-.17.182-.422.273-.756.273s-.586-.1-.756-.273a.97.97 0 0 1-.246-.676zm12.26 3.155c0 1.904-.325 3.32-.976 4.245s-1.667 1.4-3.05 1.4c-1.366 0-2.376-.452-3.033-1.354-.656-.908-.996-2.262-1.02-4.06v-2.17c0-1.88.325-3.28.975-4.193s1.67-1.37 3.06-1.37c1.377 0 2.4.443 3.04 1.327s.984 2.24 1.002 4.08v2.1zm-1.626-2.224c0-1.377-.193-2.38-.58-3.006s-1-.95-1.837-.95-1.44.314-1.82.94-.578 1.6-.6 2.9v2.602c0 1.383.2 2.405.597 3.067.405.656 1.014.985 1.83.985.802 0 1.397-.3 1.784-.932s.597-1.6.615-2.936V199.2zm11.733 2.224c0 1.904-.325 3.32-.975 4.245s-1.667 1.4-3.05 1.4c-1.365 0-2.376-.452-3.032-1.354-.657-.908-.996-2.262-1.02-4.06v-2.17c0-1.88.325-3.28.976-4.193s1.67-1.37 3.058-1.37c1.377 0 2.4.443 3.04 1.327s.985 2.24 1.002 4.08v2.1zm-1.626-2.224c0-1.377-.193-2.38-.58-3.006s-1-.95-1.837-.95-1.438.314-1.82.94-.577 1.6-.6 2.9v2.602c0 1.383.2 2.405.598 3.067.404.656 1.014.985 1.828.985.803 0 1.397-.3 1.784-.932.393-.62.598-1.6.615-2.936V199.2z" class="B"/><circle cx="127.417" cy="200.894" r="4.758" class="F"/><path d="M164.034 259.697h-4.113v11.408h-1.68v-11.408h-4.104v-1.39h9.896v1.39zm3.41 11.408h-1.626v-9.5h1.626v9.5zm-1.758-12.032c0-.264.08-.486.237-.668.164-.182.404-.273.72-.273s.556.09.72.273.247.404.247.668-.082.483-.247.66-.404.264-.72.264-.557-.088-.72-.264c-.158-.176-.237-.395-.237-.66zm5.897 2.522l.044 1.055c.697-.82 1.638-1.23 2.82-1.23 1.33 0 2.236.51 2.716 1.53a3.63 3.63 0 0 1 1.231-1.108c.5-.28 1.1-.42 1.802-.42 2.085 0 3.146 1.104 3.18 3.313v6.372h-1.626v-6.275c0-.68-.155-1.187-.466-1.52-.3-.34-.832-.5-1.564-.5-.604 0-1.105.182-1.503.545s-.63.84-.694 1.45v6.3h-1.635v-6.23c0-1.383-.677-2.075-2.03-2.075-1.067 0-1.796.455-2.19 1.363v6.943h-1.626v-9.5h1.538zm18.202 9.686c-1.29 0-2.338-.422-3.146-1.266s-1.213-1.983-1.213-3.4v-.3c0-.943.18-1.784.536-2.522.363-.745.867-1.325 1.512-1.74.65-.422 1.353-.632 2.11-.632 1.237 0 2.197.407 2.883 1.22s1.028 1.98 1.028 3.498v.677h-6.442c.023.938.296 1.696.817 2.276a2.6 2.6 0 0 0 2.004.862c.574 0 1.06-.117 1.46-.352s.747-.545 1.046-.93l.993.773c-.797 1.225-1.992 1.837-3.586 1.837zm-.202-8.526a2.16 2.16 0 0 0-1.652.721c-.445.475-.72 1.143-.826 2.004h4.763v-.123c-.046-.826-.27-1.465-.668-1.916-.398-.457-.937-.686-1.617-.686zm9.185 3.578h-4.29v-1.328h4.29v1.328zm1.16-.07c0-.93.182-1.77.545-2.513.37-.744.88-1.32 1.53-1.723.656-.404 1.403-.606 2.24-.606 1.295 0 2.34.448 3.138 1.344.803.897 1.204 2.09 1.204 3.577v.115c0 .925-.18 1.758-.536 2.496-.352.732-.858 1.303-1.52 1.714s-1.413.615-2.268.615c-1.29 0-2.335-.448-3.138-1.345-.797-.896-1.195-2.083-1.195-3.56v-.115zm1.635.194c0 1.054.243 1.9.73 2.54a2.36 2.36 0 0 0 1.969.958c.826 0 1.482-.323 1.97-.967.486-.65.73-1.56.73-2.725 0-1.043-.25-1.886-.747-2.53-.492-.65-1.148-.976-1.97-.976a2.33 2.33 0 0 0-1.942.959c-.492.638-.738 1.552-.738 2.742zm9.86 4.65v-8.253h-1.503v-1.257h1.503v-.975c0-1.02.273-1.808.817-2.365s1.316-.834 2.312-.834a4.25 4.25 0 0 1 1.116.149l-.088 1.318c-.275-.052-.568-.08-.88-.08-.527 0-.934.155-1.22.466-.287.305-.43.744-.43 1.318v1.002h2.03v1.257h-2.03v8.253h-1.626zm6.258 0v-8.253h-1.503v-1.257h1.503v-.975c0-1.02.272-1.808.817-2.365s1.316-.834 2.312-.834a4.25 4.25 0 0 1 1.116.149l-.088 1.318c-.275-.052-.568-.08-.88-.08-.527 0-.934.155-1.22.466-.288.305-.43.744-.43 1.318v1.002h2.03v1.257h-2.03v8.253h-1.626z" class="B"/><circle cx="128.295" cy="266.069" r="4.758" class="G"/><g stroke="#c6d2d9" class="C E"><rect x="274.292" y="309.748" width="75.797" height="38.337" rx="2.516"/><rect x="524.76" y="309.748" width="75.797" height="38.337" rx="2.516"/></g><path d="M551.748 329.514h1.877v1.403h-1.877v3.14h-1.728v-3.14h-6.16v-1.013l6.06-9.376h1.83v8.986zm-5.938 0h4.2v-6.635l-.205.37-4.005 6.264zm9.488 3.642c0-.297.087-.545.26-.743.18-.198.446-.298.8-.298s.62.1.8.298c.186.198.28.446.28.743 0 .285-.093.524-.28.716-.18.192-.446.288-.8.288s-.62-.096-.8-.288a1.03 1.03 0 0 1-.26-.716zm.01-8.205c0-.297.087-.545.26-.743.18-.2.446-.298.8-.298s.62.1.8.298c.186.198.278.446.278.743 0 .285-.092.523-.278.715-.18.193-.446.3-.8.3s-.62-.096-.8-.3c-.173-.192-.26-.43-.26-.715zm12.963 3.336c0 2.013-.344 3.5-1.03 4.488s-1.763 1.468-3.225 1.468c-1.443 0-2.512-.477-3.206-1.43-.694-.96-1.053-2.4-1.078-4.293v-2.295c0-2 .344-3.466 1.032-4.432s1.765-1.45 3.234-1.45c1.455 0 2.527.468 3.215 1.403s1.04 2.367 1.06 4.312v2.23zm-1.72-2.35c0-1.456-.204-2.515-.613-3.178-.4-.67-1.057-1.004-1.942-1.004s-1.52.332-1.924.995-.6 1.682-.623 3.057v2.75c0 1.462.2 2.543.632 3.243.428.694 1.072 1.04 1.933 1.04.85 0 1.478-.328 1.887-.985.415-.656.63-1.7.65-3.103v-2.816zm12.405 2.35c0 2.013-.344 3.5-1.03 4.488s-1.763 1.468-3.225 1.468c-1.443 0-2.512-.477-3.205-1.43-.694-.96-1.054-2.4-1.078-4.293v-2.295c0-2 .343-3.466 1.03-4.432s1.766-1.45 3.234-1.45c1.456 0 2.527.468 3.215 1.403s1.04 2.367 1.06 4.312v2.23zm-1.72-2.35c0-1.456-.204-2.515-.613-3.178-.4-.67-1.056-1.004-1.942-1.004-.88 0-1.52.332-1.924.995s-.6 1.682-.622 3.057v2.75c0 1.462.2 2.543.632 3.243.427.694 1.07 1.04 1.932 1.04.85 0 1.478-.328 1.887-.985.415-.656.632-1.7.65-3.103v-2.816zM551.998 200.02h1.877v1.403h-1.877v3.14h-1.73v-3.14h-6.16V200.4l6.06-9.376h1.83v8.986zm-5.938 0h4.2v-6.635l-.204.372-4.005 6.263zm9.487 3.642c0-.297.087-.545.26-.743s.446-.297.8-.297.62.1.8.297c.186.198.28.446.28.743 0 .285-.093.524-.28.716-.18.192-.446.288-.8.288s-.62-.096-.8-.288-.26-.43-.26-.716zm.01-8.205c0-.297.086-.545.26-.743.18-.2.446-.298.8-.298s.62.1.8.298c.186.198.28.446.28.743 0 .285-.093.524-.28.716-.18.192-.446.288-.8.288s-.62-.096-.8-.288c-.174-.192-.26-.43-.26-.716zm12.963 3.336c0 2.013-.344 3.5-1.032 4.488s-1.762 1.468-3.224 1.468c-1.444 0-2.512-.477-3.206-1.43-.694-.96-1.053-2.4-1.078-4.293v-2.295c0-1.988.344-3.466 1.03-4.432s1.766-1.45 3.234-1.45c1.456 0 2.528.468 3.215 1.403s1.04 2.367 1.06 4.312v2.23zm-1.72-2.35c0-1.456-.204-2.515-.613-3.178-.4-.67-1.056-1.004-1.942-1.004-.88 0-1.52.332-1.923.995s-.6 1.682-.623 3.057v2.75c0 1.462.2 2.543.632 3.243.427.693 1.072 1.04 1.933 1.04.848 0 1.477-.328 1.886-.985.415-.656.632-1.7.65-3.103v-2.816zm12.406 2.35c0 2.013-.344 3.5-1.032 4.488s-1.762 1.468-3.224 1.468c-1.444 0-2.512-.477-3.206-1.43-.694-.96-1.053-2.4-1.078-4.293v-2.295c0-1.988.344-3.466 1.032-4.432s1.765-1.45 3.233-1.45c1.456 0 2.528.468 3.215 1.403s1.04 2.367 1.06 4.312v2.23zm-1.72-2.35c0-1.456-.205-2.515-.614-3.178-.408-.67-1.056-1.004-1.942-1.004-.88 0-1.52.332-1.923.995s-.6 1.682-.623 3.057v2.75c0 1.462.2 2.543.632 3.243.428.693 1.072 1.04 1.933 1.04.85 0 1.477-.328 1.886-.985.415-.656.632-1.7.65-3.103v-2.816zm-420.2 132.562v5H155.6V321.22h4.72c1.4 0 2.496.357 3.287 1.072.797.715 1.195 1.66 1.195 2.84 0 1.242-.4 2.2-1.17 2.874-.773.668-1.883 1.002-3.33 1.002h-3.014zm0-1.38h3.032c.902 0 1.594-.2 2.074-.633s.72-1.043.72-1.846c0-.76-.24-1.37-.72-1.828s-1.14-.694-1.977-.712h-3.13v5.02zm14-1.66c-.247-.04-.513-.062-.8-.062-1.067 0-1.8.454-2.17 1.362v6.75H166.7v-9.5h1.582l.026 1.098c.533-.85 1.3-1.274 2.268-1.274.316 0 .556.04.72.123v1.512zm.896 3.208c0-.932.182-1.77.545-2.514.37-.744.88-1.318 1.53-1.723.656-.404 1.404-.606 2.24-.606 1.295 0 2.34.448 3.138 1.345s1.204 2.088 1.204 3.577v.114c0 .926-.178 1.758-.536 2.496a3.99 3.99 0 0 1-1.52 1.714c-.662.4-1.413.615-2.268.615-1.3 0-2.335-.448-3.138-1.345-.797-.896-1.195-2.083-1.195-3.56v-.114zm1.635.193c0 1.055.243 1.9.73 2.54s1.15.958 1.97.958c.826 0 1.482-.322 1.97-.967s.73-1.558.73-2.724c0-1.043-.25-1.887-.747-2.532-.492-.65-1.148-.975-1.97-.975a2.33 2.33 0 0 0-1.942.958c-.492.638-.738 1.553-.738 2.742zm10.74-4.86v10.608c0 1.828-.83 2.742-2.487 2.742a3.02 3.02 0 0 1-.993-.158v-1.3c.187.047.433.07.738.07.363 0 .638-.1.826-.3.193-.194.3-.533.3-1.02v-10.643h1.626zm-1.793-2.523a.97.97 0 0 1 .237-.659c.164-.188.402-.28.712-.28.317 0 .557.1.72.272s.246.405.246.668-.082.484-.246.66-.404.264-.72.264-.553-.088-.712-.264-.237-.395-.237-.66zm8.367 12.208c-1.3 0-2.338-.422-3.146-1.265-.8-.85-1.213-1.984-1.213-3.402v-.3c0-.943.18-1.784.536-2.522.363-.744.867-1.324 1.512-1.74a3.8 3.8 0 0 1 2.109-.633c1.236 0 2.197.407 2.883 1.222s1.028 1.98 1.028 3.498v.676H188.4c.023.938.296 1.697.817 2.277.528.574 1.196.86 2.004.86.574 0 1.06-.117 1.46-.352a3.65 3.65 0 0 0 1.046-.931l.993.773c-.797 1.225-1.992 1.837-3.586 1.837zm-.202-8.525a2.16 2.16 0 0 0-1.652.72c-.446.475-.72 1.143-.826 2.004h4.763v-.123c-.047-.826-.27-1.464-.668-1.916s-.937-.685-1.617-.685zm9.615 7.198c.58 0 1.087-.176 1.52-.527a1.85 1.85 0 0 0 .72-1.32h1.538c-.03.545-.217 1.064-.563 1.556a3.69 3.69 0 0 1-1.39 1.178c-.574.293-1.183.44-1.828.44-1.295 0-2.326-.43-3.093-1.292-.762-.867-1.143-2.05-1.143-3.55v-.272c0-.926.17-1.75.5-2.47s.826-1.28 1.46-1.678 1.4-.598 2.26-.598c1.066 0 1.95.32 2.654.958.7.64 1.087 1.468 1.134 2.487h-1.538c-.047-.615-.282-1.12-.704-1.512-.416-.398-.93-.597-1.546-.597-.827 0-1.468.3-1.925.896-.45.592-.677 1.45-.677 2.575v.308c0 1.096.226 1.94.677 2.53s1.095.888 1.933.888zm7.814-10.66v2.303h1.775v1.256h-1.775v5.898c0 .38.08.668.237.86s.428.282.8.282c.187 0 .445-.036.773-.106v1.318c-.428.118-.844.176-1.248.176-.726 0-1.274-.22-1.643-.66s-.554-1.063-.554-1.872v-5.898h-1.732v-1.256h1.732v-2.303h1.626zm12.577 3.92l3.067-4.904H226l-4.043 6.345 4.14 6.45h-2.004l-3.146-4.992-3.164 4.992h-1.995l4.148-6.45-4.052-6.345h1.978l3.085 4.904z" class="B"/><circle cx="127.417" cy="329.636" r="4.758" class="H"/><path d="M302.833 322.52v1.38h-.3c-1.265.024-2.273.4-3.023 1.125s-1.184 1.75-1.3 3.068c.674-.774 1.594-1.16 2.76-1.16 1.113 0 2 .392 2.663 1.177.668.785 1.002 1.8 1.002 3.04 0 1.32-.36 2.373-1.08 3.164-.715.79-1.676 1.187-2.883 1.187-1.225 0-2.218-.47-2.98-1.406-.76-.944-1.142-2.157-1.142-3.64v-.624c0-2.356.5-4.154 1.503-5.397 1.008-1.248 2.505-1.886 4.49-1.916h.3zm-2.136 5.766c-.556 0-1.07.167-1.538.5s-.794.753-.975 1.257v.598c0 1.054.237 1.904.712 2.548s1.066.967 1.775.967c.732 0 1.307-.27 1.723-.808s.632-1.246.632-2.12c0-.88-.214-1.588-.64-2.127-.422-.545-.985-.817-1.688-.817zm5.977 6.188c0-.282.082-.516.246-.704.17-.187.422-.28.756-.28s.586.094.756.28.263.422.263.704c0 .27-.088.495-.263.676s-.422.273-.756.273-.586-.09-.756-.273a.97.97 0 0 1-.246-.676zm.01-7.76c0-.28.082-.516.246-.703.17-.188.422-.282.756-.282s.586.094.755.282c.176.187.264.422.264.703 0 .27-.088.495-.264.677-.17.18-.42.272-.755.272s-.586-.09-.756-.272c-.164-.182-.246-.408-.246-.677zm12.26 3.155c0 1.904-.325 3.32-.975 4.245s-1.667 1.39-3.05 1.39c-1.365 0-2.376-.45-3.032-1.354s-.996-2.26-1.02-4.06v-2.17c0-1.88.325-3.278.976-4.192s1.67-1.372 3.058-1.372c1.377 0 2.39.443 3.04 1.328.65.878.985 2.238 1.002 4.078v2.11zm-1.626-2.224c0-1.377-.193-2.378-.58-3.005-.386-.633-1-.95-1.837-.95-.832 0-1.438.314-1.82.94s-.577 1.59-.59 2.89v2.602c0 1.383.2 2.405.598 3.067.404.657 1.014.985 1.828.985.803 0 1.397-.31 1.784-.932.393-.62.598-1.6.615-2.935v-2.664zm11.734 2.224c0 1.904-.325 3.32-.976 4.245s-1.667 1.39-3.05 1.39c-1.365 0-2.376-.45-3.032-1.354s-.996-2.26-1.02-4.06v-2.17c0-1.88.325-3.278.975-4.192s1.67-1.372 3.06-1.372c1.377 0 2.4.443 3.04 1.328.65.878.984 2.238 1.002 4.078v2.11zm-1.626-2.224c0-1.377-.194-2.378-.58-3.005-.387-.633-1-.95-1.837-.95-.832 0-1.44.314-1.82.94s-.577 1.59-.588 2.89v2.602c0 1.383.2 2.405.597 3.067.405.657 1.014.985 1.828.985.803 0 1.398-.31 1.785-.932s.597-1.6.615-2.935v-2.664z" class="B"/><g filter="url(#B)" class="C"><path d="M367.744 103.87c0-1.52 1.233-2.754 2.754-2.754h213.365c1.52 0 2.754 1.233 2.754 2.754v268.4c0 1.52-1.233 2.754-2.754 2.754H370.498c-1.52 0-2.754-1.233-2.754-2.754v-268.4z"/></g><rect x="575.477" y="365.205" width="81.258" height="30.144" rx="2.099" transform="rotate(180 575.477 365.205)" stroke="#03a9f4" class="D E"/><path d="M510.48 352.265h-4.17l-.936 2.598h-1.354l3.8-9.953h1.148l3.808 9.953h-1.347l-.95-2.598zm-3.773-1.08h3.384l-1.696-4.655-1.688 4.655zm8.722-.218v3.896h-1.312V344.9h3.67c1.09 0 1.94.278 2.556.834s.93 1.292.93 2.208c0 .966-.303 1.71-.91 2.235s-1.465.78-2.59.78h-2.345zm0-1.074h2.36c.702 0 1.24-.164 1.613-.492.374-.333.56-.81.56-1.435 0-.593-.187-1.067-.56-1.422s-.886-.54-1.538-.554h-2.434v3.903zm8.832 1.074v3.896h-1.312V344.9h3.67c1.09 0 1.94.278 2.557.834s.93 1.292.93 2.208c0 .966-.303 1.71-.91 2.235s-1.465.78-2.59.78h-2.345zm0-1.074h2.36c.702 0 1.24-.164 1.613-.492.374-.333.56-.81.56-1.435 0-.593-.187-1.067-.56-1.422s-.886-.54-1.538-.554h-2.434v3.903zm11.17.944h-2.337v4.026h-1.32V344.9h3.295c1.12 0 1.983.255 2.584.766s.91 1.253.91 2.228c0 .62-.168 1.16-.506 1.62-.332.46-.797.805-1.394 1.032L539 354.78v.082h-1.408l-2.16-4.026zm-2.337-1.074h2.016c.652 0 1.17-.168 1.552-.505s.58-.79.58-1.354c0-.615-.185-1.087-.554-1.415-.364-.328-.893-.494-1.586-.5h-2.01v3.773zm14.97.445c0 .975-.164 1.827-.492 2.556s-.793 1.28-1.395 1.662-1.303.574-2.105.574c-.784 0-1.48-.192-2.085-.574-.606-.388-1.078-.937-1.415-1.648s-.504-1.543-.513-2.48v-.718c0-.957.167-1.803.5-2.536s.802-1.295 1.41-1.682 1.307-.588 2.09-.588c.798 0 1.5.194 2.106.58s1.08.94 1.408 1.675.492 1.58.492 2.55v.63zm-1.305-.643c0-1.18-.237-2.085-.71-2.714s-1.137-.95-2-.95c-.83 0-1.483.317-1.962.95s-.717 1.504-.73 2.625v.732c0 1.144.24 2.044.718 2.7s1.146.977 1.99.977 1.504-.307 1.97-.922c.465-.62.704-1.507.718-2.66v-.738zm6.418 3.555l2.844-8.2h1.436l-3.692 9.953h-1.162l-3.684-9.953h1.428l2.83 8.2zm11.246-2.858h-4.314v3.528h5.01v1.073h-6.323V344.9h6.255V346h-4.943v3.2h4.314v1.073z" class="C"/><path d="M429.906 351.243h-2.338v4.027h-1.32v-9.954h3.295c1.12 0 1.982.256 2.584.766s.91 1.253.91 2.23c0 .62-.17 1.16-.506 1.62s-.797.804-1.394 1.032l2.338 4.224v.083h-1.41l-2.16-4.027zm-2.338-1.073h2.017c.652 0 1.17-.17 1.552-.506s.58-.788.58-1.353c0-.616-.185-1.087-.554-1.415s-.893-.495-1.586-.5h-2v3.774zm12.94.5h-4.314v3.527h5.01v1.074h-6.323v-9.954h6.255v1.08h-4.943v3.2h4.314v1.073zm6.5-5.353h1.32v7.048c0 .953-.287 1.698-.86 2.236s-1.33.806-2.283.806c-.99 0-1.76-.253-2.31-.76s-.827-1.214-.827-2.126h1.312c0 .57.155 1.014.465 1.333s.768.48 1.36.48c.542 0 .98-.17 1.312-.513s.508-.82.513-1.435v-7.07zm9.18 5.353h-4.313v3.527h5.01v1.074h-6.324v-9.954h6.255v1.08h-4.942v3.2h4.313v1.073zm9.653 1.442c-.123 1.053-.513 1.867-1.17 2.44-.652.57-1.52.854-2.605.854-1.175 0-2.12-.42-2.83-1.264-.706-.844-1.06-1.97-1.06-3.384v-.957c0-.925.164-1.74.492-2.44s.802-1.24 1.408-1.613 1.308-.567 2.106-.567c1.057 0 1.904.296 2.543.888s1.01 1.404 1.114 2.448h-1.32c-.113-.793-.362-1.368-.745-1.723s-.91-.533-1.592-.533c-.84 0-1.498.3-1.976.93s-.71 1.502-.71 2.646v.964c0 1.08.226 1.94.677 2.577s1.082.957 1.893.957c.73 0 1.288-.164 1.675-.492.392-.333.652-.91.78-1.73h1.32zm8.47-5.715h-3.2v8.874h-1.305v-8.874h-3.193v-1.08h7.698v1.08z" class="D"/><path d="M397.855 131.762h-6.552l-1.472 4.082h-2.127l5.973-15.64h1.804l5.984 15.64h-2.116l-1.494-4.082zm-5.93-1.697h5.317l-2.664-7.316-2.653 7.316zm13.202-5.844l.054 1.3c.852-1.003 2-1.504 3.448-1.504 1.626 0 2.732.623 3.32 1.87.387-.558.888-1 1.504-1.353.623-.344 1.357-.516 2.202-.516 2.55 0 3.846 1.35 3.9 4.05v7.788h-1.987v-7.67c0-.83-.2-1.45-.57-1.858-.38-.416-1.017-.623-1.912-.623-.737 0-1.35.222-1.837.666-.487.436-.77 1.027-.848 1.772v7.713h-1.998v-7.616c0-1.7-.828-2.535-2.482-2.535-1.303 0-2.195.555-2.675 1.665v8.486h-1.987V124.22h1.88zm21.226 8.712l2.708-8.712h2.126l-4.672 13.417c-.724 1.934-1.873 2.9-3.45 2.9l-.376-.032-.74-.14v-1.6l.537.043c.673 0 1.196-.136 1.57-.408.38-.272.7-.77.934-1.493l.44-1.182-4.147-11.494h2.17l2.9 8.712zm15.76-2.02l.3 2.063.44-1.86 3.094-10.914h1.74l3.02 10.914.43 1.9.333-2.105 2.427-10.7h2.074l-3.792 15.64h-1.88l-3.223-11.397-.247-1.193-.247 1.193-3.34 11.397h-1.88l-3.78-15.64h2.063l2.47 10.7zm20.325 5.146c-1.576 0-2.858-.516-3.846-1.547-.988-1.038-1.483-2.424-1.483-4.157V130c0-1.153.22-2.18.656-3.084.444-.9 1.06-1.618 1.847-2.126.795-.516 1.655-.774 2.578-.774 1.5 0 2.686.498 3.524 1.493s1.257 2.42 1.257 4.276v.827h-7.874c.028 1.146.36 2.073 1 2.782.644.702 1.46 1.053 2.45 1.053.702 0 1.296-.143 1.783-.43a4.47 4.47 0 0 0 1.278-1.14l1.214.946c-.974 1.496-2.435 2.245-4.382 2.245zm-.248-10.42a2.64 2.64 0 0 0-2.019.881c-.544.58-.88 1.396-1 2.45h5.822v-.15c-.057-1-.33-1.8-.816-2.342-.487-.56-1.146-.838-1.977-.838zm9.25 10.205h-1.987V124.22h1.987v11.623zm-2.148-14.706a1.2 1.2 0 0 1 .29-.816c.2-.222.494-.333.88-.333s.68.1.88.333.3.494.3.816a1.14 1.14 0 0 1-.3.806c-.2.216-.494.322-.88.322s-.68-.108-.88-.322a1.17 1.17 0 0 1-.3-.806zm12.106 11.623c0-.537-.204-.952-.612-1.246-.4-.3-1.106-.56-2.116-.774-1.003-.214-1.8-.472-2.396-.773-.587-.3-1.024-.66-1.3-1.074s-.42-.9-.42-1.483c0-.952.4-1.758 1.203-2.417.8-.658 1.84-.988 3.094-.988 1.318 0 2.385.34 3.2 1.02a3.23 3.23 0 0 1 1.235 2.61h-1.998c0-.544-.232-1.013-.698-1.407-.458-.394-1.038-.6-1.74-.6-.723 0-1.3.157-1.697.473a1.49 1.49 0 0 0-.613 1.235c0 .48.2.84.57 1.085s1.063.476 2.05.698c.996.222 1.8.487 2.417.795s1.07.68 1.365 1.117c.3.43.45.956.45 1.58 0 1.04-.416 1.873-1.246 2.503-.83.623-1.9.935-3.234.935-.93 0-1.754-.165-2.47-.494s-1.28-.788-1.687-1.375c-.4-.595-.602-1.236-.602-1.923h1.988a2.08 2.08 0 0 0 .795 1.59c.5.386 1.16.58 1.976.58.752 0 1.354-.15 1.805-.45.458-.308.687-.717.687-1.225zm11.344 0c0-.537-.204-.952-.612-1.246-.4-.3-1.107-.56-2.116-.774-1.003-.214-1.8-.472-2.396-.773-.587-.3-1.024-.66-1.3-1.074s-.42-.9-.42-1.483c0-.952.4-1.758 1.203-2.417.8-.658 1.84-.988 3.094-.988 1.317 0 2.384.34 3.2 1.02.823.68 1.235 1.55 1.235 2.6h-1.998c0-.544-.233-1.013-.698-1.407s-1.04-.6-1.74-.6c-.724 0-1.3.157-1.698.473s-.612.726-.612 1.235c0 .48.2.84.57 1.085s1.064.476 2.052.698c.996.222 1.8.487 2.417.795s1.07.68 1.364 1.117c.3.43.452.956.452 1.58 0 1.04-.416 1.873-1.247 2.503-.83.623-1.908.935-3.233.935-.93 0-1.755-.165-2.47-.494s-1.278-.788-1.686-1.375c-.4-.595-.602-1.236-.602-1.923h1.988c.035.666.3 1.196.794 1.6.502.386 1.16.58 1.977.58.752 0 1.354-.15 1.805-.45.458-.308.687-.717.687-1.225zM390.75 147.937l3.254 8.12 3.254-8.12h1.702v9.953h-1.312v-3.876l.123-4.183-3.268 8.06H393.5l-3.26-8.04.13 4.163v3.876h-1.312v-9.953h1.695zm15.036 9.953c-.073-.146-.132-.405-.178-.78-.588.6-1.3.916-2.105.916-.73 0-1.33-.205-1.798-.615a2 2 0 0 1-.698-1.573c0-.77.292-1.367.875-1.8s1.413-.642 2.475-.642h1.23v-.58c0-.442-.132-.793-.396-1.053s-.654-.396-1.17-.396c-.45 0-.83.114-1.135.34s-.458.504-.458.828h-1.27c0-.37.13-.725.4-1.067s.62-.62 1.067-.82a3.6 3.6 0 0 1 1.483-.301c.852 0 1.52.214 2.003.643.483.423.734 1 .752 1.756v3.405c0 .68.087 1.22.26 1.62v.1h-1.326zm-2.1-.964a2.22 2.22 0 0 0 1.128-.307 1.86 1.86 0 0 0 .772-.8v-1.52h-1c-1.55 0-2.324.454-2.324 1.36 0 .396.132.706.397.93s.603.335 1.018.335zm7.598-.888l1.723-5.544h1.353l-2.973 8.538c-.46 1.23-1.192 1.846-2.195 1.846l-.24-.02-.472-.1v-1.025l.342.027c.43 0 .76-.086.998-.26s.44-.5.595-.95l.28-.752-2.638-7.314h1.38l1.846 5.544zm14.355 1.852h-6.52v-.9l3.445-3.828c.5-.58.86-1.048 1.053-1.408.196-.365.294-.74.294-1.128 0-.52-.157-.946-.472-1.278s-.734-.5-1.258-.5c-.63 0-1.12.18-1.47.54s-.52.852-.52 1.5h-1.265c0-.916.294-1.657.882-2.222s1.383-.848 2.372-.848c.925 0 1.657.244 2.195.732s.806 1.128.806 1.934c0 .98-.624 2.147-1.873 3.5l-2.666 2.892h4.997v1.032zm7.72-4.245c0 1.48-.253 2.582-.758 3.302s-1.297 1.08-2.373 1.08c-1.06 0-1.847-.35-2.358-1.053s-.775-1.76-.793-3.158v-1.688c0-1.463.253-2.55.76-3.26s1.3-1.067 2.38-1.067c1.07 0 1.86.344 2.365 1.033.506.683.766 1.74.78 3.172v1.64zm-1.264-1.73c0-1.07-.15-1.85-.45-2.338s-.777-.74-1.43-.74-1.12.244-1.415.732-.45 1.237-.458 2.25v2.023c0 1.076.155 1.87.465 2.386s.788.766 1.42.766c.625 0 1.087-.242 1.388-.725s.465-1.244.48-2.283v-2.07zm9.4 2.262h-3.336v-1.032h3.336v1.032zm6.883-6.24l3.254 8.12 3.254-8.12h1.702v9.953h-1.312v-3.876l.123-4.183-3.268 8.06h-1.005l-3.26-8.04.13 4.163v3.876h-1.313v-9.953h1.695zm15.036 9.953c-.073-.146-.132-.405-.178-.78-.588.6-1.3.916-2.105.916-.73 0-1.33-.205-1.798-.615a2 2 0 0 1-.697-1.573c0-.77.3-1.367.875-1.8s1.412-.642 2.474-.642h1.23v-.58c0-.442-.133-.793-.397-1.053s-.654-.396-1.17-.396c-.45 0-.83.114-1.135.34s-.458.504-.458.828h-1.27c0-.37.13-.725.4-1.067a2.78 2.78 0 0 1 1.066-.82c.446-.2.946-.3 1.483-.3.853 0 1.52.214 2.003.643.483.423.734 1 .752 1.756v3.405c0 .68.087 1.22.26 1.62v.1h-1.326zm-2.1-.964a2.22 2.22 0 0 0 1.128-.307c.356-.205.613-.472.773-.8v-1.52h-.992c-1.55 0-2.324.454-2.324 1.36 0 .396.132.706.397.93s.604.335 1.018.335zm7.598-.888l1.723-5.544h1.353l-2.973 8.538c-.46 1.23-1.192 1.846-2.195 1.846l-.24-.02-.47-.1v-1.025l.34.027c.43 0 .76-.086.998-.26s.44-.5.595-.95l.28-.752-2.638-7.314h1.38l1.845 5.544zm14.355 1.852h-6.52v-.9l3.445-3.828c.5-.58.862-1.048 1.053-1.408.196-.365.294-.74.294-1.128 0-.52-.157-.946-.472-1.278s-.733-.5-1.258-.5c-.628 0-1.118.18-1.47.54-.347.355-.52.852-.52 1.5h-1.264c0-.916.293-1.657.88-2.222s1.384-.848 2.372-.848c.926 0 1.657.244 2.195.732s.806 1.128.806 1.934c0 .98-.624 2.147-1.873 3.5l-2.666 2.892h4.997v1.032zm6.443-9.96v1.074h-.232c-.985.018-1.768.3-2.352.875s-.92 1.36-1.012 2.385c.525-.6 1.24-.902 2.147-.902.866 0 1.556.305 2.07.916.52.6.78 1.4.78 2.365 0 1.026-.28 1.846-.84 2.46s-1.304.923-2.242.923c-.953 0-1.725-.365-2.318-1.094s-.9-1.677-.9-2.83v-.485c0-1.832.4-3.23 1.17-4.197s1.95-1.468 3.494-1.5h.225zm-1.66 4.485a2.02 2.02 0 0 0-1.196.389c-.365.26-.618.586-.76.978v.465c0 .82.185 1.48.554 1.982s.83.752 1.38.752c.57 0 1.016-.2 1.34-.63.33-.42.493-.968.493-1.647s-.167-1.235-.5-1.655a1.59 1.59 0 0 0-1.313-.635z" class="B"/><path d="M539.058 285.678c5.934-9.63 9.55-20.502 10.566-31.762s-.597-22.6-4.712-33.134a73.14 73.14 0 0 0-19.006-27.572 73.32 73.32 0 0 0-29.32-16.239 73.43 73.43 0 0 0-33.498-1.507 73.38 73.38 0 0 0-30.665 13.54c-9.036 6.818-16.365 15.633-21.413 25.754s-7.677 21.272-7.68 32.577l43.977.013a29.21 29.21 0 0 1 3.073-13.03 29.27 29.27 0 0 1 8.565-10.302c3.614-2.727 7.813-4.58 12.266-5.416a29.37 29.37 0 0 1 13.399.603 29.33 29.33 0 0 1 11.728 6.495 29.26 29.26 0 0 1 7.602 11.029 29.2 29.2 0 0 1 1.885 13.254 29.22 29.22 0 0 1-4.226 12.704l37.46 22.993z" class="F"/><path d="M436.854 308.804a73.4 73.4 0 0 0 28.415 10.821c10.125 1.585 20.47 1.033 30.37-1.62a73.36 73.36 0 0 0 27.096-13.785c7.966-6.435 14.493-14.466 19.156-23.575l-39.16-19.972c-1.865 3.643-4.476 6.856-7.663 9.43s-6.88 4.452-10.838 5.514a29.38 29.38 0 0 1-12.148.648 29.36 29.36 0 0 1-11.366-4.328l-23.862 36.868z" class="G"/><path d="M476.624 174.206c-10.67 0-21.214 2.326-30.89 6.814a73.27 73.27 0 0 0-25.136 19.175 73.1 73.1 0 0 0-14.698 27.961c-2.8 10.277-3.32 21.04-1.52 31.54s5.875 20.477 11.94 29.24a73.23 73.23 0 0 0 23.176 21.493 73.41 73.41 0 0 0 30.093 9.743 73.44 73.44 0 0 0 31.405-3.824l-14.622-41.394c-4.026 1.416-8.313 1.938-12.562 1.53s-8.357-1.74-12.037-3.897-6.844-5.093-9.27-8.598a29.23 29.23 0 0 1-4.776-11.696 29.21 29.21 0 0 1 .608-12.615c1.12-4.11 3.127-7.928 5.88-11.185s6.184-5.874 10.055-7.67 8.088-2.725 12.356-2.725v-43.89z" class="H"/><path d="M464.185 248.088h1.086c.682-.01 1.218-.2 1.61-.54s.586-.82.586-1.414c0-1.333-.664-2-1.992-2-.625 0-1.125.18-1.5.54-.37.354-.555.825-.555 1.414h-1.445c0-.9.328-1.648.984-2.242s1.5-.9 2.516-.9c1.073 0 1.914.284 2.523.852s.914 1.357.914 2.367c0 .495-.16.974-.484 1.438s-.753.8-1.305 1.04c.625.198 1.107.526 1.445.984.344.458.516 1.018.516 1.68 0 1.02-.333 1.83-1 2.43s-1.534.9-2.602.9-1.937-.29-2.61-.867-1-1.34-1-2.29h1.453c0 .6.196 1.078.586 1.437s.914.54 1.57.54c.698 0 1.232-.182 1.602-.547s.555-.888.555-1.57c0-.66-.203-1.17-.6-1.523s-.992-.537-1.757-.547h-1.086v-1.18zm12.714-4.992v1.226h-.265c-1.125.02-2.02.355-2.688 1s-1.052 1.555-1.156 2.727c.6-.688 1.417-1.03 2.453-1.03 1 0 1.78.35 2.367 1.047.594.697.89 1.6.89 2.703 0 1.172-.32 2.11-.96 2.812s-1.5 1.055-2.563 1.055c-1.088 0-1.97-.417-2.648-1.25-.677-.84-1.016-1.917-1.016-3.234v-.555c0-2.094.446-3.693 1.336-4.797.896-1.11 2.227-1.677 3.992-1.703h.258zM475 248.22a2.3 2.3 0 0 0-1.367.445c-.417.297-.706.67-.868 1.117v.532c0 .937.21 1.692.633 2.265s.948.86 1.578.86c.65 0 1.162-.24 1.532-.72s.562-1.107.562-1.883-.2-1.41-.57-1.89a1.8 1.8 0 0 0-1.5-.726zm6.965-1.172c.64-.787 1.473-1.18 2.5-1.18 1.786 0 2.687 1.008 2.703 3.024v5.586h-1.446v-5.594c-.005-.61-.146-1.06-.422-1.352-.27-.29-.695-.437-1.273-.437-.47 0-.88.125-1.234.375a2.53 2.53 0 0 0-.828.984v6.024h-1.446v-12h1.446v4.57z" class="B"/><g fill="#999"><use xlink:href="#D"/><path d="M151.22 391.376V380h3.21c1 0 1.865.22 2.625.656s1.347 1.06 1.758 1.868c.417.807.628 1.734.633 2.78v.726c0 1.073-.208 2.013-.625 2.82-.41.807-1.003 1.427-1.773 1.86s-1.66.654-2.68.664h-3.15zm1.5-10.14v8.915h1.58c1.156 0 2.054-.36 2.695-1.08s.97-1.742.97-3.07v-.664c0-1.292-.305-2.294-.914-3.008s-1.464-1.083-2.58-1.094h-1.75zm8.39 5.836c0-.828.162-1.573.484-2.234.33-.66.782-1.172 1.36-1.53s1.247-.54 1.992-.54c1.15 0 2.08.398 2.79 1.195.714.797 1.07 1.857 1.07 3.18v.1c0 .823-.158 1.563-.476 2.22-.313.65-.763 1.16-1.352 1.523-.583.365-1.255.547-2.015.547-1.146 0-2.076-.398-2.79-1.195s-1.063-1.852-1.063-3.164v-.102zm1.453.172c0 .938.216 1.7.65 2.258s1.02.852 1.75.852 1.317-.287 1.75-.86.648-1.385.648-2.422c0-.927-.22-1.677-.664-2.25-.438-.578-1.02-.867-1.75-.867-.714 0-1.29.284-1.727.852s-.656 1.38-.656 2.437zm9.422-4.32l.047 1.062a3.08 3.08 0 0 1 2.531-1.218c1.787 0 2.688 1.008 2.703 3.023v5.586h-1.445v-5.594c-.005-.61-.146-1.06-.422-1.35s-.695-.438-1.273-.438c-.47 0-.88.125-1.235.375s-.63.578-.828.985v6.023h-1.445v-8.453h1.367zm6.938.28l-.82-.562c.485-.677.735-1.39.75-2.14v-1.125h1.43v1.016c-.005.52-.135 1.04-.39 1.562-.25.516-.573.933-.968 1.25zm5.062-2.328v2.047h1.578v1.117h-1.578v5.242c0 .34.07.594.21.766.14.167.38.25.72.25.166 0 .396-.03.687-.094v1.172c-.38.104-.75.156-1.11.156-.646 0-1.133-.195-1.46-.586s-.492-.945-.492-1.664v-5.242h-1.54v-1.117h1.54v-2.047h1.445zm7.953 10.5v-7.336h-1.336v-1.117h1.336v-.867c0-.906.242-1.607.727-2.102s1.17-.742 2.054-.742a3.78 3.78 0 0 1 .993.133l-.08 1.172a4.13 4.13 0 0 0-.781-.071c-.47 0-.83.138-1.086.414-.255.27-.383.662-.383 1.172v.89h1.805v1.117h-1.805v7.336h-1.445zm4.47-4.305c0-.828.16-1.573.484-2.234s.782-1.172 1.36-1.53c.583-.36 1.247-.54 1.992-.54 1.15 0 2.08.398 2.79 1.195.713.797 1.07 1.857 1.07 3.18v.1c0 .823-.16 1.563-.476 2.22s-.763 1.16-1.352 1.523c-.583.365-1.255.547-2.016.547-1.145 0-2.075-.398-2.79-1.195-.708-.797-1.062-1.852-1.062-3.164v-.102zm1.453.172c0 .938.216 1.7.648 2.258.438.568 1.02.852 1.75.852.735 0 1.318-.287 1.75-.86s.65-1.385.65-2.422c0-.927-.22-1.677-.664-2.25-.438-.578-1.02-.867-1.75-.867-.714 0-1.29.284-1.727.852s-.656 1.38-.656 2.437zm12.14-3.023c-.22-.037-.456-.055-.71-.055-.948 0-1.59.404-1.93 1.21v6h-1.445v-8.453h1.406l.023.977c.474-.756 1.146-1.133 2.016-1.133.28 0 .495.036.64.11v1.344zm.836 2.86c0-1.317.304-2.364.914-3.14.61-.782 1.416-1.172 2.422-1.172 1.03 0 1.835.364 2.414 1.093l.07-.937h1.32v8.25c0 1.094-.325 1.956-.976 2.586-.646.63-1.516.945-2.6.945-.61 0-1.205-.13-1.79-.4s-1.028-.618-1.336-1.07l.75-.867c.62.766 1.378 1.15 2.274 1.15.703 0 1.25-.198 1.64-.594.396-.396.594-.953.594-1.672v-.727c-.578.667-1.367 1-2.367 1-1 0-1.792-.398-2.406-1.195s-.914-1.883-.914-3.258zm1.453.164c0 .953.195 1.703.586 2.25s.937.813 1.64.813c.912 0 1.58-.414 2.008-1.242v-3.86c-.443-.807-1.107-1.21-1.992-1.21a1.92 1.92 0 0 0-1.649.821c-.395.546-.593 1.356-.593 2.43zm11.383 4.29c-1.146 0-2.08-.375-2.797-1.125s-1.078-1.763-1.078-3.023v-.266c0-.838.158-1.586.476-2.242s.77-1.177 1.344-1.547a3.38 3.38 0 0 1 1.875-.562c1.1 0 1.953.362 2.562 1.086s.914 1.76.914 3.11v.602h-5.726c.02.833.263 1.507.726 2.023.47.5 1.063.766 1.782.766.5 0 .942-.105 1.297-.313a3.24 3.24 0 0 0 .929-.828l.883.688c-.708 1.088-1.77 1.632-3.187 1.632zm-.18-7.578c-.583 0-1.073.214-1.47.64-.396.422-.64 1.015-.734 1.78h4.234v-.11c-.042-.735-.24-1.302-.594-1.703-.354-.407-.833-.6-1.437-.6zm7.117-3.078v2.047h1.578v1.117h-1.578v5.242c0 .34.07.594.21.766.14.167.38.25.72.25.166 0 .396-.03.687-.094v1.172c-.38.104-.75.156-1.11.156-.646 0-1.133-.195-1.46-.586s-.492-.945-.492-1.664v-5.242h-1.54v-1.117h1.54v-2.047h1.445zm9.203 0v2.047h1.578v1.117h-1.578v5.242c0 .34.07.594.21.766.14.167.38.25.72.25.167 0 .396-.03.687-.094v1.172c-.38.104-.75.156-1.11.156-.646 0-1.133-.195-1.46-.586s-.492-.945-.492-1.664v-5.242h-1.54v-1.117h1.54v-2.047h1.445zm2.735 6.195c0-.828.16-1.573.484-2.234.328-.66.78-1.172 1.36-1.53.584-.36 1.248-.54 1.992-.54 1.152 0 2.08.398 2.8 1.195s1.07 1.857 1.07 3.18v.1c0 .823-.16 1.563-.477 2.22-.312.65-.763 1.16-1.35 1.523s-1.255.547-2.016.547c-1.146 0-2.075-.398-2.79-1.195-.708-.797-1.062-1.852-1.062-3.164v-.102zm1.453.172c0 .938.216 1.7.648 2.258.438.568 1.02.852 1.75.852s1.318-.287 1.75-.86.65-1.385.65-2.422c0-.927-.222-1.677-.665-2.25a2.08 2.08 0 0 0-1.75-.867 2.07 2.07 0 0 0-1.726.852c-.438.567-.656 1.38-.656 2.437zm13.593 4.133h-1.445v-12h1.445v12zm1.938-4.305c0-.828.16-1.573.484-2.234.328-.66.782-1.172 1.36-1.53.583-.36 1.247-.54 1.992-.54 1.15 0 2.08.398 2.79 1.195.713.797 1.07 1.857 1.07 3.18v.1c0 .823-.16 1.563-.476 2.22s-.763 1.16-1.352 1.523c-.583.365-1.255.547-2.016.547-1.145 0-2.075-.398-2.79-1.195-.708-.797-1.062-1.852-1.062-3.164v-.102zm1.453.172c0 .938.216 1.7.648 2.258.438.568 1.02.852 1.75.852.735 0 1.318-.287 1.75-.86s.65-1.385.65-2.422c0-.927-.22-1.677-.664-2.25-.438-.578-1.02-.867-1.75-.867-.714 0-1.29.284-1.727.852s-.656 1.38-.656 2.437zm7.71-.164c0-1.317.305-2.364.914-3.14.61-.782 1.417-1.172 2.422-1.172 1.03 0 1.836.364 2.414 1.093l.07-.937h1.32v8.25c0 1.094-.326 1.956-.977 2.586s-1.516.945-2.61.945a4.35 4.35 0 0 1-1.789-.39c-.584-.26-1.03-.618-1.336-1.07l.75-.867c.62.766 1.377 1.15 2.273 1.15.703 0 1.25-.198 1.64-.594.396-.396.593-.953.593-1.672v-.727c-.578.667-1.367 1-2.367 1-.99 0-1.79-.398-2.406-1.195-.61-.797-.914-1.883-.914-3.258zm1.453.164c0 .953.195 1.703.586 2.25s.938.813 1.64.813c.91 0 1.58-.414 2.007-1.242v-3.86c-.442-.807-1.106-1.21-1.992-1.21-.703 0-1.252.274-1.648.82s-.594 1.356-.594 2.43zm13.805-6.367v2.047h1.578v1.117h-1.578v5.242c0 .34.07.594.21.766.14.167.38.25.718.25.167 0 .396-.03.688-.094v1.172c-.38.104-.75.156-1.11.156-.646 0-1.133-.195-1.46-.586s-.493-.945-.493-1.664v-5.242h-1.54v-1.117h1.54v-2.047h1.446zm4.844 10.5h-1.446v-8.453h1.446v8.453zm-1.563-10.695a.87.87 0 0 1 .211-.594c.146-.16.36-.242.64-.242s.494.08.64.242a.85.85 0 0 1 .219.594c0 .234-.073.43-.22.586s-.36.234-.64.234-.495-.078-.64-.234c-.14-.157-.21-.352-.21-.586zm5.242 2.242l.04.937c.62-.73 1.456-1.093 2.508-1.093 1.182 0 1.987.453 2.414 1.36.28-.406.646-.734 1.094-.984.453-.25.987-.375 1.6-.375 1.855 0 2.797.98 2.83 2.945v5.664h-1.446v-5.578c0-.604-.138-1.055-.414-1.352-.276-.302-.74-.453-1.4-.453-.537 0-.982.162-1.336.485-.354.317-.56.747-.618 1.29v5.61h-1.453v-5.54c0-1.23-.6-1.844-1.804-1.844-.948 0-1.597.404-1.946 1.21v6.172h-1.445v-8.453h1.367zm16.18 8.61c-1.146 0-2.078-.375-2.797-1.125s-1.078-1.763-1.078-3.023v-.266c0-.838.16-1.586.476-2.242.323-.66.77-1.177 1.344-1.547a3.38 3.38 0 0 1 1.875-.562c1.1 0 1.953.362 2.563 1.086s.914 1.76.914 3.11v.602h-5.727c.02.833.263 1.507.727 2.023.47.5 1.062.766 1.78.766.5 0 .943-.105 1.297-.313s.664-.484.93-.828l.882.688c-.708 1.088-1.77 1.632-3.187 1.632zm-.18-7.578c-.583 0-1.073.214-1.47.64-.395.422-.64 1.015-.734 1.78h4.234v-.11c-.04-.735-.24-1.302-.593-1.703-.354-.407-.834-.6-1.438-.6z"/></g><g filter="url(#C)" class="C"><path d="M713.746 116.618a2.75 2.75 0 0 1 2.749-2.749H1043.9a2.75 2.75 0 0 1 2.75 2.749v244.83a2.75 2.75 0 0 1-2.75 2.749H716.495a2.75 2.75 0 0 1-2.749-2.749v-244.83z"/></g><path d="M713.746 116.735c0-2.307 1.87-4.176 4.177-4.176h324.547c2.3 0 4.17 1.87 4.17 4.176v45.627H713.746v-45.627z" fill="#e4eaee"/><path d="M744.8 130.6l3.72 9.282 3.72-9.282h1.945v11.375h-1.5v-4.43l.14-4.78-3.734 9.2h-1.148l-3.727-9.187.15 4.758v4.43h-1.5V130.6h1.937zm17.023 11.375c-.083-.166-.15-.463-.203-.9-.672.698-1.474 1.047-2.406 1.047-.833 0-1.518-.235-2.055-.703-.53-.474-.796-1.073-.796-1.797 0-.88.333-1.563 1-2.047.67-.5 1.614-.735 2.828-.735h1.406v-.664c0-.505-.15-.906-.453-1.203s-.748-.453-1.336-.453c-.516 0-.948.13-1.297.4s-.523.575-.523.945h-1.454c0-.422.15-.828.446-1.22s.708-.708 1.218-.937c.516-.23 1.08-.344 1.696-.344.974 0 1.737.245 2.3.734s.838 1.154.86 2.008V140c0 .776.1 1.393.297 1.85v.125h-1.516zm-2.398-1.1a2.54 2.54 0 0 0 1.29-.352c.407-.235.7-.54.883-.914v-1.734h-1.133c-1.77 0-2.656.518-2.656 1.555 0 .453.15.807.453 1.062s.7.383 1.164.383zm8.523-1.016l1.97-6.336h1.547l-3.398 9.758c-.526 1.406-1.362 2.1-2.508 2.1l-.274-.024-.54-.1v-1.172l.4.03c.5 0 .87-.1 1.14-.297.276-.198.502-.56.68-1.086l.32-.86-3.016-8.36h1.578l2.1 6.336zm3.922 4.383l-.82-.562c.5-.683.745-1.386.766-2.1v-1.304h1.414v1.132c0 .526-.13 1.052-.4 1.578s-.578.948-.97 1.266zm14.46-2.266h-7.453v-1.04l3.938-4.375c.583-.66.984-1.198 1.203-1.6a2.69 2.69 0 0 0 .336-1.289c0-.594-.18-1.08-.54-1.46s-.84-.57-1.438-.57c-.72 0-1.28.205-1.68.617-.395.406-.593.974-.593 1.703h-1.446c0-1.047.336-1.893 1.008-2.54s1.58-.97 2.7-.97c1.057 0 1.893.28 2.508.836s.922 1.3.922 2.2c0 1.12-.714 2.453-2.14 4l-3.047 3.305h5.7v1.18zm8.664-4.85c0 1.693-.3 2.95-.867 3.773s-1.482 1.235-2.7 1.235c-1.213 0-2.112-.4-2.695-1.203s-.886-2-.906-3.6v-1.93c0-1.672.3-2.915.867-3.727s1.484-1.22 2.72-1.22c1.224 0 2.125.393 2.703 1.18.578.78.875 2 .9 3.625v1.875zm-1.445-1.977c0-1.224-.172-2.114-.516-2.672s-.888-.843-1.632-.843-1.28.278-1.618.836-.513 1.414-.523 2.57v2.312c0 1.23.177 2.138.53 2.727.36.583.9.875 1.625.875.714 0 1.242-.276 1.586-.828.35-.552.53-1.422.547-2.6v-2.368zm10.75 6.828h-7.453v-1.04l3.937-4.375c.584-.66.985-1.198 1.204-1.6a2.7 2.7 0 0 0 .335-1.289c0-.594-.18-1.08-.54-1.46s-.838-.57-1.437-.57c-.72 0-1.28.205-1.68.617-.396.406-.594.974-.594 1.703h-1.445c0-1.047.336-1.893 1.008-2.54s1.58-.97 2.7-.97c1.057 0 1.893.28 2.508.836s.922 1.3.922 2.2c0 1.12-.714 2.453-2.14 4l-3.047 3.305h5.7v1.18zm8.664-4.85c0 1.693-.3 2.95-.867 3.773s-1.482 1.235-2.7 1.235c-1.214 0-2.112-.4-2.695-1.203s-.886-2-.907-3.6v-1.93c0-1.672.3-2.915.868-3.727s1.484-1.22 2.718-1.22c1.224 0 2.125.393 2.703 1.18.58.78.875 2 .9 3.625v1.875zm-1.445-1.977c0-1.224-.172-2.114-.516-2.672s-.888-.843-1.633-.843-1.278.278-1.617.836-.513 1.414-.523 2.57v2.312c0 1.23.177 2.138.53 2.727.36.583.9.875 1.625.875.713 0 1.242-.276 1.586-.828s.53-1.422.547-2.6v-2.368zm107.972 3.216c-.14 1.203-.586 2.133-1.336 2.8s-1.737.977-2.977.977c-1.343 0-2.42-.482-3.234-1.446-.807-.963-1.2-2.252-1.2-3.867v-1.094c0-1.057.188-1.987.563-2.8s.916-1.416 1.6-1.843c.693-.433 1.495-.65 2.406-.65 1.2 0 2.177.34 2.907 1.016s1.153 1.604 1.273 2.797h-1.508c-.13-.907-.414-1.563-.85-1.97s-1.04-.6-1.82-.6c-.958 0-1.7.354-2.258 1.062-.54.708-.812 1.716-.812 3.024v1.1c0 1.234.258 2.216.773 2.945s1.237 1.094 2.164 1.094c.834 0 1.472-.187 1.915-.562s.744-1.04.9-1.977h1.508zm1.445-.695c0-.828.162-1.573.485-2.235s.78-1.17 1.36-1.53 1.247-.54 1.992-.54c1.15 0 2.08.4 2.8 1.195s1.07 1.857 1.07 3.18v.102c0 .823-.16 1.562-.477 2.218-.312.65-.763 1.16-1.352 1.524-.583.364-1.255.547-2.015.547-1.146 0-2.076-.4-2.8-1.196s-1.063-1.85-1.063-3.164v-.1zm1.453.172c0 .937.217 1.7.65 2.257s1.02.852 1.75.852 1.318-.286 1.75-.86.648-1.386.648-2.422c0-.927-.22-1.677-.664-2.25a2.08 2.08 0 0 0-1.75-.867 2.07 2.07 0 0 0-1.726.851c-.438.568-.657 1.38-.657 2.438zm12.977 1.9a1.05 1.05 0 0 0-.445-.906c-.292-.22-.805-.406-1.54-.562s-1.3-.344-1.743-.563c-.427-.22-.744-.48-.953-.78-.203-.302-.304-.662-.304-1.078 0-.693.3-1.28.875-1.758s1.338-.72 2.25-.72c.958 0 1.734.247 2.328.742a2.35 2.35 0 0 1 .898 1.899h-1.453c0-.396-.17-.737-.508-1.024-.333-.286-.755-.43-1.265-.43-.526 0-.938.114-1.235.343a1.08 1.08 0 0 0-.445.899c0 .35.138.612.414.8s.773.346 1.492.508c.724.16 1.3.354 1.758.578s.78.495.992.812c.22.313.328.696.328 1.15a2.17 2.17 0 0 1-.906 1.82c-.604.453-1.388.68-2.352.68-.677 0-1.276-.12-1.796-.36s-.93-.573-1.227-1a2.4 2.4 0 0 1-.437-1.398h1.445c.026.484.22.87.578 1.156.365.28.844.422 1.437.422.547 0 .985-.1 1.313-.328s.5-.52.5-.9zm5.3-8.258v2.047h1.578v1.118h-1.578v5.242c0 .338.07.593.2.765s.38.25.72.25c.166 0 .396-.03.687-.093v1.17c-.38.105-.75.157-1.1.157-.646 0-1.133-.196-1.46-.586s-.492-.946-.492-1.664v-5.242h-1.54v-1.118h1.54v-2.047h1.445zm40.312 6.037v4.453h-1.5V130.6h4.195c1.245 0 2.22.318 2.922.954.7.635 1.063 1.476 1.063 2.523 0 1.104-.347 1.956-1.04 2.555-.688.593-1.675.9-2.96.9h-2.68zm0-1.226h2.695c.803 0 1.417-.188 1.844-.563s.64-.927.64-1.64c0-.677-.214-1.22-.64-1.625s-1.013-.618-1.758-.633h-2.78v4.46zm12.453-1.477a4.37 4.37 0 0 0-.71-.054c-.948 0-1.6.403-1.93 1.2v6h-1.446v-8.453h1.407l.023.977c.474-.755 1.146-1.133 2.016-1.133.28 0 .494.037.64.1v1.344zm.797 2.852c0-.828.162-1.573.485-2.235s.78-1.17 1.36-1.53 1.247-.54 1.992-.54c1.15 0 2.077.4 2.787 1.195.72.797 1.07 1.857 1.07 3.18v.102c0 .823-.16 1.562-.47 2.218-.32.65-.77 1.16-1.36 1.524-.58.364-1.25.547-2 .547-1.146 0-2.076-.4-2.8-1.196s-1.063-1.85-1.063-3.164v-.1zm1.453.172c0 .937.216 1.7.65 2.257a2.12 2.12 0 0 0 1.75.852c.734 0 1.317-.286 1.75-.86s.65-1.386.65-2.422c0-.927-.22-1.677-.667-2.25a2.08 2.08 0 0 0-1.75-.867 2.07 2.07 0 0 0-1.726.851c-.438.568-.657 1.38-.657 2.438zm8.54 4.132v-7.335h-1.34v-1.118h1.34v-.718c0-.943.27-1.677.8-2.204.55-.526 1.3-.8 2.3-.8.6 0 1.32.16 2.2.477l-.24 1.22c-.65-.26-1.27-.4-1.86-.4-.62 0-1.07.14-1.34.422-.27.276-.4.693-.4 1.25v.734h1.73v1.118h-1.73v7.335h-1.45zm6.02 0h-1.45v-8.453h1.45v8.453zm4.32-10.5v2.047h1.57v1.118h-1.57v5.242c0 .338.07.593.2.765s.38.25.7.25a3.5 3.5 0 0 0 .69-.093v1.17c-.38.105-.75.157-1.1.157-.64 0-1.13-.196-1.46-.586s-.5-.946-.5-1.664v-5.242h-1.54v-1.118h1.54v-2.047h1.45z" class="B"/><g fill="#999"><use xlink:href="#D" x="611"/><path d="M765.685 386.65v4.453h-1.5v-11.375h4.195c1.245 0 2.22.318 2.922.953s1.063 1.477 1.063 2.524c0 1.104-.347 1.956-1.04 2.555-.687.593-1.674.9-2.96.9h-2.68zm0-1.226h2.695c.802 0 1.417-.188 1.844-.563s.64-.927.64-1.64c0-.677-.214-1.218-.64-1.625s-1.013-.617-1.758-.632h-2.78v4.46zm12.453-1.477c-.22-.036-.456-.055-.71-.055-.948 0-1.59.404-1.93 1.21v6h-1.445v-8.453h1.406l.024.977c.474-.755 1.146-1.133 2.015-1.133.282 0 .495.036.64.11v1.344zm.797 2.852c0-.83.16-1.573.484-2.235s.78-1.172 1.36-1.53 1.247-.54 1.992-.54c1.15 0 2.08.398 2.79 1.195s1.07 1.857 1.07 3.18v.1c0 .823-.16 1.563-.476 2.22-.313.65-.763 1.16-1.352 1.524-.583.364-1.255.547-2.016.547-1.145 0-2.075-.4-2.79-1.196-.708-.797-1.062-1.85-1.062-3.164v-.1zm1.453.17c0 .938.216 1.69.648 2.258.438.568 1.02.852 1.75.852.735 0 1.318-.287 1.75-.86.433-.578.65-1.385.65-2.42 0-.927-.222-1.677-.664-2.25a2.08 2.08 0 0 0-1.75-.868c-.714 0-1.29.284-1.727.852s-.656 1.38-.656 2.437zm9.547-4.32v9.43c0 1.625-.737 2.437-2.21 2.437-.318 0-.612-.047-.883-.14v-1.157c.167.042.385.063.656.063.323 0 .568-.09.735-.266.172-.172.258-.474.258-.906v-9.46h1.445zm-1.594-2.242a.86.86 0 0 1 .211-.586c.146-.167.357-.25.633-.25.28 0 .495.08.64.242s.22.36.22.594-.073.43-.22.586-.36.234-.64.234-.492-.078-.633-.234-.21-.352-.21-.586zm7.438 10.852c-1.146 0-2.08-.375-2.797-1.125-.72-.756-1.078-1.763-1.078-3.024v-.266c0-.838.158-1.585.476-2.242s.77-1.177 1.344-1.547a3.38 3.38 0 0 1 1.875-.562c1.1 0 1.953.362 2.562 1.086s.914 1.76.914 3.11v.602h-5.726c.02.833.263 1.508.726 2.023.47.51 1.063.766 1.782.766.5 0 .942-.104 1.297-.313a3.24 3.24 0 0 0 .929-.828l.883.688c-.708 1.088-1.77 1.633-3.187 1.633zm-.18-7.58c-.583 0-1.073.214-1.47.64s-.64 1.016-.734 1.78h4.234v-.11c-.042-.734-.24-1.302-.594-1.703s-.833-.6-1.437-.6zm8.547 6.4c.515 0 .966-.156 1.35-.47s.6-.703.64-1.172h1.367a2.62 2.62 0 0 1-.5 1.383c-.307.438-.72.786-1.234 1.047s-1.052.39-1.625.39c-1.15 0-2.068-.383-2.75-1.15-.677-.77-1.016-1.823-1.016-3.156v-.242c0-.823.15-1.555.453-2.196s.735-1.138 1.297-1.492c.568-.354 1.237-.53 2.008-.53.948 0 1.734.284 2.36.85.63.568.966 1.305 1.008 2.21h-1.367a1.97 1.97 0 0 0-.625-1.343c-.37-.355-.828-.532-1.375-.532-.734 0-1.305.266-1.71.797s-.602 1.29-.602 2.29v.274c0 .974.2 1.724.602 2.25s.974.79 1.72.79zm6.945-9.477v2.047h1.578v1.117h-1.578V389c0 .338.07.593.21.765s.38.25.72.25c.166 0 .396-.03.687-.094v1.172c-.38.104-.75.157-1.11.157-.646 0-1.133-.196-1.46-.586s-.492-.946-.492-1.664v-5.243h-1.54v-1.117h1.54v-2.047h1.445zm11.18 3.485l2.726-4.36h1.766l-3.594 5.64 3.68 5.734h-1.78l-2.797-4.437-2.813 4.437h-1.773l3.687-5.734-3.6-5.64h1.758l2.742 4.36zm11.633 7.015h-1.446v-8.453h1.446v8.453zm-1.563-10.695c0-.234.07-.432.21-.594s.36-.242.64-.242.494.08.64.242.22.36.22.594-.073.43-.22.586-.36.234-.64.234-.495-.078-.64-.234-.21-.352-.21-.586zm8.805 8.453c0-.39-.15-.693-.446-.906-.29-.22-.804-.406-1.54-.563-.73-.156-1.3-.343-1.742-.562s-.745-.48-.953-.78-.305-.662-.305-1.08c0-.692.292-1.278.875-1.757.59-.48 1.34-.72 2.25-.72.96 0 1.735.247 2.33.742s.898 1.128.898 1.9h-1.453c0-.396-.17-.737-.508-1.024-.333-.286-.755-.43-1.266-.43-.526 0-.937.115-1.234.344a1.08 1.08 0 0 0-.445.899c0 .35.138.612.414.79s.773.346 1.492.507 1.3.355 1.758.58.778.494.992.812.328.695.328 1.15a2.17 2.17 0 0 1-.906 1.82c-.604.453-1.388.68-2.352.68-.677 0-1.276-.12-1.797-.36s-.93-.573-1.226-1c-.292-.432-.438-.898-.438-1.398h1.446c.026.484.218.87.578 1.156s.844.422 1.437.422c.547 0 .985-.1 1.313-.328.333-.224.5-.52.5-.89zm6.914-2.062c0-.83.16-1.573.484-2.235s.78-1.172 1.36-1.53 1.247-.54 1.992-.54c1.15 0 2.08.398 2.79 1.195s1.07 1.857 1.07 3.18v.1c0 .823-.16 1.563-.476 2.22-.313.65-.763 1.16-1.352 1.524-.583.364-1.255.547-2.016.547-1.145 0-2.075-.4-2.79-1.196-.708-.797-1.062-1.85-1.062-3.164v-.1zm1.453.17c0 .938.216 1.69.648 2.258.438.568 1.02.852 1.75.852.735 0 1.318-.287 1.75-.86.433-.578.65-1.385.65-2.42 0-.927-.222-1.677-.664-2.25a2.08 2.08 0 0 0-1.75-.868c-.714 0-1.29.284-1.727.852s-.656 1.38-.656 2.437zm10.72 2.172l2.093-6.492h1.477l-3.03 8.453h-1.102l-3.062-8.453h1.476l2.15 6.492zm8.36 2.118c-1.146 0-2.078-.375-2.797-1.125-.72-.756-1.078-1.763-1.078-3.024v-.266c0-.838.16-1.585.477-2.242s.77-1.177 1.343-1.547c.58-.375 1.204-.562 1.875-.562 1.1 0 1.954.362 2.563 1.086s.914 1.76.914 3.11v.602h-5.727c.02.833.263 1.508.727 2.023a2.31 2.31 0 0 0 1.781.766c.51 0 .943-.104 1.297-.313s.664-.484.93-.828l.883.688c-.71 1.088-1.77 1.633-3.188 1.633zm-.18-7.58a1.92 1.92 0 0 0-1.468.641c-.396.422-.64 1.016-.735 1.78h4.235v-.11c-.042-.734-.24-1.302-.594-1.703s-.833-.6-1.438-.6zm9.243.266c-.22-.036-.456-.055-.71-.055-.948 0-1.592.404-1.93 1.21v6h-1.445v-8.453h1.406l.023.977c.474-.755 1.146-1.133 2.016-1.133.28 0 .495.036.64.11v1.344zm12.5-3.406l-4.71 10.562h-1.516l4.695-10.187h-6.156v-1.188h7.688v.813zm2.304 4.86l.578-5.672h5.83v1.336h-4.602l-.344 3.102c.557-.328 1.2-.492 1.9-.492 1.036 0 1.86.343 2.468 1.03.6.682.914 1.607.914 2.773 0 1.172-.317 2.097-.953 2.774-.63.672-1.513 1.008-2.648 1.008-1.005 0-1.826-.28-2.46-.836s-.997-1.33-1.086-2.313h1.367c.09.65.32 1.143.696 1.477.375.328.87.492 1.484.492.672 0 1.198-.23 1.578-.688s.578-1.09.578-1.898c0-.76-.208-1.37-.625-1.828-.41-.464-.96-.696-1.648-.696-.63 0-1.125.138-1.485.415l-.382.312-1.157-.297zm8.196-3.484c0-.683.216-1.245.648-1.688.438-.442.997-.664 1.68-.664.692 0 1.252.224 1.68.672.433.443.65 1.018.65 1.727v.554c0 .688-.22 1.25-.656 1.688-.433.432-.985.648-1.657.648s-1.237-.216-1.68-.648c-.443-.438-.664-1.018-.664-1.742v-.547zm1.078.6c0 .407.114.743.343 1.008s.537.39.922.39c.37 0 .667-.128.89-.383s.344-.604.344-1.047v-.57c0-.406-.112-.742-.336-1.008s-.53-.398-.914-.398-.7.132-.914.398-.336.612-.336 1.04v.57zm4.46 5.797c0-.682.216-1.242.648-1.68.438-.443.997-.665 1.68-.665s1.242.22 1.68.657.657 1.018.657 1.742v.555c0 .682-.22 1.244-.657 1.687-.432.438-.987.656-1.664.656s-1.237-.216-1.68-.648c-.443-.438-.664-1.018-.664-1.742v-.563zm1.078.6c0 .41.114.75.344 1.015s.536.39.92.39c.375 0 .675-.128.9-.383s.336-.612.336-1.055v-.578c0-.41-.115-.747-.344-1.008s-.526-.4-.906-.4c-.37 0-.672.13-.906.4s-.344.602-.344 1.04v.58zm-3.946 1.32l-.82-.516 5.555-8.9.82.515-5.555 8.89zm16.797 1.016c-1.146 0-2.078-.375-2.797-1.125-.718-.756-1.078-1.763-1.078-3.024v-.266c0-.838.16-1.585.477-2.242s.77-1.177 1.344-1.547a3.38 3.38 0 0 1 1.875-.562c1.1 0 1.953.362 2.562 1.086s.914 1.76.914 3.11v.602h-5.726c.02.833.263 1.508.726 2.023.47.51 1.063.766 1.78.766.51 0 .943-.104 1.297-.313s.664-.484.93-.828l.883.688c-.71 1.088-1.77 1.633-3.188 1.633zm-.18-7.58a1.92 1.92 0 0 0-1.469.641c-.396.422-.64 1.016-.734 1.78h4.234v-.11c-.042-.734-.24-1.302-.594-1.703s-.833-.6-1.437-.6zm10.078 5.18c0-.39-.15-.693-.446-.906-.29-.22-.804-.406-1.54-.563-.73-.156-1.3-.343-1.742-.562s-.745-.48-.953-.78-.305-.662-.305-1.08c0-.692.292-1.278.875-1.757.59-.48 1.34-.72 2.25-.72.96 0 1.735.247 2.33.742s.898 1.128.898 1.9h-1.453c0-.396-.17-.737-.508-1.024-.333-.286-.755-.43-1.266-.43-.526 0-.937.115-1.234.344a1.08 1.08 0 0 0-.445.899c0 .35.138.612.414.79s.773.346 1.492.507 1.3.355 1.758.58.778.494.992.812.328.695.328 1.15a2.17 2.17 0 0 1-.906 1.82c-.604.453-1.388.68-2.352.68-.677 0-1.276-.12-1.797-.36s-.93-.573-1.226-1c-.292-.432-.438-.898-.438-1.398h1.446c.026.484.218.87.578 1.156s.844.422 1.437.422c.547 0 .985-.1 1.313-.328.333-.224.5-.52.5-.89zm5.29-8.258v2.047h1.578v1.117H935.3V389c0 .338.07.593.21.765s.38.25.72.25a3.47 3.47 0 0 0 .687-.094v1.172c-.38.104-.75.157-1.11.157-.646 0-1.133-.196-1.46-.586s-.492-.946-.492-1.664v-5.243h-1.54v-1.117h1.54v-2.047h1.445zm4.844 10.5h-1.446v-8.453h1.446v8.453zm-1.563-10.695c0-.234.07-.432.21-.594s.36-.242.64-.242.494.08.64.242.22.36.22.594-.073.43-.22.586-.36.234-.64.234-.495-.078-.64-.234-.21-.352-.21-.586zm5.242 2.242l.04.938c.62-.73 1.456-1.094 2.508-1.094 1.182 0 1.987.453 2.414 1.36.28-.406.646-.734 1.094-.984s.987-.375 1.602-.375c1.854 0 2.796.982 2.828 2.945v5.664h-1.446v-5.578c0-.604-.138-1.055-.414-1.35-.276-.302-.74-.454-1.4-.454-.537 0-.982.162-1.336.485s-.56.747-.617 1.29v5.61h-1.454v-5.54c0-1.23-.6-1.844-1.804-1.844-.948 0-1.597.404-1.946 1.21v6.172h-1.445v-8.453h1.367zm17.89 8.453c-.083-.166-.15-.463-.203-.9-.672.698-1.474 1.047-2.406 1.047-.834 0-1.52-.235-2.055-.704-.53-.474-.797-1.073-.797-1.796 0-.88.333-1.563 1-2.047.672-.5 1.615-.735 2.828-.735h1.406v-.664c0-.505-.15-.906-.453-1.203s-.747-.453-1.336-.453c-.515 0-.948.13-1.297.39s-.523.575-.523.945h-1.453c0-.422.148-.828.445-1.22s.708-.708 1.22-.937 1.08-.344 1.695-.344c.974 0 1.737.245 2.29.734s.84 1.154.86 2.008v3.89c0 .776.1 1.393.297 1.85v.125h-1.516zm-2.4-1.1c.454 0 .883-.117 1.3-.352s.7-.54.882-.914v-1.734h-1.132c-1.77 0-2.657.518-2.657 1.554 0 .454.15.808.453 1.063s.7.383 1.164.383zm7.844-9.4v2.047h1.578v1.117h-1.578V389c0 .338.07.593.21.765s.38.25.72.25c.167 0 .396-.03.687-.094v1.172c-.38.104-.75.157-1.11.157-.646 0-1.133-.196-1.46-.586s-.492-.946-.492-1.664v-5.243h-1.54v-1.117h1.54v-2.047h1.445zm6.78 10.657c-1.145 0-2.078-.375-2.796-1.125-.72-.756-1.08-1.763-1.08-3.024v-.266c0-.838.16-1.585.477-2.242s.77-1.177 1.344-1.547a3.38 3.38 0 0 1 1.875-.562c1.1 0 1.953.362 2.562 1.086s.914 1.76.914 3.11v.602h-5.726c.02.833.263 1.508.726 2.023.47.51 1.063.766 1.782.766.5 0 .942-.104 1.296-.313a3.23 3.23 0 0 0 .93-.828l.883.688c-.708 1.088-1.77 1.633-3.188 1.633zm-.18-7.58a1.92 1.92 0 0 0-1.469.641c-.396.422-.64 1.016-.734 1.78h4.234v-.11c-.042-.734-.24-1.302-.594-1.703s-.833-.6-1.437-.6z"/></g><path d="M775.058 200.9c0 1.253-.2 2.35-.633 3.287-.422.93-1.02 1.643-1.793 2.135s-1.676.74-2.707.74c-1.008 0-1.902-.246-2.68-.74s-1.386-1.204-1.82-2.118c-.428-.92-.648-1.983-.66-3.2v-.923c0-1.23.213-2.317.64-3.26s1.03-1.664 1.8-2.162c.785-.504 1.68-.756 2.7-.756 1.026 0 1.928.25 2.707.747.785.492 1.4 1.2 1.8 2.154.422.937.633 2.03.633 3.278v.8zm-1.68-.827c0-1.517-.305-2.68-.914-3.5s-1.462-1.222-2.558-1.222c-1.066 0-1.907.408-2.522 1.222s-.923 1.934-.94 3.375v.94c0 1.47.308 2.627.923 3.47s1.474 1.257 2.558 1.257c1.1 0 1.933-.395 2.53-1.186.598-.797.905-1.937.923-3.42v-.95zm4.755 6.812v-8.253h-1.503v-1.257h1.503v-.975c0-1.02.272-1.808.817-2.365s1.316-.835 2.312-.835a4.25 4.25 0 0 1 1.116.15l-.088 1.318c-.275-.053-.568-.08-.88-.08-.527 0-.934.155-1.222.466-.287.304-.43.744-.43 1.318v1.002h3.515v-.808c0-1.06.302-1.887.906-2.48s1.467-.888 2.575-.888c.656 0 1.485.18 2.487.536l-.272 1.372c-.733-.293-1.433-.44-2.1-.44-.697 0-1.2.155-1.512.466-.304.3-.457.782-.457 1.415v.826h1.952v1.257H784.9v8.253h-1.626v-8.253h-3.515v8.253h-1.626zm11.9 0h-1.626v-9.5h1.626v9.5zm6.47-1.15c.58 0 1.087-.176 1.52-.528s.674-.8.72-1.318h1.538c-.03.545-.217 1.063-.562 1.555s-.8.885-1.4 1.178a3.97 3.97 0 0 1-1.828.44c-1.295 0-2.326-.43-3.094-1.292-.762-.868-1.143-2.05-1.143-3.55v-.273c0-.925.17-1.75.5-2.47a3.84 3.84 0 0 1 1.46-1.68c.64-.398 1.392-.598 2.26-.598 1.066 0 1.95.32 2.654.958.7.64 1.087 1.468 1.134 2.488h-1.538c-.047-.616-.28-1.12-.703-1.512-.416-.4-.932-.598-1.547-.598-.826 0-1.468.3-1.925.897-.45.592-.677 1.45-.677 2.575v.308c0 1.095.226 1.94.677 2.53s1.096.888 1.934.888zm9.553 1.327c-1.3 0-2.337-.422-3.146-1.266-.8-.85-1.213-1.983-1.213-3.4v-.3c0-.944.18-1.784.536-2.523.363-.744.867-1.324 1.512-1.74a3.8 3.8 0 0 1 2.109-.633c1.237 0 2.198.408 2.883 1.222s1.028 1.98 1.028 3.498v.677h-6.442c.023.937.296 1.696.817 2.276.528.574 1.196.862 2.004.862.575 0 1.06-.118 1.46-.352a3.64 3.64 0 0 0 1.046-.932l.993.774c-.797 1.224-1.992 1.837-3.586 1.837zm-.202-8.526a2.16 2.16 0 0 0-1.652.721c-.445.475-.72 1.143-.826 2.004h4.763v-.123c-.046-.826-.27-1.465-.668-1.916-.398-.457-.937-.686-1.617-.686zm182.622 4.887h-4.3v-1.327h4.3v1.327zm7.884 1.477a1.86 1.86 0 0 0-.57-1.363c-.375-.37-1-.703-1.907-1.002-1.248-.38-2.16-.876-2.734-1.485-.568-.615-.852-1.394-.852-2.338 0-.96.278-1.75.835-2.364s1.333-.982 2.3-1.1v-1.925h1.3v1.934c.984.135 1.75.548 2.294 1.24.55.692.826 1.638.826 2.84h-1.617c0-.826-.197-1.482-.6-1.97s-.923-.73-1.6-.73c-.697 0-1.23.182-1.6.545-.37.357-.553.858-.553 1.503 0 .597.193 1.075.58 1.432s1.034.674 1.925.967c.896.287 1.593.607 2.1.958.504.346.873.75 1.108 1.213s.36 1.005.36 1.626c0 1-.3 1.787-.896 2.4s-1.424.96-2.496 1.072v1.68h-1.3v-1.68c-1.1-.1-1.945-.486-2.567-1.16-.615-.68-.922-1.6-.922-2.76h1.626c0 .815.213 1.44.64 1.88s1.034.66 1.82.66c.767 0 1.37-.184 1.8-.554s.66-.873.66-1.5zm9 3.296h-1.63V197.36l-3.28 1.204v-1.477l4.66-1.75h.25v12.86zm12.8-5.458c0 1.904-.33 3.32-.98 4.245s-1.66 1.388-3.05 1.388c-1.36 0-2.37-.45-3.03-1.353-.65-.908-1-2.262-1.02-4.06v-2.17c0-1.88.33-3.278.98-4.192s1.67-1.37 3.06-1.37c1.37 0 2.4.442 3.04 1.327.65.88.98 2.238 1 4.078v2.1zm-1.63-2.224c0-1.377-.2-2.38-.58-3.006-.38-.633-1-.95-1.83-.95-.84 0-1.44.313-1.82.94s-.58 1.6-.6 2.892v2.6c0 1.383.2 2.406.6 3.068.4.656 1 .984 1.82.984s1.4-.3 1.8-.93.6-1.6.6-2.936v-2.663zm-95.482 4.386a1.86 1.86 0 0 0-.57-1.363c-.375-.37-1-.703-1.907-1.002-1.248-.38-2.16-.876-2.734-1.485-.568-.615-.852-1.394-.852-2.338 0-.96.278-1.75.835-2.364s1.333-.982 2.3-1.1v-1.925h1.3v1.934c.984.135 1.75.548 2.294 1.24s.826 1.638.826 2.84h-1.617c0-.826-.197-1.482-.6-1.97s-.923-.73-1.6-.73c-.697 0-1.23.182-1.6.545-.37.357-.553.858-.553 1.503 0 .597.193 1.075.58 1.432s1.034.674 1.925.967c.896.287 1.593.607 2.1.958.504.346.873.75 1.108 1.213.24.463.36 1.005.36 1.626 0 1-.3 1.787-.896 2.4s-1.424.96-2.496 1.072v1.68h-1.3v-1.68c-1.1-.1-1.946-.486-2.567-1.16-.615-.68-.922-1.6-.922-2.76h1.626c0 .815.213 1.44.64 1.88s1.034.66 1.82.66c.768 0 1.372-.184 1.8-.554s.66-.873.66-1.5zm9 3.296h-1.634V197.36l-3.28 1.204v-1.477l4.658-1.75h.255v12.86zm12.788-5.458c0 1.904-.325 3.32-.975 4.245s-1.667 1.388-3.05 1.388c-1.365 0-2.376-.45-3.032-1.353s-.996-2.262-1.02-4.06v-2.17c0-1.88.326-3.278.976-4.192s1.67-1.37 3.058-1.37c1.377 0 2.4.442 3.042 1.327s.984 2.238 1 4.078v2.1zm-1.626-2.224c0-1.377-.193-2.38-.58-3.006-.386-.633-1-.95-1.837-.95s-1.438.313-1.82.94-.577 1.6-.6 2.892v2.6c0 1.383.2 2.406.598 3.068.404.656 1.014.984 1.828.984.803 0 1.398-.3 1.784-.93.393-.622.598-1.6.615-2.936v-2.663z" class="B"/><circle cx="739.653" cy="201.196" r="4.758" class="F"/><path d="M774.056 259.697h-4.114v11.408h-1.678v-11.408h-4.105v-1.4h9.897v1.4zm3.4 11.408h-1.626v-9.5h1.626v9.5zm-1.758-12.032c0-.264.08-.486.237-.668.164-.182.405-.273.72-.273s.557.1.72.273a.96.96 0 0 1 .246.668c0 .264-.082.483-.246.66s-.405.264-.72.264-.557-.088-.72-.264-.237-.395-.237-.66zm5.897 2.522l.044 1.055c.698-.82 1.638-1.23 2.822-1.23 1.33 0 2.235.5 2.716 1.53.316-.457.726-.826 1.23-1.108s1.1-.42 1.802-.42c2.086 0 3.146 1.104 3.18 3.313v6.372h-1.626v-6.275c0-.68-.155-1.187-.465-1.52-.3-.34-.832-.5-1.565-.5-.603 0-1.104.182-1.503.545s-.63.84-.694 1.45v6.3H785.9v-6.23c0-1.383-.677-2.075-2.03-2.075-1.067 0-1.796.455-2.2 1.363v6.943h-1.626v-9.5h1.538zm18.203 9.686c-1.3 0-2.338-.422-3.147-1.266s-1.213-1.983-1.213-3.4v-.3c0-.943.18-1.784.536-2.522.364-.745.868-1.325 1.512-1.74a3.8 3.8 0 0 1 2.109-.632c1.237 0 2.198.407 2.883 1.22s1.03 1.98 1.03 3.498v.677h-6.443c.024.938.296 1.696.818 2.276s1.195.862 2.004.862c.574 0 1.06-.117 1.458-.352a3.65 3.65 0 0 0 1.046-.931l.994.773c-.797 1.225-1.993 1.837-3.586 1.837zm-.203-8.526a2.16 2.16 0 0 0-1.652.721c-.445.475-.72 1.143-.826 2.004h4.764v-.123c-.047-.826-.27-1.465-.668-1.916-.4-.457-.938-.686-1.618-.686zm9.185 3.578h-4.3v-1.328h4.3v1.328zm1.16-.07c0-.93.182-1.77.545-2.513.37-.744.88-1.32 1.53-1.723.657-.404 1.404-.606 2.242-.606 1.295 0 2.34.448 3.137 1.344.803.897 1.204 2.1 1.204 3.577v.115c0 .925-.178 1.758-.536 2.496-.35.732-.858 1.303-1.52 1.714-.656.4-1.412.615-2.268.615-1.3 0-2.335-.448-3.137-1.345s-1.196-2.083-1.196-3.56v-.115zm1.635.194c0 1.054.243 1.9.73 2.54a2.36 2.36 0 0 0 1.969.958 2.34 2.34 0 0 0 1.97-.967c.486-.65.73-1.56.73-2.725 0-1.043-.25-1.886-.747-2.53-.492-.65-1.148-.976-1.968-.976-.803 0-1.45.32-1.943.96s-.738 1.552-.738 2.742zm9.86 4.65v-8.253h-1.503v-1.257h1.503v-.975c0-1.02.273-1.808.818-2.365s1.315-.834 2.3-.834a4.25 4.25 0 0 1 1.116.149l-.087 1.318a4.74 4.74 0 0 0-.879-.079c-.528 0-.935.155-1.222.466-.287.305-.43.744-.43 1.318v1.002h2.03v1.257h-2.03v8.253h-1.626zm6.258 0v-8.253H826.2v-1.257h1.503v-.975c0-1.02.273-1.808.817-2.365s1.316-.834 2.312-.834a4.25 4.25 0 0 1 1.116.149l-.088 1.318c-.275-.052-.568-.08-.88-.08-.527 0-.934.155-1.22.466-.287.305-.43.744-.43 1.318v1.002h2.03v1.257h-2.03v8.253h-1.626zm160.763-3.464h-4.3v-1.327h4.3v1.327zm7.884 1.477a1.82 1.82 0 0 0-.571-1.362c-.375-.37-1-.704-1.907-1.002-1.248-.38-2.16-.876-2.734-1.486-.568-.615-.852-1.394-.852-2.338 0-.96.278-1.75.835-2.364s1.333-.98 2.3-1.1v-1.924h1.3v1.933c.984.135 1.75.548 2.294 1.24.55.7.826 1.637.826 2.838h-1.617c0-.826-.197-1.482-.6-1.968s-.923-.73-1.6-.73c-.697 0-1.23.182-1.6.545-.37.357-.553.858-.553 1.503 0 .598.193 1.075.58 1.433.392.35 1.034.673 1.924.966.897.288 1.594.607 2.092.958.504.346.873.75 1.108 1.213s.36 1.005.36 1.626c0 1-.3 1.787-.896 2.4s-1.424.96-2.497 1.072v1.68h-1.3v-1.68c-1.1-.1-1.946-.486-2.567-1.16-.615-.68-.923-1.6-.923-2.76h1.626c0 .815.214 1.442.642 1.88s1.034.66 1.82.66c.768 0 1.37-.184 1.8-.553s.66-.873.66-1.512zm12.03 3.296h-8.382v-1.17l4.432-4.922c.65-.744 1.1-1.348 1.35-1.8.25-.468.38-.952.38-1.45 0-.668-.2-1.216-.6-1.643s-.94-.642-1.6-.642c-.8 0-1.44.23-1.9.694-.45.457-.67 1.096-.67 1.916h-1.63c0-1.177.38-2.13 1.14-2.856s1.77-1.1 3.05-1.1c1.18 0 2.12.314 2.82.94.7.62 1.03 1.45 1.03 2.487 0 1.26-.8 2.76-2.4 4.5l-3.43 3.718h6.42v1.327zm9.75-5.458c0 1.904-.33 3.32-.98 4.245s-1.66 1.4-3.05 1.4c-1.36 0-2.37-.452-3.03-1.354-.65-.908-1-2.262-1.02-4.06v-2.17c0-1.88.33-3.28.98-4.193s1.67-1.37 3.06-1.37c1.37 0 2.4.442 3.04 1.327.65.88.98 2.24 1 4.078v2.1zm-1.63-2.224c0-1.377-.2-2.38-.58-3.006-.38-.633-1-.95-1.83-.95-.84 0-1.44.314-1.82.94s-.58 1.6-.6 2.892v2.602c0 1.382.2 2.405.6 3.067.4.656 1 .984 1.82.984s1.4-.3 1.8-.93.6-1.6.6-2.936v-2.663zm-95.432 4.386a1.82 1.82 0 0 0-.571-1.362c-.375-.37-1-.704-1.907-1.002-1.248-.38-2.16-.876-2.734-1.486-.568-.615-.852-1.394-.852-2.338 0-.96.278-1.75.835-2.364s1.333-.98 2.3-1.1v-1.924h1.3v1.933c.984.135 1.75.548 2.294 1.24s.826 1.637.826 2.838h-1.617c0-.826-.197-1.482-.6-1.968s-.923-.73-1.6-.73c-.697 0-1.23.182-1.6.545-.37.357-.553.858-.553 1.503 0 .598.193 1.075.58 1.433.392.35 1.034.673 1.925.966s1.593.607 2.1.958c.504.346.873.75 1.108 1.213.24.463.36 1.005.36 1.626 0 1-.3 1.787-.896 2.4s-1.424.96-2.496 1.072v1.68h-1.3v-1.68c-1.1-.1-1.946-.486-2.567-1.16-.615-.68-.923-1.6-.923-2.76h1.626c0 .815.214 1.442.642 1.88s1.034.66 1.82.66c.768 0 1.37-.184 1.8-.553s.66-.873.66-1.512zm12.032 3.296h-8.384v-1.17l4.43-4.922c.657-.744 1.108-1.348 1.354-1.8.252-.468.378-.952.378-1.45 0-.668-.202-1.216-.607-1.643s-.943-.642-1.617-.642c-.8 0-1.438.23-1.9.694-.445.457-.668 1.096-.668 1.916h-1.626c0-1.177.378-2.13 1.134-2.856.762-.727 1.78-1.1 3.05-1.1 1.2 0 2.13.314 2.82.94.692.62 1.037 1.45 1.037 2.487 0 1.26-.802 2.76-2.408 4.5l-3.427 3.718h6.424v1.327zm9.747-5.458c0 1.904-.325 3.32-.975 4.245s-1.667 1.4-3.05 1.4c-1.365 0-2.376-.452-3.032-1.354-.656-.908-.996-2.262-1.02-4.06v-2.17c0-1.88.325-3.28.976-4.193s1.67-1.37 3.058-1.37c1.377 0 2.4.442 3.04 1.327s.985 2.24 1.002 4.078v2.1zm-1.626-2.224c0-1.377-.193-2.38-.58-3.006-.386-.633-1-.95-1.837-.95s-1.438.314-1.82.94-.577 1.6-.6 2.892v2.602c0 1.382.2 2.405.598 3.067.404.656 1.014.984 1.828.984.803 0 1.397-.3 1.784-.93.393-.62.598-1.6.615-2.936v-2.663z" class="B"/><circle cx="739.22" cy="266.578" r="4.758" class="G"/><path d="M766.9 329.005v5h-1.687V321.22h4.72c1.4 0 2.496.357 3.287 1.072.797.715 1.195 1.66 1.195 2.84 0 1.242-.4 2.2-1.17 2.874-.773.668-1.884 1.002-3.33 1.002H766.9zm0-1.38h3.033c.902 0 1.593-.2 2.074-.633s.72-1.043.72-1.846c0-.76-.24-1.37-.72-1.828s-1.14-.694-1.978-.712h-3.13v5.02zm14-1.66c-.246-.04-.513-.062-.8-.062-1.066 0-1.8.454-2.17 1.362v6.75h-1.626v-9.5h1.582l.027 1.098c.533-.85 1.3-1.274 2.267-1.274.317 0 .557.04.72.123v1.512zm.897 3.208c0-.932.18-1.77.545-2.514s.878-1.318 1.53-1.723 1.403-.606 2.24-.606c1.295 0 2.34.448 3.138 1.345s1.204 2.088 1.204 3.577v.114c0 .926-.18 1.758-.536 2.496s-.86 1.304-1.52 1.714c-.656.4-1.412.615-2.267.615-1.3 0-2.335-.448-3.138-1.345-.797-.896-1.195-2.083-1.195-3.56v-.114zm1.634.193c0 1.055.244 1.9.73 2.54.492.64 1.148.958 1.97.958s1.482-.322 1.968-.967.73-1.558.73-2.724c0-1.043-.25-1.887-.747-2.532s-1.15-.975-1.97-.975a2.33 2.33 0 0 0-1.942.958c-.493.638-.74 1.553-.74 2.742zm10.74-4.86v10.608c0 1.828-.83 2.742-2.488 2.742a3.03 3.03 0 0 1-.993-.158v-1.3c.188.047.434.07.738.07.364 0 .64-.1.827-.3s.3-.533.3-1.02v-10.643h1.626zm-1.793-2.523a.97.97 0 0 1 .237-.659c.164-.188.4-.28.712-.28s.557.1.72.272.246.405.246.668-.082.484-.246.66-.405.264-.72.264-.554-.088-.712-.264-.237-.395-.237-.66zm8.367 12.208c-1.3 0-2.338-.422-3.147-1.265-.808-.85-1.213-1.984-1.213-3.402v-.3c0-.943.18-1.784.537-2.522.363-.744.867-1.324 1.5-1.74.65-.422 1.354-.633 2.1-.633 1.236 0 2.197.407 2.883 1.222s1.028 1.98 1.028 3.498v.676H798c.024.938.296 1.697.818 2.277a2.6 2.6 0 0 0 2.004.861c.574 0 1.06-.117 1.46-.352a3.66 3.66 0 0 0 1.046-.93l.993.773c-.797 1.225-1.992 1.837-3.586 1.837zm-.202-8.525c-.657 0-1.207.24-1.653.72s-.72 1.143-.826 2.004h4.764v-.123c-.047-.826-.27-1.464-.668-1.916s-.938-.685-1.617-.685zm9.615 7.198c.58 0 1.087-.176 1.52-.527a1.85 1.85 0 0 0 .72-1.32h1.538c-.03.545-.217 1.064-.562 1.556s-.8.885-1.4 1.178a3.97 3.97 0 0 1-1.828.44c-1.295 0-2.326-.43-3.094-1.292-.762-.867-1.142-2.05-1.142-3.55v-.272c0-.926.17-1.75.5-2.47s.827-1.28 1.46-1.678c.64-.4 1.392-.598 2.26-.598 1.067 0 1.95.32 2.654.958.7.64 1.087 1.468 1.134 2.487H812.4c-.047-.615-.28-1.12-.703-1.512-.416-.398-.932-.597-1.547-.597-.826 0-1.468.3-1.925.896-.45.592-.676 1.45-.676 2.575v.308c0 1.096.225 1.94.676 2.53s1.096.888 1.934.888zm7.813-10.66v2.303h1.776v1.256h-1.776v5.898c0 .38.08.668.238.86s.427.282.808.282c.188 0 .446-.036.774-.106v1.318c-.428.118-.844.176-1.248.176-.727 0-1.275-.22-1.644-.66s-.554-1.063-.554-1.872v-5.898h-1.73v-1.256h1.73v-2.303h1.626zm12.578 3.92l3.067-4.904h1.986l-4.043 6.345 4.14 6.45h-2.004l-3.146-4.992-3.165 4.992H825.4l4.15-6.45-4.052-6.345h1.978l3.085 4.904zm165.59 5.906a1.82 1.82 0 0 0-.571-1.362c-.375-.37-1-.703-1.907-1.002-1.248-.38-2.16-.876-2.734-1.486-.568-.615-.852-1.394-.852-2.337 0-.96.278-1.75.835-2.365s1.333-.98 2.3-1.098v-1.925h1.3v1.933c.984.135 1.75.548 2.294 1.24.55.7.826 1.637.826 2.84h-1.617c0-.827-.197-1.483-.6-1.97s-.923-.73-1.6-.73c-.697 0-1.23.182-1.6.545s-.553.86-.553 1.503c0 .598.193 1.075.58 1.433.392.35 1.034.674 1.925.967.896.287 1.593.606 2.1.958.504.345.873.75 1.108 1.212s.36 1.005.36 1.626c0 1-.3 1.788-.896 2.4s-1.424.96-2.496 1.072v1.68h-1.3v-1.68c-1.1-.1-1.946-.486-2.567-1.16-.615-.68-.922-1.6-.922-2.76h1.626c0 .815.213 1.442.64 1.88s1.034.66 1.82.66c.768 0 1.372-.184 1.8-.553s.66-.873.66-1.512zm10.03-9.5v1.38h-.3c-1.27.024-2.27.4-3.02 1.125s-1.2 1.75-1.3 3.068c.68-.774 1.6-1.16 2.76-1.16 1.12 0 2 .393 2.67 1.178s1 1.8 1 3.04c0 1.32-.36 2.373-1.08 3.164s-1.68 1.187-2.88 1.187c-1.23 0-2.22-.47-2.98-1.407-.77-.943-1.147-2.156-1.147-3.638v-.624c0-2.356.497-4.155 1.507-5.397 1-1.248 2.5-1.886 4.5-1.916h.3zm-2.14 5.766c-.55 0-1.07.167-1.54.5a2.58 2.58 0 0 0-.97 1.257v.597c0 1.055.24 1.905.7 2.55s1.07.967 1.78.967c.73 0 1.3-.27 1.72-.8s.63-1.245.63-2.118c0-.88-.2-1.588-.64-2.127a2.03 2.03 0 0 0-1.69-.817zm13.9 1.582c0 1.904-.33 3.32-.98 4.245s-1.66 1.4-3.05 1.4c-1.36 0-2.37-.45-3.03-1.354s-1-2.262-1.02-4.06v-2.17c0-1.88.33-3.28.98-4.193s1.67-1.37 3.06-1.37c1.37 0 2.4.443 3.04 1.327s.98 2.24 1 4.08v2.1zm-1.63-2.224c0-1.377-.2-2.38-.58-3.006-.38-.632-1-.95-1.83-.95-.84 0-1.44.314-1.82.94s-.58 1.6-.6 2.9v2.602c0 1.383.2 2.405.6 3.067.4.656 1.02.985 1.83.985s1.4-.3 1.8-.932.6-1.6.6-2.936v-2.663zm-95.242 4.376a1.82 1.82 0 0 0-.571-1.362c-.375-.37-1-.703-1.907-1.002-1.248-.38-2.16-.876-2.734-1.486-.568-.615-.852-1.394-.852-2.337 0-.96.278-1.75.835-2.365s1.333-.98 2.3-1.098v-1.925h1.3v1.933c.984.135 1.75.548 2.294 1.24s.826 1.637.826 2.84h-1.617c0-.827-.197-1.483-.6-1.97s-.923-.73-1.6-.73c-.697 0-1.23.182-1.6.545s-.553.86-.553 1.503c0 .598.193 1.075.58 1.433.392.35 1.034.674 1.925.967.896.287 1.593.606 2.1.958.504.345.873.75 1.108 1.212.24.463.36 1.005.36 1.626 0 1-.3 1.788-.896 2.4s-1.424.96-2.496 1.072v1.68h-1.3v-1.68c-1.1-.1-1.946-.486-2.567-1.16-.615-.68-.922-1.6-.922-2.76h1.626c0 .815.213 1.442.64 1.88s1.034.66 1.82.66c.768 0 1.372-.184 1.8-.553s.66-.873.66-1.512zm12.032 3.296h-8.384v-1.17l4.43-4.922c.657-.744 1.108-1.348 1.354-1.8a3.03 3.03 0 0 0 .378-1.451c0-.668-.202-1.215-.607-1.643s-.943-.642-1.617-.642c-.808 0-1.438.232-1.9.695-.445.457-.667 1.095-.667 1.916h-1.626c0-1.178.377-2.13 1.133-2.857.762-.726 1.78-1.1 3.05-1.1 1.2 0 2.13.314 2.82.94.692.62 1.038 1.45 1.038 2.487 0 1.26-.803 2.76-2.4 4.5l-3.427 3.718h6.424v1.327zm9.747-5.458c0 1.904-.325 3.32-.975 4.245s-1.667 1.4-3.05 1.4c-1.365 0-2.376-.45-3.032-1.354s-.996-2.262-1.02-4.06v-2.17c0-1.88.326-3.28.976-4.193s1.67-1.37 3.058-1.37c1.377 0 2.4.443 3.042 1.327s.984 2.24 1 4.08v2.1zm-1.626-2.224c0-1.377-.193-2.38-.58-3.006s-1-.95-1.837-.95-1.438.314-1.82.94-.577 1.6-.6 2.9v2.602c0 1.383.2 2.405.598 3.067.404.656 1.014.985 1.828.985.803 0 1.398-.3 1.784-.932.393-.62.598-1.6.615-2.936v-2.663z" class="B"/><circle cx="739.653" cy="329.636" r="4.758" class="H"/><rect x="730.567" y="83.567" width="32.892" height="17.013" rx="8.507" stroke="#03a9f4" stroke-width="1.134" class="D"/><path d="M754.953 98.88c3.758 0 6.805-3.047 6.805-6.805s-3.047-6.805-6.805-6.805-6.806 3.047-6.806 6.805 3.047 6.805 6.806 6.805z" class="C"/><g fill="#999"><path d="M780.86 93.398h-2.672V98h-1.508V86.625h3.766c1.28 0 2.265.292 2.953.875s1.04 1.432 1.04 2.547c0 .708-.193 1.326-.578 1.852s-.912.92-1.594 1.18l2.672 4.828V98h-1.61l-2.47-4.602zm-2.672-1.227h2.305c.744 0 1.336-.193 1.773-.578.443-.386.664-.9.664-1.547 0-.703-.21-1.242-.633-1.617-.416-.375-1.02-.565-1.812-.57h-2.297v4.313zm7.75 1.523c0-.828.16-1.573.484-2.234s.782-1.172 1.36-1.53 1.247-.54 1.992-.54c1.15 0 2.08.398 2.79 1.195.714.797 1.07 1.857 1.07 3.18v.102c0 .823-.16 1.563-.476 2.22a3.56 3.56 0 0 1-1.352 1.523c-.583.365-1.255.547-2.015.547-1.146 0-2.076-.398-2.8-1.195-.708-.797-1.062-1.852-1.062-3.164v-.102zm1.453.172c0 .938.216 1.7.65 2.258s1.02.852 1.75.852 1.317-.287 1.75-.86c.432-.578.648-1.385.648-2.422 0-.927-.22-1.677-.664-2.25-.438-.578-1.02-.867-1.75-.867-.714 0-1.29.284-1.727.852s-.656 1.38-.656 2.438zm13.274 3.297c-.563.66-1.388.992-2.477.992-.9 0-1.59-.26-2.063-.78-.468-.526-.705-1.302-.7-2.328v-5.5h1.445v5.46c0 1.28.52 1.922 1.562 1.922 1.105 0 1.84-.412 2.203-1.234v-6.148h1.446V98h-1.375l-.03-.836zm4.976-7.617l.047 1.063c.646-.812 1.5-1.22 2.53-1.22 1.787 0 2.688 1.008 2.703 3.023V98h-1.445v-5.594c-.005-.61-.146-1.06-.422-1.352s-.695-.437-1.273-.437c-.47 0-.88.125-1.235.375s-.63.578-.828.984V98h-1.445v-8.453h1.367zm7.11 4.156c0-1.297.308-2.34.922-3.125a2.91 2.91 0 0 1 2.414-1.187c1 0 1.774.34 2.352 1.016V86h1.445v12h-1.328l-.07-.906c-.578.708-1.383 1.062-2.414 1.062-.98 0-1.78-.4-2.4-1.203-.614-.802-.922-1.85-.922-3.14v-.11zm1.446.164c0 .958.198 1.708.594 2.25s.942.813 1.64.813c.917 0 1.586-.412 2.008-1.234v-3.883a2.12 2.12 0 0 0-1.992-1.195c-.71 0-1.26.273-1.656.82s-.594 1.357-.594 2.43zm17.125 3.297c-.563.66-1.388.992-2.477.992-.9 0-1.588-.26-2.062-.78-.47-.526-.706-1.302-.71-2.328v-5.5h1.445v5.46c0 1.28.52 1.922 1.563 1.922 1.104 0 1.838-.412 2.203-1.234v-6.148h1.445V98h-1.375l-.03-.836zm10.75-3.297c0 1.286-.294 2.323-.883 3.11s-1.385 1.18-2.39 1.18c-1.026 0-1.833-.326-2.422-.977v4.07h-1.445V89.547h1.32l.07.938c.588-.73 1.406-1.094 2.453-1.094 1.016 0 1.818.383 2.406 1.148.594.766.89 1.83.89 3.195v.133zm-1.446-.164c0-.953-.203-1.706-.61-2.258a1.96 1.96 0 0 0-1.672-.828c-.875 0-1.53.388-1.97 1.164v4.04c.433.77 1.094 1.156 1.985 1.156.693 0 1.242-.273 1.648-.82.412-.552.617-1.37.617-2.453zm9.22-6.203v2.047h1.578v1.117h-1.578v5.242c0 .34.07.594.21.766.14.167.38.25.72.25.167 0 .396-.03.687-.094V98c-.38.104-.75.156-1.11.156-.646 0-1.133-.195-1.46-.586s-.492-.945-.492-1.664v-5.242h-1.54v-1.117h1.54V87.5h1.445zm2.735 6.195c0-.828.16-1.573.484-2.234.328-.66.78-1.172 1.36-1.53.584-.36 1.248-.54 1.993-.54 1.15 0 2.08.398 2.79 1.195s1.07 1.857 1.07 3.18v.102c0 .823-.16 1.563-.477 2.22-.312.65-.763 1.16-1.35 1.523s-1.255.547-2.016.547c-1.146 0-2.075-.398-2.79-1.195-.708-.797-1.062-1.852-1.062-3.164v-.102zm1.453.172c0 .938.216 1.7.648 2.258.438.568 1.02.852 1.75.852.735 0 1.318-.287 1.75-.86.432-.578.65-1.385.65-2.422 0-.927-.222-1.677-.664-2.25-.438-.578-1.02-.867-1.75-.867-.714 0-1.3.284-1.727.852s-.656 1.38-.656 2.438zM870.658 98h-1.453v-9.633l-2.914 1.07v-1.312l4.14-1.555h.227V98zm4.898-5.703l.578-5.672h5.828v1.336h-4.6l-.344 3.102c.557-.328 1.2-.492 1.9-.492 1.036 0 1.86.344 2.468 1.03.6.682.914 1.607.914 2.773 0 1.172-.317 2.096-.953 2.773-.63.672-1.513 1.008-2.648 1.008-1.005 0-1.826-.28-2.46-.836s-.998-1.328-1.086-2.312h1.367c.09.65.32 1.143.695 1.477.375.328.87.492 1.485.492.672 0 1.198-.23 1.578-.687s.578-1.09.578-1.898c0-.76-.208-1.37-.625-1.828-.41-.463-.96-.695-1.648-.695-.63 0-1.125.138-1.485.414l-.383.313-1.156-.297zm13.797-2.75l.04.938c.62-.73 1.456-1.094 2.508-1.094 1.182 0 1.987.453 2.414 1.36a3.21 3.21 0 0 1 1.094-.984c.453-.25.987-.375 1.6-.375 1.854 0 2.797.982 2.828 2.945V98h-1.445v-5.578c0-.604-.138-1.055-.414-1.352-.276-.302-.74-.453-1.39-.453-.536 0-.98.16-1.336.484-.354.318-.56.747-.617 1.29V98h-1.453v-5.54c0-1.23-.6-1.844-1.805-1.844-.947 0-1.596.404-1.945 1.21V98h-1.445v-8.453h1.367zM903.595 98h-1.445v-8.453h1.445V98zm-1.562-10.695a.87.87 0 0 1 .211-.594c.145-.16.36-.242.64-.242s.495.08.64.242.22.36.22.594-.073.43-.22.586-.36.234-.64.234-.495-.078-.64-.234a.84.84 0 0 1-.211-.586zm5.25 2.242l.047 1.063c.645-.812 1.49-1.22 2.53-1.22 1.786 0 2.687 1.008 2.703 3.023V98h-1.445v-5.594c-.006-.61-.146-1.06-.422-1.352s-.696-.437-1.274-.437c-.468 0-.88.125-1.234.375s-.63.578-.828.984V98h-1.445v-8.453h1.367zm12.68 7.617c-.562.66-1.388.992-2.476.992-.9 0-1.59-.26-2.063-.78-.468-.526-.705-1.302-.71-2.328v-5.5h1.446v5.46c0 1.28.52 1.922 1.562 1.922 1.104 0 1.84-.412 2.203-1.234v-6.148h1.446V98h-1.375l-.032-.836zm5.57-9.664v2.047h1.578v1.117h-1.578v5.242c0 .34.07.594.21.766.14.167.38.25.718.25.167 0 .396-.03.688-.094V98c-.38.104-.75.156-1.11.156-.646 0-1.133-.195-1.46-.586s-.493-.945-.493-1.664v-5.242h-1.54v-1.117h1.54V87.5h1.446zm6.78 10.656c-1.146 0-2.078-.375-2.797-1.125-.72-.755-1.078-1.763-1.078-3.023v-.266c0-.84.16-1.586.477-2.242.322-.662.77-1.177 1.343-1.547a3.38 3.38 0 0 1 1.875-.562c1.1 0 1.953.362 2.563 1.086s.914 1.76.914 3.11v.602h-5.727c.02.833.263 1.508.727 2.023.47.51 1.062.766 1.78.766.51 0 .943-.104 1.297-.312s.664-.484.93-.828l.882.688c-.708 1.09-1.77 1.633-3.187 1.633zm-.18-7.578a1.92 1.92 0 0 0-1.468.641c-.396.422-.64 1.016-.735 1.78h4.235v-.11c-.042-.734-.24-1.302-.594-1.703-.354-.406-.834-.61-1.438-.61zm10.078 5.18c0-.39-.148-.693-.445-.906-.292-.22-.805-.406-1.54-.562-.73-.156-1.3-.344-1.742-.562s-.745-.48-.953-.78-.305-.66-.305-1.078c0-.693.292-1.28.875-1.758.59-.48 1.34-.72 2.25-.72.958 0 1.734.247 2.328.742a2.35 2.35 0 0 1 .899 1.898h-1.454c0-.396-.17-.737-.507-1.023s-.756-.43-1.266-.43c-.526 0-.937.115-1.234.344a1.08 1.08 0 0 0-.446.898c0 .35.138.612.414.79s.774.346 1.493.508 1.31.354 1.757.578.78.495.993.813c.218.313.328.695.328 1.148a2.17 2.17 0 0 1-.907 1.82c-.604.453-1.388.68-2.35.68-.677 0-1.276-.12-1.797-.36s-.93-.573-1.227-1c-.29-.432-.437-.898-.437-1.398h1.445c.026.484.22.87.578 1.156.365.28.844.422 1.438.422.547 0 .984-.11 1.312-.328.334-.224.5-.52.5-.89z"/><path d="M121.828 96.67h5.39v1.227h-6.9V86.522h1.508V96.67zm6.492-3.078c0-.828.162-1.573.485-2.234s.78-1.172 1.36-1.53c.583-.36 1.247-.54 1.992-.54 1.15 0 2.08.398 2.79 1.195.714.797 1.07 1.857 1.07 3.18v.102c0 .823-.16 1.563-.477 2.22-.312.65-.763 1.16-1.35 1.523s-1.256.547-2.016.547c-1.146 0-2.076-.398-2.79-1.195s-1.063-1.852-1.063-3.164v-.102zm1.453.172c0 .938.217 1.7.65 2.258.437.568 1.02.852 1.75.852.734 0 1.318-.286 1.75-.86.432-.578.648-1.385.648-2.422 0-.927-.22-1.677-.664-2.25a2.08 2.08 0 0 0-1.75-.867 2.07 2.07 0 0 0-1.726.852c-.438.568-.657 1.38-.657 2.438zm11.446 3.11a2.08 2.08 0 0 0 1.351-.469c.386-.312.6-.703.64-1.172h1.367c-.026.484-.193.945-.5 1.383s-.72.787-1.234 1.047a3.53 3.53 0 0 1-1.625.391c-1.15 0-2.068-.383-2.75-1.148-.677-.77-1.016-1.823-1.016-3.156v-.242c0-.823.15-1.555.453-2.195s.735-1.138 1.297-1.492c.568-.354 1.237-.53 2.008-.53.948 0 1.734.284 2.36.852.63.568.966 1.305 1.008 2.21h-1.367a1.97 1.97 0 0 0-.625-1.344 1.91 1.91 0 0 0-1.375-.531c-.734 0-1.305.266-1.71.797-.4.526-.602 1.29-.602 2.29v.273c0 .974.2 1.724.602 2.25s.974.79 1.72.79zm7.343-2.89l-.906.945v2.97h-1.445v-12h1.445v7.258l.774-.93 2.632-2.78h1.758l-3.29 3.53 3.672 4.922h-1.695l-2.946-3.914zm11.68-6.586v2.047h1.578v1.117h-1.578v5.242c0 .338.07.594.21.766.14.167.38.25.72.25.167 0 .396-.03.687-.094v1.172a4.19 4.19 0 0 1-1.109.156c-.646 0-1.133-.195-1.46-.586s-.492-.945-.492-1.664V90.56h-1.54v-1.117h1.54v-2.047h1.445zm4.844 10.5h-1.445v-8.453h1.445v8.453zm-1.563-10.695c0-.234.07-.432.21-.594.146-.162.36-.242.64-.242s.495.08.64.242.218.36.218.594-.073.43-.218.586-.36.234-.64.234-.495-.078-.64-.234c-.14-.156-.21-.352-.21-.586zm5.243 2.242l.04.938c.62-.73 1.455-1.094 2.507-1.094 1.183 0 1.987.453 2.415 1.36.28-.406.645-.734 1.093-.984.453-.25.987-.375 1.602-.375 1.854 0 2.797.982 2.828 2.945v5.664h-1.445V92.32c0-.604-.138-1.055-.414-1.352-.276-.302-.74-.453-1.39-.453-.536 0-.982.162-1.336.484-.354.318-.56.747-.617 1.29v5.61h-1.453v-5.54c0-1.23-.602-1.844-1.805-1.844-.948 0-1.596.404-1.945 1.21v6.172h-1.446v-8.453h1.368zm16.18 8.61c-1.146 0-2.078-.375-2.797-1.125-.718-.755-1.078-1.763-1.078-3.023v-.266c0-.838.16-1.586.477-2.242.323-.662.77-1.177 1.344-1.547a3.38 3.38 0 0 1 1.875-.562c1.1 0 1.953.362 2.562 1.086s.914 1.76.914 3.11v.602h-5.726c.02.833.263 1.508.726 2.023.47.5 1.063.766 1.78.766.51 0 .943-.104 1.297-.312s.664-.484.93-.828l.883.688c-.71 1.088-1.77 1.633-3.188 1.633zm-.18-7.578a1.92 1.92 0 0 0-1.469.641c-.396.422-.64 1.016-.735 1.78h4.235v-.11c-.042-.734-.24-1.302-.594-1.703-.354-.406-.833-.61-1.437-.61zm10.078 5.18a1.05 1.05 0 0 0-.446-.906c-.29-.22-.804-.406-1.54-.562-.73-.156-1.3-.344-1.742-.562-.427-.22-.745-.48-.953-.78-.203-.302-.305-.662-.305-1.078 0-.693.292-1.28.875-1.758.59-.48 1.34-.72 2.25-.72.96 0 1.735.247 2.328.742a2.35 2.35 0 0 1 .899 1.898h-1.453c0-.396-.17-.737-.508-1.023-.333-.287-.755-.43-1.266-.43-.526 0-.937.115-1.234.344a1.08 1.08 0 0 0-.445.898c0 .35.138.612.414.79s.773.346 1.492.508 1.3.354 1.758.578.778.495.992.813c.22.313.328.695.328 1.148a2.17 2.17 0 0 1-.906 1.82c-.604.453-1.388.68-2.352.68-.677 0-1.276-.12-1.797-.36s-.93-.573-1.226-1a2.45 2.45 0 0 1-.438-1.398h1.446c.026.484.218.87.578 1.156.364.28.844.422 1.437.422.547 0 .985-.11 1.313-.328.333-.224.5-.52.5-.89zm4.773-5.187a3.07 3.07 0 0 1 2.5-1.18c1.787 0 2.688 1.008 2.703 3.023v5.586h-1.445v-5.594c-.005-.61-.146-1.06-.422-1.352s-.695-.437-1.273-.437c-.47 0-.88.125-1.235.375a2.55 2.55 0 0 0-.828.984v6.023h-1.445v-12h1.445v4.57zm10.875 7.586c-1.146 0-2.078-.375-2.797-1.125-.718-.755-1.078-1.763-1.078-3.023v-.266c0-.838.16-1.586.477-2.242.323-.662.77-1.177 1.344-1.547a3.38 3.38 0 0 1 1.874-.562c1.1 0 1.954.362 2.563 1.086s.914 1.76.914 3.11v.602h-5.727c.02.833.264 1.508.727 2.023.47.5 1.063.766 1.78.766.51 0 .943-.104 1.297-.312s.664-.484.93-.828l.883.688c-.71 1.088-1.77 1.633-3.188 1.633zm-.18-7.578a1.92 1.92 0 0 0-1.468.641c-.396.422-.64 1.016-.735 1.78h4.235v-.11c-.042-.734-.24-1.302-.594-1.703-.354-.406-.833-.61-1.438-.61zm8.665 7.578c-1.146 0-2.08-.375-2.797-1.125-.72-.755-1.078-1.763-1.078-3.023v-.266c0-.838.158-1.586.476-2.242.323-.662.77-1.177 1.344-1.547a3.38 3.38 0 0 1 1.875-.562c1.1 0 1.953.362 2.562 1.086s.914 1.76.914 3.11v.602h-5.726c.02.833.263 1.508.726 2.023.47.5 1.063.766 1.782.766.5 0 .942-.104 1.297-.312a3.25 3.25 0 0 0 .929-.828l.883.688c-.708 1.088-1.77 1.633-3.187 1.633zm-.18-7.578a1.92 1.92 0 0 0-1.469.641c-.396.422-.64 1.016-.734 1.78h4.234v-.11c-.042-.734-.24-1.302-.594-1.703-.354-.406-.833-.61-1.437-.61zm7.117-3.078v2.047h1.578v1.117h-1.578v5.242c0 .338.07.594.21.766.14.167.38.25.72.25.166 0 .396-.03.687-.094v1.172a4.19 4.19 0 0 1-1.109.156c-.646 0-1.133-.195-1.46-.586s-.492-.945-.492-1.664V90.56h-1.54v-1.117h1.54v-2.047h1.445zm8.195 8.258c0-.39-.148-.693-.445-.906-.292-.22-.805-.406-1.54-.562s-1.3-.344-1.742-.562-.745-.48-.953-.78-.305-.662-.305-1.078c0-.693.292-1.28.875-1.758.59-.48 1.34-.72 2.25-.72.958 0 1.734.247 2.328.742a2.35 2.35 0 0 1 .899 1.898h-1.454c0-.396-.17-.737-.507-1.023s-.756-.43-1.266-.43c-.526 0-.938.115-1.234.344a1.08 1.08 0 0 0-.446.898c0 .35.138.612.414.79s.774.346 1.493.508 1.31.354 1.757.578.78.495.993.813c.218.313.328.695.328 1.148a2.17 2.17 0 0 1-.907 1.82c-.604.453-1.388.68-2.35.68-.677 0-1.276-.12-1.797-.36s-.93-.573-1.227-1c-.29-.432-.437-.898-.437-1.398h1.445c.026.484.22.87.578 1.156.365.28.844.422 1.438.422.547 0 .984-.11 1.312-.328.334-.224.5-.52.5-.89zm14.453-1.89c0 1.292-.296 2.33-.9 3.117-.594.78-1.39 1.172-2.39 1.172-1.067 0-1.893-.378-2.476-1.133l-.07.977h-1.328v-12h1.446v4.477c.583-.724 1.388-1.086 2.414-1.086s1.83.388 2.414 1.164.882 1.84.882 3.188v.125zm-1.445-.164c0-.984-.2-1.745-.57-2.28s-.927-.805-1.64-.805c-.953 0-1.638.443-2.054 1.328v3.656c.442.885 1.132 1.328 2.07 1.328.693 0 1.232-.268 1.617-.805s.578-1.344.578-2.422zm6.78 4.453c-1.145 0-2.078-.375-2.796-1.125-.72-.755-1.08-1.763-1.08-3.023v-.266c0-.838.16-1.586.477-2.242.323-.662.77-1.177 1.344-1.547a3.38 3.38 0 0 1 1.875-.562c1.1 0 1.953.362 2.562 1.086s.914 1.76.914 3.11v.602h-5.726c.02.833.263 1.508.726 2.023.47.5 1.063.766 1.782.766.5 0 .942-.104 1.296-.312a3.24 3.24 0 0 0 .93-.828l.883.688c-.708 1.088-1.77 1.633-3.188 1.633zm-.18-7.578a1.92 1.92 0 0 0-1.469.641c-.396.422-.64 1.016-.734 1.78h4.234v-.11c-.042-.734-.24-1.302-.594-1.703-.354-.406-.833-.61-1.437-.61zm5.867 7.422V90.56h-1.336v-1.117h1.336v-.867c0-.906.242-1.607.726-2.102s1.17-.742 2.055-.742a3.79 3.79 0 0 1 .992.133l-.078 1.172a4.15 4.15 0 0 0-.781-.07c-.47 0-.83.138-1.086.414-.255.27-.383.66-.383 1.172v.89h1.805v1.117h-1.805v7.336h-1.445zm4.47-4.305c0-.828.16-1.573.484-2.234.328-.662.78-1.172 1.36-1.53.584-.36 1.248-.54 1.993-.54 1.15 0 2.08.398 2.79 1.195s1.07 1.857 1.07 3.18v.102c0 .823-.16 1.563-.477 2.22-.312.65-.763 1.16-1.35 1.523s-1.255.547-2.016.547c-1.146 0-2.075-.398-2.79-1.195-.708-.797-1.062-1.852-1.062-3.164v-.102zm1.453.172c0 .938.216 1.7.648 2.258.438.568 1.02.852 1.75.852.735 0 1.318-.286 1.75-.86.433-.578.65-1.385.65-2.422 0-.927-.222-1.677-.664-2.25-.438-.578-1.02-.867-1.75-.867-.714 0-1.29.284-1.727.852s-.656 1.38-.656 2.438zm12.14-3.023a4.31 4.31 0 0 0-.71-.055c-.948 0-1.592.404-1.93 1.21v6h-1.446v-8.453h1.407l.023.977c.474-.755 1.146-1.133 2.016-1.133.28 0 .495.036.64.11v1.344zm4.688 7.313c-1.146 0-2.078-.375-2.797-1.125-.72-.755-1.078-1.763-1.078-3.023v-.266c0-.838.16-1.586.477-2.242.322-.662.77-1.177 1.343-1.547a3.38 3.38 0 0 1 1.875-.562c1.1 0 1.953.362 2.563 1.086s.914 1.76.914 3.11v.602h-5.727c.02.833.263 1.508.727 2.023.47.5 1.062.766 1.78.766.5 0 .943-.104 1.297-.312s.664-.484.93-.828l.882.688c-.708 1.088-1.77 1.633-3.187 1.633zm-.18-7.578a1.92 1.92 0 0 0-1.468.641c-.396.422-.64 1.016-.735 1.78h4.235v-.11c-.042-.734-.24-1.302-.594-1.703-.354-.406-.834-.61-1.438-.61z"/></g><g class="D"><path d="M327.292 87.608l3.69 9.21 3.7-9.21h1.93v11.29h-1.49V94.5l.14-4.745-3.706 9.14h-1.14l-3.7-9.118.148 4.722v4.396h-1.49v-11.29h1.923zm16.895 11.29c-.083-.166-.15-.46-.202-.884-.667.693-1.463 1.04-2.388 1.04-.827 0-1.507-.233-2.04-.698-.527-.47-.79-1.065-.79-1.783 0-.874.33-1.55.992-2.03.667-.486 1.603-.73 2.807-.73h1.396v-.66c0-.5-.15-.9-.45-1.194-.3-.3-.742-.45-1.326-.45-.51 0-.94.13-1.287.388s-.52.57-.52.938h-1.442c0-.42.147-.822.44-1.2.3-.393.703-.703 1.2-.93a4.1 4.1 0 0 1 1.683-.341c.966 0 1.723.243 2.27.73.548.48.832 1.145.853 1.993v3.86c0 .77.098 1.383.295 1.838v.124h-1.504zm-2.38-1.093c.45 0 .876-.116 1.28-.35s.695-.535.876-.907v-1.72h-1.124c-1.758 0-2.637.514-2.637 1.543 0 .45.15.8.45 1.054s.685.38 1.155.38zm8.46-1.008l1.954-6.288h1.535l-3.372 9.684c-.522 1.395-1.352 2.093-2.49 2.093l-.272-.023-.535-.1v-1.163l.388.03c.486 0 .863-.098 1.132-.295s.5-.555.675-1.077l.318-.853-2.993-8.296h1.566l2.093 6.288z"/><path fill-rule="evenodd" d="M315.552 82.882h-3.97v-1.79c0-.358-.227-.597-.567-.597s-.567.24-.567.597v1.79H300.24v-1.79c0-.358-.227-.597-.567-.597s-.567.24-.567.597v1.79h-3.97c-.34 0-.567.24-.567.597v19.103c0 .358.227.596.567.596h20.643c.227-.12.34-.358.34-.596V83.48c0-.358-.227-.597-.567-.597zm-.567 19.103h-19.282V88.852h19.282v13.133zm0-14.327h-19.282v-3.582h3.403v1.79c0 .358.227.597.567.597s.567-.24.567-.597v-1.79h10.208v1.79c0 .358.227.597.567.597s.567-.24.567-.597v-1.79h3.403v3.582zm-14.745 4.776h-1.134v1.194h1.134v-1.194zm11.342 0h-1.134v1.194h1.134v-1.194zm-2.268 0h-1.134v1.194h1.134v-1.194zm-6.805 0h-1.135v1.194h1.135v-1.194zm4.536 0h-1.134v1.194h1.134v-1.194zm-2.268 0h-1.134v1.194h1.134v-1.194zm-4.537 2.388h-1.134v1.194h1.134V94.82zm11.342 0h-1.134v1.194h1.134V94.82zm-2.268 0h-1.134v1.194h1.134V94.82zm-6.805 0h-1.135v1.194h1.135V94.82zm4.536 0h-1.134v1.194h1.134V94.82zm-2.268 0h-1.134v1.194h1.134V94.82zm-4.537 2.388h-1.134v1.194h1.134V97.21zm11.342 0h-1.134v1.194h1.134V97.21zm-2.268 0h-1.134v1.194h1.134V97.21zm-6.805 0h-1.135v1.194h1.135V97.21zm4.536 0h-1.134v1.194h1.134V97.21zm-2.268 0h-1.134v1.194h1.134V97.21z"/></g><defs><filter id="A" x="83.341" y="101.117" width="553.079" height="290.956" filterUnits="userSpaceOnUse" class="I"><feFlood result="A" class="J"/><feColorMatrix in="SourceAlpha" values="0 0 0 0 0 0 0 0 0 0 0 0 0 0 0 0 0 0 127 0"/><feOffset dy="7.86369"/><feGaussianBlur stdDeviation="9.83"/><feColorMatrix values="0 0 0 0 0.270588 0 0 0 0 0.352941 0 0 0 0 0.392157 0 0 0 0.15 0"/><feBlend in2="A" result="B"/><feColorMatrix in="SourceAlpha" values="0 0 0 0 0 0 0 0 0 0 0 0 0 0 0 0 0 0 127 0"/><feOffset dy="1.31061"/><feGaussianBlur stdDeviation="1.966"/><feColorMatrix values="0 0 0 0 0.270588 0 0 0 0 0.352941 0 0 0 0 0.392157 0 0 0 0.1 0"/><feBlend in2="B"/><feBlend in="SourceGraphic"/></filter><filter id="B" x="348.085" y="89.321" width="258.191" height="313.237" filterUnits="userSpaceOnUse" class="I"><feFlood result="A" class="J"/><feColorMatrix in="SourceAlpha" values="0 0 0 0 0 0 0 0 0 0 0 0 0 0 0 0 0 0 127 0"/><feOffset dy="7.86369"/><feGaussianBlur stdDeviation="9.83"/><feColorMatrix values="0 0 0 0 0.270588 0 0 0 0 0.352941 0 0 0 0 0.392157 0 0 0 0.15 0"/><feBlend in2="A" result="B"/><feColorMatrix in="SourceAlpha" values="0 0 0 0 0 0 0 0 0 0 0 0 0 0 0 0 0 0 127 0"/><feOffset dy="1.31061"/><feGaussianBlur stdDeviation="1.966"/><feColorMatrix values="0 0 0 0 0.270588 0 0 0 0 0.352941 0 0 0 0 0.392157 0 0 0 0.1 0"/><feBlend in2="B"/><feBlend in="SourceGraphic"/></filter><filter id="C" x="694.087" y="102.074" width="372.214" height="289.646" filterUnits="userSpaceOnUse" class="I"><feFlood result="A" class="J"/><feColorMatrix in="SourceAlpha" values="0 0 0 0 0 0 0 0 0 0 0 0 0 0 0 0 0 0 127 0"/><feOffset dy="7.86369"/><feGaussianBlur stdDeviation="9.83"/><feColorMatrix values="0 0 0 0 0.270588 0 0 0 0 0.352941 0 0 0 0 0.392157 0 0 0 0.15 0"/><feBlend in2="A" result="B"/><feColorMatrix in="SourceAlpha" values="0 0 0 0 0 0 0 0 0 0 0 0 0 0 0 0 0 0 127 0"/><feOffset dy="1.31061"/><feGaussianBlur stdDeviation="1.966"/><feColorMatrix values="0 0 0 0 0.270588 0 0 0 0 0.352941 0 0 0 0 0.392157 0 0 0 0.1 0"/><feBlend in2="B"/><feBlend in="SourceGraphic"/></filter><path id="D" d="M135.164 390.06c0-3.326-3.548-3.326-3.548-8.002 0-1.974-1.084-3.637-2.76-4.364v-.416c0-1.04-.788-1.87-1.774-1.87s-1.774.83-1.774 1.87v.416c-1.577.727-2.76 2.4-2.76 4.364 0 4.676-3.548 4.676-3.548 8.002 0 1.454 2.267 2.7 5.42 3.117v.208c0 1.56 1.183 2.805 2.66 2.805s2.66-1.246 2.66-2.805v-.208c3.154-.416 5.42-1.663 5.42-3.117zm-8.082-13.717c.493 0 .887.416.887.935s-.394.936-.887.936-.887-.416-.887-.936.394-.935.887-.935zm-5.815 11.12c.986-1.143 2.267-2.494 2.267-5.508 0-1.558.887-2.91 2.267-3.533.295.416.788.624 1.38.624s.985-.312 1.38-.624c1.28.52 2.266 1.87 2.266 3.533 0 2.9 1.282 4.365 2.267 5.508.198.208.395.415.493.623-.887.832-3.35 1.455-6.406 1.455-2.957 0-5.52-.623-6.407-1.455.1-.208.296-.415.493-.623zm5.815 7.793c-.986 0-1.774-.83-1.774-1.87v-.104c.59.104 1.183.104 1.774.104s1.183 0 1.774-.104v.104c0 1.04-.788 1.87-1.774 1.87zm0-2.805c-4.632 0-7.195-1.56-7.195-2.4 0-.52.1-.936.296-1.247 1.182 1.04 3.844 1.766 6.9 1.766s5.618-.727 6.9-1.766a2.56 2.56 0 0 1 .296 1.247c0 .83-2.562 2.4-7.195 2.4z"/></defs></svg>