<svg xmlns="http://www.w3.org/2000/svg" xmlns:xlink="http://www.w3.org/1999/xlink" width="522" height="420" fill="none" xmlns:v="https://vecta.io/nano"><style><![CDATA[.B{stroke:#3d4853}.C{fill:#fff}.D{stroke:#c6d2d9}.E{fill:#3d4853}.F{fill:#84d2f6}]]></style><g filter="url(#F)" class="C"><path d="M50 54a4 4 0 0 1 4-4h414a4 4 0 0 1 4 4v312a4 4 0 0 1-4 4H54a4 4 0 0 1-4-4V54z"/></g><rect x="62.5" y="180.5" width="397" height="59" rx="3.5" class="C D"/><path d="M140.096 211.727l.192 1.312.28-1.182 1.97-6.946h1.107l1.92 6.946.273 1.203.212-1.34 1.545-6.81h1.32l-2.414 9.954h-1.196l-2.05-7.253-.157-.76-.157.76-2.126 7.253h-1.196l-2.407-9.954h1.313l1.572 6.816zm13.508-3.124c-.19-.032-.4-.048-.622-.048-.83 0-1.392.353-1.69 1.06v5.25h-1.264v-7.397h1.23l.02.855c.414-.66 1.002-.992 1.763-.992.247 0 .433.032.56.096v1.176zm2.543 6.262h-1.265v-7.397h1.265v7.397zm-1.367-9.36a.76.76 0 0 1 .184-.519c.128-.142.315-.212.56-.212s.433.07.56.212.192.314.192.52-.064.376-.192.513-.314.205-.56.205-.433-.068-.56-.205c-.123-.137-.184-.308-.184-.513zm5.113.17v1.79h1.38v.978h-1.38v4.586c0 .297.062.52.185.67s.332.22.63.22c.145 0 .346-.027.6-.082v1.026a3.67 3.67 0 0 1-.971.136c-.565 0-.99-.17-1.278-.512s-.43-.828-.43-1.457v-4.586h-1.346v-.978h1.346v-1.79h1.265zm4.238 9.188h-1.264v-7.397h1.264v7.397zm-1.367-9.36c0-.205.062-.378.185-.52s.314-.212.56-.212.433.07.56.212.19.314.19.52-.064.376-.19.513-.315.205-.56.205-.433-.068-.56-.205a.74.74 0 0 1-.185-.513zm4.594 1.962l.04.93c.565-.71 1.303-1.067 2.215-1.067 1.563 0 2.35.882 2.365 2.646v4.888h-1.265v-4.895c-.004-.533-.127-.927-.37-1.183s-.608-.382-1.114-.382c-.4 0-.77.11-1.08.328s-.552.506-.725.86v5.27h-1.264v-7.397h1.196zm6.227 3.637c0-1.153.267-2.07.8-2.748a2.55 2.55 0 0 1 2.119-1.026c.903 0 1.607.32 2.113.957l.06-.82h1.155v7.22c0 .957-.284 1.71-.854 2.262s-1.326.828-2.283.828c-.533 0-1.055-.114-1.566-.342s-.9-.54-1.17-.937l.657-.758c.542.67 1.205 1.004 1.99 1.004.615 0 1.094-.173 1.435-.52.347-.347.52-.834.52-1.463v-.636c-.506.584-1.196.875-2.07.875-.866 0-1.568-.348-2.106-1.046-.533-.697-.8-1.647-.8-2.85zm1.272.143c0 .834.17 1.49.513 1.97s.82.71 1.435.71c.798 0 1.383-.362 1.757-1.087v-3.377c-.387-.706-.968-1.06-1.743-1.06-.615 0-1.096.24-1.443.717s-.52 1.187-.52 2.126zm14.93 3.617c-.073-.146-.133-.406-.178-.78-.588.61-1.3.916-2.106.916-.73 0-1.328-.205-1.797-.615s-.698-.94-.698-1.572c0-.77.292-1.367.875-1.79s1.413-.643 2.475-.643h1.23v-.58c0-.442-.132-.793-.396-1.053s-.654-.396-1.17-.396c-.45 0-.83.114-1.135.342s-.458.503-.458.827h-1.27c0-.37.13-.725.39-1.067.265-.346.62-.62 1.067-.82s.945-.3 1.483-.3c.852 0 1.52.214 2.003.643s.734 1.01.752 1.757v3.404c0 .68.087 1.22.26 1.62v.1h-1.326zm-2.1-.964c.396 0 .772-.103 1.128-.308a1.86 1.86 0 0 0 .772-.8v-1.517h-.99c-1.55 0-2.324.453-2.324 1.36 0 .396.132.706.396.93s.604.335 1.02.335zm8.723-5.298c-.192-.032-.4-.048-.622-.048-.83 0-1.393.353-1.69 1.06v5.25h-1.265v-7.397h1.23l.02.855c.415-.66 1.003-.992 1.764-.992.246 0 .433.032.56.096v1.176zm3.226-2.926v1.79h1.38v.978h-1.38v4.586c0 .297.062.52.185.67s.332.22.63.22a3.03 3.03 0 0 0 .601-.082v1.026c-.332.09-.656.136-.97.136-.566 0-.992-.17-1.28-.512s-.43-.828-.43-1.457v-4.586h-1.347v-.978h1.347v-1.79h1.264zm4.238 9.188h-1.264v-7.397h1.264v7.397zm-1.367-9.36c0-.205.062-.378.185-.52s.314-.212.56-.212.433.07.56.212.19.314.19.52a.72.72 0 0 1-.191.513c-.128.137-.314.205-.56.205s-.433-.068-.56-.205a.74.74 0 0 1-.185-.513zm6.365 8.463a1.82 1.82 0 0 0 1.182-.41c.337-.274.524-.615.56-1.026h1.196c-.023.424-.17.828-.437 1.2s-.63.69-1.08.916a3.08 3.08 0 0 1-1.421.342c-1.008 0-1.8-.335-2.407-1.005s-.888-1.595-.888-2.76v-.212c0-.72.132-1.36.396-1.92s.643-.996 1.135-1.306 1.082-.465 1.757-.465c.83 0 1.517.25 2.064.745s.846 1.142.882 1.935h-1.196c-.037-.48-.22-.87-.547-1.176s-.725-.465-1.203-.465c-.643 0-1.142.233-1.497.698-.35.46-.527 1.128-.527 2.003v.24c0 .852.176 1.508.527 1.97s.852.7 1.504.7zm5.735.896h-1.265v-10.5h1.265v10.5zm5.1.136c-1.003 0-1.82-.328-2.448-.984s-.943-1.543-.943-2.646v-.232c0-.734.14-1.388.417-1.962s.674-1.03 1.176-1.354 1.052-.492 1.64-.492c.962 0 1.71.317 2.242.95s.8 1.54.8 2.72v.527h-5c.018.73.23 1.32.635 1.77s.93.67 1.56.67c.446 0 .825-.09 1.135-.273a2.85 2.85 0 0 0 .813-.725l.773.602c-.62.952-1.55 1.428-2.79 1.428zm-.158-6.63a1.68 1.68 0 0 0-1.285.561c-.346.37-.56.89-.642 1.56h3.705v-.096c-.037-.643-.2-1.14-.52-1.5-.3-.356-.73-.534-1.258-.534z" class="E"/><g class="D"><path d="M370.46 188.37v42.034"/><rect x="62.5" y="121.5" width="397" height="59" rx="3.5" class="C"/></g><mask id="A" mask-type="alpha" maskUnits="userSpaceOnUse" x="80" y="137" width="30" height="30"><circle cx="95" cy="152" r="14.5" class="B F"/></mask><g mask="url(#A)"><circle cx="95" cy="153" r="15" fill="#fff8e1"/><g class="B C"><use xlink:href="#G"/><circle cx="95" cy="148" r="4.5"/></g><circle cx="95" cy="152" r="14.5" class="B"/></g><path d="M145.27 153.4c-.123 1.053-.513 1.866-1.17 2.44-.652.57-1.52.854-2.604.854-1.176 0-2.12-.422-2.83-1.265s-1.06-1.97-1.06-3.383v-.957c0-.926.164-1.74.492-2.44s.802-1.24 1.408-1.613 1.308-.568 2.106-.568c1.057 0 1.905.297 2.543.89s1.01 1.404 1.114 2.447h-1.32c-.114-.793-.363-1.367-.745-1.722s-.9-.533-1.593-.533c-.84 0-1.497.31-1.976.93s-.71 1.502-.71 2.646v.964c0 1.08.226 1.94.677 2.577s1.082.957 1.894.957c.73 0 1.287-.164 1.674-.492s.652-.9.78-1.73h1.32zm2.974 3.158h-1.265v-10.5h1.265v10.5zm3.404 0h-1.265v-7.396h1.265v7.396zm-1.367-9.358c0-.205.06-.378.184-.52s.315-.212.56-.212.433.07.56.212.192.315.192.52-.064.376-.192.513-.314.205-.56.205-.433-.07-.56-.205-.184-.308-.184-.513zm6.467 9.495c-1.003 0-1.82-.328-2.448-.984s-.943-1.543-.943-2.646v-.232c0-.734.14-1.388.417-1.962.282-.58.674-1.03 1.176-1.354s1.052-.492 1.64-.492c.962 0 1.71.317 2.242.95s.8 1.54.8 2.72v.526h-5c.018.73.23 1.32.635 1.77s.93.67 1.56.67c.447 0 .825-.09 1.135-.274s.58-.423.813-.724l.773.6c-.62.953-1.55 1.43-2.79 1.43zm-.158-6.63a1.68 1.68 0 0 0-1.285.561c-.346.37-.56.888-.642 1.558h3.705v-.095c-.037-.643-.2-1.14-.52-1.49s-.73-.533-1.258-.533zm5.708-.902l.04.93c.565-.71 1.304-1.067 2.215-1.067 1.563 0 2.352.882 2.365 2.646v4.887h-1.264v-4.894c-.005-.533-.128-.928-.37-1.183s-.61-.383-1.115-.383a1.83 1.83 0 0 0-1.08.328c-.3.22-.55.506-.724.862v5.27h-1.265v-7.396h1.196zm8.244-1.79v1.79h1.38v.977h-1.38v4.587c0 .297.062.52.185.67s.333.22.63.22a3.03 3.03 0 0 0 .601-.082v1.025c-.332.09-.656.137-.97.137-.565 0-.99-.17-1.28-.513s-.43-.827-.43-1.456v-4.587h-1.347v-.977h1.347v-1.79h1.264zm7.527 1.79l.034.82c.542-.638 1.274-.957 2.194-.957 1.035 0 1.74.397 2.113 1.2a2.81 2.81 0 0 1 .957-.862c.396-.22.863-.328 1.4-.328 1.622 0 2.447.86 2.475 2.577v4.956h-1.265v-4.88c0-.528-.12-.922-.362-1.182s-.647-.397-1.217-.397c-.47 0-.86.142-1.17.424s-.5.654-.54 1.128v4.908h-1.272v-4.846c0-1.076-.526-1.614-1.58-1.614-.83 0-1.396.354-1.702 1.06v5.4h-1.264v-7.396h1.196zm14.157 7.533c-1.003 0-1.818-.328-2.447-.984s-.944-1.543-.944-2.646v-.232c0-.734.14-1.388.417-1.962.283-.58.675-1.03 1.176-1.354a2.96 2.96 0 0 1 1.641-.492c.96 0 1.71.317 2.242.95s.8 1.54.8 2.72v.526h-5.01c.018.73.23 1.32.636 1.77s.93.67 1.558.67c.447 0 .825-.09 1.135-.274a2.85 2.85 0 0 0 .814-.724l.772.6c-.62.953-1.55 1.43-2.79 1.43zm-.157-6.63a1.68 1.68 0 0 0-1.285.561c-.347.37-.56.888-.643 1.558h3.705v-.095c-.036-.643-.21-1.14-.52-1.49s-.73-.533-1.258-.533zm7.58 6.63c-1.003 0-1.818-.328-2.447-.984s-.944-1.543-.944-2.646v-.232c0-.734.14-1.388.417-1.962.283-.58.675-1.03 1.176-1.354a2.96 2.96 0 0 1 1.641-.492c.96 0 1.71.317 2.242.95s.8 1.54.8 2.72v.526h-5.01c.018.73.23 1.32.636 1.77a2.02 2.02 0 0 0 1.558.67c.447 0 .825-.09 1.135-.274s.58-.423.813-.724l.773.6c-.62.953-1.55 1.43-2.79 1.43zm-.157-6.63a1.68 1.68 0 0 0-1.286.561c-.346.37-.56.888-.642 1.558h3.705v-.095c-.036-.643-.2-1.14-.52-1.49s-.73-.533-1.257-.533zm6.227-2.693v1.79h1.38v.977h-1.38v4.587c0 .297.062.52.185.67s.332.22.63.22a3.03 3.03 0 0 0 .601-.082v1.025c-.332.09-.656.137-.97.137-.566 0-.992-.17-1.28-.513s-.43-.827-.43-1.456v-4.587H203.1v-.977h1.347v-1.79h1.264zm4.238 9.187h-1.264v-7.396h1.264v7.396zm-1.367-9.358c0-.205.062-.378.185-.52s.314-.212.56-.212.433.07.56.212.19.315.19.52a.72.72 0 0 1-.191.513c-.128.136-.315.205-.56.205s-.433-.07-.56-.205a.74.74 0 0 1-.185-.513zm4.594 1.962l.04.93c.565-.71 1.303-1.067 2.215-1.067 1.563 0 2.35.882 2.365 2.646v4.887h-1.265v-4.894c-.004-.533-.127-.928-.37-1.183s-.608-.383-1.114-.383a1.83 1.83 0 0 0-1.08.328c-.3.22-.55.506-.725.862v5.27H212v-7.396h1.196zm6.228 3.637c0-1.153.266-2.07.8-2.748s1.24-1.026 2.12-1.026c.902 0 1.606.32 2.112.957l.06-.82h1.156v7.22c0 .957-.285 1.71-.855 2.262-.565.552-1.326.827-2.283.827-.533 0-1.055-.113-1.566-.34s-.9-.54-1.168-.937l.656-.76c.542.67 1.205 1.005 1.99 1.005.615 0 1.094-.173 1.436-.52s.52-.834.52-1.463v-.636c-.506.583-1.196.875-2.07.875-.866 0-1.568-.35-2.106-1.046-.533-.697-.8-1.647-.8-2.85zm1.27.143c0 .834.17 1.5.513 1.97.342.474.82.71 1.435.71.798 0 1.383-.363 1.757-1.087v-3.377c-.387-.706-.968-1.06-1.743-1.06-.615 0-1.096.24-1.442.718s-.52 1.187-.52 2.126z" class="E"/><g class="D"><path d="M370.46 130.065V172.1"/><rect x="62.5" y="63.5" width="397" height="58" rx="3.5" class="C"/></g><mask id="B" mask-type="alpha" maskUnits="userSpaceOnUse" x="80" y="78" width="30" height="30"><circle cx="95" cy="93" r="14.5" class="B F"/></mask><g mask="url(#B)"><circle cx="95" cy="94" r="15" fill="#e1f5fe"/><g class="B C"><use xlink:href="#G" y="-59"/><circle cx="95" cy="89" r="4.5"/></g><circle cx="95" cy="93" r="14.5" class="B"/></g><mask id="C" mask-type="alpha" maskUnits="userSpaceOnUse" x="80" y="195" width="30" height="30"><circle cx="95" cy="210" r="14.5" class="B F"/></mask><g mask="url(#C)"><circle cx="95" cy="211" r="15" fill="#fce4ec"/><g class="B C"><use xlink:href="#G" y="58"/><circle cx="95" cy="206" r="4.5"/></g><circle cx="95" cy="210" r="14.5" class="B"/></g><path d="M139.27 97.18h4.717v1.073h-6.036V88.3h1.32v8.88zm10.28.342c-.492.58-1.214.868-2.167.868-.788 0-1.4-.228-1.804-.684s-.618-1.14-.622-2.037v-4.812h1.264v4.778c0 1.12.456 1.682 1.367 1.682.967 0 1.61-.36 1.928-1.08v-5.38h1.265v7.397h-1.203l-.028-.73zm4.355-6.665l.04.93a2.69 2.69 0 0 1 2.215-1.067c1.563 0 2.35.882 2.365 2.646v4.888h-1.265V93.36c-.004-.533-.127-.927-.37-1.183s-.608-.383-1.114-.383c-.4 0-.77.11-1.08.328s-.552.506-.725.86v5.27h-1.265v-7.397h1.197zm9.495 6.5c.45 0 .845-.137 1.183-.4a1.44 1.44 0 0 0 .56-1.025h1.196c-.022.424-.168.827-.437 1.2s-.63.688-1.08.916a3.09 3.09 0 0 1-1.422.342c-1.007 0-1.81-.335-2.406-1.005s-.89-1.595-.89-2.762v-.212c0-.72.132-1.36.396-1.92s.643-.996 1.135-1.306c.497-.3 1.083-.465 1.757-.465.83 0 1.518.248 2.065.745s.845 1.142.88 1.935h-1.196c-.036-.478-.22-.87-.547-1.176s-.724-.465-1.203-.465c-.643 0-1.142.232-1.497.697s-.526 1.128-.526 2.003v.24c0 .852.175 1.508.526 1.97s.852.7 1.504.7zm5.626-5.605c.56-.688 1.3-1.032 2.187-1.032 1.564 0 2.352.882 2.366 2.646v4.888h-1.265V93.36c-.005-.533-.128-.927-.37-1.183s-.61-.383-1.114-.383c-.41 0-.77.11-1.08.328s-.55.506-.724.86v5.27h-1.265v-10.5h1.265v4zm16.18 2.885c0 1.13-.26 2.04-.78 2.728a2.49 2.49 0 0 1-2.092 1.025c-.934 0-1.656-.33-2.167-.99l-.06.855h-1.162v-10.5h1.264v3.917c.51-.633 1.215-.95 2.113-.95s1.602.34 2.112 1.02c.515.68.773 1.61.773 2.79v.11zm-1.265-.144c0-.86-.166-1.527-.5-1.996s-.81-.704-1.436-.704c-.834 0-1.433.387-1.798 1.162v3.2c.388.775.992 1.162 1.812 1.162.606 0 1.078-.235 1.415-.704s.506-1.176.506-2.12zm6.44-2.502a3.78 3.78 0 0 0-.622-.048c-.83 0-1.392.353-1.688 1.06v5.25h-1.265v-7.397h1.23l.02.855c.415-.66 1.003-.99 1.764-.99.246 0 .433.032.56.096v1.176zm4.102 6.398c-1.003 0-1.818-.328-2.447-.984s-.944-1.543-.944-2.645v-.232c0-.734.14-1.388.417-1.962.283-.58.675-1.03 1.176-1.354a2.96 2.96 0 0 1 1.641-.492c.96 0 1.71.317 2.242.95s.8 1.54.8 2.72v.526h-5.01c.018.73.23 1.32.636 1.77s.93.67 1.558.67c.447 0 .825-.09 1.135-.273a2.86 2.86 0 0 0 .814-.725l.772.602c-.62.952-1.55 1.43-2.79 1.43zm-.157-6.63a1.68 1.68 0 0 0-1.285.561c-.347.37-.56.89-.643 1.56h3.705v-.096c-.036-.642-.2-1.14-.52-1.5s-.73-.533-1.257-.533zm9.078 6.494c-.073-.146-.132-.406-.178-.78a2.82 2.82 0 0 1-2.105.916c-.73 0-1.33-.205-1.798-.615s-.698-.94-.698-1.572c0-.77.292-1.367.875-1.79s1.413-.643 2.475-.643h1.23v-.58c0-.442-.133-.793-.397-1.053s-.654-.396-1.17-.396c-.45 0-.83.114-1.135.342s-.458.504-.458.827h-1.27c0-.37.13-.725.4-1.066s.62-.62 1.066-.82.946-.3 1.483-.3c.853 0 1.52.214 2.003.643s.734 1 .752 1.757v3.404c0 .68.087 1.22.26 1.62v.11h-1.326zm-2.1-.964a2.22 2.22 0 0 0 1.128-.308c.356-.205.613-.472.773-.8v-1.518h-.992c-1.55 0-2.324.453-2.324 1.36 0 .397.132.706.397.93s.603.335 1.018.335zm7.212-2.46l-.793.827v2.598h-1.265v-10.5h1.265v6.35l.677-.813 2.304-2.434h1.538l-2.878 3.1 3.213 4.307h-1.484l-2.577-3.425z" class="E"/><g class="D"><path d="M370.46 73.05v42.034"/><rect x="62.5" y="238.5" width="397" height="59" rx="3.5" class="C"/></g><path d="M140.096 270.032l.192 1.312.28-1.182 1.97-6.946h1.107l1.92 6.946.273 1.203.212-1.34 1.545-6.81h1.32l-2.414 9.953h-1.196l-2.05-7.252-.157-.76-.157.76-2.126 7.252h-1.196l-2.407-9.953h1.313l1.572 6.816zm12.934 3.274c-1.003 0-1.82-.328-2.447-.984s-.944-1.543-.944-2.646v-.232c0-.734.14-1.388.417-1.962.283-.58.675-1.03 1.176-1.354a2.96 2.96 0 0 1 1.641-.492c.96 0 1.71.317 2.242.95s.8 1.54.8 2.72v.526h-5.01c.018.73.23 1.32.636 1.77a2.02 2.02 0 0 0 1.558.67c.447 0 .825-.09 1.135-.274s.58-.423.813-.724l.773.6c-.62.953-1.55 1.43-2.79 1.43zm-.157-6.63a1.68 1.68 0 0 0-1.286.561c-.346.37-.56.89-.642 1.558h3.705v-.095c-.037-.643-.2-1.14-.52-1.49s-.73-.533-1.257-.533zm10.773 2.878c0 1.13-.26 2.04-.78 2.728s-1.217 1.025-2.092 1.025c-.934 0-1.657-.33-2.167-.99l-.062.854h-1.162v-10.5h1.265v3.917c.5-.633 1.214-.95 2.112-.95s1.602.34 2.113 1.02.772 1.61.772 2.79v.11zm-1.265-.143c0-.862-.166-1.527-.5-1.996s-.81-.705-1.435-.705c-.834 0-1.433.388-1.798 1.163v3.2c.387.775.99 1.162 1.81 1.162a1.64 1.64 0 0 0 1.415-.704c.338-.47.506-1.176.506-2.12zm6.03 0c0-1.135.27-2.047.806-2.735s1.242-1.04 2.113-1.04c.865 0 1.55.296 2.057.89v-3.856h1.265v10.5H173.5l-.062-.793c-.506.62-1.2.93-2.112.93-.857 0-1.556-.35-2.1-1.053-.537-.7-.806-1.617-.806-2.748v-.095zm1.264.143c0 .84.173 1.495.52 1.97s.825.71 1.435.71c.802 0 1.388-.36 1.757-1.08v-3.398c-.378-.697-.96-1.046-1.743-1.046-.62 0-1.103.24-1.45.718s-.52 1.187-.52 2.126zm10.015 3.753c-1.003 0-1.818-.328-2.447-.984s-.944-1.543-.944-2.646v-.232c0-.734.14-1.388.417-1.962.283-.58.675-1.03 1.176-1.354a2.96 2.96 0 0 1 1.641-.492c.96 0 1.71.317 2.242.95s.8 1.54.8 2.72v.526h-5.01c.018.73.23 1.32.636 1.77a2.02 2.02 0 0 0 1.558.67c.447 0 .825-.09 1.135-.274a2.85 2.85 0 0 0 .814-.724l.772.6c-.62.953-1.55 1.43-2.79 1.43zm-.157-6.63a1.68 1.68 0 0 0-1.285.561c-.347.37-.56.89-.643 1.558h3.705v-.095c-.036-.643-.2-1.14-.52-1.49s-.73-.533-1.258-.533zm8.818 4.533c0-.342-.13-.607-.4-.793-.255-.192-.704-.356-1.346-.493s-1.146-.3-1.525-.492c-.373-.19-.65-.42-.834-.683-.177-.265-.266-.58-.266-.944 0-.606.255-1.12.765-1.538.515-.42 1.172-.63 1.97-.63.84 0 1.518.217 2.037.65s.786.986.786 1.66h-1.27c0-.347-.148-.645-.444-.896s-.66-.376-1.108-.376c-.46 0-.82.1-1.08.3s-.4.463-.4.786c0 .306.12.536.363.69s.676.303 1.305.444c.634.14 1.147.3 1.538.506s.682.433.87.71.287.608.287 1.005a1.9 1.9 0 0 1-.793 1.592c-.53.397-1.215.595-2.058.595-.592 0-1.116-.105-1.572-.314s-.814-.502-1.073-.875a2.14 2.14 0 0 1-.383-1.224H185c.023.424.192.76.506 1.012s.74.37 1.258.37c.48 0 .86-.096 1.15-.287.29-.196.437-.456.437-.78zm4.286 1.96h-1.264v-7.396h1.264v7.396zm-1.367-9.358c0-.205.062-.378.185-.52s.314-.212.56-.212.433.07.56.212.19.314.19.52-.064.376-.19.513-.315.205-.56.205-.433-.07-.56-.205a.74.74 0 0 1-.185-.513zm3.097 5.6c0-1.153.266-2.07.8-2.748a2.55 2.55 0 0 1 2.119-1.026c.902 0 1.606.32 2.112.957l.06-.82h1.156v7.22c0 .957-.285 1.71-.855 2.262-.565.552-1.326.828-2.283.828a3.8 3.8 0 0 1-1.565-.342c-.51-.228-.9-.54-1.17-.937l.656-.76c.542.67 1.205 1.005 1.99 1.005.615 0 1.094-.173 1.436-.52s.52-.834.52-1.463v-.636c-.506.583-1.196.875-2.07.875a2.53 2.53 0 0 1-2.105-1.046c-.534-.697-.8-1.647-.8-2.85zm1.27.143c0 .834.17 1.5.513 1.97s.82.71 1.435.71c.798 0 1.384-.362 1.757-1.087v-3.377c-.387-.706-.968-1.06-1.743-1.06-.615 0-1.096.24-1.442.718s-.52 1.187-.52 2.126zm8.087-3.78l.04.93c.565-.71 1.303-1.067 2.215-1.067 1.563 0 2.352.882 2.365 2.646v4.887h-1.264v-4.894c-.005-.533-.128-.928-.37-1.183-.237-.255-.608-.383-1.114-.383-.4 0-.77.1-1.08.33s-.55.505-.725.86v5.27h-1.264v-7.396h1.196z" class="E"/><g class="D"><path d="M370.46 247.966V290"/><rect x="62.5" y="297.5" width="397" height="58" rx="3.5" class="C"/></g><mask id="D" mask-type="alpha" maskUnits="userSpaceOnUse" x="80" y="312" width="30" height="30"><circle cx="95" cy="327" r="14.5" class="B F"/></mask><g mask="url(#D)"><circle cx="95" cy="328" r="15" fill="#e1f5fe"/><g class="B C"><use xlink:href="#G" y="175"/><circle cx="95" cy="323" r="4.5"/></g><circle cx="95" cy="327" r="14.5" class="B"/></g><mask id="E" mask-type="alpha" maskUnits="userSpaceOnUse" x="80" y="253" width="30" height="30"><circle cx="95" cy="268" r="14.5" class="B F"/></mask><g mask="url(#E)"><circle cx="95" cy="269" r="15" fill="#fff8e1"/><g class="B C"><use xlink:href="#G" y="116"/><circle cx="95" cy="264" r="4.5"/></g><circle cx="95" cy="268" r="14.5" class="B"/></g><path d="M141.245 329.73l2.843-8.2h1.436l-3.69 9.954h-1.163l-3.684-9.954h1.43l2.83 8.2zm9.672 1.744c-.072-.146-.132-.406-.177-.78-.588.61-1.3.916-2.106.916-.73 0-1.328-.205-1.798-.615-.464-.415-.697-.94-.697-1.572 0-.77.292-1.367.875-1.79s1.413-.643 2.475-.643h1.23v-.58c0-.442-.132-.793-.396-1.053s-.654-.396-1.17-.396c-.45 0-.83.114-1.135.342s-.458.503-.458.827h-1.27c0-.37.13-.725.39-1.067s.62-.62 1.067-.82.945-.3 1.483-.3c.852 0 1.52.215 2.003.643s.734 1.01.752 1.757v3.404c0 .68.086 1.22.26 1.62v.1h-1.327zm-2.098-.964c.396 0 .772-.103 1.128-.308a1.86 1.86 0 0 0 .772-.8v-1.517h-.99c-1.55 0-2.324.453-2.324 1.36 0 .397.132.706.396.93s.604.335 1.02.335zm8.114.068c.45 0 .845-.137 1.183-.4a1.44 1.44 0 0 0 .56-1.025h1.197c-.023.423-.17.827-.438 1.2s-.63.688-1.08.916a3.1 3.1 0 0 1-1.422.341c-1.007 0-1.81-.335-2.406-1.005s-.89-1.595-.89-2.76v-.212c0-.72.132-1.36.397-1.92s.642-.996 1.134-1.306 1.083-.465 1.757-.465c.83 0 1.518.25 2.065.746s.845 1.14.882 1.934h-1.197a1.72 1.72 0 0 0-.547-1.176c-.323-.3-.724-.465-1.203-.465-.642 0-1.14.233-1.497.698s-.526 1.128-.526 2.003v.24c0 .852.175 1.508.526 1.97s.852.7 1.504.7zm8.928.896c-.073-.146-.132-.406-.178-.78-.588.61-1.3.916-2.105.916-.73 0-1.33-.205-1.798-.615s-.697-.94-.697-1.572c0-.77.29-1.367.875-1.79s1.412-.643 2.474-.643h1.23v-.58c0-.442-.133-.793-.397-1.053s-.654-.396-1.17-.396c-.45 0-.83.114-1.135.342s-.458.503-.458.827h-1.27c0-.37.13-.725.4-1.067s.62-.62 1.066-.82a3.62 3.62 0 0 1 1.483-.301c.853 0 1.52.215 2.003.643s.734 1.01.752 1.757v3.404c0 .68.087 1.22.26 1.62v.1h-1.326zm-2.1-.964a2.22 2.22 0 0 0 1.128-.308c.356-.205.613-.472.773-.8v-1.517h-.992c-1.55 0-2.324.453-2.324 1.36 0 .397.132.706.397.93s.603.335 1.018.335zm6.863-8.224v1.79h1.38v.978h-1.38v4.587c0 .296.062.52.185.67s.333.22.63.22c.146 0 .346-.027.602-.082v1.026c-.333.09-.657.136-.97.136-.565 0-.99-.17-1.278-.512s-.43-.828-.43-1.456v-4.587h-1.347v-.978h1.347v-1.79h1.264zm4.24 9.188H173.6v-7.397h1.265v7.397zm-1.367-9.36a.76.76 0 0 1 .184-.519c.128-.142.315-.212.56-.212s.433.07.56.212.192.314.192.52-.064.376-.192.513-.314.205-.56.205-.433-.068-.56-.205-.184-.308-.184-.513zm3.062 5.592c0-.725.14-1.376.424-1.955s.684-1.025 1.19-1.34c.51-.314 1.092-.472 1.744-.472 1.007 0 1.82.35 2.44 1.046s.936 1.625.936 2.783v.088c0 .72-.14 1.368-.417 1.942s-.667 1.014-1.182 1.333-1.098.478-1.764.478c-1.002 0-1.816-.348-2.44-1.046s-.93-1.62-.93-2.768v-.09zm1.272.15c0 .82.19 1.48.567 1.976.383.497.893.745 1.53.745s1.153-.25 1.53-.752.568-1.212.568-2.12c0-.81-.194-1.467-.58-1.97a1.82 1.82 0 0 0-1.531-.759c-.625 0-1.128.25-1.51.746s-.574 1.207-.574 2.132zm8.244-3.78l.04.93c.565-.71 1.303-1.067 2.215-1.067 1.563 0 2.35.882 2.365 2.646v4.888h-1.265v-4.895c-.004-.533-.127-.927-.37-1.183s-.608-.382-1.114-.382c-.4 0-.77.11-1.08.328a2.23 2.23 0 0 0-.725.861v5.27h-1.265v-7.397h1.197z" class="E"/><path d="M370.46 306.27v42.034" class="D"/><g fill="#78909c"><path d="M260.833 214.865h-1.272v-8.43l-2.55.936v-1.148l3.623-1.36h.2v10zm8.572-6.5a2.68 2.68 0 0 1 2.187-1.033c1.563 0 2.352.882 2.366 2.646v4.888h-1.265v-4.895c-.005-.533-.128-.927-.37-1.183s-.6-.382-1.115-.382c-.4 0-.77.1-1.08.328a2.22 2.22 0 0 0-.724.861v5.27h-1.265v-10.5h1.265v4zm6.1 2.734c0-.725.14-1.376.424-1.955s.684-1.026 1.2-1.34a3.26 3.26 0 0 1 1.744-.472c1.007 0 1.82.35 2.44 1.046s.937 1.625.937 2.782v.1c0 .72-.14 1.367-.417 1.942-.274.57-.668 1.014-1.183 1.333s-1.098.478-1.764.478c-1.002 0-1.816-.348-2.44-1.046s-.93-1.62-.93-2.768v-.1zm1.272.15c0 .82.2 1.48.567 1.976s.893.745 1.53.745 1.153-.25 1.53-.752.568-1.212.568-2.12c0-.8-.194-1.468-.58-1.97a1.82 1.82 0 0 0-1.531-.759c-.625 0-1.128.25-1.5.745s-.574 1.208-.574 2.133zm11.614 2.885c-.492.58-1.215.868-2.167.868-.8 0-1.4-.228-1.805-.683-.4-.46-.617-1.14-.622-2.037v-4.813h1.265v4.778c0 1.12.455 1.682 1.367 1.682.966 0 1.6-.36 1.928-1.08v-5.38h1.264v7.397h-1.203l-.027-.732zm6.733-5.53c-.2-.032-.4-.048-.622-.048-.83 0-1.392.353-1.688 1.06v5.25h-1.265v-7.397h1.23l.02.855c.415-.66 1.003-.992 1.764-.992.246 0 .433.032.56.096v1.176zm9.208 6.262c-.073-.146-.132-.406-.177-.78-.588.6-1.3.916-2.106.916-.73 0-1.328-.205-1.798-.615-.465-.415-.697-.94-.697-1.572 0-.77.292-1.367.875-1.8.588-.43 1.413-.643 2.475-.643h1.23v-.58c0-.442-.132-.793-.396-1.053s-.654-.396-1.17-.396c-.452 0-.83.114-1.135.342s-.458.503-.458.827h-1.272c0-.37.13-.725.4-1.067a2.78 2.78 0 0 1 1.066-.82c.452-.2.946-.3 1.484-.3.852 0 1.52.214 2.003.643s.733 1 .752 1.757v3.404c0 .68.086 1.22.26 1.62v.1h-1.326zm-2.098-.964c.396 0 .772-.103 1.128-.308a1.86 1.86 0 0 0 .772-.8v-1.517h-1c-1.55 0-2.324.453-2.324 1.36 0 .396.132.706.396.93s.604.335 1.02.335zm4.846-2.796c0-1.153.267-2.07.8-2.748a2.55 2.55 0 0 1 2.119-1.026c.903 0 1.607.32 2.113.957l.06-.82h1.155v7.22c0 .957-.284 1.7-.854 2.262s-1.326.828-2.283.828c-.534 0-1.055-.114-1.566-.342s-.9-.54-1.17-.937l.657-.758c.542.67 1.205 1.004 2 1.004.615 0 1.094-.173 1.435-.52.347-.347.52-.834.52-1.463v-.636c-.506.584-1.196.875-2.07.875-.866 0-1.568-.348-2.106-1.046s-.8-1.647-.8-2.85zm1.272.143c0 .834.17 1.5.512 1.97s.82.7 1.436.7c.798 0 1.383-.362 1.757-1.087v-3.377c-.387-.706-.97-1.06-1.743-1.06a1.68 1.68 0 0 0-1.443.717c-.346.48-.52 1.187-.52 2.126zm6.555-.15c0-.725.142-1.376.424-1.955s.684-1.026 1.2-1.34 1.1-.472 1.743-.472c1.007 0 1.82.35 2.44 1.046s.937 1.625.937 2.782v.1c0 .72-.14 1.367-.417 1.942-.274.57-.668 1.014-1.183 1.333s-1.098.478-1.763.478c-1.003 0-1.817-.348-2.44-1.046s-.93-1.62-.93-2.768v-.1zm1.272.15c0 .82.2 1.48.567 1.976a1.83 1.83 0 0 0 1.532.745c.638 0 1.153-.25 1.53-.752s.567-1.212.567-2.12c0-.8-.193-1.468-.58-1.97a1.82 1.82 0 0 0-1.531-.759c-.624 0-1.128.25-1.5.745s-.574 1.208-.574 2.133zm-52.99 61.92h-6.522v-.9l3.446-3.828c.5-.58.86-1.048 1.052-1.408s.294-.74.294-1.128c0-.52-.157-.946-.47-1.278s-.734-.5-1.258-.5c-.63 0-1.12.18-1.47.54s-.52.852-.52 1.5h-1.265c0-.916.294-1.657.882-2.222s1.383-.847 2.372-.847c.925 0 1.656.243 2.194.73s.807 1.128.807 1.935c0 .98-.625 2.146-1.873 3.5l-2.666 2.9h4.997v1.032zm6.207-6.5c.56-.688 1.3-1.032 2.187-1.032 1.563 0 2.352.882 2.366 2.646v4.887h-1.265v-4.894c-.005-.533-.128-.928-.37-1.183s-.6-.383-1.115-.383c-.4 0-.77.1-1.08.33s-.55.505-.724.86v5.27h-1.265v-10.5h1.265v4zm6.1 2.735c0-.725.14-1.376.424-1.955s.684-1.026 1.2-1.34 1.092-.472 1.744-.472c1.007 0 1.82.35 2.44 1.046s.937 1.625.937 2.782v.1c0 .72-.14 1.367-.417 1.942s-.668 1.014-1.183 1.333-1.098.478-1.764.478c-1.002 0-1.816-.348-2.44-1.046s-.93-1.62-.93-2.768v-.1zm1.272.15c0 .82.2 1.48.567 1.976s.893.745 1.53.745 1.153-.25 1.53-.752.568-1.212.568-2.12c0-.8-.194-1.468-.58-1.97a1.82 1.82 0 0 0-1.531-.759c-.625 0-1.128.25-1.5.745s-.574 1.208-.574 2.133zm11.614 2.885c-.492.58-1.215.868-2.167.868-.8 0-1.4-.228-1.805-.683-.4-.46-.617-1.14-.622-2.038v-4.812h1.265v4.778c0 1.12.455 1.682 1.367 1.682.966 0 1.6-.36 1.928-1.08v-5.38h1.264v7.396h-1.203l-.027-.73zm6.733-5.53c-.2-.032-.4-.048-.622-.048-.83 0-1.392.353-1.688 1.06v5.25h-1.265v-7.396h1.23l.02.854c.415-.66 1.003-1 1.764-1 .246 0 .433.032.56.096v1.176zm5.476 4.3c0-.342-.13-.607-.4-.793-.255-.192-.704-.356-1.346-.493s-1.147-.3-1.525-.492-.652-.42-.834-.683-.266-.58-.266-.944c0-.606.255-1.12.765-1.538s1.17-.63 1.97-.63c.838 0 1.517.217 2.037.65s.786.986.786 1.66h-1.27c0-.347-.148-.645-.445-.896-.3-.25-.66-.376-1.107-.376-.46 0-.82.1-1.08.3s-.4.463-.4.786c0 .306.12.536.362.7s.677.303 1.306.444 1.146.3 1.538.506.682.433.868.7c.192.273.287.608.287 1.005a1.9 1.9 0 0 1-.792 1.592c-.53.397-1.215.595-2.058.595-.593 0-1.117-.105-1.572-.314a2.6 2.6 0 0 1-1.074-.875 2.15 2.15 0 0 1-.382-1.224h1.264c.023.424.192.76.506 1.012s.738.37 1.258.37c.478 0 .86-.096 1.148-.287.292-.196.438-.456.438-.78zm10.95 1.96c-.073-.145-.132-.405-.178-.78-.588.6-1.3.916-2.105.916-.73 0-1.33-.205-1.798-.615s-.697-.94-.697-1.572c0-.77.3-1.368.875-1.8.588-.43 1.412-.643 2.474-.643h1.23v-.58c0-.442-.132-.793-.397-1.053s-.654-.396-1.17-.396c-.45 0-.83.114-1.134.342s-.458.503-.458.827h-1.272c0-.37.13-.725.4-1.067a2.78 2.78 0 0 1 1.066-.82c.45-.2.946-.3 1.484-.3.852 0 1.52.214 2.002.643s.734 1 .752 1.757v3.404c0 .68.087 1.22.26 1.62v.1h-1.326zm-2.1-.963a2.22 2.22 0 0 0 1.128-.308c.356-.205.613-.472.773-.8v-1.517h-1c-1.55 0-2.325.453-2.325 1.36 0 .396.133.706.397.93s.604.335 1.018.335zm4.847-2.796c0-1.153.267-2.07.8-2.748a2.55 2.55 0 0 1 2.119-1.026c.902 0 1.606.32 2.112.957l.062-.82h1.155v7.22c0 .957-.285 1.7-.854 2.262s-1.327.828-2.284.828a3.8 3.8 0 0 1-1.565-.342c-.5-.228-.9-.54-1.17-.937l.656-.76c.543.67 1.206 1.005 2 1.005.615 0 1.093-.173 1.435-.52s.52-.834.52-1.463v-.636c-.506.583-1.197.875-2.072.875a2.53 2.53 0 0 1-2.105-1.046c-.533-.697-.8-1.647-.8-2.85zm1.272.143c0 .834.17 1.5.512 1.97s.82.7 1.436.7c.797 0 1.383-.362 1.757-1.087v-3.377c-.388-.706-.97-1.06-1.744-1.06-.615 0-1.096.24-1.442.718s-.52 1.187-.52 2.126zm6.555-.15c0-.725.14-1.376.424-1.955s.684-1.026 1.2-1.34 1.092-.472 1.744-.472c1.007 0 1.82.35 2.44 1.046s.937 1.625.937 2.782v.1c0 .72-.14 1.367-.417 1.942s-.668 1.014-1.183 1.333-1.098.478-1.764.478c-1.002 0-1.816-.348-2.44-1.046s-.93-1.62-.93-2.768v-.1zm1.272.15c0 .82.2 1.48.567 1.976s.893.745 1.53.745a1.82 1.82 0 0 0 1.532-.752c.378-.506.567-1.212.567-2.12 0-.8-.194-1.468-.58-1.97a1.82 1.82 0 0 0-1.531-.759c-.625 0-1.128.25-1.5.745s-.574 1.208-.574 2.133z"/><path d="M261.373 331.475c-.073-.146-.133-.406-.178-.78-.588.6-1.3.916-2.106.916-.73 0-1.328-.205-1.797-.615s-.698-.94-.698-1.572c0-.77.292-1.367.875-1.8.588-.43 1.413-.643 2.475-.643h1.23v-.58c0-.442-.132-.793-.396-1.053s-.654-.396-1.17-.396c-.45 0-.83.114-1.135.342s-.458.503-.458.827h-1.27c0-.37.13-.725.4-1.067s.62-.62 1.067-.82.945-.3 1.483-.3c.852 0 1.52.215 2.003.643s.734 1 .752 1.757v3.404c0 .68.087 1.22.26 1.62v.1h-1.326zm-2.1-.964c.396 0 .772-.103 1.128-.308a1.86 1.86 0 0 0 .772-.8v-1.517h-1c-1.55 0-2.324.453-2.324 1.36 0 .397.132.706.396.93s.604.335 1.02.335zm8.312-2.796c0-1.135.27-2.046.807-2.735s1.242-1.04 2.112-1.04 1.552.297 2.058.9v-3.855h1.265v10.5h-1.162l-.062-.793c-.506.62-1.2.93-2.112.93-.857 0-1.557-.35-2.1-1.052s-.807-1.618-.807-2.748v-.096zm1.265.143c0 .84.173 1.495.52 1.97s.824.7 1.435.7c.802 0 1.388-.36 1.757-1.08v-3.397c-.378-.698-.96-1.046-1.743-1.046a1.69 1.69 0 0 0-1.45.717c-.347.477-.52 1.188-.52 2.126zm11.512 3.617c-.073-.146-.132-.406-.178-.78-.588.6-1.3.916-2.105.916-.73 0-1.33-.205-1.798-.615a2 2 0 0 1-.698-1.572c0-.77.292-1.367.875-1.8s1.413-.643 2.475-.643h1.23v-.58c0-.442-.133-.793-.397-1.053s-.654-.396-1.17-.396c-.45 0-.83.114-1.135.342s-.458.503-.458.827h-1.27c0-.37.13-.725.4-1.067a2.78 2.78 0 0 1 1.066-.82 3.62 3.62 0 0 1 1.483-.301c.853 0 1.52.215 2.003.643s.734 1 .752 1.757v3.404c0 .68.087 1.22.26 1.62v.1h-1.326zm-2.1-.964a2.22 2.22 0 0 0 1.128-.308c.356-.205.613-.472.773-.8v-1.517h-.992c-1.55 0-2.324.453-2.324 1.36 0 .397.132.706.397.93s.603.335 1.018.335zm7.458-.9l1.723-5.544h1.353l-2.973 8.538c-.46 1.23-1.192 1.846-2.195 1.846l-.24-.02-.472-.088v-1.026l.342.027c.43 0 .76-.086.998-.26s.44-.5.595-.95l.28-.752-2.638-7.315h1.38l1.846 5.544zm12.25 1.853c-.073-.146-.132-.406-.178-.78-.587.6-1.3.916-2.105.916-.73 0-1.328-.205-1.798-.615s-.697-.94-.697-1.572c0-.77.292-1.367.875-1.8s1.413-.643 2.474-.643h1.23v-.58c0-.442-.132-.793-.397-1.053s-.654-.396-1.17-.396c-.45 0-.83.114-1.134.342s-.458.503-.458.827h-1.272c0-.37.13-.725.4-1.067a2.78 2.78 0 0 1 1.066-.82 3.62 3.62 0 0 1 1.484-.301c.852 0 1.52.215 2.003.643s.733 1 .752 1.757v3.404c0 .68.086 1.22.26 1.62v.1h-1.326zm-2.098-.964a2.22 2.22 0 0 0 1.127-.308c.356-.205.613-.472.773-.8v-1.517h-1c-1.55 0-2.325.453-2.325 1.36 0 .397.133.706.397.93s.604.335 1.02.335zm4.846-2.796c0-1.153.267-2.07.8-2.748a2.55 2.55 0 0 1 2.119-1.026c.903 0 1.607.32 2.112.957l.062-.82h1.155v7.22c0 .957-.285 1.7-.854 2.263s-1.326.827-2.283.827c-.534 0-1.055-.114-1.566-.342s-.9-.54-1.17-.937l.656-.758c.543.67 1.206 1.004 2 1.004.615 0 1.093-.173 1.435-.52s.52-.834.52-1.463v-.636c-.506.584-1.197.875-2.072.875a2.53 2.53 0 0 1-2.105-1.046c-.533-.697-.8-1.647-.8-2.85zm1.272.143c0 .834.17 1.5.512 1.97s.82.7 1.436.7c.797 0 1.383-.362 1.757-1.087v-3.377c-.388-.706-.97-1.06-1.743-1.06a1.68 1.68 0 0 0-1.443.717c-.346.48-.52 1.188-.52 2.126zm6.555-.15c0-.725.142-1.376.424-1.955s.684-1.025 1.2-1.34a3.26 3.26 0 0 1 1.743-.472c1.007 0 1.82.35 2.44 1.046s.937 1.625.937 2.783v.088c0 .72-.14 1.368-.417 1.942s-.668 1.014-1.183 1.333c-.5.32-1.098.478-1.764.478-1.002 0-1.816-.348-2.44-1.046s-.93-1.62-.93-2.768v-.1zm1.272.15c0 .82.2 1.48.567 1.976s.893.745 1.53.745a1.82 1.82 0 0 0 1.532-.752c.378-.506.567-1.212.567-2.12 0-.8-.194-1.467-.58-1.97a1.82 1.82 0 0 0-1.531-.759c-.625 0-1.128.25-1.5.746s-.574 1.207-.574 2.132zm-36.2-229.603h-1.312V88.3h1.312v9.953zm3.404-7.397l.04.93c.566-.7 1.304-1.066 2.215-1.066 1.563 0 2.352.882 2.366 2.645v4.888h-1.265V93.36c-.005-.533-.128-.927-.37-1.183s-.6-.383-1.114-.383a1.83 1.83 0 0 0-1.08.328c-.3.218-.55.506-.724.86v5.27h-1.265v-7.397h1.196zm16.25 3.78c0 1.126-.257 2.032-.772 2.72s-1.212 1.032-2.092 1.032c-.898 0-1.604-.285-2.12-.854v3.56h-1.265v-10.24h1.156l.06.82c.515-.638 1.23-.957 2.147-.957.888 0 1.6.335 2.105 1.005s.78 1.602.78 2.796v.116zm-1.264-.144c0-.834-.178-1.493-.533-1.976s-.843-.725-1.463-.725c-.766 0-1.34.34-1.723 1.02v3.534a1.86 1.86 0 0 0 1.736 1.012 1.7 1.7 0 0 0 1.443-.718c.36-.483.54-1.2.54-2.146zm6.453-2.502a3.79 3.79 0 0 0-.622-.048c-.83 0-1.392.353-1.7 1.06v5.25h-1.264v-7.397h1.23l.02.855c.414-.66 1.002-1 1.763-1 .247 0 .433.032.56.096v1.176zm.697 2.495c0-.725.142-1.376.424-1.955s.684-1.025 1.2-1.34a3.26 3.26 0 0 1 1.743-.472c1.007 0 1.82.35 2.44 1.046s.937 1.625.937 2.782v.1c0 .72-.14 1.367-.417 1.94s-.668 1.014-1.183 1.333-1.098.478-1.764.478c-1.002 0-1.816-.35-2.44-1.046s-.93-1.62-.93-2.77v-.1zm1.272.15c0 .82.2 1.48.567 1.976.383.497.893.745 1.53.745.643 0 1.153-.25 1.532-.752s.567-1.212.567-2.12c0-.8-.194-1.467-.58-1.97a1.82 1.82 0 0 0-1.531-.759 1.81 1.81 0 0 0-1.51.745c-.382.497-.574 1.208-.574 2.133zm6.747-.144c0-1.153.266-2.07.8-2.748a2.55 2.55 0 0 1 2.119-1.025c.902 0 1.606.32 2.112.957l.062-.82h1.155v7.22c0 .957-.285 1.7-.855 2.262s-1.326.828-2.283.828a3.8 3.8 0 0 1-1.565-.342c-.5-.228-.9-.54-1.17-.937l.656-.76c.542.67 1.205 1.005 2 1.005.615 0 1.094-.173 1.436-.52s.52-.834.52-1.463v-.636c-.506.583-1.196.875-2.07.875a2.53 2.53 0 0 1-2.105-1.046c-.534-.697-.8-1.647-.8-2.85zm1.27.144c0 .834.17 1.5.513 1.97s.82.7 1.436.7c.797 0 1.383-.362 1.756-1.087v-3.377c-.387-.706-.968-1.06-1.743-1.06-.615 0-1.096.24-1.442.718s-.52 1.187-.52 2.126zm10.466-2.645a3.79 3.79 0 0 0-.622-.048c-.83 0-1.392.353-1.688 1.06v5.25h-1.265v-7.397h1.23l.02.855c.415-.66 1.002-1 1.764-1 .246 0 .432.032.56.096v1.176zm4.102 6.398c-1.003 0-1.82-.328-2.448-.984s-.943-1.543-.943-2.645v-.232c0-.734.14-1.388.417-1.962s.674-1.03 1.176-1.354a2.98 2.98 0 0 1 1.64-.492c.962 0 1.7.317 2.243.95s.8 1.54.8 2.72v.526h-5c.018.73.23 1.32.635 1.77.4.447.93.67 1.56.67.447 0 .825-.1 1.135-.273a2.84 2.84 0 0 0 .813-.725l.773.602c-.62.953-1.55 1.43-2.8 1.43zm-.158-6.63a1.68 1.68 0 0 0-1.285.561c-.346.37-.56.9-.642 1.56h3.705v-.096c-.037-.643-.2-1.14-.52-1.5s-.73-.533-1.258-.533zm8.82 4.532c0-.342-.13-.606-.4-.793s-.704-.355-1.347-.492-1.146-.3-1.524-.492-.652-.42-.834-.684-.267-.58-.267-.943c0-.606.256-1.12.766-1.538s1.17-.63 1.97-.63c.838 0 1.517.217 2.037.65a2.07 2.07 0 0 1 .786 1.66h-1.27c0-.346-.15-.645-.445-.895s-.66-.376-1.107-.376c-.46 0-.82.1-1.08.3s-.4.463-.4.786c0 .305.12.535.362.7s.677.303 1.306.444 1.146.3 1.538.506.68.433.868.7a1.74 1.74 0 0 1 .287 1.005 1.9 1.9 0 0 1-.793 1.593c-.528.396-1.214.595-2.057.595-.593 0-1.117-.105-1.572-.314s-.814-.5-1.074-.875a2.1 2.1 0 0 1-.382-1.224h1.264c.023.424.192.76.506 1.012s.738.37 1.258.37c.478 0 .86-.096 1.148-.287s.438-.456.438-.78zm7.22 0c0-.342-.13-.606-.4-.793s-.704-.355-1.347-.492-1.146-.3-1.524-.492-.652-.42-.834-.684-.267-.58-.267-.943c0-.606.255-1.12.766-1.538s1.17-.63 1.97-.63c.838 0 1.517.217 2.037.65a2.07 2.07 0 0 1 .786 1.66h-1.272c0-.346-.148-.645-.444-.895s-.66-.376-1.107-.376c-.46 0-.82.1-1.08.3s-.4.463-.4.786c0 .305.12.535.362.7s.677.303 1.306.444 1.146.3 1.538.506.68.433.868.7a1.74 1.74 0 0 1 .287 1.005 1.9 1.9 0 0 1-.793 1.593c-.528.396-1.214.595-2.057.595-.593 0-1.117-.105-1.573-.314s-.813-.5-1.073-.875-.383-.786-.383-1.224h1.265a1.32 1.32 0 0 0 .506 1.012c.316.252.738.37 1.258.37.478 0 .86-.096 1.148-.287s.438-.456.438-.78z"/></g><circle cx="258.562" cy="94.746" r="2.712" fill="#ff272d"/><path d="M272.618 156.56h-1.313v-9.953h1.313v9.953zm3.404-7.396l.04.93c.565-.71 1.303-1.067 2.215-1.067 1.563 0 2.35.882 2.365 2.646v4.887h-1.265v-4.894c-.004-.533-.127-.928-.37-1.183s-.608-.383-1.114-.383a1.83 1.83 0 0 0-1.08.328c-.3.22-.55.506-.725.862v5.27h-1.264v-7.396h1.196zm16.25 3.78c0 1.126-.257 2.033-.772 2.72s-1.213 1.032-2.092 1.032c-.898 0-1.604-.285-2.12-.854v3.56h-1.265v-10.24h1.155l.062.82c.515-.638 1.23-.957 2.146-.957.89 0 1.59.335 2.106 1.005s.78 1.602.78 2.796v.116zm-1.265-.143c0-.834-.177-1.493-.533-1.976s-.843-.725-1.463-.725c-.765 0-1.34.34-1.722 1.02v3.534c.378.675.957 1.012 1.736 1.012a1.7 1.7 0 0 0 1.442-.718c.36-.483.54-1.2.54-2.146zm6.453-2.502c-.19-.032-.398-.048-.622-.048-.83 0-1.392.353-1.688 1.06v5.25h-1.265v-7.396h1.23l.02.854c.415-.66 1.003-.99 1.764-.99.246 0 .433.032.56.096v1.176zm.698 2.495c0-.725.14-1.377.424-1.955s.683-1.026 1.19-1.34 1.09-.472 1.743-.472c1.007 0 1.82.35 2.44 1.046s.936 1.625.936 2.782v.09c0 .72-.14 1.367-.417 1.942-.273.57-.667 1.014-1.182 1.333s-1.1.478-1.764.478c-1.003 0-1.816-.35-2.44-1.046-.62-.697-.93-1.62-.93-2.768v-.09zm1.27.15c0 .82.19 1.48.568 1.976s.893.745 1.53.745 1.153-.25 1.53-.752.567-1.212.567-2.12c0-.81-.193-1.468-.58-1.97a1.82 1.82 0 0 0-1.531-.759c-.624 0-1.128.25-1.51.745s-.574 1.208-.574 2.133zm6.747-.143c0-1.153.267-2.07.8-2.748a2.55 2.55 0 0 1 2.119-1.026c.903 0 1.607.32 2.113.957l.06-.82h1.155v7.22c0 .957-.284 1.71-.854 2.262s-1.326.827-2.283.827c-.534 0-1.055-.113-1.566-.34s-.9-.54-1.17-.937l.657-.76c.542.67 1.205 1.005 1.99 1.005.615 0 1.094-.173 1.435-.52.347-.347.52-.834.52-1.463v-.636c-.506.583-1.196.875-2.07.875-.866 0-1.568-.35-2.106-1.046s-.8-1.647-.8-2.85zm1.272.143c0 .834.17 1.5.512 1.97.342.474.82.71 1.436.71.798 0 1.383-.363 1.757-1.087v-3.377c-.388-.706-.97-1.06-1.743-1.06-.616 0-1.096.24-1.443.718s-.52 1.187-.52 2.126zm10.466-2.645c-.192-.032-.4-.048-.622-.048-.83 0-1.393.353-1.69 1.06v5.25h-1.265v-7.396h1.23l.02.854c.415-.66 1.003-.99 1.764-.99.246 0 .433.032.56.096v1.176zm4.1 6.398c-1.002 0-1.818-.328-2.447-.984s-.943-1.543-.943-2.646v-.232c0-.734.14-1.388.417-1.962.282-.58.674-1.03 1.175-1.354a2.96 2.96 0 0 1 1.641-.492c.962 0 1.71.317 2.242.95s.8 1.54.8 2.72v.526h-5.01c.018.73.23 1.32.636 1.77s.93.67 1.56.67c.446 0 .824-.09 1.134-.274a2.85 2.85 0 0 0 .814-.724l.772.6c-.62.953-1.55 1.43-2.79 1.43zm-.157-6.63a1.68 1.68 0 0 0-1.285.561c-.347.37-.56.888-.643 1.558h3.705v-.095c-.036-.643-.21-1.14-.52-1.49s-.73-.533-1.258-.533zm8.818 4.532a.92.92 0 0 0-.389-.793c-.256-.19-.704-.355-1.347-.492s-1.146-.3-1.524-.492-.652-.42-.834-.684-.267-.578-.267-.943c0-.606.255-1.12.766-1.538s1.17-.63 1.968-.63c.84 0 1.518.217 2.037.65.525.432.787.986.787 1.66H330.6c0-.347-.148-.645-.444-.896s-.66-.376-1.108-.376c-.46 0-.82.1-1.08.3s-.39.463-.39.786c0 .305.12.536.362.69s.677.303 1.306.444 1.146.3 1.538.506.68.433.868.71.287.608.287 1.005a1.9 1.9 0 0 1-.793 1.592c-.53.397-1.215.595-2.058.595-.592 0-1.116-.105-1.572-.314s-.813-.502-1.073-.875a2.15 2.15 0 0 1-.383-1.224h1.265a1.32 1.32 0 0 0 .506 1.012c.32.246.738.37 1.257.37.48 0 .862-.096 1.15-.287s.437-.456.437-.78zm7.22 0c0-.34-.13-.606-.4-.793s-.704-.355-1.346-.492-1.146-.3-1.525-.492c-.373-.19-.65-.42-.834-.684-.177-.264-.266-.578-.266-.943 0-.606.255-1.12.765-1.538s1.172-.63 1.97-.63c.84 0 1.518.217 2.037.65.524.432.786.986.786 1.66h-1.27c0-.347-.148-.645-.444-.896s-.66-.376-1.108-.376c-.46 0-.82.1-1.08.3s-.4.463-.4.786c0 .305.12.536.363.69s.676.303 1.305.444c.634.14 1.146.3 1.538.506s.682.433.87.71.287.608.287 1.005a1.9 1.9 0 0 1-.793 1.592c-.53.397-1.215.595-2.058.595-.592 0-1.116-.105-1.572-.314s-.814-.502-1.073-.875c-.256-.38-.383-.787-.383-1.224h1.264c.023.424.192.76.506 1.012s.74.37 1.258.37c.48 0 .86-.096 1.15-.287s.437-.456.437-.78z" fill="#78909c"/><circle cx="258.561" cy="151.696" r="2.712" fill="#ff272d"/><path d="M407.232 93.8c0 1.43-.268 2.5-.806 3.24s-1.347 1.087-2.44 1.087c-1.075 0-1.886-.353-2.433-1.06s-.82-1.76-.834-3.15v-1.723c0-1.43.266-2.504.8-3.22s1.355-1.073 2.454-1.073c1.1 0 1.9.35 2.433 1.046s.814 1.74.827 3.13V93.8zm-1.66-1.86c0-.934-.127-1.618-.383-2.05s-.66-.656-1.216-.656c-.543 0-.94.207-1.197.622s-.4 1.053-.403 1.928v2.256c0 .93.13 1.622.4 2.078s.667.684 1.223.684c.534 0 .928-.2 1.183-.63s.4-1.085.403-1.982v-2.25zm4.24 4.3c.3 0 .55.1.717.267a.9.9 0 0 1 .253.656c0 .26-.084.476-.253.65s-.408.253-.717.253c-.297 0-.53-.084-.705-.253a.86.86 0 0 1-.26-.65.9.9 0 0 1 .253-.656c.168-.178.405-.267.7-.267zm0-5.804c.3 0 .55.1.717.267a.9.9 0 0 1 .253.656c0 .26-.084.476-.253.65s-.408.253-.717.253c-.297 0-.53-.084-.705-.253a.86.86 0 0 1-.26-.65.9.9 0 0 1 .253-.656c.168-.178.405-.267.7-.267zM418.9 93.8c0 1.43-.27 2.5-.806 3.24s-1.347 1.087-2.44 1.087c-1.075 0-1.887-.353-2.433-1.06s-.82-1.76-.834-3.15v-1.723c0-1.43.266-2.504.8-3.22s1.356-1.073 2.454-1.073 1.9.35 2.434 1.046.814 1.74.827 3.13V93.8zm-1.66-1.86c0-.934-.128-1.618-.383-2.05s-.66-.656-1.217-.656c-.542 0-.94.207-1.196.622s-.4 1.053-.403 1.928v2.256c0 .93.13 1.622.4 2.078s.667.684 1.223.684c.533 0 .928-.2 1.183-.63s.4-1.085.403-1.982v-2.25zm3.575 1.114l.54-5.018h5.346v1.436h-3.965l-.273 2.38c.46-.264.98-.397 1.558-.397.948 0 1.684.303 2.208.9s.793 1.422.793 2.447c0 1.012-.3 1.818-.875 2.42s-1.383.895-2.4.895c-.912 0-1.668-.258-2.27-.772s-.92-1.203-.97-2.05h1.606c.064.483.237.855.52 1.114s.65.383 1.107.383c.5 0 .907-.182 1.2-.547s.43-.86.43-1.5c0-.606-.157-1.085-.472-1.435s-.747-.533-1.298-.533a2.11 2.11 0 0 0-.766.123c-.2.078-.437.233-.684.465l-1.326-.328zM405.243 158h-1.654v-8l-2.44.834v-1.402l3.883-1.428h.212V158zm4.567-1.75c.3 0 .55.1.717.267a.9.9 0 0 1 .253.656.89.89 0 0 1-.253.649c-.168.17-.408.253-.717.253-.297 0-.53-.084-.705-.253a.86.86 0 0 1-.26-.65.9.9 0 0 1 .253-.656c.168-.178.405-.267.7-.267zm0-5.804c.3 0 .55.1.717.267a.9.9 0 0 1 .253.656c0 .26-.084.476-.253.65-.168.168-.408.252-.717.252-.297 0-.53-.084-.705-.252a.86.86 0 0 1-.26-.65.9.9 0 0 1 .253-.656c.168-.178.405-.267.7-.267zm9.098 3.364c0 1.43-.27 2.5-.806 3.24-.534.724-1.347 1.087-2.44 1.087-1.075 0-1.887-.353-2.433-1.06s-.82-1.76-.834-3.15v-1.723c0-1.43.266-2.504.8-3.22s1.356-1.073 2.454-1.073 1.9.35 2.434 1.046.814 1.74.827 3.13v1.723zm-1.66-1.86c0-.934-.128-1.618-.383-2.05s-.66-.656-1.217-.656c-.542 0-.94.208-1.196.622s-.4 1.053-.403 1.928v2.256c0 .93.13 1.622.4 2.078s.667.684 1.223.684c.533 0 .928-.2 1.183-.63s.4-1.085.403-1.983v-2.25zm9.618 1.86c0 1.43-.27 2.5-.806 3.24-.534.724-1.347 1.087-2.44 1.087-1.075 0-1.887-.353-2.433-1.06s-.82-1.76-.834-3.15v-1.723c0-1.43.266-2.504.8-3.22s1.356-1.073 2.454-1.073 1.9.35 2.434 1.046.814 1.74.827 3.13v1.723zm-1.66-1.86c0-.934-.128-1.618-.383-2.05s-.66-.656-1.217-.656c-.542 0-.94.208-1.196.622s-.4 1.053-.403 1.928v2.256c0 .93.13 1.622.4 2.078s.667.684 1.223.684c.533 0 .928-.2 1.183-.63s.4-1.085.403-1.983v-2.25zM407.438 216h-6.693v-1.142l3.316-3.616c.478-.533.818-.977 1.018-1.333s.308-.72.308-1.08c0-.474-.135-.857-.404-1.148s-.622-.438-1.073-.438c-.538 0-.955.164-1.25.492s-.444.777-.444 1.347h-1.66c0-.606.136-1.15.4-1.634s.672-.866 1.182-1.135 1.108-.403 1.778-.403c.966 0 1.727.244 2.283.732s.84 1.153.84 2c0 .497-.14 1.02-.424 1.566-.278.542-.736 1.16-1.374 1.852l-2.434 2.605h4.622V216zm2.372-1.75c.3 0 .55.1.717.267a.9.9 0 0 1 .253.656.89.89 0 0 1-.253.649c-.168.17-.408.253-.717.253-.297 0-.53-.084-.705-.253a.86.86 0 0 1-.26-.65.9.9 0 0 1 .253-.656c.168-.178.405-.267.7-.267zm0-5.804c.3 0 .55.1.717.267a.9.9 0 0 1 .253.656c0 .26-.084.476-.253.65-.168.168-.408.252-.717.252-.297 0-.53-.084-.705-.252a.86.86 0 0 1-.26-.65.9.9 0 0 1 .253-.656c.168-.178.405-.267.7-.267zm9.098 3.364c0 1.43-.27 2.5-.806 3.24-.534.724-1.347 1.087-2.44 1.087-1.075 0-1.887-.353-2.433-1.06s-.82-1.76-.834-3.15v-1.723c0-1.43.266-2.504.8-3.22s1.356-1.073 2.454-1.073 1.9.35 2.434 1.046.814 1.74.827 3.13v1.723zm-1.66-1.86c0-.934-.128-1.618-.383-2.05s-.66-.656-1.217-.656c-.542 0-.94.208-1.196.622s-.4 1.053-.403 1.928v2.256c0 .93.13 1.622.4 2.078s.667.684 1.223.684c.533 0 .928-.2 1.183-.63s.4-1.085.403-1.983v-2.25zm9.618 1.86c0 1.43-.27 2.5-.806 3.24-.534.724-1.347 1.087-2.44 1.087-1.075 0-1.887-.353-2.433-1.06s-.82-1.76-.834-3.15v-1.723c0-1.43.266-2.504.8-3.22s1.356-1.073 2.454-1.073 1.9.35 2.434 1.046.814 1.74.827 3.13v1.723zm-1.66-1.86c0-.934-.128-1.618-.383-2.05s-.66-.656-1.217-.656c-.542 0-.94.208-1.196.622s-.4 1.053-.403 1.928v2.256c0 .93.13 1.622.4 2.078s.667.684 1.223.684c.533 0 .928-.2 1.183-.63s.4-1.085.403-1.983v-2.25zM405.243 276h-1.654v-8l-2.44.834v-1.402l3.883-1.428h.212V276zm4.567-1.75c.3 0 .55.1.717.267a.9.9 0 0 1 .253.656.89.89 0 0 1-.253.649c-.168.17-.408.253-.717.253-.297 0-.53-.084-.705-.253a.86.86 0 0 1-.26-.65.9.9 0 0 1 .253-.656c.168-.178.405-.267.7-.267zm0-5.804c.3 0 .55.1.717.267a.9.9 0 0 1 .253.656c0 .26-.084.476-.253.65-.168.168-.408.252-.717.252-.297 0-.53-.084-.705-.252a.86.86 0 0 1-.26-.65.9.9 0 0 1 .253-.656c.168-.178.405-.267.7-.267zm9.098 3.364c0 1.43-.27 2.5-.806 3.24s-1.347 1.087-2.44 1.087c-1.075 0-1.887-.353-2.433-1.06s-.82-1.76-.834-3.15v-1.723c0-1.43.266-2.504.8-3.22s1.356-1.073 2.454-1.073 1.9.35 2.434 1.046.814 1.74.827 3.13v1.723zm-1.66-1.86c0-.934-.128-1.618-.383-2.05s-.66-.656-1.217-.656c-.542 0-.94.208-1.196.622s-.4 1.053-.403 1.928v2.256c0 .93.13 1.622.4 2.078s.667.684 1.223.684c.533 0 .928-.2 1.183-.63.255-.424.4-1.085.403-1.983v-2.25zm9.618 1.86c0 1.43-.27 2.5-.806 3.24s-1.347 1.087-2.44 1.087c-1.075 0-1.887-.353-2.433-1.06s-.82-1.76-.834-3.15v-1.723c0-1.43.266-2.504.8-3.22s1.356-1.073 2.454-1.073 1.9.35 2.434 1.046.814 1.74.827 3.13v1.723zm-1.66-1.86c0-.934-.128-1.618-.383-2.05s-.66-.656-1.217-.656c-.542 0-.94.208-1.196.622s-.4 1.053-.403 1.928v2.256c0 .93.13 1.622.4 2.078s.667.684 1.223.684c.533 0 .928-.2 1.183-.63.255-.424.4-1.085.403-1.983v-2.25zm-18.192 53.722c0 .488-.126.923-.376 1.306s-.593.676-1.026.895c.52.242.92.572 1.197 1a2.49 2.49 0 0 1 .423 1.422c0 .875-.296 1.57-.888 2.085s-1.38.766-2.365.766-1.782-.258-2.38-.773-.9-1.207-.9-2.078c0-.533.14-1.012.424-1.435s.68-.75 1.2-.978c-.428-.22-.768-.517-1.018-.895a2.32 2.32 0 0 1-.37-1.306c0-.848.273-1.52.82-2.017s1.285-.745 2.215-.745 1.674.25 2.22.745.82 1.17.82 2.017zm-1.443 4.532c0-.492-.148-.9-.444-1.2-.292-.306-.68-.458-1.162-.458s-.87.15-1.162.45-.43.7-.43 1.196c0 .488.14.877.424 1.17s.68.438 1.183.438.9-.142 1.168-.424c.283-.283.424-.677.424-1.183zm-.212-4.47c0-.433-.125-.788-.376-1.066s-.587-.424-1-.424-.76.135-1.005.403-.37.627-.37 1.087.123.818.37 1.087.588.404 1.012.404.758-.135 1.004-.404.376-.63.376-1.087zm4.45 5.517c.3 0 .55.1.717.267a.9.9 0 0 1 .253.656.89.89 0 0 1-.253.649c-.168.17-.408.253-.717.253-.297 0-.53-.084-.705-.253a.86.86 0 0 1-.26-.65.9.9 0 0 1 .253-.656c.168-.178.405-.267.7-.267zm0-5.804c.3 0 .55.1.717.267a.9.9 0 0 1 .253.656c0 .26-.084.476-.253.65-.168.168-.408.252-.717.252-.297 0-.53-.084-.705-.252a.86.86 0 0 1-.26-.65.9.9 0 0 1 .253-.656c.168-.178.405-.267.7-.267zm9.098 3.364c0 1.43-.27 2.5-.806 3.24s-1.347 1.087-2.44 1.087c-1.075 0-1.887-.353-2.433-1.06s-.82-1.76-.834-3.15v-1.723c0-1.43.266-2.504.8-3.22s1.356-1.073 2.454-1.073 1.9.35 2.434 1.046.814 1.74.827 3.13v1.723zm-1.66-1.86c0-.934-.128-1.618-.383-2.05s-.66-.656-1.217-.656c-.542 0-.94.208-1.196.622s-.4 1.053-.403 1.928v2.256c0 .93.13 1.622.4 2.078s.667.684 1.223.684c.533 0 .928-.2 1.183-.63.255-.424.4-1.085.403-1.983v-2.25zm9.618 1.86c0 1.43-.27 2.5-.806 3.24s-1.347 1.087-2.44 1.087c-1.075 0-1.887-.353-2.433-1.06s-.82-1.76-.834-3.15v-1.723c0-1.43.266-2.504.8-3.22s1.356-1.073 2.454-1.073 1.9.35 2.434 1.046.814 1.74.827 3.13v1.723zm-1.66-1.86c0-.934-.128-1.618-.383-2.05s-.66-.656-1.217-.656c-.542 0-.94.208-1.196.622s-.4 1.053-.403 1.928v2.256c0 .93.13 1.622.4 2.078s.667.684 1.223.684c.533 0 .928-.2 1.183-.63.255-.424.4-1.085.403-1.983v-2.25z" class="E"/><defs><filter id="F" x="0" y="0" width="522" height="420" filterUnits="userSpaceOnUse" color-interpolation-filters="sRGB"><feFlood flood-opacity="0" result="A"/><feColorMatrix in="SourceAlpha" values="0 0 0 0 0 0 0 0 0 0 0 0 0 0 0 0 0 0 127 0"/><feOffset/><feGaussianBlur stdDeviation="25"/><feColorMatrix values="0 0 0 0 0.00392157 0 0 0 0 0.341176 0 0 0 0 0.607843 0 0 0 0.1 0"/><feBlend in2="A"/><feBlend in="SourceGraphic"/></filter><path id="G" d="M92 155.5h6a6.5 6.5 0 0 1 6.5 6.5v4a6.5 6.5 0 0 1-6.5 6.5h-6a6.5 6.5 0 0 1-6.5-6.5v-4a6.5 6.5 0 0 1 6.5-6.5z"/></defs></svg>