<svg xmlns="http://www.w3.org/2000/svg" width="1150" height="877" fill="none" xmlns:v="https://vecta.io/nano"><ellipse rx="2.5" ry="2.484" transform="matrix(0 -1 -1 0 828.484 268.5)" fill="#2f2f2f"/><path d="M828 51v217.5" stroke="#2f2f2f" stroke-width=".635"/><g fill="#2f2f2f"><path d="M724.117 35.93c-1.286-.37-2.224-.823-2.812-1.36a2.62 2.62 0 0 1-.875-2 2.74 2.74 0 0 1 1.07-2.219c.72-.59 1.65-.883 2.797-.883.78 0 1.476.15 2.086.453s1.088.72 1.422 1.25a3.18 3.18 0 0 1 .507 1.742h-1.507c0-.687-.22-1.227-.657-1.617-.437-.396-1.054-.594-1.85-.594-.74 0-1.318.164-1.735.492-.41.323-.617.774-.617 1.352 0 .463.196.857.586 1.18.396.318 1.065.61 2.008.875s1.688.56 2.22.883c.536.318.932.7 1.187 1.117.26.427.39.93.39 1.508 0 .922-.36 1.66-1.078 2.22-.72.552-1.68.828-2.883.828-.78 0-1.5-.148-2.188-.445-.677-.302-1.2-.714-1.57-1.234-.364-.52-.547-1.112-.547-1.773h1.508c0 .688.253 1.232.758 1.633.5.396 1.2.594 2.04.594.792 0 1.398-.16 1.82-.484s.633-.763.633-1.32-.195-.987-.586-1.29c-.4-.307-1.1-.61-2.125-.906zm9.43 5.227c-1.146 0-2.078-.375-2.797-1.125-.72-.755-1.078-1.763-1.078-3.023v-.266c0-.84.16-1.586.476-2.242.323-.66.77-1.177 1.344-1.547a3.38 3.38 0 0 1 1.875-.562c1.1 0 1.953.362 2.563 1.086s.914 1.76.914 3.11v.602h-5.727c.02.833.263 1.508.727 2.023a2.31 2.31 0 0 0 1.781.766c.5 0 .943-.104 1.297-.312s.664-.484.93-.828l.882.688c-.708 1.09-1.77 1.633-3.187 1.633zm-.18-7.578a1.92 1.92 0 0 0-1.469.641c-.395.422-.64 1.016-.734 1.78h4.234v-.11c-.04-.734-.24-1.302-.593-1.703-.355-.406-.834-.61-1.438-.61zm7.117-3.078v2.047h1.578v1.117h-1.578v5.242c0 .34.07.594.21.766.14.167.38.25.72.25.167 0 .396-.03.688-.094V41c-.38.104-.75.156-1.1.156-.646 0-1.133-.195-1.46-.586s-.492-.945-.492-1.664v-5.242h-1.54v-1.117h1.54V30.5h1.445zm10.75 10.656c-1.146 0-2.078-.375-2.797-1.125-.718-.755-1.078-1.763-1.078-3.023v-.266c0-.84.16-1.586.477-2.242.323-.66.77-1.177 1.344-1.547a3.38 3.38 0 0 1 1.875-.562c1.1 0 1.953.362 2.562 1.086s.914 1.76.914 3.11v.602h-5.726c.02.833.263 1.508.726 2.023.47.51 1.063.766 1.78.766.51 0 .943-.104 1.297-.312s.664-.484.93-.828l.883.688c-.71 1.09-1.77 1.633-3.188 1.633zm-.18-7.578a1.92 1.92 0 0 0-1.469.641c-.396.422-.64 1.016-.734 1.78h4.234v-.11c-.042-.734-.24-1.302-.594-1.703-.354-.406-.833-.61-1.437-.61zm10.078 5.18c0-.39-.15-.693-.446-.906-.29-.22-.804-.406-1.54-.562-.73-.156-1.3-.344-1.742-.562-.427-.22-.745-.48-.953-.78s-.305-.66-.305-1.078c0-.693.292-1.28.875-1.758.59-.48 1.34-.72 2.25-.72.96 0 1.735.247 2.33.742s.898 1.128.898 1.898h-1.453c0-.396-.17-.737-.508-1.023-.333-.286-.755-.43-1.266-.43-.526 0-.937.115-1.234.344a1.08 1.08 0 0 0-.445.898c0 .35.138.612.414.79s.773.346 1.492.508 1.3.354 1.758.578.778.495.992.813c.22.313.328.695.328 1.148a2.17 2.17 0 0 1-.906 1.82c-.604.453-1.388.68-2.352.68-.677 0-1.276-.12-1.797-.36s-.93-.573-1.226-1a2.45 2.45 0 0 1-.438-1.398h1.446a1.51 1.51 0 0 0 .578 1.156c.364.28.844.422 1.437.422.547 0 .985-.11 1.313-.328.333-.224.5-.52.5-.89zm5.29-8.258v2.047H768v1.117h-1.578v5.242c0 .34.07.594.21.766.14.167.38.25.72.25.166 0 .395-.03.687-.094V41c-.38.104-.75.156-1.11.156-.646 0-1.133-.195-1.46-.586s-.492-.945-.492-1.664v-5.242h-1.54v-1.117h1.54V30.5h1.445zm4.844 10.5h-1.446v-8.453h1.446V41zm-1.563-10.695a.87.87 0 0 1 .211-.594c.146-.16.36-.242.64-.242s.494.08.64.242.22.36.22.594-.073.43-.22.586-.36.234-.64.234-.495-.078-.64-.234a.84.84 0 0 1-.211-.586zm5.242 2.242l.04.938c.62-.73 1.456-1.094 2.508-1.094 1.182 0 1.987.453 2.414 1.36a3.21 3.21 0 0 1 1.094-.984c.453-.25.987-.375 1.602-.375 1.854 0 2.796.982 2.828 2.945V41h-1.446v-5.578c0-.604-.138-1.055-.414-1.352-.276-.302-.74-.453-1.4-.453-.537 0-.982.16-1.336.484-.354.318-.56.747-.617 1.29V41h-1.454v-5.54c0-1.23-.6-1.844-1.804-1.844-.948 0-1.597.404-1.946 1.21V41h-1.445v-8.453h1.367zM792.836 41c-.083-.167-.15-.464-.203-.89-.672.698-1.474 1.047-2.406 1.047-.834 0-1.52-.234-2.055-.703-.53-.474-.797-1.073-.797-1.797 0-.88.333-1.562 1-2.047.672-.5 1.615-.734 2.828-.734h1.406v-.664c0-.505-.15-.906-.453-1.203-.302-.302-.747-.453-1.336-.453-.515 0-.948.13-1.297.39s-.523.575-.523.945h-1.453c0-.422.148-.828.445-1.22.302-.396.708-.708 1.22-.937s1.08-.344 1.695-.344c.974 0 1.737.245 2.29.734.552.484.84 1.154.86 2.008v3.89c0 .776.1 1.393.297 1.852V41h-1.516zm-2.4-1.102c.454 0 .883-.117 1.3-.352s.7-.54.882-.914v-1.734h-1.132c-1.77 0-2.657.518-2.657 1.555 0 .453.15.807.453 1.063s.7.383 1.164.383zm7.844-9.398v2.047h1.578v1.117h-1.578v5.242c0 .34.07.594.21.766.14.167.38.25.72.25.167 0 .396-.03.687-.094V41c-.38.104-.75.156-1.11.156-.646 0-1.133-.195-1.46-.586s-.492-.945-.492-1.664v-5.242h-1.54v-1.117h1.54V30.5h1.445zm6.78 10.656c-1.145 0-2.078-.375-2.796-1.125-.72-.755-1.08-1.763-1.08-3.023v-.266c0-.84.16-1.586.477-2.242.323-.66.77-1.177 1.344-1.547a3.38 3.38 0 0 1 1.875-.562c1.1 0 1.953.362 2.562 1.086s.914 1.76.914 3.11v.602h-5.726c.02.833.263 1.508.726 2.023.47.51 1.063.766 1.782.766.5 0 .942-.104 1.296-.312a3.24 3.24 0 0 0 .93-.828l.883.688c-.708 1.09-1.77 1.633-3.188 1.633zm-.18-7.578a1.92 1.92 0 0 0-1.469.641c-.396.422-.64 1.016-.734 1.78h4.234v-.11c-.042-.734-.24-1.302-.594-1.703-.354-.406-.833-.61-1.437-.61zM819.227 41c-.084-.167-.152-.464-.204-.89-.67.698-1.474 1.047-2.406 1.047-.833 0-1.518-.234-2.055-.703-.53-.474-.796-1.073-.796-1.797 0-.88.333-1.562 1-2.047.67-.5 1.614-.734 2.828-.734H819v-.664c0-.505-.15-.906-.453-1.203-.302-.302-.748-.453-1.336-.453-.516 0-.948.13-1.297.39s-.523.575-.523.945h-1.454c0-.422.15-.828.446-1.22.302-.396.708-.708 1.22-.937s1.08-.344 1.695-.344c.974 0 1.737.245 2.29.734.552.484.838 1.154.86 2.008v3.89c0 .776.1 1.393.297 1.852V41h-1.515zm-2.4-1.102a2.54 2.54 0 0 0 1.289-.352c.406-.234.7-.54.883-.914v-1.734h-1.133c-1.77 0-2.656.518-2.656 1.555 0 .453.15.807.453 1.063s.7.383 1.164.383zm7.25-7.352l.047 1.063c.646-.812 1.5-1.22 2.53-1.22 1.787 0 2.688 1.008 2.703 3.023V41h-1.445v-5.594c-.005-.61-.146-1.06-.422-1.352-.27-.292-.695-.437-1.273-.437-.47 0-.88.125-1.235.375s-.63.578-.828.984V41h-1.445v-8.453h1.367zm7.11 4.156c0-1.297.308-2.338.922-3.125a2.91 2.91 0 0 1 2.414-1.187c1 0 1.774.34 2.352 1.016V29h1.445v12h-1.328l-.07-.906c-.578.708-1.383 1.062-2.414 1.062-.98 0-1.78-.4-2.4-1.203-.614-.802-.922-1.85-.922-3.14v-.11zm1.446.164c0 .958.198 1.708.594 2.25s.942.813 1.64.813c.917 0 1.586-.41 2.008-1.234v-3.883a2.12 2.12 0 0 0-1.992-1.195c-.71 0-1.26.273-1.656.82s-.594 1.357-.594 2.43zM846.5 30.5v2.047h1.578v1.117H846.5v5.242c0 .34.07.594.21.766.14.167.38.25.72.25.166 0 .395-.03.687-.094V41c-.38.104-.75.156-1.11.156-.646 0-1.133-.195-1.46-.586s-.492-.945-.492-1.664v-5.242h-1.54v-1.117h1.54V30.5h1.445zm7.36 3.344c-.218-.037-.455-.055-.71-.055-.948 0-1.59.404-1.93 1.21v6h-1.446v-8.453h1.407l.023.977c.474-.755 1.146-1.133 2.016-1.133.28 0 .494.037.64.11v1.344zM860.102 41c-.084-.167-.152-.464-.204-.89-.67.698-1.474 1.047-2.406 1.047-.833 0-1.518-.234-2.055-.703-.53-.474-.796-1.073-.796-1.797 0-.88.333-1.562 1-2.047.67-.5 1.614-.734 2.828-.734h1.406v-.664c0-.505-.15-.906-.453-1.203-.302-.302-.748-.453-1.336-.453-.516 0-.948.13-1.297.39s-.523.575-.523.945h-1.454c0-.422.15-.828.446-1.22.302-.396.708-.708 1.22-.937s1.08-.344 1.695-.344c.974 0 1.737.245 2.29.734.552.484.838 1.154.86 2.008v3.89c0 .776.1 1.393.297 1.852V41h-1.515zm-2.4-1.102a2.54 2.54 0 0 0 1.289-.352c.406-.234.7-.54.883-.914v-1.734h-1.133c-1.77 0-2.656.518-2.656 1.555 0 .453.15.807.453 1.063s.7.383 1.164.383zm9.274.078a2.08 2.08 0 0 0 1.351-.469c.385-.312.6-.703.64-1.172h1.367c-.026.484-.193.945-.5 1.383s-.72.786-1.234 1.047a3.53 3.53 0 0 1-1.625.391c-1.152 0-2.068-.383-2.75-1.148-.678-.77-1.016-1.823-1.016-3.156v-.242c0-.823.15-1.555.453-2.195s.734-1.138 1.297-1.492 1.237-.53 2.008-.53c.948 0 1.734.284 2.36.852s.966 1.305 1.008 2.21h-1.367a1.97 1.97 0 0 0-.625-1.344 1.91 1.91 0 0 0-1.375-.531c-.735 0-1.305.266-1.71.797-.4.526-.602 1.29-.602 2.29v.273c0 .974.2 1.724.602 2.25s.974.79 1.72.79zm7.343-2.89l-.906.945V41h-1.445V29h1.445v7.258l.773-.93 2.633-2.78h1.758l-3.29 3.53L878.96 41h-1.695l-2.946-3.914zm16.86-.22c0 1.286-.295 2.323-.883 3.11s-1.386 1.18-2.39 1.18c-1.026 0-1.833-.325-2.422-.977v4.07h-1.445V32.547h1.32l.07.938c.588-.73 1.406-1.094 2.453-1.094 1.015 0 1.817.383 2.406 1.148.594.766.89 1.83.89 3.195v.133zm-1.446-.164c0-.953-.203-1.706-.61-2.258a1.96 1.96 0 0 0-1.672-.828c-.875 0-1.53.388-1.97 1.164v4.04c.433.77 1.094 1.156 1.985 1.156.692 0 1.242-.273 1.648-.82.412-.552.617-1.37.617-2.453zm7.375-2.86c-.218-.037-.455-.055-.71-.055-.948 0-1.59.404-1.93 1.21v6h-1.446v-8.453h1.407l.023.977c.474-.755 1.146-1.133 2.016-1.133.28 0 .494.037.64.11v1.344zm.797 2.852c0-.828.162-1.573.485-2.234.328-.66.78-1.172 1.36-1.53s1.247-.54 1.992-.54c1.15 0 2.08.398 2.79 1.195.714.797 1.07 1.857 1.07 3.18v.102c0 .823-.16 1.563-.477 2.22a3.56 3.56 0 0 1-1.352 1.523c-.583.365-1.255.547-2.015.547-1.146 0-2.076-.398-2.79-1.195s-1.063-1.852-1.063-3.164v-.102zm1.453.172c0 .938.216 1.7.65 2.258s1.02.852 1.75.852 1.317-.286 1.75-.86c.432-.578.648-1.385.648-2.422 0-.927-.22-1.677-.664-2.25a2.08 2.08 0 0 0-1.75-.867 2.07 2.07 0 0 0-1.726.852c-.438.568-.657 1.38-.657 2.438zm7.71-.164c0-1.318.305-2.365.914-3.14.6-.78 1.417-1.172 2.422-1.172 1.03 0 1.836.365 2.414 1.094l.07-.937h1.32v8.25c0 1.094-.326 1.956-.977 2.586s-1.515.945-2.61.945c-.61 0-1.206-.13-1.79-.39s-1.03-.617-1.336-1.07l.75-.867c.62.766 1.378 1.148 2.273 1.148.704 0 1.25-.198 1.64-.594s.594-.953.594-1.672v-.727c-.578.667-1.367 1-2.367 1-1 0-1.792-.398-2.407-1.195-.61-.797-.914-1.883-.914-3.258zm1.453.164c0 .953.196 1.703.586 2.25.39.542.938.813 1.64.813.91 0 1.58-.414 2.008-1.242v-3.86c-.443-.807-1.107-1.21-1.992-1.21-.704 0-1.253.273-1.65.82s-.594 1.357-.594 2.43zm11.96-3.023c-.218-.037-.455-.055-.71-.055-.948 0-1.59.404-1.93 1.21v6h-1.446v-8.453h1.407l.023.977c.474-.755 1.146-1.133 2.016-1.133.28 0 .494.037.64.11v1.344zm4.688 7.312c-1.146 0-2.078-.375-2.797-1.125-.72-.755-1.078-1.763-1.078-3.023v-.266c0-.84.16-1.586.476-2.242.323-.66.77-1.177 1.344-1.547a3.38 3.38 0 0 1 1.875-.562c1.1 0 1.953.362 2.563 1.086s.914 1.76.914 3.11v.602h-5.727c.02.833.263 1.508.727 2.023a2.31 2.31 0 0 0 1.781.766c.5 0 .943-.104 1.297-.312s.664-.484.93-.828l.882.688c-.708 1.09-1.77 1.633-3.187 1.633zm-.18-7.578a1.92 1.92 0 0 0-1.469.641c-.395.422-.64 1.016-.734 1.78h4.234v-.11c-.04-.734-.24-1.302-.593-1.703-.355-.406-.834-.61-1.438-.61zm10.078 5.18c0-.39-.148-.693-.445-.906-.292-.22-.805-.406-1.54-.562s-1.3-.344-1.742-.562-.745-.48-.953-.78-.305-.66-.305-1.078c0-.693.292-1.28.875-1.758s1.338-.72 2.25-.72c.958 0 1.734.247 2.328.742a2.35 2.35 0 0 1 .898 1.898h-1.453c0-.396-.17-.737-.507-1.023s-.756-.43-1.266-.43c-.526 0-.938.115-1.234.344a1.08 1.08 0 0 0-.446.898c0 .35.138.612.414.79s.774.346 1.492.508c.724.16 1.3.354 1.758.578s.78.495.992.813c.22.313.33.695.33 1.148 0 .755-.303 1.362-.907 1.82-.604.453-1.388.68-2.35.68-.677 0-1.276-.12-1.797-.36s-.93-.573-1.227-1c-.29-.432-.437-.898-.437-1.398h1.445c.026.484.22.87.578 1.156.365.28.844.422 1.438.422.547 0 .984-.11 1.312-.328.334-.224.5-.52.5-.89zm8.25 0c0-.39-.148-.693-.445-.906-.292-.22-.805-.406-1.54-.562s-1.3-.344-1.742-.562-.745-.48-.953-.78-.305-.66-.305-1.078c0-.693.292-1.28.875-1.758s1.338-.72 2.25-.72c.958 0 1.734.247 2.328.742a2.35 2.35 0 0 1 .898 1.898h-1.453c0-.396-.17-.737-.507-1.023s-.756-.43-1.266-.43c-.526 0-.938.115-1.234.344a1.08 1.08 0 0 0-.446.898c0 .35.138.612.414.79s.774.346 1.492.508c.724.16 1.3.354 1.758.578s.78.495.992.813c.22.313.33.695.33 1.148 0 .755-.303 1.362-.907 1.82-.604.453-1.388.68-2.35.68-.677 0-1.276-.12-1.797-.36s-.93-.573-1.227-1c-.29-.432-.437-.898-.437-1.398h1.445c.026.484.22.87.578 1.156.365.28.844.422 1.438.422.547 0 .984-.11 1.312-.328.334-.224.5-.52.5-.89z"/><circle r="3" transform="matrix(0 1 1 0 841 729)"/></g><path d="M841 819v-88.5" stroke="#2f2f2f" stroke-width=".635"/><g fill="#2f2f2f"><path d="M768.414 834.86h-3.656V845h-1.492v-10.14h-3.65v-1.234h8.797v1.234zm4.953 2.985c-.22-.037-.456-.055-.71-.055-.948 0-1.59.404-1.93 1.21v6h-1.446v-8.453h1.407l.023.976c.474-.755 1.146-1.132 2.016-1.132.28 0 .494.036.64.11v1.344zM779.61 845c-.083-.167-.15-.464-.203-.89-.672.698-1.474 1.047-2.406 1.047-.833 0-1.518-.234-2.055-.703-.53-.474-.797-1.073-.797-1.797 0-.88.334-1.562 1-2.047.672-.49 1.615-.734 2.83-.734h1.406v-.664c0-.505-.15-.906-.453-1.203-.302-.302-.748-.453-1.336-.453-.516 0-.948.13-1.297.4s-.524.576-.524.946h-1.453c0-.422.15-.83.446-1.22.302-.396.708-.708 1.218-.938.516-.23 1.08-.343 1.696-.343.974 0 1.737.244 2.29.734.552.484.838 1.154.86 2.008v3.9c0 .776.1 1.394.297 1.852V845h-1.516zm-2.398-1.102c.453 0 .883-.117 1.29-.35s.7-.54.883-.914v-1.735h-1.133c-1.77 0-2.656.52-2.656 1.555 0 .453.15.807.453 1.063s.7.382 1.164.382zm9.273.08c.516 0 .967-.157 1.352-.47s.6-.703.64-1.172h1.367c-.026.484-.193.945-.5 1.383a3.3 3.3 0 0 1-1.235 1.047 3.53 3.53 0 0 1-1.625.39c-1.15 0-2.067-.383-2.75-1.148-.677-.77-1.015-1.823-1.015-3.156v-.243c0-.823.15-1.554.453-2.195s.734-1.138 1.297-1.492 1.237-.53 2.008-.53c.947 0 1.734.283 2.36.85s.966 1.305 1.008 2.21h-1.367c-.042-.547-.25-.995-.625-1.344-.37-.354-.83-.53-1.375-.53-.735 0-1.305.266-1.71.797-.4.526-.602 1.29-.602 2.29v.274c0 .973.2 1.723.602 2.25s.974.79 1.718.79zm7.344-2.89l-.906.945V845h-1.445v-12h1.445v7.258l.773-.93 2.633-2.78h1.758l-3.29 3.53L798.47 845h-1.696l-2.945-3.914zm16.86-.22c0 1.287-.295 2.323-.883 3.1s-1.386 1.18-2.39 1.18c-1.026 0-1.833-.325-2.422-.976v4.07h-1.445v-11.703h1.32l.07.937c.588-.73 1.406-1.093 2.453-1.093 1.015 0 1.817.382 2.406 1.148s.89 1.83.89 3.195v.133zm-1.446-.164c0-.953-.203-1.706-.61-2.258s-.964-.828-1.672-.828c-.875 0-1.53.388-1.97 1.164v4.04c.432.77 1.094 1.157 1.985 1.157.692 0 1.242-.274 1.648-.82s.617-1.37.617-2.453zm7.375-2.86c-.22-.037-.456-.055-.71-.055-.948 0-1.59.404-1.93 1.21v6h-1.446v-8.453h1.407l.023.976c.474-.755 1.146-1.132 2.016-1.132.28 0 .494.036.64.11v1.344zm.797 2.85c0-.828.162-1.573.484-2.234.33-.662.782-1.172 1.36-1.53s1.247-.54 1.992-.54c1.15 0 2.08.398 2.79 1.195.714.797 1.07 1.857 1.07 3.18v.1c0 .823-.158 1.563-.476 2.22-.313.65-.763 1.16-1.352 1.523-.583.365-1.255.547-2.015.547-1.146 0-2.076-.398-2.79-1.195s-1.063-1.852-1.063-3.164v-.102zm1.453.172c0 .938.216 1.7.65 2.258s1.02.852 1.75.852 1.317-.287 1.75-.86.648-1.385.648-2.422c0-.927-.22-1.677-.664-2.25-.438-.578-1.02-.867-1.75-.867-.714 0-1.29.284-1.727.852s-.656 1.38-.656 2.437zm7.71-.164c0-1.318.305-2.364.914-3.14s1.417-1.17 2.422-1.17c1.03 0 1.836.364 2.414 1.093l.07-.937h1.32v8.25c0 1.094-.326 1.956-.977 2.586-.646.63-1.515.945-2.61.945a4.35 4.35 0 0 1-1.789-.39c-.584-.26-1.03-.618-1.336-1.07l.75-.867c.62.766 1.377 1.148 2.273 1.148.703 0 1.25-.197 1.64-.593s.594-.953.594-1.672v-.727c-.578.667-1.368 1-2.368 1-.99 0-1.79-.398-2.406-1.195-.61-.797-.914-1.883-.914-3.258zm1.453.164c0 .953.196 1.703.586 2.25s.938.813 1.64.813c.91 0 1.58-.414 2.008-1.242v-3.86c-.443-.807-1.107-1.21-1.993-1.21-.703 0-1.252.274-1.648.82s-.594 1.356-.594 2.43zm11.96-3.023c-.22-.037-.456-.055-.71-.055-.948 0-1.59.404-1.93 1.21v6h-1.446v-8.453h1.406l.024.976c.474-.755 1.146-1.132 2.016-1.132.28 0 .494.036.64.11v1.344zm4.688 7.312c-1.146 0-2.078-.375-2.797-1.125s-1.078-1.763-1.078-3.023v-.266c0-.838.16-1.586.476-2.242.323-.66.77-1.177 1.344-1.547a3.38 3.38 0 0 1 1.875-.562c1.1 0 1.953.362 2.562 1.086s.915 1.76.915 3.11v.602h-5.727c.02.833.263 1.507.727 2.023.468.5 1.062.766 1.78.766.5 0 .943-.105 1.297-.313a3.24 3.24 0 0 0 .929-.828l.883.687c-.708 1.09-1.77 1.633-3.187 1.633zm-.18-7.578c-.583 0-1.073.214-1.47.64-.396.422-.64 1.015-.734 1.78h4.234v-.11c-.04-.735-.24-1.302-.593-1.703-.355-.407-.834-.6-1.438-.6zm10.078 5.18c0-.39-.148-.693-.445-.906-.292-.22-.805-.407-1.54-.563s-1.3-.344-1.742-.562-.745-.48-.954-.782c-.203-.302-.304-.66-.304-1.078 0-.693.29-1.278.875-1.758s1.338-.718 2.25-.718c.958 0 1.734.247 2.328.742a2.35 2.35 0 0 1 .898 1.898h-1.453c0-.396-.17-.737-.508-1.023-.333-.287-.755-.43-1.265-.43-.526 0-.938.115-1.235.344s-.445.53-.445.898c0 .35.138.612.414.79s.774.347 1.492.508c.724.162 1.3.354 1.758.578s.78.495.992.813c.22.312.328.695.328 1.148 0 .755-.302 1.362-.906 1.82-.604.453-1.388.68-2.35.68-.677 0-1.276-.12-1.797-.36s-.93-.573-1.227-1c-.29-.432-.437-.9-.437-1.4h1.445c.026.485.22.87.578 1.157.365.28.844.422 1.438.422.546 0 .984-.1 1.312-.33.333-.224.5-.52.5-.9zm8.25 0c0-.39-.148-.693-.445-.906-.292-.22-.805-.407-1.54-.563s-1.3-.344-1.742-.562-.745-.48-.954-.782c-.203-.302-.304-.66-.304-1.078 0-.693.29-1.278.875-1.758s1.338-.718 2.25-.718c.958 0 1.734.247 2.328.742a2.35 2.35 0 0 1 .898 1.898h-1.453c0-.396-.17-.737-.508-1.023-.333-.287-.755-.43-1.265-.43-.526 0-.938.115-1.235.344s-.445.53-.445.898c0 .35.138.612.414.79s.774.347 1.492.508c.724.162 1.3.354 1.758.578s.78.495.992.813c.22.312.328.695.328 1.148 0 .755-.302 1.362-.906 1.82-.604.453-1.388.68-2.35.68-.677 0-1.276-.12-1.797-.36s-.93-.573-1.227-1c-.29-.432-.437-.9-.437-1.4H859c.026.485.22.87.578 1.157.365.28.844.422 1.438.422.546 0 .984-.1 1.312-.33.333-.224.5-.52.5-.9zm14.453-1.89c0 1.292-.297 2.33-.9 3.117s-1.39 1.172-2.39 1.172c-1.068 0-1.893-.377-2.477-1.133l-.07.977h-1.328v-12h1.445v4.477c.584-.724 1.388-1.086 2.414-1.086s1.83.388 2.414 1.164c.59.776.883 1.838.883 3.187v.125zm-1.445-.164c0-.984-.2-1.745-.57-2.28s-.927-.805-1.64-.805c-.953 0-1.638.443-2.055 1.328v3.657c.443.885 1.133 1.328 2.07 1.328.692 0 1.23-.27 1.617-.805s.578-1.344.578-2.422zm5.945 2.18l1.97-6.336h1.547l-3.4 9.758c-.526 1.406-1.362 2.11-2.507 2.11l-.274-.023-.54-.102v-1.172l.39.03c.49 0 .87-.1 1.14-.296.276-.198.503-.56.68-1.086l.32-.86-3.015-8.36h1.578l2.11 6.336zm10.742-8.383v2.047h1.58v1.117h-1.58v5.242c0 .34.07.594.21.766s.38.25.72.25c.167 0 .396-.03.688-.094V845a4.2 4.2 0 0 1-1.11.156c-.646 0-1.133-.195-1.46-.586s-.492-.945-.492-1.664v-5.242h-1.54v-1.117h1.54V834.5h1.445zm8.493 10.5c-.084-.167-.15-.464-.204-.89-.67.698-1.473 1.047-2.406 1.047-.833 0-1.518-.234-2.054-.703a2.3 2.3 0 0 1-.797-1.797c0-.88.333-1.562 1-2.047.672-.49 1.614-.734 2.828-.734h1.406v-.664c0-.505-.15-.906-.453-1.203-.302-.302-.747-.453-1.336-.453-.516 0-.948.13-1.297.4s-.523.576-.523.946h-1.453c0-.422.148-.83.445-1.22a3.09 3.09 0 0 1 1.219-.938c.515-.23 1.08-.343 1.695-.343.974 0 1.737.244 2.29.734.552.484.84 1.154.86 2.008v3.9c0 .776.1 1.394.297 1.852V845h-1.515zm-2.4-1.102c.453 0 .883-.117 1.29-.35s.7-.54.883-.914v-1.735h-1.133c-1.77 0-2.656.52-2.656 1.555 0 .453.15.807.453 1.063s.7.382 1.164.382zm10.805-1.14a1.05 1.05 0 0 0-.445-.906c-.292-.22-.805-.407-1.54-.563s-1.3-.344-1.743-.562c-.427-.22-.744-.48-.953-.782-.203-.302-.304-.66-.304-1.078 0-.693.29-1.278.874-1.758.59-.48 1.34-.718 2.25-.718.96 0 1.735.247 2.33.742a2.35 2.35 0 0 1 .898 1.898h-1.453c0-.396-.17-.737-.508-1.023-.333-.287-.755-.43-1.266-.43-.526 0-.937.115-1.234.344a1.08 1.08 0 0 0-.445.898c0 .35.138.612.414.79s.773.347 1.492.508c.724.162 1.3.354 1.758.578s.78.495.992.813c.22.312.328.695.328 1.148 0 .755-.302 1.362-.906 1.82-.604.453-1.388.68-2.352.68-.677 0-1.276-.12-1.797-.36a2.97 2.97 0 0 1-1.226-1 2.45 2.45 0 0 1-.438-1.399h1.446a1.51 1.51 0 0 0 .578 1.157c.364.28.844.422 1.437.422.547 0 .985-.1 1.313-.33.333-.224.5-.52.5-.9zm5.687-1.672l-.906.945V845h-1.445v-12h1.445v7.258l.774-.93 2.632-2.78h1.758l-3.29 3.53L919.75 845h-1.695l-2.946-3.914z"/><circle r="3" transform="matrix(0 1 1 0 230 729)"/></g><path d="M230 819v-88.5" stroke="#2f2f2f" stroke-width=".635"/><path d="M131.453 845v-11.375h3.72c1.234 0 2.16.255 2.78.766s.938 1.265.938 2.265c0 .532-.15 1.003-.453 1.414s-.714.722-1.235.946c.615.172 1.1.5 1.453.984.36.48.54 1.052.54 1.72 0 1.02-.33 1.823-.992 2.406s-1.596.875-2.805.875h-3.945zm1.5-5.32v4.093h2.477c.698 0 1.247-.18 1.648-.54s.6-.864.6-1.5c0-1.37-.745-2.054-2.235-2.054h-2.5zm0-1.203h2.266c.656 0 1.18-.165 1.57-.493.396-.328.594-.773.594-1.336 0-.625-.182-1.078-.547-1.36s-.92-.43-1.664-.43h-2.22v3.618zm12.328-.633c-.22-.037-.455-.055-.71-.055-.948 0-1.59.404-1.93 1.21v6h-1.446v-8.453h1.407l.023.976c.474-.755 1.146-1.132 2.016-1.132.28 0 .494.036.64.11v1.344zm4.688 7.312c-1.146 0-2.078-.375-2.797-1.125s-1.078-1.763-1.078-3.023v-.266c0-.838.16-1.586.476-2.242.323-.66.77-1.177 1.344-1.547a3.38 3.38 0 0 1 1.875-.562c1.1 0 1.953.362 2.563 1.086s.914 1.76.914 3.11v.602h-5.727c.02.833.263 1.507.727 2.023.468.5 1.062.766 1.78.766.5 0 .943-.105 1.297-.313a3.24 3.24 0 0 0 .929-.828l.883.687c-.708 1.09-1.77 1.633-3.187 1.633zm-.18-7.578c-.583 0-1.073.214-1.47.64-.396.422-.64 1.015-.734 1.78h4.234v-.11c-.04-.735-.24-1.302-.593-1.703-.355-.407-.834-.6-1.438-.6zM160.164 845c-.083-.167-.15-.464-.203-.89-.672.698-1.474 1.047-2.406 1.047-.834 0-1.52-.234-2.055-.703s-.797-1.073-.797-1.797c0-.88.333-1.562 1-2.047s1.615-.734 2.828-.734h1.407v-.664c0-.505-.152-.906-.454-1.203-.302-.302-.747-.453-1.336-.453-.515 0-.947.13-1.296.4s-.524.576-.524.946h-1.453c0-.422.148-.83.445-1.22.302-.396.71-.708 1.22-.938.516-.23 1.08-.343 1.695-.343.974 0 1.737.244 2.29.734.553.484.84 1.154.86 2.008v3.9c0 .776.1 1.394.297 1.852V845h-1.516zm-2.398-1.102c.453 0 .882-.117 1.29-.35s.7-.54.883-.914v-1.735h-1.133c-1.77 0-2.657.52-2.657 1.555 0 .453.15.807.454 1.063s.7.382 1.164.382zm8.242-2.812l-.906.945V845h-1.446v-12h1.446v7.258l.773-.93 2.633-2.78h1.758l-3.29 3.53 3.67 4.922h-1.695l-2.945-3.914zm9.367-.383c0-1.297.307-2.338.922-3.125s1.42-1.187 2.414-1.187c1 0 1.773.338 2.35 1.015V833h1.446v12h-1.328l-.07-.906c-.578.708-1.382 1.062-2.414 1.062-.98 0-1.778-.4-2.398-1.203s-.922-1.85-.922-3.14v-.11zm1.445.164c0 .96.198 1.71.594 2.25s.943.813 1.64.813c.916 0 1.586-.412 2.007-1.235v-3.883c-.432-.796-1.096-1.195-1.992-1.195-.708 0-1.26.274-1.656.82s-.594 1.356-.594 2.43zm7.555-.172c0-.828.16-1.573.484-2.234.33-.662.782-1.172 1.36-1.53s1.247-.54 1.992-.54c1.15 0 2.08.398 2.79 1.195.714.797 1.07 1.857 1.07 3.18v.1c0 .823-.16 1.563-.476 2.22-.313.65-.763 1.16-1.352 1.523-.583.365-1.255.547-2.015.547-1.146 0-2.076-.398-2.79-1.195s-1.063-1.852-1.063-3.164v-.102zm1.453.172c0 .938.216 1.7.65 2.258s1.02.852 1.75.852 1.317-.287 1.75-.86.648-1.385.648-2.422c0-.927-.22-1.677-.664-2.25-.438-.578-1.02-.867-1.75-.867-.714 0-1.29.284-1.727.852s-.656 1.38-.656 2.437zm15.54 2.14l1.625-6.46h1.446l-2.46 8.453h-1.172l-2.055-6.406-2 6.406h-1.172l-2.453-8.453h1.437l1.665 6.328 1.968-6.328h1.164l2.008 6.46zm5.914-6.46l.047 1.062a3.08 3.08 0 0 1 2.531-1.218c1.787 0 2.688 1.007 2.703 3.023V845h-1.445v-5.594c-.005-.61-.146-1.06-.422-1.35-.27-.292-.695-.438-1.273-.438-.47 0-.88.125-1.234.375a2.54 2.54 0 0 0-.829.985V845h-1.445v-8.453h1.367zm18.57 4.32c0 1.287-.295 2.323-.883 3.1s-1.386 1.18-2.39 1.18c-1.026 0-1.833-.325-2.422-.976v4.07h-1.445v-11.703h1.32l.07.937c.588-.73 1.406-1.093 2.453-1.093 1.015 0 1.817.382 2.406 1.148s.89 1.83.89 3.195v.133zm-1.446-.164c0-.953-.203-1.706-.61-2.258s-.964-.828-1.672-.828c-.875 0-1.53.388-1.97 1.164v4.04c.433.77 1.094 1.157 1.985 1.157.692 0 1.242-.274 1.648-.82.412-.552.617-1.37.617-2.453zm7.375-2.86c-.22-.037-.455-.055-.71-.055-.948 0-1.59.404-1.93 1.21v6h-1.446v-8.453h1.407l.023.976c.474-.755 1.146-1.132 2.016-1.132.28 0 .494.036.64.11v1.344zm.797 2.85c0-.828.162-1.573.484-2.234.33-.662.782-1.172 1.36-1.53s1.247-.54 1.992-.54c1.15 0 2.08.398 2.79 1.195.714.797 1.07 1.857 1.07 3.18v.1c0 .823-.158 1.563-.476 2.22-.313.65-.763 1.16-1.352 1.523-.583.365-1.255.547-2.015.547-1.146 0-2.076-.398-2.79-1.195s-1.063-1.852-1.063-3.164v-.102zm1.453.172c0 .938.216 1.7.65 2.258s1.02.852 1.75.852 1.317-.287 1.75-.86.648-1.385.648-2.422c0-.927-.22-1.677-.664-2.25-.437-.578-1.02-.867-1.75-.867a2.07 2.07 0 0 0-1.726.852c-.438.567-.657 1.38-.657 2.437zm9.547-4.32v9.43c0 1.625-.737 2.437-2.21 2.437-.318 0-.612-.047-.883-.14v-1.156a2.78 2.78 0 0 0 .657.063c.323 0 .567-.09.734-.266s.258-.474.258-.906v-9.46h1.445zm-1.594-2.242c0-.23.07-.425.21-.586.146-.167.357-.25.633-.25s.495.08.64.242a.85.85 0 0 1 .219.594c0 .234-.073.43-.22.586s-.36.234-.64.234-.492-.078-.633-.234-.21-.352-.21-.586zm7.438 10.85c-1.146 0-2.078-.375-2.797-1.125s-1.078-1.763-1.078-3.023v-.266c0-.838.16-1.586.476-2.242.323-.66.77-1.177 1.344-1.547a3.38 3.38 0 0 1 1.875-.562c1.1 0 1.953.362 2.563 1.086s.914 1.76.914 3.11v.602h-5.727c.02.833.263 1.507.727 2.023.47.5 1.062.766 1.78.766.5 0 .943-.105 1.297-.313s.664-.484.93-.828l.882.687c-.708 1.09-1.77 1.633-3.187 1.633zm-.18-7.578c-.583 0-1.073.214-1.47.64-.395.422-.64 1.015-.734 1.78h4.234v-.11c-.04-.735-.24-1.302-.593-1.703-.354-.407-.834-.6-1.438-.6zm8.547 6.4c.516 0 .966-.157 1.352-.47s.6-.703.64-1.172h1.367c-.026.484-.192.945-.5 1.383a3.29 3.29 0 0 1-1.234 1.047 3.53 3.53 0 0 1-1.625.39c-1.15 0-2.068-.383-2.75-1.148-.677-.77-1.016-1.823-1.016-3.156v-.243c0-.823.15-1.554.454-2.195s.734-1.138 1.296-1.492c.568-.354 1.237-.53 2.008-.53.948 0 1.735.283 2.36.85s.966 1.305 1.007 2.21h-1.367c-.04-.547-.25-.995-.625-1.344a1.91 1.91 0 0 0-1.375-.531c-.734 0-1.304.266-1.71.797-.4.526-.6 1.29-.6 2.29v.274c0 .973.2 1.723.6 2.25s.974.79 1.72.79zm6.945-9.477v2.047h1.578v1.117h-1.578v5.242c0 .34.07.594.21.766s.38.25.72.25c.167 0 .396-.03.688-.094V845a4.2 4.2 0 0 1-1.11.156c-.646 0-1.133-.195-1.46-.586s-.492-.945-.492-1.664v-5.242h-1.54v-1.117h1.54V834.5h1.445zm8.196 8.258c0-.39-.15-.693-.446-.906-.29-.22-.804-.407-1.54-.563-.73-.156-1.3-.344-1.742-.562-.427-.22-.745-.48-.953-.782-.203-.302-.305-.66-.305-1.078 0-.693.292-1.278.875-1.758.59-.48 1.34-.718 2.25-.718.96 0 1.735.247 2.328.742a2.35 2.35 0 0 1 .899 1.898h-1.453c0-.396-.17-.737-.508-1.023s-.755-.43-1.266-.43c-.526 0-.937.115-1.234.344a1.08 1.08 0 0 0-.445.898c0 .35.138.612.414.79s.773.347 1.492.508 1.3.354 1.758.578.778.495.992.813c.22.312.328.695.328 1.148 0 .755-.302 1.362-.906 1.82-.604.453-1.388.68-2.352.68-.677 0-1.276-.12-1.797-.36s-.93-.573-1.226-1a2.45 2.45 0 0 1-.438-1.399h1.446a1.51 1.51 0 0 0 .578 1.157c.364.28.843.422 1.437.422.547 0 .985-.1 1.313-.33.333-.224.5-.52.5-.9zm14.453-1.89c0 1.292-.297 2.33-.89 3.117s-1.4 1.172-2.4 1.172c-1.068 0-1.894-.377-2.477-1.133l-.07.977h-1.328v-12h1.445v4.477c.583-.724 1.388-1.086 2.414-1.086s1.83.388 2.414 1.164c.59.776.883 1.838.883 3.187v.125zm-1.445-.164c0-.984-.19-1.745-.57-2.28s-.927-.805-1.64-.805c-.954 0-1.638.443-2.055 1.328v3.657c.443.885 1.133 1.328 2.07 1.328.693 0 1.232-.27 1.617-.805s.58-1.344.58-2.422zm5.945 2.18l1.97-6.336h1.546L292 846.305c-.526 1.406-1.362 2.11-2.508 2.11l-.273-.023-.54-.102v-1.172l.4.03c.5 0 .87-.1 1.14-.296s.503-.56.68-1.086l.32-.86-3.016-8.36h1.578l2.1 6.336zm10.742-8.383v2.047h1.578v1.117h-1.578v5.242c0 .34.07.594.21.766s.38.25.72.25c.166 0 .396-.03.687-.094V845c-.38.104-.75.156-1.11.156-.646 0-1.133-.195-1.46-.586s-.492-.945-.492-1.664v-5.242h-1.54v-1.117h1.54V834.5h1.445zm8.492 10.5c-.083-.167-.15-.464-.203-.89-.672.698-1.474 1.047-2.406 1.047-.834 0-1.518-.234-2.055-.703-.53-.474-.797-1.073-.797-1.797 0-.88.334-1.562 1-2.047.672-.49 1.615-.734 2.828-.734h1.407v-.664c0-.505-.15-.906-.453-1.203-.303-.302-.748-.453-1.336-.453-.516 0-.948.13-1.297.4s-.524.576-.524.946h-1.453c0-.422.15-.83.445-1.22.303-.396.71-.708 1.22-.938.516-.23 1.08-.343 1.696-.343.973 0 1.736.244 2.29.734.552.484.838 1.154.86 2.008v3.9c0 .776.1 1.394.297 1.852V845h-1.516zm-2.398-1.102c.453 0 .883-.117 1.29-.35s.7-.54.883-.914v-1.735h-1.133c-1.77 0-2.656.52-2.656 1.555 0 .453.15.807.453 1.063s.7.382 1.164.382zm10.804-1.14c0-.39-.148-.693-.445-.906-.292-.22-.805-.407-1.54-.563-.73-.156-1.3-.344-1.742-.562s-.745-.48-.953-.782c-.203-.302-.305-.66-.305-1.078 0-.693.292-1.278.875-1.758.59-.48 1.34-.718 2.25-.718.958 0 1.734.247 2.328.742a2.35 2.35 0 0 1 .899 1.898h-1.453c0-.396-.17-.737-.508-1.023s-.756-.43-1.266-.43c-.526 0-.937.115-1.234.344a1.08 1.08 0 0 0-.446.898c0 .35.138.612.414.79s.774.347 1.493.508 1.3.354 1.757.578.78.495.993.813c.218.312.328.695.328 1.148a2.17 2.17 0 0 1-.907 1.821c-.604.453-1.388.68-2.35.68-.677 0-1.276-.12-1.797-.36s-.93-.573-1.226-1a2.45 2.45 0 0 1-.438-1.399h1.445c.026.485.22.87.578 1.157.365.28.844.422 1.438.422.547 0 .984-.1 1.312-.33.334-.224.5-.52.5-.9zm5.688-1.672l-.906.945V845h-1.446v-12h1.446v7.258l.773-.93 2.633-2.78h1.758l-3.29 3.53 3.672 4.922h-1.696l-2.945-3.914z" fill="#2f2f2f"/></svg>