<svg width="1150" height="490" fill="none" xmlns="http://www.w3.org/2000/svg"><ellipse rx="3" ry="3.002" transform="matrix(0 -1 -1 0 94.998 93)" fill="#2F2F2F"/><path d="M68 33l.197 45.686.053 12.33A1.992 1.992 0 0070.243 93h23.865M67.963 454l.1-65.995A2.01 2.01 0 0170.07 386h25.671" stroke="#2F2F2F" stroke-width=".635"/><ellipse rx="3" ry="3.002" transform="matrix(0 -1 -1 0 94.998 386)" fill="#2F2F2F"/><path d="M50.82 22.547V27h-1.5V15.625h4.196c1.244 0 2.218.318 2.922.953.708.636 1.062 1.477 1.062 2.524 0 1.104-.346 1.955-1.04 2.554-.687.594-1.674.89-2.96.89h-2.68zm0-1.227h2.696c.802 0 1.416-.187 1.843-.562.427-.38.641-.927.641-1.64 0-.678-.214-1.22-.64-1.626-.428-.406-1.014-.617-1.758-.633H50.82v4.461zm12.453-1.476a4.326 4.326 0 00-.71-.055c-.948 0-1.592.404-1.93 1.211v6h-1.446v-8.453h1.407l.023.976c.474-.755 1.146-1.132 2.016-1.132.281 0 .495.036.64.109v1.344zm4.688 7.312c-1.146 0-2.078-.375-2.797-1.125-.719-.755-1.078-1.763-1.078-3.023v-.266c0-.838.159-1.586.477-2.242.322-.662.77-1.177 1.343-1.547a3.38 3.38 0 011.875-.562c1.1 0 1.953.362 2.563 1.086.61.724.914 1.76.914 3.109v.602H65.53c.021.833.263 1.507.727 2.023.469.51 1.062.766 1.781.766.51 0 .943-.105 1.297-.313.354-.208.664-.484.93-.828l.882.687c-.708 1.089-1.77 1.633-3.187 1.633zm-.18-7.578c-.583 0-1.073.214-1.469.64-.395.423-.64 1.016-.734 1.782h4.234v-.11c-.041-.734-.24-1.302-.593-1.703-.354-.406-.834-.609-1.438-.609zm7.836 5.461l2.094-6.492h1.477L76.156 27h-1.101l-3.063-8.453h1.477l2.148 6.492zm8.36 2.117c-1.146 0-2.079-.375-2.797-1.125-.72-.755-1.078-1.763-1.078-3.023v-.266c0-.838.158-1.586.476-2.242.323-.662.771-1.177 1.344-1.547a3.38 3.38 0 011.875-.562c1.099 0 1.953.362 2.562 1.086.61.724.914 1.76.914 3.109v.602h-5.726c.02.833.263 1.507.726 2.023.47.51 1.063.766 1.782.766.51 0 .942-.105 1.297-.313a3.26 3.26 0 00.93-.828l.882.687c-.708 1.089-1.77 1.633-3.187 1.633zm-.18-7.578c-.584 0-1.073.214-1.469.64-.396.423-.64 1.016-.734 1.782h4.234v-.11c-.041-.734-.24-1.302-.594-1.703-.354-.406-.833-.609-1.437-.609zm6.523-1.031l.047 1.062c.646-.812 1.49-1.218 2.531-1.218 1.787 0 2.688 1.007 2.704 3.023V27h-1.446v-5.594c-.005-.61-.146-1.06-.422-1.351-.27-.292-.695-.438-1.273-.438-.469 0-.88.125-1.234.375-.355.25-.63.578-.829.985V27h-1.445v-8.453h1.367zm9.422-2.047v2.047h1.578v1.117h-1.578v5.242c0 .339.07.594.211.766.141.166.38.25.719.25.167 0 .396-.031.687-.094V27c-.38.104-.75.156-1.109.156-.646 0-1.133-.195-1.46-.586-.33-.39-.493-.945-.493-1.664v-5.242h-1.54v-1.117h1.54V16.5h1.445zm10.75 10.656c-1.146 0-2.078-.375-2.797-1.125-.718-.755-1.078-1.763-1.078-3.023v-.266c0-.838.159-1.586.477-2.242.323-.662.771-1.177 1.344-1.547a3.379 3.379 0 011.874-.562c1.099 0 1.954.362 2.563 1.086.609.724.914 1.76.914 3.109v.602h-5.727c.021.833.264 1.507.727 2.023.469.51 1.063.766 1.781.766.511 0 .943-.105 1.297-.313.354-.208.664-.484.93-.828l.883.687c-.709 1.089-1.771 1.633-3.188 1.633zm-.18-7.578c-.583 0-1.072.214-1.468.64-.396.423-.641 1.016-.735 1.782h4.235v-.11c-.042-.734-.24-1.302-.594-1.703-.354-.406-.833-.609-1.438-.609zm4.805 3.125c0-1.297.307-2.338.922-3.125.615-.791 1.419-1.187 2.414-1.187.99 0 1.774.338 2.352 1.015V15h1.445v12h-1.328l-.07-.906c-.579.708-1.383 1.062-2.414 1.062-.98 0-1.779-.4-2.399-1.203-.615-.802-.922-1.849-.922-3.14v-.11zm1.445.164c0 .959.198 1.709.594 2.25.396.542.943.813 1.641.813.917 0 1.586-.412 2.008-1.235v-3.883c-.433-.796-1.097-1.195-1.993-1.195-.708 0-1.26.274-1.656.82-.396.547-.594 1.357-.594 2.43zM126.07 27h-1.445v-8.453h1.445V27zm-1.562-10.695a.87.87 0 01.211-.594c.146-.162.359-.242.64-.242.282 0 .495.08.641.242.146.161.219.36.219.594 0 .234-.073.43-.219.586-.146.156-.359.234-.641.234-.281 0-.494-.078-.64-.234a.841.841 0 01-.211-.586zm5.844.195v2.047h1.578v1.117h-1.578v5.242c0 .339.07.594.21.766.141.166.381.25.719.25.167 0 .396-.031.688-.094V27c-.38.104-.75.156-1.11.156-.645 0-1.132-.195-1.461-.586-.328-.39-.492-.945-.492-1.664v-5.242h-1.539v-1.117h1.539V16.5h1.446zm4.843 10.5h-1.445v-8.453h1.445V27zm-1.562-10.695a.87.87 0 01.211-.594c.146-.162.359-.242.64-.242.282 0 .495.08.641.242.146.161.219.36.219.594 0 .234-.073.43-.219.586-.146.156-.359.234-.641.234-.281 0-.494-.078-.64-.234a.841.841 0 01-.211-.586zm5.25 2.242l.047 1.062c.646-.812 1.489-1.218 2.531-1.218 1.786 0 2.687 1.007 2.703 3.023V27h-1.445v-5.594c-.005-.61-.146-1.06-.422-1.351-.271-.292-.695-.438-1.274-.438-.468 0-.88.125-1.234.375s-.63.578-.828.985V27h-1.445v-8.453h1.367zM146 22.703c0-1.318.305-2.364.914-3.14.609-.782 1.417-1.172 2.422-1.172 1.031 0 1.836.364 2.414 1.093l.07-.937h1.321v8.25c0 1.094-.326 1.956-.977 2.586-.646.63-1.516.945-2.609.945-.61 0-1.206-.13-1.789-.39-.584-.26-1.029-.618-1.336-1.07l.75-.868c.619.766 1.377 1.148 2.273 1.148.703 0 1.25-.197 1.641-.593.396-.396.594-.953.594-1.672v-.727c-.579.667-1.368 1-2.368 1-.989 0-1.791-.398-2.406-1.195-.609-.797-.914-1.883-.914-3.258zm1.453.164c0 .953.195 1.703.586 2.25.391.542.938.813 1.641.813.911 0 1.58-.414 2.008-1.242v-3.86c-.443-.807-1.107-1.21-1.993-1.21-.703 0-1.252.273-1.648.82-.396.546-.594 1.356-.594 2.43zm11.461-.172c0-.828.162-1.573.484-2.234.329-.662.782-1.172 1.36-1.531.583-.36 1.247-.54 1.992-.54 1.151 0 2.081.4 2.789 1.196.714.797 1.07 1.857 1.07 3.18v.101c0 .823-.158 1.563-.476 2.219a3.561 3.561 0 01-1.352 1.523c-.583.365-1.255.547-2.015.547-1.146 0-2.076-.398-2.789-1.195-.709-.797-1.063-1.852-1.063-3.164v-.102zm1.453.172c0 .938.216 1.69.649 2.258.437.568 1.02.852 1.75.852.734 0 1.317-.287 1.75-.86.432-.578.648-1.385.648-2.422 0-.927-.221-1.677-.664-2.25-.438-.578-1.021-.867-1.75-.867-.714 0-1.289.284-1.727.852-.437.567-.656 1.38-.656 2.437zM169.992 27h-1.445V15h1.445v12zm1.969-4.297c0-1.297.307-2.338.922-3.125.614-.791 1.419-1.187 2.414-1.187.989 0 1.773.338 2.351 1.015V15h1.446v12h-1.328l-.071-.906c-.578.708-1.383 1.062-2.414 1.062-.979 0-1.778-.4-2.398-1.203-.615-.802-.922-1.849-.922-3.14v-.11zm1.445.164c0 .959.198 1.709.594 2.25.396.542.943.813 1.641.813.916 0 1.586-.412 2.007-1.235v-3.883c-.432-.796-1.096-1.195-1.992-1.195-.708 0-1.26.274-1.656.82-.396.547-.594 1.357-.594 2.43zm13.867-6.367v2.047h1.579v1.117h-1.579v5.242c0 .339.071.594.211.766.141.166.381.25.719.25.167 0 .396-.031.688-.094V27c-.381.104-.75.156-1.11.156-.646 0-1.133-.195-1.461-.586-.328-.39-.492-.945-.492-1.664v-5.242h-1.539v-1.117h1.539V16.5h1.445zm4.844 10.5h-1.445v-8.453h1.445V27zm-1.562-10.695a.87.87 0 01.211-.594c.145-.162.359-.242.64-.242.282 0 .495.08.641.242.146.161.219.36.219.594 0 .234-.073.43-.219.586-.146.156-.359.234-.641.234-.281 0-.495-.078-.64-.234a.841.841 0 01-.211-.586zm5.242 2.242l.039.937c.62-.729 1.456-1.093 2.508-1.093 1.182 0 1.987.453 2.414 1.359a3.211 3.211 0 011.094-.984c.453-.25.987-.375 1.601-.375 1.854 0 2.797.981 2.828 2.945V27h-1.445v-5.578c0-.604-.138-1.055-.414-1.352-.276-.302-.74-.453-1.391-.453-.536 0-.982.162-1.336.485-.354.317-.56.747-.617 1.289V27h-1.453v-5.54c0-1.228-.602-1.843-1.805-1.843-.948 0-1.596.404-1.945 1.211V27h-1.445v-8.453h1.367zm16.18 8.61c-1.146 0-2.079-.376-2.797-1.126-.719-.755-1.078-1.763-1.078-3.023v-.266c0-.838.158-1.586.476-2.242.323-.662.771-1.177 1.344-1.547a3.38 3.38 0 011.875-.562c1.099 0 1.953.362 2.562 1.086.61.724.914 1.76.914 3.109v.602h-5.726c.021.833.263 1.507.726 2.023.469.51 1.063.766 1.782.766.51 0 .942-.105 1.297-.313a3.25 3.25 0 00.929-.828l.883.687c-.708 1.089-1.771 1.633-3.187 1.633zm-.18-7.579c-.583 0-1.073.214-1.469.64-.396.423-.64 1.016-.734 1.782h4.234v-.11c-.042-.734-.239-1.302-.594-1.703-.354-.406-.833-.609-1.437-.609zm10.078 5.18c0-.39-.148-.693-.445-.906-.292-.22-.805-.407-1.539-.563-.73-.156-1.31-.344-1.743-.562-.427-.22-.744-.48-.953-.782-.203-.302-.304-.661-.304-1.078 0-.693.291-1.279.875-1.758.588-.479 1.338-.718 2.25-.718.958 0 1.734.247 2.328.742.599.495.898 1.127.898 1.898h-1.453c0-.396-.169-.737-.508-1.023-.333-.287-.755-.43-1.265-.43-.526 0-.938.115-1.235.344-.297.229-.445.529-.445.898 0 .35.138.612.414.79.276.177.773.346 1.492.507.724.162 1.31.354 1.758.578.448.224.779.495.992.813.219.312.328.695.328 1.148 0 .756-.302 1.362-.906 1.82-.604.454-1.388.68-2.352.68-.677 0-1.276-.12-1.796-.36a2.963 2.963 0 01-1.227-1 2.45 2.45 0 01-.437-1.398h1.445c.026.485.219.87.578 1.157.365.28.844.422 1.437.422.547 0 .985-.11 1.313-.329.333-.224.5-.52.5-.89zm4.773-5.188c.641-.786 1.474-1.18 2.5-1.18 1.787 0 2.688 1.008 2.704 3.024V27h-1.446v-5.594c-.005-.61-.146-1.06-.422-1.351-.27-.292-.695-.438-1.273-.438-.469 0-.88.125-1.234.375-.355.25-.631.578-.829.985V27h-1.445V15h1.445v4.57zm10.875 7.586c-1.145 0-2.078-.375-2.796-1.125-.719-.755-1.079-1.763-1.079-3.023v-.266c0-.838.159-1.586.477-2.242.323-.662.771-1.177 1.344-1.547a3.38 3.38 0 011.875-.562c1.099 0 1.953.362 2.562 1.086.61.724.914 1.76.914 3.109v.602h-5.726c.021.833.263 1.507.726 2.023.469.51 1.063.766 1.782.766.51 0 .942-.105 1.296-.313.355-.208.664-.484.93-.828l.883.687c-.708 1.089-1.771 1.633-3.188 1.633zm-.179-7.578c-.584 0-1.073.214-1.469.64-.396.423-.641 1.016-.734 1.782h4.234v-.11c-.042-.734-.24-1.302-.594-1.703-.354-.406-.833-.609-1.437-.609zm8.664 7.578c-1.146 0-2.078-.375-2.797-1.125-.719-.755-1.078-1.763-1.078-3.023v-.266c0-.838.159-1.586.476-2.242.323-.662.771-1.177 1.344-1.547a3.38 3.38 0 011.875-.562c1.099 0 1.953.362 2.563 1.086.609.724.914 1.76.914 3.109v.602h-5.727c.021.833.263 1.507.727 2.023.468.51 1.062.766 1.781.766.51 0 .943-.105 1.297-.313a3.25 3.25 0 00.929-.828l.883.687c-.708 1.089-1.771 1.633-3.187 1.633zm-.18-7.578c-.583 0-1.073.214-1.469.64-.395.423-.64 1.016-.734 1.782h4.234v-.11c-.041-.734-.239-1.302-.593-1.703-.355-.406-.834-.609-1.438-.609zm7.117-3.078v2.047h1.578v1.117h-1.578v5.242c0 .339.071.594.211.766.141.166.38.25.719.25.167 0 .396-.031.687-.094V27c-.38.104-.75.156-1.109.156-.646 0-1.133-.195-1.461-.586-.328-.39-.492-.945-.492-1.664v-5.242h-1.539v-1.117h1.539V16.5h1.445zm8.196 8.258c0-.39-.149-.693-.446-.906-.291-.22-.804-.407-1.539-.563-.729-.156-1.31-.344-1.742-.562-.427-.22-.745-.48-.953-.782-.203-.302-.305-.661-.305-1.078 0-.693.292-1.279.875-1.758.589-.479 1.339-.718 2.25-.718.959 0 1.735.247 2.328.742.599.495.899 1.127.899 1.898h-1.453c0-.396-.17-.737-.508-1.023-.333-.287-.755-.43-1.266-.43-.526 0-.937.115-1.234.344-.297.229-.445.529-.445.898 0 .35.138.612.414.79.276.177.773.346 1.492.507.724.162 1.31.354 1.758.578.448.224.778.495.992.813.219.312.328.695.328 1.148 0 .756-.302 1.362-.906 1.82-.604.454-1.388.68-2.352.68-.677 0-1.276-.12-1.797-.36a2.96 2.96 0 01-1.226-1 2.45 2.45 0 01-.438-1.398h1.445c.027.485.219.87.579 1.157.364.28.843.422 1.437.422.547 0 .984-.11 1.313-.329.333-.224.5-.52.5-.89zM981.32 16.86h-3.656V27h-1.492V16.86h-3.649v-1.235h8.797v1.234zm4.953 2.984a4.314 4.314 0 00-.711-.055c-.947 0-1.591.404-1.929 1.211v6h-1.445v-8.453h1.406l.023.976c.474-.755 1.146-1.132 2.016-1.132.281 0 .495.036.64.109v1.344zM992.516 27c-.084-.167-.151-.463-.204-.89-.671.697-1.473 1.046-2.406 1.046-.833 0-1.518-.234-2.054-.703-.532-.474-.797-1.073-.797-1.797 0-.88.333-1.562 1-2.047.672-.49 1.614-.734 2.828-.734h1.406v-.664c0-.505-.151-.906-.453-1.203-.302-.302-.747-.453-1.336-.453-.516 0-.948.13-1.297.39s-.523.576-.523.946h-1.453c0-.422.148-.828.445-1.22.302-.395.708-.707 1.219-.937a4.122 4.122 0 011.695-.343c.974 0 1.737.244 2.289.734.552.484.839 1.154.859 2.008v3.89c0 .776.099 1.394.297 1.852V27h-1.515zm-2.399-1.102a2.54 2.54 0 001.289-.351c.406-.235.701-.54.883-.914v-1.735h-1.133c-1.771 0-2.656.519-2.656 1.555 0 .453.151.807.453 1.063.302.255.69.382 1.164.382zm9.274.079c.515 0 .969-.157 1.349-.47.39-.312.6-.702.64-1.171h1.37c-.03.484-.19.945-.5 1.383-.31.437-.72.786-1.23 1.047-.51.26-1.056.39-1.629.39-1.151 0-2.068-.383-2.75-1.148-.677-.771-1.016-1.823-1.016-3.156v-.243c0-.823.151-1.554.453-2.195a3.456 3.456 0 011.297-1.492c.568-.354 1.237-.531 2.008-.531.947 0 1.737.284 2.357.851.63.568.97 1.305 1.01 2.211h-1.37c-.04-.547-.25-.995-.62-1.344-.37-.354-.83-.53-1.377-.53-.735 0-1.305.265-1.711.796-.401.526-.602 1.29-.602 2.29v.273c0 .974.201 1.724.602 2.25.401.526.974.789 1.719.789zm7.339-2.891l-.9.945V27h-1.45V15h1.45v7.258l.77-.93 2.63-2.781h1.76l-3.29 3.531 3.68 4.922h-1.7l-2.95-3.914zm16.86-.219c0 1.287-.29 2.323-.88 3.11-.59.786-1.38 1.18-2.39 1.18-1.03 0-1.83-.326-2.42-.977v4.07h-1.45V18.547h1.32l.07.937c.59-.729 1.41-1.093 2.46-1.093 1.01 0 1.81.382 2.4 1.148.6.766.89 1.83.89 3.195v.133zm-1.44-.164c0-.953-.2-1.706-.61-2.258s-.96-.828-1.67-.828c-.88 0-1.53.388-1.97 1.164v4.04c.43.77 1.09 1.156 1.98 1.156.7 0 1.24-.274 1.65-.82.41-.553.62-1.37.62-2.454zm7.37-2.86a4.284 4.284 0 00-.71-.054c-.95 0-1.59.404-1.93 1.211v6h-1.44v-8.453h1.4l.03.976c.47-.755 1.14-1.132 2.01-1.132.28 0 .5.036.64.109v1.344zm.8 2.852c0-.828.16-1.573.48-2.234.33-.662.79-1.172 1.36-1.531.59-.36 1.25-.54 2-.54 1.15 0 2.08.4 2.79 1.196.71.797 1.07 1.857 1.07 3.18v.101c0 .823-.16 1.563-.48 2.219a3.531 3.531 0 01-1.35 1.523c-.59.365-1.26.547-2.02.547-1.14 0-2.07-.398-2.79-1.195-.71-.797-1.06-1.852-1.06-3.164v-.102zm1.45.172c0 .938.22 1.69.65 2.258.44.568 1.02.852 1.75.852.74 0 1.32-.287 1.75-.86.43-.578.65-1.385.65-2.422 0-.927-.22-1.677-.66-2.25-.44-.578-1.02-.867-1.75-.867-.72 0-1.29.284-1.73.852-.44.567-.66 1.38-.66 2.437zm8.54 4.133v-7.336h-1.33v-1.117h1.33v-.719c0-.943.27-1.677.81-2.203.54-.526 1.3-.79 2.29-.79.58 0 1.32.16 2.21.477l-.24 1.22c-.66-.261-1.28-.391-1.86-.391-.62 0-1.07.14-1.35.422-.27.276-.4.692-.4 1.25v.734h1.72v1.117h-1.72V27h-1.46zm6.03 0h-1.46v-8.453h1.46V27zm4.31-10.5v2.047h1.58v1.117h-1.58v5.242c0 .339.07.594.21.766.14.166.38.25.72.25.16 0 .39-.031.69-.094V27c-.38.104-.75.156-1.11.156-.65 0-1.14-.195-1.46-.586-.33-.39-.5-.945-.5-1.664v-5.242h-1.54v-1.117h1.54V16.5h1.45zm8.49 10.5c-.08-.167-.15-.463-.2-.89-.67.697-1.48 1.046-2.41 1.046-.83 0-1.52-.234-2.05-.703a2.31 2.31 0 01-.8-1.797c0-.88.33-1.562 1-2.047.67-.49 1.61-.734 2.83-.734h1.4v-.664c0-.505-.15-.906-.45-1.203-.3-.302-.75-.453-1.34-.453-.51 0-.94.13-1.29.39-.35.26-.53.576-.53.946h-1.45c0-.422.15-.828.45-1.22.3-.395.71-.707 1.22-.937.51-.229 1.08-.343 1.69-.343.97 0 1.74.244 2.29.734.55.484.84 1.154.86 2.008v3.89c0 .776.1 1.394.3 1.852V27h-1.52zm-2.4-1.102c.46 0 .88-.117 1.29-.351.41-.235.7-.54.88-.914v-1.735h-1.13c-1.77 0-2.66.519-2.66 1.555 0 .453.16.807.46 1.063.3.255.69.382 1.16.382zm13.04-3.03c0 1.29-.3 2.33-.89 3.116-.59.782-1.39 1.172-2.39 1.172-1.07 0-1.89-.377-2.48-1.133l-.07.977h-1.33V15h1.45v4.477c.58-.724 1.39-1.086 2.41-1.086 1.03 0 1.84.388 2.42 1.164.59.776.88 1.838.88 3.187v.125zm-1.44-.165c0-.984-.19-1.745-.57-2.281-.38-.537-.93-.805-1.65-.805-.95 0-1.63.443-2.05 1.328v3.657c.44.885 1.13 1.328 2.07 1.328.69 0 1.23-.268 1.62-.805.38-.537.58-1.344.58-2.422zm4.84 4.297h-1.45v-8.453h1.45V27zm-1.56-10.695c0-.235.07-.433.21-.594.14-.162.36-.242.64-.242s.49.08.64.242c.15.161.22.36.22.594 0 .234-.07.43-.22.586-.15.156-.36.234-.64.234s-.5-.078-.64-.234a.845.845 0 01-.21-.586zM1077.07 27h-1.45V15h1.45v12zm3.89 0h-1.44v-8.453h1.44V27zm-1.56-10.695c0-.235.07-.433.21-.594.15-.162.36-.242.64-.242s.49.08.64.242c.15.161.22.36.22.594 0 .234-.07.43-.22.586-.15.156-.36.234-.64.234s-.49-.078-.64-.234a.845.845 0 01-.21-.586zm5.84.195v2.047h1.58v1.117h-1.58v5.242c0 .339.07.594.21.766.14.166.38.25.72.25.17 0 .4-.031.69-.094V27c-.38.104-.75.156-1.11.156-.65 0-1.13-.195-1.46-.586-.33-.39-.49-.945-.49-1.664v-5.242h-1.54v-1.117h1.54V16.5h1.44zm6.04 8.383l1.97-6.336h1.55l-3.4 9.758c-.53 1.406-1.36 2.11-2.51 2.11l-.27-.024-.54-.102v-1.172l.39.031c.49 0 .87-.099 1.14-.296.28-.198.5-.56.68-1.086l.32-.86-3.02-8.36h1.58l2.11 6.337zM55.602 469.031h-4.766L49.766 472h-1.547l4.343-11.375h1.313L58.227 472h-1.54l-1.085-2.969zm-4.313-1.234h3.867l-1.937-5.32-1.93 5.32zm13.367 3.367c-.562.662-1.388.992-2.476.992-.901 0-1.589-.26-2.063-.781-.469-.526-.706-1.302-.71-2.328v-5.5h1.445v5.461c0 1.281.52 1.922 1.562 1.922 1.104 0 1.839-.412 2.203-1.235v-6.148h1.445V472h-1.374l-.032-.836zm5.57-9.664v2.047h1.579v1.117h-1.578v5.242c0 .339.07.594.21.766.141.167.38.25.72.25.166 0 .395-.031.687-.094V472c-.38.104-.75.156-1.11.156-.645 0-1.132-.195-1.46-.586-.329-.39-.493-.945-.493-1.664v-5.242h-1.539v-1.117h1.54V461.5h1.445zm2.735 6.195c0-.828.161-1.573.484-2.234.328-.662.782-1.172 1.36-1.531.583-.36 1.247-.539 1.992-.539 1.15 0 2.08.398 2.789 1.195.713.797 1.07 1.857 1.07 3.18v.101c0 .823-.159 1.563-.476 2.219a3.555 3.555 0 01-1.352 1.523c-.583.365-1.255.547-2.016.547-1.145 0-2.075-.398-2.789-1.195-.708-.797-1.062-1.852-1.062-3.164v-.102zm1.453.172c0 .938.216 1.69.648 2.258.438.568 1.021.852 1.75.852.735 0 1.318-.287 1.75-.86.433-.578.649-1.385.649-2.422 0-.927-.221-1.677-.664-2.25-.438-.578-1.021-.867-1.75-.867-.714 0-1.29.284-1.727.852-.437.567-.656 1.38-.656 2.437zm9.414-4.32l.04.937c.619-.729 1.455-1.093 2.507-1.093 1.182 0 1.987.453 2.414 1.359a3.214 3.214 0 011.094-.984c.453-.25.987-.375 1.601-.375 1.855 0 2.797.981 2.829 2.945V472h-1.446v-5.578c0-.604-.138-1.055-.414-1.352-.276-.302-.74-.453-1.39-.453-.537 0-.982.162-1.336.485-.355.317-.56.747-.618 1.289V472h-1.453v-5.539c0-1.229-.601-1.844-1.804-1.844-.948 0-1.597.404-1.946 1.211V472h-1.445v-8.453h1.367zM101.72 472c-.084-.167-.151-.464-.203-.891-.672.698-1.474 1.047-2.407 1.047-.833 0-1.518-.234-2.054-.703-.532-.474-.797-1.073-.797-1.797 0-.88.333-1.562 1-2.047.672-.489 1.614-.734 2.828-.734h1.406v-.664c0-.505-.151-.906-.453-1.203-.302-.302-.747-.453-1.336-.453-.516 0-.948.13-1.297.39-.349.261-.523.576-.523.946H96.43c0-.422.148-.829.445-1.219.302-.396.708-.708 1.219-.938a4.13 4.13 0 011.695-.343c.974 0 1.737.244 2.289.734.552.484.839 1.154.86 2.008v3.89c0 .776.098 1.394.296 1.852V472h-1.515zm-2.399-1.102c.453 0 .883-.117 1.289-.351.407-.235.701-.539.883-.914v-1.735h-1.133c-1.77 0-2.656.519-2.656 1.555 0 .453.151.807.453 1.063.302.255.69.382 1.164.382zm7.844-9.398v2.047h1.578v1.117h-1.578v5.242c0 .339.07.594.211.766.141.167.38.25.719.25.166 0 .396-.031.687-.094V472c-.38.104-.75.156-1.109.156-.646 0-1.133-.195-1.461-.586-.328-.39-.492-.945-.492-1.664v-5.242h-1.539v-1.117h1.539V461.5h1.445zm4.844 10.5h-1.446v-8.453h1.446V472zm-1.563-10.695c0-.235.071-.433.211-.594.146-.162.36-.242.641-.242s.495.08.641.242a.856.856 0 01.218.594.83.83 0 01-.218.586c-.146.156-.36.234-.641.234s-.495-.078-.641-.234a.848.848 0 01-.211-.586zm7.274 9.672c.515 0 .966-.157 1.351-.469.386-.313.599-.703.641-1.172h1.367c-.026.484-.193.945-.5 1.383a3.297 3.297 0 01-1.234 1.047c-.511.26-1.052.39-1.625.39-1.151 0-2.068-.383-2.75-1.148-.677-.771-1.016-1.823-1.016-3.156v-.243c0-.823.151-1.554.453-2.195a3.46 3.46 0 011.297-1.492c.568-.354 1.237-.531 2.008-.531.948 0 1.734.283 2.359.851.631.568.966 1.305 1.008 2.211h-1.367c-.042-.547-.25-.995-.625-1.344-.37-.354-.828-.531-1.375-.531-.734 0-1.305.266-1.711.797-.401.526-.602 1.289-.602 2.289v.274c0 .973.201 1.723.602 2.25.401.526.974.789 1.719.789zm13.039-6.133a4.276 4.276 0 00-.711-.055c-.948 0-1.591.404-1.93 1.211v6h-1.445v-8.453h1.406l.024.976c.474-.755 1.145-1.132 2.015-1.132.281 0 .495.036.641.109v1.344zm4.687 7.312c-1.146 0-2.078-.375-2.797-1.125-.718-.755-1.078-1.763-1.078-3.023v-.266c0-.838.159-1.586.477-2.242.323-.661.771-1.177 1.344-1.547a3.38 3.38 0 011.875-.562c1.099 0 1.953.362 2.562 1.086.61.724.914 1.76.914 3.109v.602h-5.726c.02.833.263 1.507.726 2.023.469.51 1.063.766 1.781.766.511 0 .943-.105 1.297-.313.354-.208.664-.484.93-.828l.883.687c-.709 1.089-1.771 1.633-3.188 1.633zm-.179-7.578c-.584 0-1.073.214-1.469.641-.396.422-.641 1.015-.735 1.781h4.235v-.109c-.042-.735-.24-1.302-.594-1.703-.354-.407-.833-.61-1.437-.61zm6.515-1.031l.039.937c.62-.729 1.456-1.093 2.508-1.093 1.182 0 1.987.453 2.414 1.359a3.212 3.212 0 011.094-.984c.453-.25.987-.375 1.602-.375 1.854 0 2.796.981 2.828 2.945V472h-1.446v-5.578c0-.604-.138-1.055-.414-1.352-.276-.302-.739-.453-1.39-.453-.537 0-.982.162-1.336.485-.354.317-.56.747-.618 1.289V472h-1.453v-5.539c0-1.229-.601-1.844-1.804-1.844-.948 0-1.597.404-1.946 1.211V472h-1.445v-8.453h1.367zM156.023 472h-1.445v-8.453h1.445V472zm-1.562-10.695a.87.87 0 01.211-.594c.146-.162.359-.242.64-.242.282 0 .495.08.641.242a.852.852 0 01.219.594.827.827 0 01-.219.586c-.146.156-.359.234-.641.234-.281 0-.494-.078-.64-.234a.844.844 0 01-.211-.586zm5.25 2.242l.047 1.062c.646-.812 1.489-1.218 2.531-1.218 1.787 0 2.688 1.007 2.703 3.023V472h-1.445v-5.594c-.005-.609-.146-1.06-.422-1.351-.271-.292-.695-.438-1.273-.438-.469 0-.881.125-1.235.375-.354.25-.63.578-.828.985V472h-1.445v-8.453h1.367zm7.109 4.156c0-1.297.308-2.338.922-3.125.615-.792 1.419-1.187 2.414-1.187.99 0 1.774.338 2.352 1.015V460h1.445v12h-1.328l-.07-.906c-.578.708-1.383 1.062-2.414 1.062-.98 0-1.779-.401-2.399-1.203-.614-.802-.922-1.849-.922-3.141v-.109zm1.446.164c0 .959.198 1.709.593 2.25.396.542.943.813 1.641.813.917 0 1.586-.412 2.008-1.235v-3.883c-.432-.796-1.097-1.195-1.992-1.195-.709 0-1.261.274-1.657.821-.395.546-.593 1.356-.593 2.429zm11.445 4.289c-1.146 0-2.078-.375-2.797-1.125-.719-.755-1.078-1.763-1.078-3.023v-.266c0-.838.159-1.586.476-2.242.323-.661.771-1.177 1.344-1.547a3.38 3.38 0 011.875-.562c1.099 0 1.953.362 2.563 1.086.609.724.914 1.76.914 3.109v.602h-5.727c.021.833.263 1.507.727 2.023.469.51 1.062.766 1.781.766.51 0 .943-.105 1.297-.313.354-.208.664-.484.93-.828l.882.687c-.708 1.089-1.77 1.633-3.187 1.633zm-.18-7.578c-.583 0-1.073.214-1.469.641-.395.422-.64 1.015-.734 1.781h4.234v-.109c-.041-.735-.239-1.302-.593-1.703-.354-.407-.834-.61-1.438-.61zm9.242.266a4.259 4.259 0 00-.711-.055c-.947 0-1.591.404-1.929 1.211v6h-1.445v-8.453h1.406l.023.976c.474-.755 1.146-1.132 2.016-1.132.281 0 .495.036.64.109v1.344zm6.258 4.914c0-.391-.148-.693-.445-.906-.292-.219-.805-.407-1.539-.563-.729-.156-1.31-.344-1.742-.562-.427-.219-.745-.48-.953-.782-.204-.302-.305-.661-.305-1.078 0-.693.292-1.278.875-1.758.588-.479 1.338-.718 2.25-.718.958 0 1.734.247 2.328.742.599.495.898 1.127.898 1.898h-1.453c0-.396-.169-.737-.507-1.023-.334-.287-.756-.43-1.266-.43-.526 0-.938.115-1.234.344a1.082 1.082 0 00-.446.898c0 .349.138.612.414.789.276.177.774.347 1.492.508.724.162 1.31.354 1.758.578.448.224.779.495.992.813.219.312.329.695.329 1.148 0 .755-.303 1.362-.907 1.821-.604.453-1.388.679-2.351.679-.677 0-1.276-.12-1.797-.359-.521-.24-.93-.573-1.227-1a2.458 2.458 0 01-.437-1.399h1.445c.026.485.219.87.578 1.157.365.281.844.422 1.438.422.547 0 .984-.11 1.312-.329.334-.224.5-.52.5-.89zm8.008 2.242v-7.336h-1.336v-1.117h1.336v-.867c0-.907.242-1.607.727-2.102.484-.495 1.169-.742 2.054-.742.334 0 .664.044.992.133l-.078 1.172a4.13 4.13 0 00-.781-.071c-.469 0-.831.138-1.086.414-.255.271-.383.662-.383 1.172v.891h1.805v1.117h-1.805V472h-1.445zm4.469-4.305c0-.828.161-1.573.484-2.234.328-.662.781-1.172 1.36-1.531.583-.36 1.247-.539 1.992-.539 1.151 0 2.08.398 2.789 1.195.713.797 1.07 1.857 1.07 3.18v.101c0 .823-.159 1.563-.476 2.219a3.557 3.557 0 01-1.352 1.523c-.583.365-1.255.547-2.016.547-1.145 0-2.075-.398-2.789-1.195-.708-.797-1.062-1.852-1.062-3.164v-.102zm1.453.172c0 .938.216 1.69.648 2.258.438.568 1.021.852 1.75.852.735 0 1.318-.287 1.75-.86.433-.578.649-1.385.649-2.422 0-.927-.222-1.677-.664-2.25-.438-.578-1.021-.867-1.75-.867-.714 0-1.289.284-1.727.852-.437.567-.656 1.38-.656 2.437zm12.141-3.023a4.276 4.276 0 00-.711-.055c-.948 0-1.592.404-1.93 1.211v6h-1.445v-8.453h1.406l.023.976c.474-.755 1.146-1.132 2.016-1.132.281 0 .495.036.641.109v1.344zm7.265-3.344v2.047h1.578v1.117h-1.578v5.242c0 .339.071.594.211.766.141.167.38.25.719.25.167 0 .396-.031.687-.094V472c-.38.104-.75.156-1.109.156-.646 0-1.133-.195-1.461-.586-.328-.39-.492-.945-.492-1.664v-5.242h-1.539v-1.117h1.539V461.5h1.445zm6.781 10.656c-1.145 0-2.078-.375-2.796-1.125-.719-.755-1.079-1.763-1.079-3.023v-.266c0-.838.159-1.586.477-2.242.323-.661.771-1.177 1.344-1.547a3.38 3.38 0 011.875-.562c1.099 0 1.953.362 2.562 1.086.61.724.914 1.76.914 3.109v.602h-5.726c.021.833.263 1.507.726 2.023.469.51 1.063.766 1.782.766.51 0 .942-.105 1.296-.313.355-.208.665-.484.93-.828l.883.687c-.708 1.089-1.771 1.633-3.188 1.633zm-.179-7.578c-.584 0-1.073.214-1.469.641-.396.422-.641 1.015-.734 1.781H237v-.109c-.042-.735-.24-1.302-.594-1.703-.354-.407-.833-.61-1.437-.61zM245.344 472c-.084-.167-.151-.464-.203-.891-.672.698-1.474 1.047-2.407 1.047-.833 0-1.518-.234-2.054-.703-.532-.474-.797-1.073-.797-1.797 0-.88.333-1.562 1-2.047.672-.489 1.614-.734 2.828-.734h1.406v-.664c0-.505-.151-.906-.453-1.203-.302-.302-.747-.453-1.336-.453-.516 0-.948.13-1.297.39-.349.261-.523.576-.523.946h-1.453c0-.422.148-.829.445-1.219.302-.396.708-.708 1.219-.938a4.125 4.125 0 011.695-.343c.974 0 1.737.244 2.289.734.552.484.839 1.154.859 2.008v3.89c0 .776.099 1.394.297 1.852V472h-1.515zm-2.399-1.102c.453 0 .883-.117 1.289-.351.407-.235.701-.539.883-.914v-1.735h-1.133c-1.77 0-2.656.519-2.656 1.555 0 .453.151.807.453 1.063.302.255.69.382 1.164.382zm7.243-7.351l.039.937c.619-.729 1.455-1.093 2.507-1.093 1.183 0 1.987.453 2.414 1.359a3.222 3.222 0 011.094-.984c.453-.25.987-.375 1.602-.375 1.854 0 2.797.981 2.828 2.945V472h-1.445v-5.578c0-.604-.138-1.055-.415-1.352-.276-.302-.739-.453-1.39-.453-.537 0-.982.162-1.336.485-.354.317-.56.747-.617 1.289V472h-1.453v-5.539c0-1.229-.602-1.844-1.805-1.844-.948 0-1.596.404-1.945 1.211V472h-1.446v-8.453h1.368zM465.07 21.68c0 1.114-.187 2.088-.562 2.922-.375.828-.906 1.46-1.594 1.898-.687.438-1.49.656-2.406.656-.896 0-1.69-.218-2.383-.656-.693-.443-1.232-1.07-1.617-1.883-.38-.818-.576-1.763-.586-2.836v-.82c0-1.094.19-2.06.57-2.898.38-.839.917-1.48 1.61-1.922.697-.448 1.494-.672 2.39-.672.912 0 1.714.221 2.406.664.698.437 1.235 1.075 1.61 1.914.375.833.562 1.805.562 2.914v.719zm-1.492-.735c0-1.349-.271-2.383-.812-3.101-.542-.724-1.3-1.086-2.274-1.086-.948 0-1.695.362-2.242 1.086-.542.718-.82 1.718-.836 3v.836c0 1.307.274 2.336.82 3.086.552.744 1.31 1.117 2.274 1.117.969 0 1.719-.352 2.25-1.055.531-.708.804-1.721.82-3.039v-.844zM467.805 27v-7.336h-1.336v-1.117h1.336v-.867c0-.907.242-1.607.726-2.102.485-.495 1.17-.742 2.055-.742.333 0 .664.044.992.133l-.078 1.172a4.156 4.156 0 00-.781-.07c-.469 0-.831.137-1.086.413-.255.271-.383.662-.383 1.172v.89h3.125v-.718c0-.943.268-1.677.805-2.203.541-.526 1.304-.79 2.289-.79.583 0 1.32.16 2.211.477l-.242 1.22c-.652-.261-1.274-.391-1.868-.391-.619 0-1.067.138-1.343.414-.271.276-.407.695-.407 1.258v.734h1.735v1.117h-1.735V27h-1.445v-7.336h-3.125V27h-1.445zm10.586 0h-1.446v-8.453h1.446V27zm5.75-1.023a2.08 2.08 0 001.351-.47c.386-.312.599-.702.641-1.171h1.367a2.624 2.624 0 01-.5 1.383 3.288 3.288 0 01-1.234 1.047c-.511.26-1.052.39-1.625.39-1.151 0-2.068-.383-2.75-1.148-.677-.771-1.016-1.823-1.016-3.156v-.243c0-.823.151-1.554.453-2.195a3.456 3.456 0 011.297-1.492c.568-.354 1.237-.531 2.008-.531.948 0 1.734.284 2.359.851.63.568.966 1.305 1.008 2.211h-1.367c-.042-.547-.25-.995-.625-1.344-.37-.354-.828-.53-1.375-.53-.735 0-1.305.265-1.711.796-.401.526-.602 1.29-.602 2.29v.273c0 .974.201 1.724.602 2.25.401.526.974.789 1.719.789zM490.695 27h-1.445v-8.453h1.445V27zm-1.562-10.695a.87.87 0 01.211-.594c.146-.162.359-.242.64-.242.282 0 .495.08.641.242.146.161.219.36.219.594 0 .234-.073.43-.219.586-.146.156-.359.234-.641.234-.281 0-.494-.078-.64-.234a.841.841 0 01-.211-.586zM498.234 27c-.083-.167-.151-.463-.203-.89-.672.697-1.474 1.046-2.406 1.046-.833 0-1.518-.234-2.055-.703-.531-.474-.797-1.073-.797-1.797 0-.88.334-1.562 1-2.047.672-.49 1.615-.734 2.829-.734h1.406v-.664c0-.505-.151-.906-.453-1.203-.302-.302-.748-.453-1.336-.453-.516 0-.948.13-1.297.39s-.524.576-.524.946h-1.453c0-.422.149-.828.446-1.22.302-.395.708-.707 1.218-.937a4.13 4.13 0 011.696-.343c.974 0 1.737.244 2.289.734.552.484.838 1.154.859 2.008v3.89c0 .776.099 1.394.297 1.852V27h-1.516zm-2.398-1.102a2.54 2.54 0 001.289-.351c.406-.235.701-.54.883-.914v-1.735h-1.133c-1.771 0-2.656.519-2.656 1.555 0 .453.151.807.453 1.063.302.255.69.382 1.164.382zM503.289 27h-1.445V15h1.445v12zm3.891 0h-1.446V15h1.446v12zm5.086-2.117l1.968-6.336h1.547l-3.398 9.758c-.526 1.406-1.362 2.11-2.508 2.11l-.273-.024-.54-.102v-1.172l.391.031c.49 0 .87-.099 1.141-.296.276-.198.502-.56.679-1.086l.321-.86-3.016-8.36h1.578l2.11 6.337zm14 2.117c-.084-.167-.151-.463-.204-.89-.671.697-1.473 1.046-2.406 1.046-.833 0-1.518-.234-2.054-.703-.532-.474-.797-1.073-.797-1.797 0-.88.333-1.562 1-2.047.672-.49 1.614-.734 2.828-.734h1.406v-.664c0-.505-.151-.906-.453-1.203-.302-.302-.747-.453-1.336-.453-.516 0-.948.13-1.297.39s-.523.576-.523.946h-1.453c0-.422.148-.828.445-1.22.302-.395.708-.707 1.219-.937a4.122 4.122 0 011.695-.343c.974 0 1.737.244 2.289.734.552.484.839 1.154.859 2.008v3.89c0 .776.099 1.394.297 1.852V27h-1.515zm-2.399-1.102a2.54 2.54 0 001.289-.351c.406-.235.701-.54.883-.914v-1.735h-1.133c-1.771 0-2.656.519-2.656 1.555 0 .453.151.807.453 1.063.302.255.69.382 1.164.382zm13.024-3.03c0 1.286-.295 2.322-.883 3.109-.589.786-1.386 1.18-2.391 1.18-1.026 0-1.833-.326-2.422-.977v4.07h-1.445V18.547h1.32l.071.937c.588-.729 1.406-1.093 2.453-1.093 1.015 0 1.817.382 2.406 1.148.594.766.891 1.83.891 3.195v.133zm-1.446-.165c0-.953-.203-1.706-.609-2.258-.406-.552-.964-.828-1.672-.828-.875 0-1.531.388-1.969 1.164v4.04c.433.77 1.094 1.156 1.985 1.156.692 0 1.242-.274 1.648-.82.412-.553.617-1.37.617-2.454zm10.43.164c0 1.287-.294 2.323-.883 3.11-.588.786-1.385 1.18-2.39 1.18-1.026 0-1.834-.326-2.422-.977v4.07h-1.446V18.547h1.321l.07.937c.589-.729 1.406-1.093 2.453-1.093 1.016 0 1.818.382 2.406 1.148.594.766.891 1.83.891 3.195v.133zm-1.445-.164c0-.953-.203-1.706-.61-2.258-.406-.552-.963-.828-1.672-.828-.875 0-1.531.388-1.968 1.164v4.04c.432.77 1.093 1.156 1.984 1.156.693 0 1.242-.274 1.648-.82.412-.553.618-1.37.618-2.454zm7.375-2.86a4.331 4.331 0 00-.711-.054c-.948 0-1.591.404-1.93 1.211v6h-1.445v-8.453h1.406l.023.976c.474-.755 1.146-1.132 2.016-1.132.281 0 .495.036.641.109v1.344zm.797 2.852c0-.828.161-1.573.484-2.234.328-.662.781-1.172 1.359-1.531.584-.36 1.248-.54 1.993-.54 1.151 0 2.08.4 2.789 1.196.713.797 1.07 1.857 1.07 3.18v.101c0 .823-.159 1.563-.477 2.219a3.559 3.559 0 01-1.351 1.523c-.584.365-1.255.547-2.016.547-1.146 0-2.075-.398-2.789-1.195-.708-.797-1.062-1.852-1.062-3.164v-.102zm1.453.172c0 .938.216 1.69.648 2.258.438.568 1.021.852 1.75.852.735 0 1.318-.287 1.75-.86.432-.578.649-1.385.649-2.422 0-.927-.222-1.677-.664-2.25-.438-.578-1.021-.867-1.75-.867-.714 0-1.29.284-1.727.852-.438.567-.656 1.38-.656 2.437zm10.718 2.172l2.094-6.492h1.477L565.312 27h-1.101l-3.063-8.453h1.477l2.148 6.492zm8.36 2.117c-1.146 0-2.078-.375-2.797-1.125-.719-.755-1.078-1.763-1.078-3.023v-.266c0-.838.159-1.586.476-2.242.323-.662.771-1.177 1.344-1.547a3.38 3.38 0 011.875-.562c1.099 0 1.953.362 2.563 1.086.609.724.914 1.76.914 3.109v.602h-5.727c.021.833.263 1.507.727 2.023.468.51 1.062.766 1.781.766.51 0 .943-.105 1.297-.313.354-.208.664-.484.93-.828l.882.687c-.708 1.089-1.771 1.633-3.187 1.633zm-.18-7.578c-.583 0-1.073.214-1.469.64-.395.423-.64 1.016-.734 1.782h4.234v-.11c-.041-.734-.239-1.302-.593-1.703-.355-.406-.834-.609-1.438-.609zM587 24.758c0-.39-.148-.693-.445-.906-.292-.22-.805-.407-1.539-.563-.73-.156-1.31-.344-1.743-.562-.427-.22-.744-.48-.953-.782-.203-.302-.304-.661-.304-1.078 0-.693.291-1.279.875-1.758.588-.479 1.338-.718 2.25-.718.958 0 1.734.247 2.328.742.599.495.898 1.127.898 1.898h-1.453c0-.396-.169-.737-.508-1.023-.333-.287-.755-.43-1.265-.43-.526 0-.938.115-1.235.344-.297.229-.445.529-.445.898 0 .35.138.612.414.79.276.177.773.346 1.492.507.724.162 1.31.354 1.758.578.448.224.779.495.992.813.219.312.328.695.328 1.148 0 .756-.302 1.362-.906 1.82-.604.454-1.388.68-2.351.68-.678 0-1.277-.12-1.797-.36a2.963 2.963 0 01-1.227-1 2.45 2.45 0 01-.437-1.398h1.445c.026.485.219.87.578 1.157.365.28.844.422 1.438.422.546 0 .984-.11 1.312-.329.333-.224.5-.52.5-.89zm8.547 1.406c-.563.662-1.388.992-2.477.992-.901 0-1.588-.26-2.062-.781-.469-.526-.706-1.302-.711-2.328v-5.5h1.445v5.46c0 1.282.521 1.923 1.563 1.923 1.104 0 1.838-.412 2.203-1.235v-6.148h1.445V27h-1.375l-.031-.836zm10.765-3.297c0 1.292-.296 2.33-.89 3.117-.594.782-1.391 1.172-2.391 1.172-1.067 0-1.893-.377-2.476-1.133l-.071.977h-1.328V15h1.446v4.477c.583-.724 1.388-1.086 2.414-1.086 1.026 0 1.83.388 2.414 1.164.588.776.882 1.838.882 3.187v.125zm-1.445-.164c0-.984-.19-1.745-.57-2.281-.38-.537-.927-.805-1.641-.805-.953 0-1.638.443-2.054 1.328v3.657c.442.885 1.132 1.328 2.07 1.328.693 0 1.232-.268 1.617-.805s.578-1.344.578-2.422zm4.633-4.156l.039.937c.62-.729 1.456-1.093 2.508-1.093 1.182 0 1.987.453 2.414 1.359a3.211 3.211 0 011.094-.984c.453-.25.987-.375 1.601-.375 1.854 0 2.797.981 2.828 2.945V27h-1.445v-5.578c0-.604-.138-1.055-.414-1.352-.276-.302-.74-.453-1.391-.453-.536 0-.981.162-1.336.485-.354.317-.559.747-.617 1.289V27h-1.453v-5.54c0-1.228-.601-1.843-1.805-1.843-.947 0-1.596.404-1.945 1.211V27h-1.445v-8.453h1.367zM623.742 27h-1.445v-8.453h1.445V27zm-1.562-10.695a.87.87 0 01.211-.594c.145-.162.359-.242.64-.242s.495.08.641.242c.146.161.219.36.219.594 0 .234-.073.43-.219.586-.146.156-.36.234-.641.234s-.495-.078-.64-.234a.841.841 0 01-.211-.586zm5.843.195v2.047h1.579v1.117h-1.579v5.242c0 .339.071.594.211.766.141.166.381.25.719.25.167 0 .396-.031.688-.094V27c-.381.104-.75.156-1.11.156-.646 0-1.133-.195-1.461-.586-.328-.39-.492-.945-.492-1.664v-5.242h-1.539v-1.117h1.539V16.5h1.445zm5.235 0v2.047h1.578v1.117h-1.578v5.242c0 .339.07.594.211.766.14.166.38.25.719.25.166 0 .395-.031.687-.094V27c-.38.104-.75.156-1.109.156-.646 0-1.133-.195-1.461-.586-.328-.39-.493-.945-.493-1.664v-5.242h-1.539v-1.117h1.539V16.5h1.446zm6.781 10.656c-1.146 0-2.078-.375-2.797-1.125-.719-.755-1.078-1.763-1.078-3.023v-.266c0-.838.159-1.586.477-2.242.323-.662.77-1.177 1.343-1.547a3.382 3.382 0 011.875-.562c1.099 0 1.953.362 2.563 1.086.609.724.914 1.76.914 3.109v.602h-5.727c.021.833.263 1.507.727 2.023.469.51 1.062.766 1.781.766.511 0 .943-.105 1.297-.313.354-.208.664-.484.93-.828l.883.687c-.709 1.089-1.771 1.633-3.188 1.633zm-.18-7.578a1.92 1.92 0 00-1.468.64c-.396.423-.641 1.016-.735 1.782h4.235v-.11c-.042-.734-.24-1.302-.594-1.703-.354-.406-.833-.609-1.438-.609zm4.805 3.125c0-1.297.307-2.338.922-3.125.615-.791 1.419-1.187 2.414-1.187.99 0 1.773.338 2.352 1.015V15h1.445v12h-1.328l-.071-.906c-.578.708-1.382 1.062-2.414 1.062-.979 0-1.778-.4-2.398-1.203-.615-.802-.922-1.849-.922-3.14v-.11zm1.445.164c0 .959.198 1.709.594 2.25.396.542.943.813 1.641.813.916 0 1.586-.412 2.008-1.235v-3.883c-.433-.796-1.097-1.195-1.993-1.195-.708 0-1.26.274-1.656.82-.396.547-.594 1.357-.594 2.43zm13.868-6.367v2.047h1.578v1.117h-1.578v5.242c0 .339.07.594.211.766.14.166.38.25.718.25.167 0 .396-.031.688-.094V27c-.38.104-.75.156-1.11.156-.645 0-1.132-.195-1.461-.586-.328-.39-.492-.945-.492-1.664v-5.242h-1.539v-1.117h1.539V16.5h1.446zM664.82 27h-1.445v-8.453h1.445V27zm-1.562-10.695a.87.87 0 01.211-.594c.146-.162.359-.242.64-.242.282 0 .495.08.641.242.146.161.219.36.219.594 0 .234-.073.43-.219.586-.146.156-.359.234-.641.234-.281 0-.494-.078-.64-.234a.841.841 0 01-.211-.586zm5.242 2.242l.039.937c.62-.729 1.456-1.093 2.508-1.093 1.182 0 1.987.453 2.414 1.359a3.211 3.211 0 011.094-.984c.453-.25.987-.375 1.601-.375 1.854 0 2.797.981 2.828 2.945V27h-1.445v-5.578c0-.604-.138-1.055-.414-1.352-.276-.302-.74-.453-1.391-.453-.536 0-.981.162-1.336.485-.354.317-.559.747-.617 1.289V27h-1.453v-5.54c0-1.228-.601-1.843-1.805-1.843-.947 0-1.596.404-1.945 1.211V27h-1.445v-8.453h1.367zm16.18 8.61c-1.146 0-2.078-.376-2.797-1.126-.719-.755-1.078-1.763-1.078-3.023v-.266c0-.838.159-1.586.476-2.242.323-.662.771-1.177 1.344-1.547a3.38 3.38 0 011.875-.562c1.099 0 1.953.362 2.562 1.086.61.724.915 1.76.915 3.109v.602h-5.727c.021.833.263 1.507.727 2.023.468.51 1.062.766 1.781.766.51 0 .943-.105 1.297-.313a3.25 3.25 0 00.929-.828l.883.687c-.708 1.089-1.771 1.633-3.187 1.633zm-.18-7.579c-.583 0-1.073.214-1.469.64-.396.423-.64 1.016-.734 1.782h4.234v-.11c-.041-.734-.239-1.302-.593-1.703-.355-.406-.834-.609-1.438-.609zM967.672 466.93c-1.287-.37-2.224-.823-2.813-1.36a2.622 2.622 0 01-.875-2c0-.896.357-1.635 1.071-2.218.718-.589 1.651-.883 2.797-.883.781 0 1.476.151 2.086.453.614.302 1.088.719 1.421 1.25.339.531.508 1.112.508 1.742h-1.508c0-.687-.218-1.226-.656-1.617-.437-.396-1.055-.594-1.851-.594-.74 0-1.318.164-1.735.492-.411.323-.617.774-.617 1.352 0 .463.195.857.586 1.18.396.317 1.065.609 2.008.875.948.265 1.687.559 2.218.882.537.318.933.69 1.188 1.118.26.427.391.929.391 1.507 0 .922-.36 1.662-1.079 2.219-.718.552-1.679.828-2.882.828a5.384 5.384 0 01-2.188-.445c-.677-.302-1.2-.714-1.57-1.234a3.016 3.016 0 01-.547-1.774h1.508c0 .688.252 1.232.758 1.633.51.396 1.19.594 2.039.594.791 0 1.398-.162 1.82-.485.422-.323.633-.763.633-1.32s-.195-.987-.586-1.289c-.391-.307-1.099-.609-2.125-.906zm7.883-5.43v2.047h1.578v1.117h-1.578v5.242c0 .339.07.594.211.766.14.167.38.25.718.25.167 0 .396-.031.688-.094V472c-.38.104-.75.156-1.11.156-.645 0-1.132-.195-1.46-.586-.329-.39-.493-.945-.493-1.664v-5.242h-1.539v-1.117h1.539V461.5h1.446zm8.492 10.5c-.083-.167-.151-.464-.203-.891-.672.698-1.474 1.047-2.406 1.047-.834 0-1.519-.234-2.055-.703-.531-.474-.797-1.073-.797-1.797 0-.88.333-1.562 1-2.047.672-.489 1.615-.734 2.828-.734h1.406v-.664c0-.505-.151-.906-.453-1.203-.302-.302-.747-.453-1.336-.453-.515 0-.948.13-1.297.39-.349.261-.523.576-.523.946h-1.453c0-.422.148-.829.445-1.219.302-.396.708-.708 1.219-.938a4.131 4.131 0 011.695-.343c.974 0 1.737.244 2.289.734.552.484.839 1.154.86 2.008v3.89c0 .776.099 1.394.296 1.852V472h-1.515zm-2.399-1.102c.454 0 .883-.117 1.29-.351.406-.235.7-.539.882-.914v-1.735h-1.132c-1.771 0-2.657.519-2.657 1.555 0 .453.151.807.453 1.063.302.255.69.382 1.164.382zm8.524-1.015l1.969-6.336h1.547l-3.399 9.758c-.526 1.406-1.362 2.109-2.508 2.109l-.273-.023-.539-.102v-1.172l.39.031c.49 0 .87-.099 1.141-.296.276-.198.503-.56.68-1.086l.32-.86-3.016-8.359h1.578l2.11 6.336zm16.268.125l1.62-6.461h1.45l-2.46 8.453h-1.17l-2.06-6.406-2 6.406h-1.17l-2.455-8.453h1.438l1.667 6.328 1.97-6.328h1.16l2.01 6.461zm6.11 1.992h-1.44v-8.453h1.44V472zm-1.56-10.695c0-.235.07-.433.21-.594.15-.162.36-.242.64-.242s.5.08.64.242c.15.161.22.359.22.594a.81.81 0 01-.22.586c-.14.156-.36.234-.64.234s-.49-.078-.64-.234a.848.848 0 01-.21-.586zm5.85.195v2.047h1.57v1.117h-1.57v5.242c0 .339.07.594.21.766.14.167.38.25.72.25.16 0 .39-.031.68-.094V472c-.38.104-.75.156-1.11.156-.64 0-1.13-.195-1.46-.586-.33-.39-.49-.945-.49-1.664v-5.242h-1.54v-1.117h1.54V461.5h1.45zm4.71 3.07c.65-.786 1.48-1.179 2.5-1.179 1.79 0 2.69 1.007 2.71 3.023V472h-1.45v-5.594c0-.609-.14-1.06-.42-1.351-.27-.292-.69-.438-1.27-.438-.47 0-.88.125-1.24.375-.35.25-.63.578-.83.985V472h-1.44v-12h1.44v4.57zm8.94 7.43h-1.44v-8.453h1.44V472zm-1.56-10.695c0-.235.07-.433.21-.594.15-.162.36-.242.64-.242s.5.08.64.242c.15.161.22.359.22.594a.81.81 0 01-.22.586c-.14.156-.36.234-.64.234s-.49-.078-.64-.234a.848.848 0 01-.21-.586zm5.25 2.242l.05 1.062c.64-.812 1.49-1.218 2.53-1.218 1.78 0 2.69 1.007 2.7 3.023V472h-1.44v-5.594c-.01-.609-.15-1.06-.43-1.351-.27-.292-.69-.438-1.27-.438-.47 0-.88.125-1.23.375-.36.25-.63.578-.83.985V472h-1.45v-8.453h1.37zm18.59 4.32c0 1.292-.3 2.331-.89 3.117-.6.782-1.4 1.172-2.4 1.172-1.06 0-1.89-.377-2.47-1.133l-.07.977h-1.33v-12h1.44v4.477c.59-.724 1.39-1.086 2.42-1.086 1.02 0 1.83.388 2.41 1.164.59.776.89 1.838.89 3.187v.125zm-1.45-.164c0-.984-.19-1.745-.57-2.281-.38-.537-.93-.805-1.64-.805-.95 0-1.64.443-2.06 1.328v3.657c.45.885 1.14 1.328 2.07 1.328.7 0 1.24-.269 1.62-.805.39-.536.58-1.344.58-2.422zm8.49 3.461c-.56.662-1.39.992-2.47.992-.91 0-1.59-.26-2.07-.781-.47-.526-.7-1.302-.71-2.328v-5.5h1.45v5.461c0 1.281.52 1.922 1.56 1.922 1.1 0 1.84-.412 2.2-1.235v-6.148h1.45V472h-1.38l-.03-.836zm3.26-3.461c0-1.297.31-2.338.92-3.125.62-.792 1.42-1.187 2.42-1.187.99 0 1.77.338 2.35 1.015V460h1.44v12h-1.32l-.08-.906c-.57.708-1.38 1.062-2.41 1.062-.98 0-1.78-.401-2.4-1.203-.61-.802-.92-1.849-.92-3.141v-.109zm1.45.164c0 .959.19 1.709.59 2.25.4.542.94.813 1.64.813.92 0 1.59-.412 2.01-1.235v-3.883c-.43-.796-1.1-1.195-1.99-1.195-.71 0-1.26.274-1.66.821-.4.546-.59 1.356-.59 2.429zm7.59-.164c0-1.318.3-2.364.91-3.141.61-.781 1.42-1.171 2.43-1.171 1.03 0 1.83.364 2.41 1.093l.07-.937h1.32v8.25c0 1.094-.33 1.956-.98 2.586-.64.63-1.51.945-2.61.945-.61 0-1.2-.13-1.78-.39-.59-.261-1.03-.618-1.34-1.071l.75-.867c.62.766 1.38 1.148 2.27 1.148.71 0 1.25-.197 1.64-.593.4-.396.6-.953.6-1.672v-.727c-.58.667-1.37 1-2.37 1-.99 0-1.79-.398-2.41-1.195-.61-.797-.91-1.883-.91-3.258zm1.45.164c0 .953.2 1.703.59 2.25.39.542.94.813 1.64.813.91 0 1.58-.414 2.01-1.242v-3.86c-.45-.807-1.11-1.211-2-1.211-.7 0-1.25.274-1.64.821-.4.546-.6 1.356-.6 2.429zm11.39 4.289c-1.15 0-2.08-.375-2.8-1.125-.72-.755-1.08-1.763-1.08-3.023v-.266c0-.838.16-1.586.48-2.242.32-.661.77-1.177 1.34-1.547.58-.375 1.2-.562 1.88-.562 1.09 0 1.95.362 2.56 1.086.61.724.91 1.76.91 3.109v.602h-5.72c.02.833.26 1.507.72 2.023.47.51 1.06.766 1.78.766.51 0 .95-.105 1.3-.313.35-.208.66-.484.93-.828l.88.687c-.71 1.089-1.77 1.633-3.18 1.633zm-.18-7.578c-.59 0-1.08.214-1.47.641-.4.422-.64 1.015-.74 1.781h4.24v-.109c-.04-.735-.24-1.302-.6-1.703-.35-.407-.83-.61-1.43-.61zm7.11-3.078v2.047h1.58v1.117h-1.58v5.242c0 .339.07.594.21.766.14.167.38.25.72.25.17 0 .4-.031.69-.094V472c-.38.104-.75.156-1.11.156-.65 0-1.13-.195-1.46-.586-.33-.39-.49-.945-.49-1.664v-5.242h-1.54v-1.117h1.54V461.5h1.44z" fill="#2F2F2F"/><path d="M1073.72 446.675l-.61-59.704a1.99 1.99 0 00-1.99-1.971h-72.1" stroke="#2F2F2F" stroke-width=".635"/><ellipse rx="3" ry="3.002" transform="matrix(0 -1 -1 0 997.002 385)" fill="#2F2F2F"/><path d="M565 33v86.549" stroke="#2F2F2F" stroke-width=".635"/><circle transform="matrix(0 -1 -1 0 565 120)" fill="#2F2F2F" r="3"/><ellipse rx="3" ry="3.002" transform="matrix(0 -1 -1 0 1033 137)" fill="#2F2F2F"/><path d="M1072.81 33l.28 101.988c0 1.109-.9 2.012-2.01 2.012h-38.49" stroke="#2F2F2F" stroke-width=".635"/></svg>