<svg xmlns="http://www.w3.org/2000/svg" width="1150" height="830" fill="none" xmlns:v="https://vecta.io/nano"><style><![CDATA[.B{fill:#2f2f2f}.C{stroke:#2f2f2f}.D{stroke-width:.635}]]></style><ellipse rx="3.019" ry="3" transform="matrix(0 -1 -1 0 988 129.981)" class="B"/><path d="M988 61v69.675" class="C D"/><g class="B"><path d="M918.148 47.242c0-.25.073-.458.22-.625.15-.167.375-.25.672-.25s.52.083.672.25.234.375.234.625a.83.83 0 0 1-.234.602c-.15.16-.375.242-.672.242s-.52-.08-.672-.242c-.146-.162-.22-.362-.22-.602zm4.22 0c0-.25.073-.458.22-.625s.375-.25.672-.25.52.083.672.25c.156.167.234.375.234.625a.83.83 0 0 1-.234.602c-.15.16-.375.242-.672.242s-.52-.08-.672-.242-.22-.362-.22-.602zm4.22 0c0-.25.073-.458.22-.625.15-.167.375-.25.672-.25s.52.083.67.25c.157.167.235.375.235.625 0 .24-.078.44-.235.602-.15.16-.375.242-.67.242s-.52-.08-.672-.242c-.146-.162-.22-.362-.22-.602zm9.406.758c-.083-.167-.15-.464-.203-.89-.672.698-1.474 1.047-2.406 1.047-.834 0-1.518-.234-2.055-.703-.53-.474-.797-1.073-.797-1.797 0-.88.334-1.562 1-2.047.672-.5 1.615-.734 2.828-.734h1.407v-.664c0-.505-.15-.906-.454-1.203-.302-.302-.747-.453-1.335-.453-.516 0-.948.13-1.297.39s-.524.575-.524.945h-1.453c0-.422.15-.828.445-1.22.303-.396.71-.708 1.22-.937.516-.23 1.08-.344 1.695-.344.974 0 1.737.245 2.3.734.552.484.838 1.154.86 2.008v3.89c0 .776.1 1.393.297 1.852V48h-1.516zm-2.398-1.102a2.54 2.54 0 0 0 1.289-.352c.406-.234.7-.54.883-.914v-1.734h-1.133c-1.77 0-2.656.518-2.656 1.555 0 .453.15.807.453 1.063s.7.383 1.164.383zm7.25-7.352l.047 1.063c.645-.812 1.49-1.22 2.53-1.22 1.786 0 2.687 1.008 2.703 3.023V48h-1.445v-5.594c-.006-.61-.146-1.06-.422-1.352s-.696-.437-1.274-.437c-.468 0-.88.125-1.234.375s-.63.578-.828.984V48h-1.445v-8.453h1.367zm7.11 4.156c0-1.297.307-2.338.922-3.125a2.91 2.91 0 0 1 2.414-1.187c1 0 1.773.34 2.352 1.016V36h1.445v12h-1.328l-.07-.906c-.58.708-1.383 1.062-2.415 1.062-.98 0-1.778-.4-2.398-1.203s-.922-1.85-.922-3.14v-.11zm1.445.164c0 .958.198 1.708.594 2.25s.943.813 1.64.813c.916 0 1.586-.41 2.008-1.234v-3.883c-.433-.797-1.097-1.195-1.993-1.195-.708 0-1.26.273-1.656.82s-.594 1.357-.594 2.43zm16.83 1.89c0-.39-.15-.693-.446-.906-.29-.22-.804-.406-1.54-.562-.73-.156-1.3-.344-1.742-.562s-.745-.48-.953-.78-.305-.66-.305-1.078c0-.693.292-1.28.875-1.758.59-.48 1.34-.72 2.25-.72.96 0 1.735.247 2.328.742a2.35 2.35 0 0 1 .899 1.898h-1.453c0-.396-.17-.737-.508-1.023s-.755-.43-1.266-.43c-.526 0-.937.115-1.234.344a1.08 1.08 0 0 0-.445.898c0 .35.138.612.414.79s.773.346 1.492.508 1.3.354 1.758.578.778.495.992.813c.218.313.328.695.328 1.148a2.17 2.17 0 0 1-.906 1.82c-.605.453-1.388.68-2.352.68-.677 0-1.276-.12-1.797-.36a2.96 2.96 0 0 1-1.226-1 2.45 2.45 0 0 1-.438-1.398h1.445a1.51 1.51 0 0 0 .579 1.156c.364.28.843.422 1.437.422.547 0 .984-.11 1.313-.328.333-.224.5-.52.5-.89zm5.29-8.258v2.047h1.578v1.117h-1.578v5.242c0 .34.07.594.21.766.14.167.38.25.718.25.167 0 .396-.03.688-.094V48a4.19 4.19 0 0 1-1.11.156c-.645 0-1.132-.195-1.46-.586s-.492-.945-.492-1.664v-5.242h-1.54v-1.117h1.54V37.5h1.446zm8.492 10.5c-.084-.167-.15-.464-.203-.89-.672.698-1.474 1.047-2.407 1.047-.833 0-1.518-.234-2.054-.703a2.3 2.3 0 0 1-.797-1.797c0-.88.333-1.562 1-2.047.672-.5 1.614-.734 2.828-.734h1.406v-.664c0-.505-.15-.906-.453-1.203-.302-.302-.747-.453-1.336-.453-.515 0-.948.13-1.297.39s-.523.575-.523.945h-1.453c0-.422.148-.828.445-1.22.302-.396.708-.708 1.22-.937s1.08-.344 1.695-.344c.974 0 1.737.245 2.29.734.552.484.84 1.154.86 2.008v3.89c0 .776.1 1.393.296 1.852V48h-1.515zm-2.4-1.102a2.54 2.54 0 0 0 1.289-.352c.407-.234.7-.54.883-.914v-1.734h-1.133c-1.77 0-2.656.518-2.656 1.555 0 .453.15.807.453 1.063s.7.383 1.164.383zm9.97-6.055a4.33 4.33 0 0 0-.711-.055c-.948 0-1.59.404-1.93 1.21v6h-1.446v-8.453h1.406l.024.977c.474-.755 1.146-1.133 2.016-1.133.28 0 .494.037.64.11v1.344zm3.688-3.344v2.047h1.578v1.117h-1.578v5.242c0 .34.07.594.21.766.14.167.38.25.718.25.167 0 .396-.03.688-.094V48a4.19 4.19 0 0 1-1.11.156c-.645 0-1.132-.195-1.46-.586s-.492-.945-.492-1.664v-5.242h-1.54v-1.117h1.54V37.5h1.446zm9.204 0v2.047h1.58v1.117h-1.58v5.242c0 .34.07.594.2.766.14.167.38.25.72.25.17 0 .4-.03.7-.094V48a4.19 4.19 0 0 1-1.11.156c-.65 0-1.136-.195-1.464-.586s-.493-.945-.493-1.664v-5.242h-1.54v-1.117h1.54V37.5h1.447zm4.72 3.07c.64-.786 1.47-1.18 2.5-1.18 1.78 0 2.7 1.008 2.7 3.023V48h-1.44v-5.594c-.01-.61-.15-1.06-.43-1.352-.27-.292-.7-.437-1.27-.437a2.06 2.06 0 0 0-1.23.375c-.36.25-.63.578-.83.984V48h-1.45V36h1.45v4.57zm10.87 7.586c-1.14 0-2.08-.375-2.8-1.125-.72-.755-1.08-1.763-1.08-3.023v-.266c0-.84.16-1.586.47-2.242.33-.66.77-1.177 1.35-1.547.58-.375 1.2-.562 1.87-.562 1.1 0 1.96.362 2.57 1.086.6.724.9 1.76.9 3.11v.602h-5.73c.02.833.27 1.508.73 2.023.47.51 1.06.766 1.78.766.5 0 .94-.104 1.3-.312.35-.208.66-.484.93-.828l.88.688c-.7 1.09-1.77 1.633-3.2 1.633zm-.18-7.578c-.58 0-1.07.214-1.47.64-.4.422-.64 1.016-.73 1.78h4.23v-.11c-.04-.734-.24-1.302-.6-1.703-.35-.406-.83-.61-1.44-.61zm11.1-3.078v2.047h1.58v1.117h-1.58v5.242c0 .34.07.594.2.766.14.167.38.25.72.25.17 0 .4-.03.7-.094V48a4.19 4.19 0 0 1-1.11.156c-.65 0-1.14-.195-1.46-.586-.33-.39-.5-.945-.5-1.664v-5.242h-1.54v-1.117h1.54V37.5h1.45zm4.84 10.5h-1.44v-8.453h1.44V48zm-1.56-10.695c0-.234.07-.432.2-.594.15-.16.36-.242.64-.242s.5.08.64.242c.15.16.22.36.22.594s-.07.43-.22.586c-.14.156-.36.234-.64.234s-.5-.078-.64-.234c-.14-.156-.2-.352-.2-.586zm5.24 2.242l.04.938c.62-.73 1.46-1.094 2.5-1.094 1.18 0 2 .453 2.4 1.36.28-.406.65-.734 1.1-.984s.98-.375 1.6-.375c1.85 0 2.8.982 2.83 2.945V48h-1.45v-5.578c0-.604-.14-1.055-.4-1.352-.28-.302-.74-.453-1.4-.453-.54 0-1 .16-1.34.484-.35.318-.56.747-.62 1.29V48h-1.45v-5.54c0-1.23-.6-1.844-1.8-1.844-.95 0-1.6.404-1.95 1.21V48h-1.45v-8.453h1.37zm16.18 8.61c-1.14 0-2.08-.375-2.8-1.125-.72-.755-1.08-1.763-1.08-3.023v-.266c0-.84.16-1.586.47-2.242.33-.66.77-1.177 1.35-1.547.58-.375 1.2-.562 1.87-.562 1.1 0 1.96.362 2.56 1.086.6.724.92 1.76.92 3.11v.602h-5.73c.02.833.27 1.508.73 2.023.47.51 1.06.766 1.78.766.5 0 .94-.104 1.3-.312.35-.208.66-.484.93-.828l.88.688c-.7 1.09-1.77 1.633-3.2 1.633zm-.18-7.578c-.58 0-1.07.214-1.47.64-.4.422-.64 1.016-.73 1.78h4.23v-.11c-.04-.734-.24-1.302-.6-1.703-.35-.406-.83-.61-1.44-.61zm9.24.266a4.2 4.2 0 0 0-.71-.055c-.94 0-1.6.404-1.93 1.21v6h-1.44v-8.453h1.4l.03.977c.47-.755 1.14-1.133 2-1.133.3 0 .5.037.64.11v1.344z"/><ellipse rx="3" ry="2.981" transform="matrix(0 -1 -1 0 295.019 129)"/></g><path d="M295 65v65.5" class="C D"/><g class="B"><path d="M187.656 37.86H184V48h-1.492V37.86h-3.65v-1.234h8.797v1.234zm3.664 8.023l1.97-6.336h1.547l-3.398 9.758c-.527 1.406-1.362 2.11-2.508 2.11l-.274-.023-.54-.102v-1.172l.39.03c.49 0 .87-.1 1.14-.297.276-.198.503-.56.68-1.086l.32-.86-3.015-8.36h1.578l2.11 6.336zm11.953-2.016c0 1.286-.294 2.323-.882 3.11s-1.386 1.18-2.39 1.18c-1.026 0-1.833-.325-2.422-.977v4.07h-1.445V39.547h1.32l.07.938c.59-.73 1.407-1.094 2.454-1.094 1.015 0 1.817.383 2.406 1.148s.9 1.83.9 3.195v.133zm-1.445-.164c0-.953-.203-1.706-.61-2.258s-.964-.828-1.672-.828c-.875 0-1.53.388-1.97 1.164v4.04c.432.77 1.094 1.156 1.984 1.156.693 0 1.243-.273 1.65-.82.41-.552.617-1.37.617-2.453zm6.797 4.453c-1.146 0-2.078-.375-2.797-1.125-.72-.755-1.078-1.763-1.078-3.023v-.266c0-.84.16-1.586.477-2.242.322-.66.77-1.177 1.343-1.547a3.38 3.38 0 0 1 1.875-.562c1.1 0 1.953.362 2.563 1.086s.914 1.76.914 3.11v.602h-5.727c.02.833.263 1.508.727 2.023.47.51 1.062.766 1.78.766.51 0 .943-.104 1.297-.312s.664-.484.93-.828l.882.688c-.708 1.09-1.77 1.633-3.187 1.633zm-.18-7.578a1.92 1.92 0 0 0-1.468.641c-.396.422-.64 1.016-.735 1.78h4.235v-.11c-.042-.734-.24-1.302-.594-1.703-.354-.406-.834-.61-1.438-.61zm16.6 5.43l1.625-6.46h1.445L225.664 48h-1.172l-2.054-6.406-2 6.406h-1.172l-2.454-8.453h1.438l1.664 6.328 1.97-6.328h1.164l2.008 6.46zm5.992-5.437a3.07 3.07 0 0 1 2.5-1.18c1.786 0 2.687 1.008 2.703 3.023V48h-1.445v-5.594c-.006-.61-.146-1.06-.422-1.352s-.695-.437-1.274-.437c-.468 0-.88.125-1.234.375s-.63.578-.828.984V48h-1.445V36h1.445v4.57zM243.633 48c-.084-.167-.15-.464-.203-.89-.672.698-1.474 1.047-2.407 1.047-.833 0-1.518-.234-2.054-.703-.53-.474-.797-1.073-.797-1.797 0-.88.333-1.562 1-2.047.672-.5 1.614-.734 2.828-.734h1.406v-.664c0-.505-.15-.906-.453-1.203-.302-.302-.747-.453-1.336-.453-.515 0-.948.13-1.297.39s-.523.575-.523.945h-1.453c0-.422.148-.828.445-1.22.302-.396.708-.708 1.22-.937s1.08-.344 1.695-.344c.974 0 1.737.245 2.29.734.552.484.84 1.154.86 2.008v3.89c0 .776.1 1.393.296 1.852V48h-1.515zm-2.4-1.102c.454 0 .883-.117 1.29-.352s.7-.54.883-.914v-1.734h-1.133c-1.77 0-2.656.518-2.656 1.555 0 .453.15.807.453 1.063s.7.383 1.164.383zm7.844-9.398v2.047h1.578v1.117h-1.578v5.242c0 .34.07.594.21.766.14.167.38.25.72.25.166 0 .396-.03.687-.094V48c-.38.104-.75.156-1.11.156-.646 0-1.133-.195-1.46-.586s-.492-.945-.492-1.664v-5.242h-1.54v-1.117h1.54V37.5h1.445zm10.008 8.383l1.97-6.336h1.547l-3.4 9.758c-.526 1.406-1.362 2.11-2.508 2.11l-.273-.023-.54-.102v-1.172l.4.03c.5 0 .87-.1 1.14-.297s.503-.56.68-1.086l.32-.86-3.016-8.36h1.58l2.11 6.336zm4.305-2.187c0-.828.16-1.573.484-2.234s.78-1.172 1.36-1.53c.584-.36 1.248-.54 1.993-.54 1.15 0 2.08.398 2.79 1.195s1.07 1.857 1.07 3.18v.102c0 .823-.16 1.563-.477 2.22-.312.65-.763 1.16-1.35 1.523s-1.255.547-2.016.547c-1.146 0-2.075-.398-2.79-1.195-.708-.797-1.062-1.852-1.062-3.164v-.102zm1.453.172c0 .938.216 1.7.648 2.258.438.568 1.02.852 1.75.852.735 0 1.318-.286 1.75-.86.432-.578.65-1.385.65-2.422 0-.927-.222-1.677-.664-2.25-.438-.578-1.02-.867-1.75-.867-.714 0-1.29.284-1.727.852s-.656 1.38-.656 2.438zm13.273 3.297c-.562.66-1.388.992-2.476.992-.9 0-1.59-.26-2.063-.78-.47-.526-.706-1.302-.71-2.328v-5.5h1.445v5.46c0 1.28.52 1.922 1.563 1.922 1.104 0 1.84-.41 2.203-1.234v-6.148h1.445V48h-1.375l-.03-.836zm3.71-7.336l-.82-.562c.484-.677.734-1.39.75-2.14V36h1.43v1.016c-.006.52-.136 1.042-.39 1.563-.25.516-.573.932-.97 1.25zm7.188 1.016a4.33 4.33 0 0 0-.711-.055c-.948 0-1.59.404-1.93 1.21v6h-1.445v-8.453h1.406l.023.977c.474-.755 1.146-1.133 2.016-1.133.28 0 .495.037.64.11v1.344zm4.687 7.312c-1.146 0-2.078-.375-2.797-1.125-.718-.755-1.078-1.763-1.078-3.023v-.266c0-.84.16-1.586.477-2.242.323-.66.77-1.177 1.343-1.547.58-.375 1.204-.562 1.875-.562 1.1 0 1.954.362 2.563 1.086s.914 1.76.914 3.11v.602h-5.727c.02.833.263 1.508.727 2.023.47.51 1.062.766 1.78.766.51 0 .943-.104 1.297-.312s.664-.484.93-.828l.883.688c-.71 1.09-1.77 1.633-3.188 1.633zm-.18-7.578a1.92 1.92 0 0 0-1.468.641c-.396.422-.64 1.016-.735 1.78h4.235v-.11c-.042-.734-.24-1.302-.594-1.703-.354-.406-.833-.61-1.438-.61zm16.6 5.43l1.625-6.46h1.445L310.742 48h-1.172l-2.054-6.406-2 6.406h-1.172l-2.453-8.453h1.437l1.664 6.328 1.97-6.328h1.164l2.008 6.46zm4.164-2.312c0-.828.16-1.573.484-2.234s.78-1.172 1.36-1.53 1.247-.54 1.992-.54c1.15 0 2.08.398 2.79 1.195s1.07 1.857 1.07 3.18v.102c0 .823-.16 1.563-.476 2.22a3.56 3.56 0 0 1-1.352 1.523c-.583.365-1.255.547-2.016.547-1.145 0-2.075-.398-2.79-1.195-.708-.797-1.062-1.852-1.062-3.164v-.102zm1.453.172c0 .938.216 1.7.648 2.258.438.568 1.02.852 1.75.852.735 0 1.318-.286 1.75-.86.433-.578.65-1.385.65-2.422 0-.927-.22-1.677-.664-2.25-.438-.578-1.02-.867-1.75-.867-.714 0-1.29.284-1.727.852s-.656 1.38-.656 2.438zm12.14-3.023a4.33 4.33 0 0 0-.711-.055c-.948 0-1.59.404-1.93 1.21v6h-1.445v-8.453h1.406l.023.977c.474-.755 1.146-1.133 2.016-1.133.28 0 .495.037.64.11v1.344zm3.695 3.242l-.906.945V48h-1.446V36h1.446v7.258l.773-.93 2.633-2.78h1.758l-3.29 3.53L336.227 48h-1.696l-2.945-3.914zm7.32 3.914h-1.445v-8.453h1.445V48zm-1.562-10.695a.87.87 0 0 1 .211-.594c.146-.16.36-.242.64-.242s.495.08.64.242.22.36.22.594-.073.43-.22.586-.36.234-.64.234-.494-.078-.64-.234a.84.84 0 0 1-.211-.586zm5.25 2.242l.047 1.063c.645-.812 1.49-1.22 2.53-1.22 1.786 0 2.687 1.008 2.703 3.023V48h-1.445v-5.594c-.006-.61-.146-1.06-.422-1.352-.27-.292-.696-.437-1.274-.437-.468 0-.88.125-1.234.375s-.63.578-.828.984V48h-1.445v-8.453h1.367zm7.117 4.156c0-1.318.305-2.365.914-3.14.61-.78 1.417-1.172 2.422-1.172 1.03 0 1.836.365 2.414 1.094l.07-.937h1.32v8.25c0 1.094-.326 1.956-.977 2.586s-1.516.945-2.61.945c-.6 0-1.206-.13-1.79-.39s-1.03-.617-1.336-1.07l.75-.867c.62.766 1.377 1.148 2.273 1.148.703 0 1.25-.198 1.64-.594s.593-.953.593-1.672v-.727c-.578.667-1.367 1-2.367 1-.99 0-1.79-.398-2.406-1.195-.61-.797-.914-1.883-.914-3.258zm1.453.164c0 .953.195 1.703.586 2.25.39.542.938.813 1.64.813.91 0 1.58-.414 2.007-1.242v-3.86c-.442-.807-1.106-1.21-1.992-1.21-.703 0-1.252.273-1.648.82s-.594 1.357-.594 2.43zm11.46-.172c0-.828.16-1.573.484-2.234.33-.66.782-1.172 1.36-1.53.583-.36 1.247-.54 1.992-.54 1.15 0 2.08.398 2.79 1.195.714.797 1.07 1.857 1.07 3.18v.102c0 .823-.16 1.563-.476 2.22a3.56 3.56 0 0 1-1.352 1.523c-.583.365-1.255.547-2.015.547-1.146 0-2.076-.398-2.79-1.195s-1.063-1.852-1.063-3.164v-.102zm1.453.172c0 .938.216 1.7.65 2.258s1.02.852 1.75.852 1.317-.286 1.75-.86c.432-.578.648-1.385.648-2.422 0-.927-.22-1.677-.664-2.25-.438-.578-1.02-.867-1.75-.867-.714 0-1.29.284-1.727.852s-.656 1.38-.656 2.438zm9.422-4.32l.047 1.063c.646-.812 1.49-1.22 2.53-1.22 1.787 0 2.688 1.008 2.703 3.023V48h-1.445v-5.594c-.005-.61-.146-1.06-.422-1.352s-.695-.437-1.273-.437c-.47 0-.88.125-1.235.375s-.63.578-.828.984V48h-1.445v-8.453h1.367zm7.492 7.695c0-.25.073-.458.22-.625s.375-.25.672-.25.52.083.672.25.234.375.234.625a.83.83 0 0 1-.234.602c-.15.16-.375.242-.672.242s-.52-.08-.672-.242-.22-.362-.22-.602zm4.22 0c0-.25.073-.458.22-.625s.375-.25.672-.25.52.083.67.25c.157.167.235.375.235.625 0 .24-.078.44-.235.602-.15.16-.375.242-.67.242s-.52-.08-.672-.242-.22-.362-.22-.602zm4.22 0c0-.25.073-.458.218-.625.15-.167.375-.25.672-.25s.52.083.672.25a.88.88 0 0 1 .235.625c0 .24-.08.44-.235.602s-.375.242-.672.242-.52-.08-.672-.242c-.145-.162-.218-.362-.218-.602z"/><circle r="3" transform="matrix(0 1 1 0 762 718)"/></g><path d="M762 773v-54.64" class="C D"/><g class="B"><path d="M692.547 784.625l3.72 9.28 3.718-9.28h1.946V796h-1.5v-4.43l.14-4.78-3.734 9.21h-1.148l-3.727-9.188.148 4.758V796h-1.5v-11.375h1.938zM709.57 796c-.083-.167-.15-.464-.203-.89-.672.698-1.474 1.047-2.406 1.047-.833 0-1.518-.234-2.055-.703-.53-.474-.797-1.073-.797-1.797 0-.88.334-1.562 1-2.047.672-.49 1.615-.734 2.83-.734h1.406v-.664c0-.505-.15-.906-.453-1.203-.302-.302-.748-.453-1.336-.453-.516 0-.948.13-1.297.4s-.524.576-.524.946h-1.453c0-.422.15-.83.446-1.22.302-.396.708-.708 1.218-.938.516-.23 1.08-.343 1.696-.343.974 0 1.737.244 2.29.734.552.484.838 1.154.86 2.008v3.9c0 .776.1 1.394.297 1.852V796h-1.516zm-2.398-1.102c.453 0 .883-.117 1.29-.35s.7-.54.883-.914v-1.735h-1.133c-1.77 0-2.656.52-2.656 1.555 0 .453.15.807.453 1.063s.7.382 1.164.382zm9.97-6.054c-.22-.037-.456-.055-.71-.055-.948 0-1.59.404-1.93 1.21v6h-1.445v-8.453h1.406l.023.976c.474-.755 1.146-1.132 2.016-1.132.28 0 .495.036.64.11v1.344zm3.695 3.242l-.906.945V796h-1.446v-12h1.446v7.258l.773-.93 2.633-2.78h1.758l-3.29 3.53 3.672 4.922h-1.696l-2.945-3.914zm11.68-6.586v2.047h1.578v1.117h-1.578v5.242c0 .34.07.594.21.766s.38.25.718.25c.167 0 .396-.03.688-.094V796c-.38.104-.75.156-1.1.156-.645 0-1.132-.195-1.46-.586s-.492-.945-.492-1.664v-5.242h-1.54v-1.117h1.54V785.5h1.446zm4.843 10.5h-1.445v-8.453h1.445V796zm-1.562-10.695a.87.87 0 0 1 .211-.594c.146-.162.36-.242.64-.242s.495.08.64.242a.85.85 0 0 1 .219.594c0 .234-.073.43-.22.586s-.36.234-.64.234-.494-.078-.64-.234-.21-.352-.21-.586zm5.242 2.242l.04.937c.62-.73 1.456-1.093 2.508-1.093 1.182 0 1.987.453 2.414 1.36.28-.406.646-.734 1.094-.984s.987-.375 1.6-.375c1.854 0 2.797.98 2.828 2.945V796h-1.445v-5.578c0-.604-.138-1.055-.414-1.352-.276-.302-.74-.453-1.39-.453-.536 0-.98.162-1.335.485-.355.317-.56.747-.618 1.29V796h-1.453v-5.54c0-1.23-.6-1.844-1.805-1.844-.947 0-1.596.404-1.945 1.21V796h-1.445v-8.453h1.367zm16.18 8.61c-1.146 0-2.078-.375-2.797-1.125s-1.078-1.763-1.078-3.023v-.266c0-.838.16-1.586.476-2.242.323-.66.77-1.177 1.344-1.547a3.38 3.38 0 0 1 1.875-.562c1.1 0 1.953.362 2.563 1.086s.914 1.76.914 3.11v.602h-5.727c.02.833.263 1.507.727 2.023.468.5 1.062.766 1.78.766.5 0 .943-.105 1.297-.313a3.24 3.24 0 0 0 .929-.828l.883.687c-.708 1.09-1.77 1.633-3.187 1.633zm-.18-7.578c-.583 0-1.073.214-1.47.64-.396.422-.64 1.015-.734 1.78h4.234v-.11c-.04-.735-.24-1.302-.593-1.703-.355-.407-.834-.6-1.438-.6zM771.383 796c-.084-.167-.15-.464-.203-.89-.672.698-1.474 1.047-2.407 1.047-.833 0-1.518-.234-2.054-.703s-.797-1.073-.797-1.797c0-.88.333-1.562 1-2.047s1.614-.734 2.828-.734h1.406v-.664c0-.505-.15-.906-.453-1.203-.302-.302-.747-.453-1.336-.453-.515 0-.948.13-1.297.4s-.523.576-.523.946h-1.453c0-.422.148-.83.445-1.22a3.09 3.09 0 0 1 1.219-.938c.515-.23 1.08-.343 1.695-.343.974 0 1.737.244 2.29.734.552.484.84 1.154.86 2.008v3.9c0 .776.1 1.394.296 1.852V796h-1.515zm-2.4-1.102a2.54 2.54 0 0 0 1.289-.351c.407-.235.7-.54.883-.914v-1.735h-1.133c-1.77 0-2.656.52-2.656 1.555 0 .453.15.807.453 1.063s.7.382 1.164.382zm10.805-1.14c0-.39-.148-.693-.445-.906-.292-.22-.805-.407-1.54-.563-.73-.156-1.3-.344-1.743-.562-.427-.22-.744-.48-.953-.782-.203-.302-.304-.66-.304-1.078 0-.693.29-1.278.875-1.758s1.338-.718 2.25-.718c.958 0 1.734.247 2.328.742a2.35 2.35 0 0 1 .898 1.898h-1.453c0-.396-.17-.737-.508-1.023-.333-.287-.755-.43-1.265-.43-.526 0-.938.115-1.235.344a1.08 1.08 0 0 0-.445.898c0 .35.138.612.414.79s.774.347 1.492.508c.724.162 1.3.354 1.758.578s.78.495.992.813c.22.312.328.695.328 1.148 0 .755-.302 1.362-.906 1.82-.604.453-1.388.68-2.35.68-.678 0-1.276-.12-1.797-.36s-.93-.573-1.227-1a2.45 2.45 0 0 1-.437-1.399h1.445c.026.485.22.87.578 1.157.365.28.844.422 1.438.422.546 0 .984-.1 1.312-.33.333-.224.5-.52.5-.9zm14.453-1.89c0 1.292-.297 2.33-.9 3.117s-1.39 1.172-2.39 1.172c-1.068 0-1.893-.377-2.477-1.133l-.07.977h-1.328v-12h1.445v4.477c.584-.724 1.388-1.086 2.414-1.086s1.83.388 2.414 1.164c.59.776.883 1.838.883 3.187v.125zm-1.445-.164c0-.984-.2-1.745-.57-2.28s-.928-.805-1.64-.805c-.953 0-1.638.443-2.055 1.328v3.657c.443.885 1.133 1.328 2.07 1.328.692 0 1.23-.27 1.617-.805s.578-1.344.578-2.422zM797.64 796h-1.446v-8.453h1.446V796zm-1.563-10.695a.87.87 0 0 1 .211-.594c.146-.162.36-.242.64-.242s.494.08.64.242a.85.85 0 0 1 .219.594c0 .234-.073.43-.22.586s-.36.234-.64.234-.495-.078-.64-.234-.21-.352-.21-.586zM801.53 796h-1.445v-12h1.445v12zm3.89 0h-1.445v-12h1.445v12zm7.54 0c-.083-.167-.15-.464-.203-.89-.672.698-1.474 1.047-2.406 1.047-.834 0-1.52-.234-2.055-.703s-.797-1.073-.797-1.797c0-.88.333-1.562 1-2.047s1.615-.734 2.828-.734h1.406v-.664c0-.505-.15-.906-.453-1.203-.302-.302-.747-.453-1.336-.453-.515 0-.948.13-1.297.4s-.523.576-.523.946h-1.453c0-.422.148-.83.445-1.22.302-.396.71-.708 1.22-.938.516-.23 1.08-.343 1.695-.343.974 0 1.737.244 2.29.734.552.484.84 1.154.86 2.008v3.9c0 .776.1 1.394.297 1.852V796h-1.516zm-2.4-1.102c.454 0 .883-.117 1.3-.35s.7-.54.882-.914v-1.735h-1.132c-1.77 0-2.657.52-2.657 1.555 0 .453.15.807.453 1.063s.69.382 1.164.382zm13.04-3.03c0 1.292-.297 2.33-.89 3.117s-1.39 1.172-2.39 1.172c-1.067 0-1.893-.377-2.476-1.133l-.07.977h-1.328v-12h1.446v4.477c.583-.724 1.388-1.086 2.414-1.086s1.83.388 2.414 1.164.883 1.838.883 3.187v.125zm-1.446-.164c0-.984-.2-1.745-.57-2.28s-.927-.805-1.64-.805c-.953 0-1.638.443-2.054 1.328v3.657c.442.885 1.132 1.328 2.07 1.328.693 0 1.232-.27 1.617-.805s.578-1.344.578-2.422zM827 796h-1.445v-12H827v12zm5.828.156c-1.146 0-2.078-.375-2.797-1.125s-1.078-1.763-1.078-3.023v-.266c0-.838.16-1.586.477-2.242.323-.66.77-1.177 1.343-1.547.58-.375 1.204-.562 1.875-.562 1.1 0 1.954.362 2.563 1.086s.914 1.76.914 3.11v.602h-5.727c.02.833.263 1.507.727 2.023.47.5 1.063.766 1.78.766.51 0 .943-.105 1.297-.313s.664-.484.93-.828l.883.687c-.71 1.09-1.77 1.633-3.188 1.633zm-.18-7.578a1.92 1.92 0 0 0-1.468.641c-.396.422-.64 1.015-.735 1.78h4.235v-.11c-.042-.735-.24-1.302-.594-1.703-.354-.407-.833-.6-1.438-.6z"/><circle r="3" transform="matrix(0 1 1 0 1029 717)"/></g><path d="M1029 773v-58.03" class="C D"/><g class="B"><path d="M912.875 792.39c-.14 1.203-.586 2.132-1.336 2.79-.745.65-1.737.976-2.977.976-1.343 0-2.42-.482-3.234-1.445-.807-.964-1.21-2.253-1.21-3.867v-1.094c0-1.057.188-1.987.563-2.79s.916-1.417 1.61-1.844 1.495-.648 2.406-.648c1.21 0 2.177.338 2.907 1.015.73.672 1.153 1.605 1.273 2.797h-1.508c-.13-.906-.414-1.562-.85-1.97s-1.04-.61-1.82-.61c-.958 0-1.71.354-2.257 1.063s-.813 1.716-.813 3.023v1.102c0 1.234.258 2.216.773 2.945s1.237 1.094 2.164 1.094c.834 0 1.472-.188 1.915-.563s.744-1.04.9-1.976h1.508zm1.445-.696c0-.828.162-1.573.485-2.234.328-.662.78-1.172 1.36-1.53s1.247-.54 1.992-.54c1.15 0 2.08.398 2.79 1.195.714.797 1.07 1.857 1.07 3.18v.1c0 .823-.16 1.563-.477 2.22-.312.65-.763 1.16-1.35 1.523s-1.256.547-2.016.547c-1.146 0-2.076-.398-2.79-1.195s-1.063-1.852-1.063-3.164v-.102zm1.453.172c0 .938.217 1.7.65 2.258s1.02.852 1.75.852 1.318-.287 1.75-.86.648-1.385.648-2.422c0-.927-.22-1.677-.664-2.25-.437-.578-1.02-.867-1.75-.867a2.07 2.07 0 0 0-1.726.852c-.438.567-.657 1.38-.657 2.437zm9.422-4.32l.047 1.062a3.08 3.08 0 0 1 2.531-1.218c1.787 0 2.688 1.007 2.704 3.023V796h-1.446v-5.594c-.005-.61-.146-1.06-.422-1.35-.27-.292-.695-.438-1.273-.438-.47 0-.88.125-1.234.375a2.54 2.54 0 0 0-.829.985V796h-1.445v-8.453h1.367zm9.422-2.047v2.047h1.578v1.117h-1.578v5.242c0 .34.07.594.21.766s.38.25.72.25c.167 0 .396-.03.687-.094V796c-.38.104-.75.156-1.11.156-.646 0-1.133-.195-1.46-.586s-.492-.945-.492-1.664v-5.242h-1.54v-1.117h1.54V785.5h1.445zm4.844 10.5h-1.445v-8.453h1.445V796zm-1.563-10.695c0-.235.07-.433.21-.594.146-.162.36-.242.64-.242s.495.08.64.242.218.36.218.594a.83.83 0 0 1-.218.586c-.146.156-.36.234-.64.234s-.495-.078-.64-.234c-.14-.157-.21-.352-.21-.586zm5.25 2.242l.047 1.062a3.08 3.08 0 0 1 2.532-1.218c1.786 0 2.687 1.007 2.703 3.023V796h-1.446v-5.594c-.005-.61-.145-1.06-.422-1.35-.27-.292-.695-.438-1.273-.438-.47 0-.88.125-1.234.375s-.63.578-.828.985V796h-1.446v-8.453h1.367zm12.68 7.617c-.562.662-1.388.992-2.476.992-.9 0-1.59-.26-2.063-.78-.47-.526-.706-1.302-.71-2.328v-5.5h1.445v5.46c0 1.28.52 1.922 1.563 1.922 1.104 0 1.838-.412 2.203-1.235v-6.148h1.445V796h-1.375l-.03-.836zm7.117.992c-1.146 0-2.078-.375-2.797-1.125s-1.078-1.763-1.078-3.023v-.266c0-.838.16-1.586.477-2.242s.77-1.177 1.344-1.547a3.38 3.38 0 0 1 1.875-.562c1.1 0 1.953.362 2.562 1.086s.914 1.76.914 3.11v.602h-5.726c.02.833.263 1.507.726 2.023.47.5 1.063.766 1.78.766.51 0 .943-.105 1.297-.313s.664-.484.93-.828l.883.687c-.71 1.09-1.77 1.633-3.188 1.633zm-.18-7.578a1.92 1.92 0 0 0-1.469.641c-.396.422-.64 1.015-.735 1.78h4.235v-.11c-.042-.735-.24-1.302-.594-1.703-.354-.407-.833-.6-1.437-.6zm11.086-3.078v2.047h1.578v1.117h-1.578v5.242c0 .34.07.594.2.766s.38.25.72.25c.167 0 .396-.03.688-.094V796c-.38.104-.75.156-1.1.156-.645 0-1.132-.195-1.46-.586s-.492-.945-.492-1.664v-5.242h-1.54v-1.117h1.54V785.5h1.446zm4.843 10.5h-1.445v-8.453h1.445V796zm-1.562-10.695a.87.87 0 0 1 .211-.594c.146-.162.36-.242.64-.242s.495.08.64.242a.85.85 0 0 1 .219.594c0 .234-.073.43-.22.586s-.36.234-.64.234-.494-.078-.64-.234-.21-.352-.21-.586zm5.242 2.242l.04.937c.62-.73 1.456-1.093 2.508-1.093 1.182 0 1.987.453 2.414 1.36.28-.406.646-.734 1.094-.984.453-.25.987-.375 1.6-.375 1.854 0 2.797.98 2.828 2.945V796h-1.445v-5.578c0-.604-.138-1.055-.414-1.352-.276-.302-.74-.453-1.39-.453-.536 0-.98.162-1.336.485-.354.317-.56.747-.617 1.29V796h-1.453v-5.54c0-1.23-.6-1.844-1.805-1.844-.947 0-1.596.404-1.945 1.21V796h-1.445v-8.453h1.367zm16.18 8.61c-1.146 0-2.078-.375-2.797-1.125s-1.078-1.763-1.078-3.023v-.266c0-.838.16-1.586.476-2.242.323-.66.77-1.177 1.344-1.547a3.38 3.38 0 0 1 1.875-.562c1.1 0 1.955.362 2.565 1.086s.9 1.76.9 3.11v.602h-5.725c.02.833.263 1.507.727 2.023.468.5 1.062.766 1.78.766.5 0 .943-.105 1.297-.313s.66-.484.93-.828l.88.687c-.7 1.09-1.77 1.633-3.185 1.633zm-.18-7.578c-.583 0-1.073.214-1.47.64-.396.422-.64 1.015-.734 1.78h4.238v-.11c-.05-.735-.24-1.302-.598-1.703-.354-.407-.833-.6-1.437-.6zm9.245.266c-.22-.037-.46-.055-.7-.055-.95 0-1.6.404-1.93 1.21v6h-1.45v-8.453h1.4l.02.976c.47-.755 1.15-1.132 2.02-1.132.28 0 .5.036.64.11v1.344zm12.8 5.164l1.62-6.46h1.45l-2.46 8.453h-1.18l-2.05-6.406-2 6.406h-1.17l-2.46-8.453h1.44l1.67 6.328 1.96-6.328h1.17l2 6.46zm6.1 1.992h-1.44v-8.453h1.44V796zm-1.56-10.695c0-.235.07-.433.2-.594.15-.162.36-.242.64-.242s.5.08.64.242c.15.16.22.36.22.594a.81.81 0 0 1-.22.586c-.14.156-.36.234-.64.234s-.5-.078-.64-.234c-.14-.157-.2-.352-.2-.586zm5.84.195v2.047h1.58v1.117h-1.58v5.242c0 .34.08.594.22.766s.38.25.7.25a3.44 3.44 0 0 0 .69-.094V796c-.38.104-.75.156-1.1.156-.64 0-1.13-.195-1.46-.586s-.5-.945-.5-1.664v-5.242h-1.54v-1.117h1.54V785.5h1.44zm4.72 3.07c.64-.786 1.48-1.18 2.5-1.18 1.8 0 2.7 1.007 2.7 3.023V796h-1.45v-5.594c0-.61-.14-1.06-.42-1.35-.27-.292-.7-.438-1.27-.438-.47 0-.88.125-1.24.375a2.6 2.6 0 0 0-.83.985V796h-1.44v-12h1.44v4.57zm10.96 3.125c0-.828.16-1.573.48-2.234.33-.662.78-1.172 1.36-1.53s1.25-.54 2-.54c1.15 0 2.08.398 2.8 1.195.72.797 1.07 1.857 1.07 3.18v.1c0 .823-.16 1.563-.47 2.22-.32.65-.77 1.16-1.36 1.523-.58.365-1.25.547-2 .547-1.15 0-2.08-.398-2.8-1.195s-1.06-1.852-1.06-3.164v-.102zm1.45.172c0 .938.22 1.7.65 2.258.44.568 1.02.852 1.75.852s1.32-.287 1.75-.86.65-1.385.65-2.422c0-.927-.22-1.677-.67-2.25-.44-.578-1.02-.867-1.75-.867-.7 0-1.3.284-1.72.852-.44.567-.66 1.38-.66 2.437zm9.42-4.32l.05 1.062a3.07 3.07 0 0 1 2.53-1.218c1.8 0 2.7 1.007 2.7 3.023V796h-1.44v-5.594c-.01-.61-.15-1.06-.42-1.35-.28-.292-.7-.438-1.28-.438a2.06 2.06 0 0 0-1.23.375c-.36.25-.63.578-.83.985V796h-1.45v-8.453h1.37zm10.97 8.61c-1.15 0-2.08-.375-2.8-1.125s-1.07-1.763-1.07-3.023v-.266c0-.838.15-1.586.47-2.242a3.7 3.7 0 0 1 1.35-1.547 3.35 3.35 0 0 1 1.87-.562c1.1 0 1.95.362 2.56 1.086s.92 1.76.92 3.11v.602h-5.73c.02.833.26 1.507.73 2.023a2.31 2.31 0 0 0 1.78.766c.5 0 .94-.105 1.3-.313.35-.208.66-.484.92-.828l.9.687c-.7 1.09-1.77 1.633-3.2 1.633zm-.18-7.578c-.58 0-1.07.214-1.47.64-.4.422-.64 1.015-.73 1.78h4.23v-.11c-.04-.735-.24-1.302-.6-1.703-.36-.407-.84-.6-1.44-.6zm12.52 6.4a2.1 2.1 0 0 0 1.35-.469c.38-.313.6-.703.64-1.172h1.37c-.03.484-.2.945-.5 1.383a3.3 3.3 0 0 1-1.24 1.047 3.52 3.52 0 0 1-1.62.39c-1.15 0-2.07-.383-2.75-1.148-.68-.77-1.02-1.823-1.02-3.156v-.243c0-.823.15-1.554.45-2.195.3-.64.74-1.138 1.3-1.492.57-.354 1.24-.53 2-.53.95 0 1.73.283 2.36.85s.96 1.305 1 2.21h-1.37c-.04-.547-.25-.995-.63-1.344-.37-.354-.82-.53-1.37-.53-.74 0-1.3.266-1.7.797s-.6 1.29-.6 2.29v.274c0 .973.2 1.723.6 2.25s.97.79 1.72.79zm6.55 1.023h-1.44v-12h1.44v12zm3.9 0h-1.44v-8.453h1.44V796zm-1.56-10.695c0-.235.07-.433.2-.594.15-.162.36-.242.64-.242s.5.08.64.242c.15.16.22.36.22.594a.81.81 0 0 1-.22.586c-.14.156-.36.234-.64.234s-.5-.078-.64-.234c-.14-.157-.2-.352-.2-.586zm7.27 9.672c.52 0 .97-.157 1.35-.47.4-.313.6-.703.64-1.172h1.37c-.02.484-.2.945-.5 1.383s-.72.786-1.23 1.047a3.53 3.53 0 0 1-1.63.39c-1.15 0-2.07-.383-2.75-1.148-.67-.77-1-1.823-1-3.156v-.243c0-.823.15-1.554.45-2.195s.73-1.138 1.3-1.492c.56-.354 1.23-.53 2-.53.95 0 1.74.283 2.36.85.63.568.97 1.305 1 2.21h-1.37c-.04-.547-.25-.995-.62-1.344-.37-.354-.83-.53-1.38-.53-.73 0-1.3.266-1.7.797-.4.526-.6 1.29-.6 2.29v.274c0 .973.2 1.723.6 2.25s.98.79 1.72.79zm7.35-2.89l-.9.945V796h-1.45v-12h1.45v7.258l.77-.93 2.64-2.78h1.75l-3.3 3.53 3.68 4.922h-1.7l-2.94-3.914z"/><circle r="3" transform="matrix(0 1 1 0 371 718)"/></g><path d="M371 773v-56" class="C D"/><path d="M319.97 790.742h-4.93v4.03h5.727V796h-7.227v-11.375h7.15v1.234h-5.65v3.657h4.93v1.226zm1.93.96c0-1.297.308-2.338.922-3.125a2.91 2.91 0 0 1 2.414-1.187c1 0 1.774.338 2.352 1.015V784h1.445v12h-1.328l-.07-.906c-.578.708-1.383 1.062-2.414 1.062-.98 0-1.78-.4-2.4-1.203-.614-.802-.922-1.85-.922-3.14v-.11zm1.446.164c0 .96.198 1.71.594 2.25s.942.813 1.64.813c.917 0 1.586-.412 2.008-1.235v-3.883c-.432-.796-1.096-1.195-1.992-1.195-.71 0-1.26.274-1.656.82s-.594 1.356-.594 2.43zm9.508 4.133h-1.446v-8.453h1.446V796zm-1.563-10.695a.87.87 0 0 1 .211-.594c.146-.162.36-.242.64-.242s.494.08.64.242a.85.85 0 0 1 .219.594c0 .234-.073.43-.22.586s-.36.234-.64.234-.495-.078-.64-.234-.21-.352-.21-.586zm5.844.195v2.047h1.578v1.117h-1.578v5.242c0 .34.07.594.21.766s.38.25.718.25c.167 0 .396-.03.688-.094V796c-.38.104-.75.156-1.11.156-.646 0-1.133-.195-1.46-.586s-.492-.945-.492-1.664v-5.242h-1.54v-1.117h1.54V785.5h1.445zm9.203 0v2.047h1.578v1.117h-1.578v5.242c0 .34.07.594.21.766s.38.25.72.25a3.47 3.47 0 0 0 .687-.094V796c-.38.104-.75.156-1.11.156-.646 0-1.133-.195-1.46-.586s-.492-.945-.492-1.664v-5.242h-1.54v-1.117h1.54V785.5h1.445zm7.36 3.344a4.26 4.26 0 0 0-.711-.055c-.948 0-1.59.404-1.93 1.21v6h-1.446v-8.453h1.407l.023.976c.474-.755 1.146-1.132 2.016-1.132.28 0 .494.036.64.11v1.344zm6.243 7.156c-.084-.167-.152-.464-.204-.89-.672.698-1.474 1.047-2.406 1.047-.833 0-1.518-.234-2.055-.703-.53-.474-.796-1.073-.796-1.797 0-.88.333-1.562 1-2.047s1.614-.734 2.828-.734h1.406v-.664c0-.505-.15-.906-.453-1.203-.302-.302-.748-.453-1.336-.453-.516 0-.948.13-1.297.4s-.523.576-.523.946h-1.454c0-.422.15-.83.446-1.22.302-.396.708-.708 1.218-.938.516-.23 1.08-.343 1.696-.343.974 0 1.737.244 2.29.734.552.484.838 1.154.86 2.008v3.9c0 .776.1 1.394.297 1.852V796h-1.515zm-2.4-1.102c.453 0 .883-.117 1.29-.35s.7-.54.883-.914v-1.735h-1.133c-1.77 0-2.656.52-2.656 1.555 0 .453.15.807.453 1.063s.7.382 1.164.382zm9.273.08c.516 0 .967-.157 1.352-.47s.6-.703.64-1.172h1.367c-.026.484-.193.945-.5 1.383s-.72.786-1.234 1.047-1.053.4-1.626.4c-1.15 0-2.067-.383-2.75-1.148-.677-.77-1.015-1.823-1.015-3.156v-.243c0-.823.15-1.554.453-2.195s.734-1.138 1.297-1.492 1.237-.53 2.008-.53c.948 0 1.734.283 2.36.85s.966 1.305 1.008 2.21h-1.367c-.042-.547-.25-.995-.625-1.344a1.91 1.91 0 0 0-1.375-.531c-.735 0-1.305.266-1.71.797s-.602 1.29-.602 2.29v.274c0 .973.2 1.723.602 2.25s.974.79 1.718.79zm7.344-2.89l-.906.945V796h-1.445v-12h1.445v7.258l.773-.93 2.633-2.78h1.758l-3.29 3.53 3.672 4.922h-1.695l-2.946-3.914zm9.102 4.07c-1.146 0-2.078-.375-2.797-1.125s-1.078-1.763-1.078-3.023v-.266c0-.838.16-1.586.476-2.242.323-.66.77-1.177 1.344-1.547a3.38 3.38 0 0 1 1.875-.562c1.1 0 1.953.362 2.563 1.086s.914 1.76.914 3.11v.602h-5.727c.02.833.263 1.507.727 2.023.468.5 1.062.766 1.78.766.5 0 .943-.105 1.297-.313a3.24 3.24 0 0 0 .929-.828l.883.687c-.708 1.09-1.77 1.633-3.187 1.633zm-.18-7.578c-.583 0-1.073.214-1.47.64-.395.422-.64 1.015-.734 1.78h4.234v-.11c-.04-.735-.24-1.302-.593-1.703-.355-.407-.834-.6-1.438-.6zm4.805 3.125c0-1.297.307-2.338.922-3.125s1.42-1.187 2.414-1.187c.99 0 1.773.338 2.35 1.015V784h1.446v12h-1.328l-.07-.906c-.578.708-1.383 1.062-2.414 1.062-.98 0-1.78-.4-2.398-1.203s-.922-1.85-.922-3.14v-.11zm1.445.164c0 .96.198 1.71.594 2.25s.943.813 1.64.813c.917 0 1.586-.412 2.008-1.235v-3.883c-.432-.796-1.096-1.195-1.992-1.195-.708 0-1.26.274-1.656.82s-.594 1.356-.594 2.43zm13.867-6.367v2.047h1.578v1.117h-1.578v5.242c0 .34.07.594.21.766s.38.25.72.25c.167 0 .396-.03.687-.094V796c-.38.104-.75.156-1.11.156-.646 0-1.133-.195-1.46-.586s-.492-.945-.492-1.664v-5.242h-1.54v-1.117h1.54V785.5h1.445zm4.844 10.5h-1.445v-8.453h1.445V796zm-1.562-10.695a.87.87 0 0 1 .211-.594c.145-.162.36-.242.64-.242s.495.08.64.242a.85.85 0 0 1 .219.594c0 .234-.073.43-.22.586s-.36.234-.64.234-.495-.078-.64-.234-.21-.352-.21-.586zm5.242 2.242l.04.937c.62-.73 1.456-1.093 2.508-1.093 1.182 0 1.987.453 2.414 1.36.28-.406.646-.734 1.093-.984.454-.25.987-.375 1.602-.375 1.854 0 2.797.98 2.828 2.945V796h-1.445v-5.578c0-.604-.138-1.055-.414-1.352-.276-.302-.74-.453-1.39-.453-.536 0-.982.162-1.336.485-.354.317-.56.747-.617 1.29V796h-1.453v-5.54c0-1.23-.602-1.844-1.805-1.844-.948 0-1.596.404-1.945 1.21V796h-1.445v-8.453h1.367zm16.18 8.61c-1.145 0-2.078-.375-2.796-1.125s-1.08-1.763-1.08-3.023v-.266c0-.838.16-1.586.477-2.242s.77-1.177 1.344-1.547a3.38 3.38 0 0 1 1.875-.562c1.1 0 1.953.362 2.562 1.086s.914 1.76.914 3.11v.602h-5.726c.02.833.263 1.507.726 2.023.47.5 1.063.766 1.782.766.5 0 .942-.105 1.296-.313a3.23 3.23 0 0 0 .93-.828l.883.687c-.708 1.09-1.77 1.633-3.188 1.633zm-.18-7.578a1.92 1.92 0 0 0-1.469.641c-.396.422-.64 1.015-.734 1.78h4.234v-.11c-.042-.735-.24-1.302-.594-1.703-.354-.407-.833-.6-1.437-.6z" class="B"/></svg>